<svg width="41" height="40" viewBox="0 0 41 40" fill="none" xmlns="http://www.w3.org/2000/svg">
<g clip-path="url(#clip0_3600_3435)">
<path d="M22.2909 12.05L21.7321 8.18164C21.167 4.27984 24.1935 0.785391 28.1366 0.785391H32.8001C36.7415 0.785391 39.7681 4.27984 39.2038 8.18164L38.6442 12.0508" stroke="#4348A4" stroke-width="1.5" stroke-miterlimit="10" stroke-linecap="round" stroke-linejoin="round"/>
<path d="M24.2613 16.1777H23.0966C21.9131 16.1777 20.9531 15.219 20.9531 14.0355C20.9531 13.4438 21.1926 12.9073 21.5805 12.5195C21.9684 12.1315 22.5049 11.8921 23.0966 11.8921H24.2613" stroke="#4348A4" stroke-width="1.5" stroke-miterlimit="10" stroke-linecap="round" stroke-linejoin="round"/>
<path d="M36.6719 11.8921H37.8366C39.0201 11.8921 39.9801 12.8509 39.9801 14.0355C39.9801 14.6273 39.7406 15.1625 39.3527 15.5504C38.9648 15.9384 38.4283 16.1777 37.8366 16.1777H36.6719" stroke="#4348A4" stroke-width="1.5" stroke-miterlimit="10" stroke-linecap="round" stroke-linejoin="round"/>
<path d="M28.6504 16.0933C29.6536 17.0965 31.2801 17.0965 32.2834 16.0933" stroke="#4348A4" stroke-width="1.5" stroke-miterlimit="10" stroke-linecap="round" stroke-linejoin="round"/>
<path d="M28.8477 11.7972V13.0508" stroke="#4348A4" stroke-width="1.5" stroke-miterlimit="10" stroke-linecap="round" stroke-linejoin="round"/>
<path d="M32.0859 11.7972V13.0508" stroke="#4348A4" stroke-width="1.5" stroke-miterlimit="10" stroke-linecap="round" stroke-linejoin="round"/>
<path d="M36.6716 9.46568V15.6937C36.6716 19.1149 33.9352 21.9508 30.5141 21.9764C27.0655 22.0021 24.2617 19.2141 24.2617 15.7716V9.46568H24.9581C26.3062 9.46568 27.3991 8.37287 27.3991 7.02482C28.9483 9.03443 31.9798 9.03443 33.5291 7.02482C33.5291 8.37287 34.622 9.46568 35.97 9.46568H36.6664" stroke="#4348A4" stroke-width="1.5" stroke-miterlimit="10" stroke-linecap="round" stroke-linejoin="round"/>
<path d="M1.73438 12.6625V7.685C1.73438 3.76539 4.91172 0.587266 8.83141 0.587266H11.5712C15.4916 0.587266 18.6682 3.76539 18.6682 7.685V12.6641" stroke="#4348A4" stroke-width="1.5" stroke-miterlimit="10" stroke-linecap="round" stroke-linejoin="round"/>
<path d="M3.99656 11.8448H3.34516C2.79492 11.8448 2.29586 12.0678 1.93523 12.4285C1.57383 12.7891 1.35156 13.2889 1.35156 13.8392C1.35156 14.9398 2.24461 15.832 3.34516 15.832H4.00273" stroke="#4348A4" stroke-width="1.5" stroke-miterlimit="10" stroke-linecap="round" stroke-linejoin="round"/>
<path d="M16.4077 11.8448H17.0583C18.1597 11.8448 19.0527 12.737 19.0527 13.8392C19.0527 14.3895 18.8297 14.8877 18.4691 15.2484C18.1084 15.609 17.6086 15.832 17.0583 15.832H16.3984" stroke="#4348A4" stroke-width="1.5" stroke-miterlimit="10" stroke-linecap="round" stroke-linejoin="round"/>
<path d="M8.38672 11.5992V13.0039" stroke="#4348A4" stroke-width="1.5" stroke-miterlimit="10" stroke-linecap="round" stroke-linejoin="round"/>
<path d="M12.0156 11.5992V13.0039" stroke="#4348A4" stroke-width="1.5" stroke-miterlimit="10" stroke-linecap="round" stroke-linejoin="round"/>
<path d="M8.79062 9.23303C10.8023 9.9424 13.3828 10.2385 16.4063 9.2674V15.4885C16.4063 18.9096 13.6695 21.7455 10.2484 21.7713C6.8 21.7971 3.99609 19.0088 3.99609 15.5666V9.2674V6.13068C3.99609 6.13068 4.94531 7.23381 6.66875 8.24396" stroke="#4348A4" stroke-width="1.5" stroke-miterlimit="10" stroke-linecap="round" stroke-linejoin="round"/>
<path d="M8.34961 16.3933C9.37203 17.4158 11.0298 17.4158 12.0522 16.3933" stroke="#4348A4" stroke-width="1.5" stroke-miterlimit="10" stroke-linecap="round" stroke-linejoin="round"/>
<path d="M38.2692 29.8528L37.5076 29.7732C36.2456 31.9792 34.2718 33.6675 31.8699 34.5746C30.8908 34.9443 29.7972 34.4503 29.4274 33.471C29.0577 32.4919 29.5517 31.3983 30.5309 31.0285C31.5314 30.6507 32.4179 30.0652 33.1436 29.3176L32.9284 29.2952C31.9431 29.1923 31.4387 28.0614 32.0205 27.2597L35.1736 22.9139C35.7553 22.1122 36.9866 22.2408 37.3902 23.1453L39.5779 28.0487C39.9815 28.9533 39.2544 29.9556 38.2692 29.8528Z" stroke="#4348A4" stroke-width="1.5" stroke-miterlimit="10" stroke-linecap="round" stroke-linejoin="round"/>
<path d="M3.06298 29.8528L3.82454 29.7732C5.08657 31.9792 7.06032 33.6675 9.46219 34.5746C10.4413 34.9443 11.5349 34.4503 11.9048 33.471C12.2745 32.4919 11.7805 31.3983 10.8013 31.0285C9.80071 30.6507 8.91423 30.0652 8.18852 29.3176L8.40376 29.2952C9.38907 29.1923 9.89344 28.0614 9.31165 27.2597L6.15852 22.9139C5.57688 22.1122 4.34555 22.2408 3.94196 23.1453L1.75423 28.0487C1.35063 28.9533 2.07774 29.9556 3.06298 29.8528Z" stroke="#4348A4" stroke-width="1.5" stroke-miterlimit="10" stroke-linecap="round" stroke-linejoin="round"/>
<path d="M25.196 34.7945L28.6773 28.6313C29.3413 27.4555 28.9265 25.9648 27.7507 25.3008C26.5757 24.6367 25.0842 25.0516 24.4202 26.2273L20.8398 32.5672L19.0054 30.2C18.178 29.1336 16.6429 28.9391 15.5756 29.7664C14.5085 30.593 14.3148 32.1289 15.1413 33.1953L19.2288 38.468C19.6936 39.0672 20.4085 39.4141 21.1601 39.4141C21.2195 39.4141 21.2788 39.4125 21.3382 39.4078C22.1545 39.3484 22.8866 38.8844 23.289 38.1719L24.0499 36.8242" stroke="#4348A4" stroke-width="1.5" stroke-miterlimit="10" stroke-linecap="round" stroke-linejoin="round"/>
</g>
<defs>
<clipPath id="clip0_3600_3435">
<rect width="40" height="40" fill="white" transform="translate(0.666016)"/>
</clipPath>
</defs>
</svg>
