<svg width="40" height="40" viewBox="0 0 40 40" fill="none" xmlns="http://www.w3.org/2000/svg">
<path d="M36.875 13.75H29.225C30.436 12.1136 31.1401 10.1578 31.25 8.125C31.25 6.30164 30.5257 4.55295 29.2364 3.26364C27.947 1.97433 26.1984 1.25 24.375 1.25C22.5516 1.25 20.803 1.97433 19.5136 3.26364C18.2243 4.55295 17.5 6.30164 17.5 8.125C17.6099 10.1578 18.314 12.1136 19.525 13.75H8.75V9.375C8.75 8.87772 8.55246 8.40081 8.20083 8.04917C7.84919 7.69754 7.37228 7.5 6.875 7.5H5C4.00544 7.5 3.05161 7.89509 2.34835 8.59835C1.64509 9.30161 1.25 10.2554 1.25 11.25V35C1.25 35.1188 1.25 35.2438 1.25 35.3688C1.36691 36.3114 1.82765 37.1778 2.54388 37.8018C3.26011 38.4257 4.18144 38.7634 5.13125 38.75H36.875C37.3723 38.75 37.8492 38.5525 38.2008 38.2008C38.5525 37.8492 38.75 37.3723 38.75 36.875V15.625C38.75 15.1277 38.5525 14.6508 38.2008 14.2992C37.8492 13.9475 37.3723 13.75 36.875 13.75ZM24.375 2.5C25.8668 2.5 27.2976 3.09263 28.3525 4.14752C29.4074 5.20242 30 6.63316 30 8.125C30 12.0625 25.7062 16.1313 24.375 17.3062C23.0438 16.1313 18.75 12.0625 18.75 8.125C18.75 6.63316 19.3426 5.20242 20.3975 4.14752C21.4524 3.09263 22.8832 2.5 24.375 2.5ZM23.9875 18.6125C24.0978 18.6997 24.2344 18.7471 24.375 18.7471C24.5156 18.7471 24.6522 18.6997 24.7625 18.6125C26.0681 17.5349 27.2578 16.3242 28.3125 15H34.075L33.2687 17.0187L30.3938 18.1688C30.2551 18.2207 30.1394 18.3203 30.0673 18.4496C29.9952 18.579 29.9713 18.7297 30 18.875L30.5375 21.5625L28.125 23.0125L26.575 21.9812C26.4552 21.901 26.3114 21.8646 26.1679 21.8783C26.0244 21.892 25.89 21.9548 25.7875 22.0563L23.625 24.2375L21.7875 23.3188L21.25 21.1C21.2325 21.0167 21.1982 20.9379 21.1492 20.8683C21.1002 20.7987 21.0375 20.7399 20.9649 20.6954C20.8923 20.6509 20.8115 20.6218 20.7272 20.6096C20.643 20.5975 20.5571 20.6028 20.475 20.625L18.5 21.1188L17.4562 18.5C17.4024 18.3567 17.2948 18.2401 17.1562 18.175L14.925 17.0563L14.5125 15H20.4375C21.4922 16.3242 22.6819 17.5349 23.9875 18.6125ZM5 8.75H6.875C7.04076 8.75 7.19973 8.81585 7.31694 8.93306C7.43415 9.05027 7.5 9.20924 7.5 9.375V30.625C7.5 30.7908 7.43415 30.9497 7.31694 31.0669C7.19973 31.1842 7.04076 31.25 6.875 31.25H5C4.07741 31.2504 3.18733 31.5908 2.5 32.2062V11.25C2.5 10.587 2.76339 9.95107 3.23223 9.48223C3.70107 9.01339 4.33696 8.75 5 8.75ZM2.5 35.25C2.46334 34.9023 2.50002 34.5507 2.60767 34.2181C2.71533 33.8854 2.89157 33.5791 3.125 33.3188C3.36212 33.0578 3.65176 32.8499 3.97491 32.7088C4.29806 32.5677 4.6474 32.4965 5 32.5H6.875C7.37228 32.5 7.84919 32.3025 8.20083 31.9508C8.55246 31.5992 8.75 31.1223 8.75 30.625V15H13.2375L13.75 17.625C13.7692 17.7172 13.8089 17.8039 13.8663 17.8785C13.9236 17.9532 13.9971 18.014 14.0813 18.0562L16.3688 19.2L17.5312 22.1062C17.5872 22.2466 17.6921 22.3619 17.8266 22.4308C17.961 22.4998 18.1159 22.5177 18.2625 22.4813L20.1375 22.0062L20.6125 23.8812C20.6343 23.9683 20.6746 24.0497 20.7307 24.1198C20.7868 24.1899 20.8573 24.2471 20.9375 24.2875L23.4375 25.5375C23.531 25.5964 23.6395 25.6268 23.75 25.625C23.8323 25.6255 23.9138 25.6097 23.9899 25.5786C24.0661 25.5475 24.1353 25.5017 24.1937 25.4437L26.3313 23.3063L27.7812 24.2688C27.8806 24.3308 27.9954 24.3638 28.1125 24.3638C28.2296 24.3638 28.3444 24.3308 28.4437 24.2688L31.5687 22.3938C31.6793 22.3305 31.7679 22.2349 31.8227 22.1198C31.8774 22.0048 31.8957 21.8757 31.875 21.75L31.35 19.1375L33.9938 18.0812C34.0728 18.0498 34.1447 18.0026 34.2049 17.9424C34.2651 17.8822 34.3123 17.8103 34.3438 17.7313L35.425 15H36.875C37.0408 15 37.1997 15.0658 37.3169 15.1831C37.4342 15.3003 37.5 15.4592 37.5 15.625V27.3625L35.125 26.875C35.0181 26.85 34.9069 26.85 34.8 26.875L33.175 27.4187L30.9062 26.2875C30.8325 26.2497 30.752 26.2269 30.6694 26.2204C30.5868 26.214 30.5037 26.224 30.425 26.25L28.55 26.875C28.4189 26.9206 28.3068 27.0086 28.2312 27.125L26.9812 29C26.901 29.1198 26.8646 29.2636 26.8783 29.4071C26.892 29.5506 26.9548 29.685 27.0563 29.7875L28.5687 31.3L27.6062 32.75C27.526 32.8698 27.4896 33.0136 27.5033 33.1571C27.517 33.3006 27.5798 33.435 27.6813 33.5375L28.9313 34.7875C28.987 34.8511 29.0551 34.9027 29.1313 34.9393C29.2076 34.9758 29.2905 34.9964 29.375 35H31.4875L31.8375 35.7L31.3875 37.5H26.675L25.5812 34.7687C25.5415 34.668 25.4762 34.5793 25.3919 34.5114C25.3075 34.4434 25.2069 34.3986 25.1 34.3812L21.6187 33.8L20.7188 32.4562L21.8062 30.2812C21.8425 30.2007 21.8612 30.1133 21.8612 30.025C21.8612 29.9367 21.8425 29.8493 21.8062 29.7688L20.5562 26.6438C20.5116 26.5313 20.4353 26.4343 20.3365 26.3644C20.2378 26.2945 20.1209 26.2548 20 26.25H17.7563L16.0687 24.5563C16.0103 24.4983 15.9411 24.4525 15.8649 24.4214C15.7888 24.3903 15.7073 24.3745 15.625 24.375H13.125C12.994 24.3747 12.8662 24.4155 12.7596 24.4918C12.6531 24.568 12.5732 24.6759 12.5312 24.8L11.9062 26.675C11.8803 26.7537 11.8702 26.8368 11.8767 26.9194C11.8831 27.002 11.9059 27.0825 11.9438 27.1562L13.05 29.375L11.4 32.6813L8.43125 34.4625C8.34115 34.5159 8.26593 34.5912 8.2125 34.6813L6.51875 37.5H5.13125C4.49219 37.5162 3.86974 37.2953 3.38389 36.8799C2.89804 36.4644 2.58318 35.8838 2.5 35.25ZM14.2938 29.0938L13.1625 26.825L13.575 25.625H15.3687L17.0563 27.3187C17.1147 27.3767 17.1839 27.4225 17.2601 27.4536C17.3362 27.4847 17.4177 27.5005 17.5 27.5H19.575L20.5625 30L19.4438 32.25C19.3945 32.3483 19.372 32.4578 19.3786 32.5675C19.3852 32.6773 19.4206 32.7833 19.4813 32.875L20.7312 34.75C20.7783 34.8222 20.8398 34.884 20.9119 34.9313C20.9839 34.9786 21.065 35.0105 21.15 35.025L24.55 35.5875L25.325 37.5H7.98125L9.23125 35.4562L12.2188 33.6625C12.3221 33.6031 12.4049 33.5138 12.4563 33.4062L14.3313 29.6562C14.3714 29.5671 14.39 29.4697 14.3857 29.372C14.3813 29.2743 14.3541 29.179 14.3062 29.0938H14.2938ZM36.875 37.5H32.675L33.125 35.775C33.1604 35.6299 33.1427 35.4769 33.075 35.3438L32.45 34.0938C32.3967 33.9878 32.3143 33.8992 32.2124 33.8383C32.1106 33.7775 31.9936 33.7468 31.875 33.75H29.6313L28.9313 33.0437L29.8938 31.5938C29.974 31.474 30.0104 31.3301 29.9967 31.1866C29.983 31.0431 29.9202 30.9087 29.8187 30.8063L28.3063 29.2937L29.15 28.0437L30.575 27.5688L32.8438 28.7C32.9175 28.7378 32.998 28.7606 33.0806 28.7671C33.1632 28.7735 33.2463 28.7635 33.325 28.7375L35.0375 28.125L37.5 28.6188V36.875C37.5 37.0408 37.4342 37.1997 37.3169 37.3169C37.1997 37.4342 37.0408 37.5 36.875 37.5ZM27.5 8.125C27.5 7.50693 27.3167 6.90275 26.9733 6.38884C26.63 5.87494 26.1419 5.4744 25.5709 5.23788C24.9999 5.00135 24.3715 4.93947 23.7653 5.06005C23.1592 5.18062 22.6023 5.47825 22.1653 5.91529C21.7283 6.35233 21.4306 6.90915 21.31 7.51534C21.1895 8.12153 21.2514 8.74987 21.4879 9.32089C21.7244 9.8919 22.1249 10.38 22.6388 10.7233C23.1527 11.0667 23.7569 11.25 24.375 11.25C25.2038 11.25 25.9987 10.9208 26.5847 10.3347C27.1708 9.74866 27.5 8.9538 27.5 8.125ZM22.5 8.125C22.5 7.75416 22.61 7.39165 22.816 7.08331C23.022 6.77496 23.3149 6.53464 23.6575 6.39273C24.0001 6.25081 24.3771 6.21368 24.7408 6.28603C25.1045 6.35837 25.4386 6.53695 25.7008 6.79917C25.963 7.0614 26.1416 7.39549 26.214 7.75921C26.2863 8.12292 26.2492 8.49992 26.1073 8.84253C25.9654 9.18514 25.725 9.47798 25.4167 9.68401C25.1084 9.89003 24.7458 10 24.375 10C23.8777 10 23.4008 9.80246 23.0492 9.45083C22.6975 9.09919 22.5 8.62228 22.5 8.125Z" fill="black"/>
</svg>
