<svg width="36" height="40" viewBox="0 0 36 40" fill="none" xmlns="http://www.w3.org/2000/svg">
<path fill-rule="evenodd" clip-rule="evenodd" d="M30.1477 35.4787C30.0001 35.4787 29.8709 35.4141 29.7694 35.3218L28.5883 34.1407C28.1085 33.6609 28.8559 32.9043 29.3449 33.3933L30.1477 34.1869L32.4729 31.8616C32.9528 31.3725 33.7094 32.1292 33.2204 32.6182L30.5168 35.3218C30.4245 35.4141 30.2861 35.4787 30.1477 35.4787ZM30.9043 40H6.8305C6.53523 40 6.29533 39.7601 6.29533 39.4648V37.0565H3.9147C3.61943 37.0565 3.37952 36.8166 3.37952 36.5213V34.113H1.00813C0.722085 34.113 0.482178 33.8731 0.482178 33.5779V0.535179C0.482178 0.239908 0.722085 0 1.00813 0H25.5156C25.8109 0 26.0508 0.239908 26.0508 0.535179V2.94348H27.7578C28.0531 2.94348 28.293 3.18339 28.293 3.47866V5.88697H30.9043C31.1996 5.88697 31.4395 6.12687 31.4395 6.42214V29.0104C33.7371 29.278 35.5179 31.2249 35.5179 33.5871C35.5179 35.9492 33.7371 37.9054 31.4395 38.173V39.4648C31.4395 39.7601 31.1996 40 30.9043 40ZM7.35646 38.9296H30.3784V38.173C25.5894 37.5732 24.7959 31.0496 29.225 29.2964C29.5941 29.1488 29.9816 29.0565 30.3784 29.0104V6.95732H7.35646V38.9296ZM4.44988 35.9862H6.29533V6.42214C6.29533 6.11765 6.54446 5.88697 6.8305 5.88697H27.2227V4.01384H4.44988V35.9862ZM1.54331 33.0427H3.37952V3.47866C3.37952 3.18339 3.62866 2.94348 3.9147 2.94348H24.9804V1.07036H1.54331V33.0427ZM25.0727 9.91926H12.6621C11.9793 9.91926 11.9793 8.8489 12.6621 8.8489H25.0727C25.7555 8.8489 25.7555 9.91926 25.0727 9.91926ZM27.6563 12.6321H10.0785C9.39567 12.6321 9.39567 11.5617 10.0785 11.5617H27.6563C28.3484 11.5617 28.3484 12.6321 27.6563 12.6321ZM27.6563 15.3449H10.0785C9.39567 15.3449 9.39567 14.2745 10.0785 14.2745H27.6563C28.3484 14.2745 28.3484 15.3449 27.6563 15.3449ZM27.6563 18.0484H10.0785C9.39567 18.0484 9.39567 16.9873 10.0785 16.9873H27.6563C28.3484 16.9873 28.3484 18.0484 27.6563 18.0484ZM27.6563 20.7612H10.0785C9.39567 20.7612 9.39567 19.7001 10.0785 19.7001H27.6563C28.3484 19.7001 28.3484 20.7612 27.6563 20.7612ZM27.6563 23.474H10.0785C9.39567 23.474 9.39567 22.4129 10.0785 22.4129H27.6563C28.3484 22.4129 28.3484 23.474 27.6563 23.474ZM27.6563 26.1868H10.0785C9.39567 26.1868 9.39567 25.1257 10.0785 25.1257H27.6563C28.3484 25.1257 28.3484 26.1868 27.6563 26.1868ZM27.6563 28.8997H10.0785C9.39567 28.8997 9.39567 27.8385 10.0785 27.8385H27.6563C28.3484 27.8385 28.3484 28.8997 27.6563 28.8997ZM25.2388 31.6125H10.0785C9.39567 31.6125 9.39567 30.5421 10.0785 30.5421H25.2388C25.9216 30.5421 25.9216 31.6125 25.2388 31.6125ZM24.0854 34.3253H10.0785C9.39567 34.3253 9.39567 33.2549 10.0785 33.2549H24.0854C24.7774 33.2549 24.7774 34.3253 24.0854 34.3253ZM17.8847 37.0381H10.0785C9.39567 37.0381 9.39567 35.9677 10.0785 35.9677H17.8847C18.5675 35.9677 18.5675 37.0381 17.8847 37.0381ZM30.9043 30.0438C28.9482 30.0438 27.3611 31.6309 27.3611 33.5871C27.3611 35.5433 28.9482 37.1396 30.9043 37.1396C32.8605 37.1396 34.4568 35.5433 34.4568 33.5871C34.4568 31.6309 32.8605 30.0438 30.9043 30.0438Z" fill="black"/>
</svg>
