<svg width="32" height="32" viewBox="0 0 32 32" fill="none" xmlns="http://www.w3.org/2000/svg">
<path d="M3.91 11.1619V16.7627H6.51573C7.52491 16.7627 7.52491 18.2957 6.51573 18.2957H3.91V26.8038H11.5957C12.6048 26.8038 12.6048 28.3365 11.5957 28.3365H3.91V30.071H20.7308L3.91 11.1619ZM11.4233 15.176C10.4141 15.176 10.4141 13.6429 11.4233 13.6429H20.5445C21.5537 13.6429 21.5537 15.176 20.5445 15.176H11.4233ZM11.4233 11.8033C10.4141 11.8033 10.4141 10.2707 11.4233 10.2707H20.5445C21.5537 10.2707 21.5537 11.8033 20.5445 11.8033H11.4233ZM11.4233 8.43107C10.4141 8.43107 10.4141 6.89802 11.4233 6.89802H20.5445C21.5537 6.89802 21.5537 8.43107 20.5445 8.43107H11.4233ZM11.4233 5.05844C10.4141 5.05844 10.4141 3.52539 11.4233 3.52539H20.5445C21.5537 3.52539 21.5537 5.05844 20.5445 5.05844H11.4233ZM26.3974 3.52539H28.8576C29.2809 3.52539 29.6241 3.86859 29.6241 4.29153V28.2428C29.6241 28.6661 29.2809 29.0093 28.8576 29.0093H21.8356L22.9862 30.3023C23.4707 30.8224 23.0882 31.6037 22.4374 31.6037H3.14348C2.72015 31.6037 2.37695 31.2605 2.37695 30.8375L2.37809 9.14846C2.37846 8.44959 3.2478 8.11395 3.71535 8.63933L5.57043 10.725V1.16458C5.57043 0.741635 5.91362 0.398438 6.33695 0.398438H25.6308C26.0542 0.398438 26.3974 0.741635 26.3974 1.16458V3.52539ZM20.4723 27.4762H28.091V5.05806H26.3974V25.1158C26.3974 25.5392 26.0542 25.8823 25.6308 25.8823H19.0541L20.4723 27.4762ZM17.6904 24.3493H24.8643V1.93111H7.10348V12.4481L17.6904 24.3493Z" fill="black"/>
</svg>
