<svg width="41" height="40" viewBox="0 0 41 40" fill="none" xmlns="http://www.w3.org/2000/svg">
<path d="M33.1913 9.39453C32.8677 9.39453 32.6054 9.65688 32.6054 9.98047V36.2837C32.6054 36.306 32.5873 36.324 32.565 36.324H11.8984C11.5748 36.324 11.3125 36.5864 11.3125 36.91C11.3125 37.2336 11.5748 37.4959 11.8984 37.4959H32.565C33.2335 37.4959 33.7772 36.9522 33.7772 36.2837V9.98047C33.7772 9.65688 33.5149 9.39453 33.1913 9.39453Z" fill="#045569"/>
<path d="M35.069 2.505H29.6754L27.7089 0.538517C27.3616 0.19125 26.9 0 26.4089 0H6.26102C5.59258 0 5.04883 0.543751 5.04883 1.21219V36.2828C5.04883 36.9512 5.59258 37.495 6.26102 37.495H7.55383V38.7878C7.55383 39.4562 8.09758 40 8.76602 40H35.069C35.7375 40 36.2812 39.4562 36.2812 38.7878V3.71727C36.2812 3.04883 35.7375 2.505 35.069 2.505ZM26.8873 1.37422L32.4019 6.88884H26.9276C26.9054 6.88884 26.8873 6.8708 26.8873 6.84853V1.37422ZM35.1094 38.7879C35.1094 38.8102 35.0913 38.8282 35.069 38.8282H8.76602C8.74376 38.8282 8.72571 38.8102 8.72571 38.7879V37.4951H9.39212C9.71571 37.4951 9.97806 37.2327 9.97806 36.9091C9.97806 36.5855 9.71571 36.3232 9.39212 36.3232H6.26102C6.23875 36.3232 6.22071 36.3052 6.22071 36.2829V1.21219C6.22071 1.18992 6.23875 1.17188 6.26102 1.17188H25.7154V6.84853C25.7154 7.51697 26.2592 8.06072 26.9276 8.06072H33.1903C33.5139 8.06072 33.7762 7.79838 33.7762 7.47478V7.36736C33.7762 6.87634 33.585 6.41462 33.2377 6.06736L30.8472 3.67688H35.069C35.0913 3.67688 35.1094 3.69493 35.1094 3.7172V38.7879Z" fill="#045569"/>
<path d="M16.6958 6.69311C16.4669 6.46428 16.0959 6.46428 15.8672 6.69311L12.5524 10.0079C12.5366 10.0236 12.5111 10.0236 12.4954 10.0079L11.174 8.68647H12.1912C12.5148 8.68647 12.7771 8.42412 12.7771 8.10053C12.7771 7.77694 12.5148 7.51459 12.1912 7.51459H10.6451C10.4577 7.51459 10.2808 7.55858 10.1222 7.63483L9.80686 7.31944C9.57803 7.09061 9.20701 7.09061 8.97826 7.31944C8.74943 7.54826 8.74943 7.91928 8.97826 8.14803L9.43889 8.60866C9.43514 8.64748 9.43295 8.68686 9.43295 8.7267V12.4843C9.43295 13.1527 9.9767 13.6965 10.6451 13.6965H14.4027C15.0712 13.6965 15.6149 13.1527 15.6149 12.4843V8.60256L16.6958 7.5217C16.9246 7.29287 16.9246 6.92186 16.6958 6.69311ZM14.443 12.4844C14.443 12.5066 14.425 12.5247 14.4027 12.5247H10.6451C10.6229 12.5247 10.6048 12.5066 10.6048 12.4844V9.77444L11.6668 10.8364C11.9031 11.0727 12.2135 11.1909 12.524 11.1909C12.8344 11.1909 13.1448 11.0727 13.3811 10.8364L14.443 9.77444V12.4844Z" fill="#045569"/>
<path d="M14.4034 15.6562H10.6458C9.97734 15.6562 9.43359 16.2 9.43359 16.8684V20.626C9.43359 21.2945 9.97734 21.8382 10.6458 21.8382H14.4034C15.0718 21.8382 15.6156 21.2945 15.6156 20.626V16.8684C15.6156 16.2001 15.0718 15.6562 14.4034 15.6562ZM14.4437 20.626C14.4437 20.6483 14.4256 20.6663 14.4034 20.6663H10.6458C10.6235 20.6663 10.6055 20.6483 10.6055 20.626V16.8684C10.6055 16.8462 10.6235 16.8281 10.6458 16.8281H14.4034C14.4256 16.8281 14.4437 16.8462 14.4437 16.8684V20.626Z" fill="#045569"/>
<path d="M14.4034 23.7988H10.6458C9.97734 23.7988 9.43359 24.3426 9.43359 25.011V28.7686C9.43359 29.437 9.97734 29.9808 10.6458 29.9808H14.4034C15.0718 29.9808 15.6156 29.437 15.6156 28.7686V25.011C15.6156 24.3426 15.0718 23.7988 14.4034 23.7988ZM14.4437 28.7686C14.4437 28.7909 14.4256 28.8089 14.4034 28.8089H10.6458C10.6235 28.8089 10.6055 28.7908 10.6055 28.7686V25.011C10.6055 24.9888 10.6235 24.9707 10.6458 24.9707H14.4034C14.4256 24.9707 14.4437 24.9888 14.4437 25.011V28.7686Z" fill="#045569"/>
<path d="M23.7965 8.76758H18.1602C17.8366 8.76758 17.5742 9.02992 17.5742 9.35352C17.5742 9.67711 17.8365 9.93946 18.1602 9.93946H23.7965C24.1201 9.93946 24.3824 9.67711 24.3824 9.35352C24.3824 9.02992 24.1201 8.76758 23.7965 8.76758Z" fill="#045569"/>
<path d="M28.8066 11.2734H18.1602C17.8366 11.2734 17.5742 11.5358 17.5742 11.8594C17.5742 12.183 17.8365 12.4453 18.1602 12.4453H28.8066C29.1302 12.4453 29.3925 12.183 29.3925 11.8594C29.3925 11.5358 29.1303 11.2734 28.8066 11.2734Z" fill="#045569"/>
<path d="M23.7965 16.9082H18.1602C17.8366 16.9082 17.5742 17.1705 17.5742 17.4941C17.5742 17.8177 17.8365 18.0801 18.1602 18.0801H23.7965C24.1201 18.0801 24.3824 17.8177 24.3824 17.4941C24.3824 17.1705 24.1201 16.9082 23.7965 16.9082Z" fill="#045569"/>
<path d="M28.8066 19.4141H18.1602C17.8366 19.4141 17.5742 19.6764 17.5742 20C17.5742 20.3236 17.8365 20.5859 18.1602 20.5859H28.8066C29.1302 20.5859 29.3925 20.3236 29.3925 20C29.3925 19.6764 29.1303 19.4141 28.8066 19.4141Z" fill="#045569"/>
<path d="M23.7965 25.0508H18.1602C17.8366 25.0508 17.5742 25.3131 17.5742 25.6367C17.5742 25.9603 17.8365 26.2227 18.1602 26.2227H23.7965C24.1201 26.2227 24.3824 25.9603 24.3824 25.6367C24.3824 25.3131 24.1201 25.0508 23.7965 25.0508Z" fill="#045569"/>
<path d="M28.8066 27.5547H18.1602C17.8366 27.5547 17.5742 27.817 17.5742 28.1406C17.5742 28.4642 17.8365 28.7266 18.1602 28.7266H28.8066C29.1302 28.7266 29.3925 28.4642 29.3925 28.1406C29.3925 27.817 29.1303 27.5547 28.8066 27.5547Z" fill="#045569"/>
</svg>
