<svg width="41" height="40" viewBox="0 0 41 40" fill="none" xmlns="http://www.w3.org/2000/svg">
<path d="M35.334 4.16602H5.33398C3.95065 4.16602 2.83398 5.28268 2.83398 6.66602V29.9993C2.83398 31.216 3.70065 32.2327 4.86732 32.4493C4.65065 33.266 4.50065 34.116 4.50065 34.9993C4.50065 35.466 4.86732 35.8327 5.33398 35.8327H23.6673C24.0173 35.8327 24.3173 35.616 24.434 35.2993L30.5506 20.016C30.7173 19.5827 30.5173 19.0993 30.084 18.9327C29.6507 18.766 29.1673 18.966 29.0007 19.3993L24.0007 31.8993C23.684 30.8993 23.184 29.9827 22.584 29.1493H23.3006L23.9673 27.4827H21.0673C20.1007 26.6327 18.984 25.966 17.7507 25.5327C19.0506 24.5493 19.9173 22.9827 19.9173 21.2327C19.9173 18.2493 17.484 15.816 14.5007 15.816C11.5173 15.816 9.08398 18.2493 9.08398 21.2327C9.08398 22.9993 9.93398 24.5493 11.2507 25.5327C10.0173 25.966 8.91732 26.6327 7.95065 27.4827H7.83398V9.16602H32.834V27.4993H29.3673L28.7007 29.166H33.6673C34.134 29.166 34.5007 28.7993 34.5007 28.3327V8.33268C34.5007 7.86602 34.134 7.49935 33.6673 7.49935H7.00065C6.53398 7.49935 6.16732 7.86602 6.16732 8.33268V28.3327C6.16732 28.616 6.31732 28.8493 6.53398 28.9993C6.10065 29.566 5.75065 30.1827 5.45065 30.8327H5.35065C4.88398 30.8327 4.51732 30.466 4.51732 29.9993V6.66602C4.51732 6.19935 4.88398 5.83268 5.35065 5.83268H35.3507C35.8173 5.83268 36.184 6.19935 36.184 6.66602V29.9993C36.184 30.466 35.8173 30.8327 35.3507 30.8327H28.0506L27.384 32.4993H35.3507C36.734 32.4993 37.8507 31.3827 37.8507 29.9993V6.66602C37.8507 5.28268 36.734 4.16602 35.3507 4.16602H35.334ZM10.7507 21.2493C10.7507 19.1827 12.434 17.4993 14.5007 17.4993C16.5673 17.4993 18.2507 19.1827 18.2507 21.2493C18.2507 23.316 16.5673 24.9993 14.5007 24.9993C12.434 24.9993 10.7507 23.316 10.7507 21.2493ZM14.5007 26.666C18.8173 26.666 22.3673 29.966 22.8006 34.166H6.20065C6.61732 29.966 10.184 26.666 14.5007 26.666Z" fill="#384C07"/>
</svg>
