<svg width="38" height="38" viewBox="0 0 38 38" fill="none" xmlns="http://www.w3.org/2000/svg">
<path d="M33.8656 0.599609H3.46563C2.61693 0.599609 1.803 0.936751 1.20288 1.53687C0.602767 2.13698 0.265625 2.95092 0.265625 3.79961V20.5996C0.265625 21.4483 0.602767 22.2622 1.20288 22.8624C1.803 23.4625 2.61693 23.7996 3.46563 23.7996H33.8656C34.7143 23.7996 35.5283 23.4625 36.1284 22.8624C36.7285 22.2622 37.0656 21.4483 37.0656 20.5996V3.79961C37.0656 2.95092 36.7285 2.13698 36.1284 1.53687C35.5283 0.936751 34.7143 0.599609 33.8656 0.599609ZM35.4656 20.5996C35.4656 21.024 35.2971 21.4309 34.997 21.731C34.6969 22.031 34.29 22.1996 33.8656 22.1996H3.46563C3.04128 22.1996 2.63431 22.031 2.33425 21.731C2.0342 21.4309 1.86563 21.024 1.86563 20.5996V3.79961C1.86563 3.37526 2.0342 2.9683 2.33425 2.66824C2.63431 2.36818 3.04128 2.19961 3.46563 2.19961H33.8656C34.29 2.19961 34.6969 2.36818 34.997 2.66824C35.2971 2.9683 35.4656 3.37526 35.4656 3.79961V20.5996Z" fill="#603600"/>
<path d="M29.866 17.3988H11.466V16.5988C11.466 16.3867 11.3817 16.1832 11.2317 16.0331C11.0817 15.8831 10.8782 15.7988 10.666 15.7988C10.4538 15.7988 10.2504 15.8831 10.1003 16.0331C9.9503 16.1832 9.86602 16.3867 9.86602 16.5988V17.3988H7.46602C7.25384 17.3988 7.05036 17.4831 6.90033 17.6331C6.7503 17.7832 6.66602 17.9867 6.66602 18.1988C6.66602 18.411 6.7503 18.6145 6.90033 18.7645C7.05036 18.9145 7.25384 18.9988 7.46602 18.9988H9.86602V19.7988C9.86602 20.011 9.9503 20.2145 10.1003 20.3645C10.2504 20.5145 10.4538 20.5988 10.666 20.5988C10.8782 20.5988 11.0817 20.5145 11.2317 20.3645C11.3817 20.2145 11.466 20.011 11.466 19.7988V18.9988H29.866C30.0782 18.9988 30.2817 18.9145 30.4317 18.7645C30.5817 18.6145 30.666 18.411 30.666 18.1988C30.666 17.9867 30.5817 17.7832 30.4317 17.6331C30.2817 17.4831 30.0782 17.3988 29.866 17.3988Z" fill="#603600"/>
<path d="M15.4652 14.9995H21.8652C22.2896 14.9995 22.6965 14.8309 22.9966 14.5309C23.2967 14.2308 23.4652 13.8238 23.4652 13.3995C23.4641 12.5409 23.2326 11.6983 22.795 10.9596C22.3574 10.2209 21.7297 9.61306 20.9772 9.1995C21.4107 8.74656 21.7015 8.17629 21.8136 7.5595C21.9258 6.94271 21.8543 6.30656 21.608 5.73006C21.3617 5.15355 20.9515 4.66208 20.4284 4.31666C19.9052 3.97125 19.2921 3.78711 18.6652 3.78711C18.0383 3.78711 17.4252 3.97125 16.9021 4.31666C16.3789 4.66208 15.9687 5.15355 15.7225 5.73006C15.4762 6.30656 15.4047 6.94271 15.5168 7.5595C15.629 8.17629 15.9198 8.74656 16.3532 9.1995C15.6008 9.61306 14.9731 10.2209 14.5354 10.9596C14.0978 11.6983 13.8664 12.5409 13.8652 13.3995C13.8652 13.8238 14.0338 14.2308 14.3339 14.5309C14.6339 14.8309 15.0409 14.9995 15.4652 14.9995ZM17.0652 6.9995C17.0652 6.68305 17.1591 6.3737 17.3349 6.11058C17.5107 5.84747 17.7606 5.64239 18.0529 5.52129C18.3453 5.40019 18.667 5.3685 18.9774 5.43024C19.2877 5.49198 19.5728 5.64436 19.7966 5.86813C20.0204 6.09189 20.1728 6.37698 20.2345 6.68735C20.2962 6.99772 20.2645 7.31943 20.1434 7.61179C20.0223 7.90415 19.8173 8.15404 19.5541 8.32985C19.291 8.50566 18.9817 8.5995 18.6652 8.5995C18.2409 8.5995 17.8339 8.43093 17.5339 8.13087C17.2338 7.83081 17.0652 7.42384 17.0652 6.9995ZM15.4652 13.3995C15.4652 12.5508 15.8024 11.7369 16.4025 11.1368C17.0026 10.5366 17.8165 10.1995 18.6652 10.1995C19.5139 10.1995 20.3279 10.5366 20.928 11.1368C21.5281 11.7369 21.8652 12.5508 21.8652 13.3995H15.4652Z" fill="#603600"/>
<path d="M20.9772 31.5999C21.4107 31.147 21.7015 30.5767 21.8136 29.9599C21.9258 29.3431 21.8543 28.707 21.608 28.1304C21.3617 27.5539 20.9515 27.0625 20.4284 26.7171C19.9052 26.3716 19.2921 26.1875 18.6652 26.1875C18.0383 26.1875 17.4252 26.3716 16.9021 26.7171C16.3789 27.0625 15.9687 27.5539 15.7225 28.1304C15.4762 28.707 15.4047 29.3431 15.5168 29.9599C15.629 30.5767 15.9198 31.147 16.3532 31.5999C15.6008 32.0134 14.9731 32.6213 14.5354 33.36C14.0978 34.0987 13.8664 34.9413 13.8652 35.7999C13.8652 36.2242 14.0338 36.6312 14.3339 36.9313C14.6339 37.2313 15.0409 37.3999 15.4652 37.3999H21.8652C22.2896 37.3999 22.6965 37.2313 22.9966 36.9313C23.2967 36.6312 23.4652 36.2242 23.4652 35.7999C23.4641 34.9413 23.2326 34.0987 22.795 33.36C22.3574 32.6213 21.7297 32.0134 20.9772 31.5999ZM17.0652 29.3999C17.0652 29.0834 17.1591 28.7741 17.3349 28.511C17.5107 28.2479 17.7606 28.0428 18.0529 27.9217C18.3453 27.8006 18.667 27.7689 18.9774 27.8306C19.2877 27.8924 19.5728 28.0448 19.7966 28.2685C20.0204 28.4923 20.1728 28.7774 20.2345 29.0877C20.2962 29.3981 20.2645 29.7198 20.1434 30.0122C20.0223 30.3045 19.8173 30.5544 19.5541 30.7302C19.291 30.9061 18.9817 30.9999 18.6652 30.9999C18.2409 30.9999 17.8339 30.8313 17.5339 30.5313C17.2338 30.2312 17.0652 29.8242 17.0652 29.3999ZM15.4652 35.7999C15.4652 34.9512 15.8024 34.1373 16.4025 33.5371C17.0026 32.937 17.8165 32.5999 18.6652 32.5999C19.5139 32.5999 20.3279 32.937 20.928 33.5371C21.5281 34.1373 21.8652 34.9512 21.8652 35.7999H15.4652Z" fill="#603600"/>
<path d="M32.9772 31.5999C33.4107 31.147 33.7015 30.5767 33.8136 29.9599C33.9258 29.3431 33.8543 28.707 33.608 28.1304C33.3617 27.5539 32.9515 27.0625 32.4284 26.7171C31.9052 26.3716 31.2921 26.1875 30.6652 26.1875C30.0383 26.1875 29.4252 26.3716 28.9021 26.7171C28.3789 27.0625 27.9687 27.5539 27.7225 28.1304C27.4762 28.707 27.4047 29.3431 27.5168 29.9599C27.629 30.5767 27.9198 31.147 28.3532 31.5999C27.6008 32.0134 26.973 32.6213 26.5354 33.36C26.0978 34.0987 25.8664 34.9413 25.8652 35.7999C25.8652 36.2242 26.0338 36.6312 26.3339 36.9313C26.6339 37.2313 27.0409 37.3999 27.4652 37.3999H33.8652C34.2896 37.3999 34.6965 37.2313 34.9966 36.9313C35.2967 36.6312 35.4652 36.2242 35.4652 35.7999C35.4641 34.9413 35.2326 34.0987 34.795 33.36C34.3574 32.6213 33.7297 32.0134 32.9772 31.5999ZM29.0652 29.3999C29.0652 29.0834 29.1591 28.7741 29.3349 28.511C29.5107 28.2479 29.7606 28.0428 30.0529 27.9217C30.3453 27.8006 30.667 27.7689 30.9774 27.8306C31.2878 27.8924 31.5728 28.0448 31.7966 28.2685C32.0204 28.4923 32.1728 28.7774 32.2345 29.0877C32.2962 29.3981 32.2645 29.7198 32.1434 30.0122C32.0223 30.3045 31.8173 30.5544 31.5541 30.7302C31.291 30.9061 30.9817 30.9999 30.6652 30.9999C30.2409 30.9999 29.8339 30.8313 29.5339 30.5313C29.2338 30.2312 29.0652 29.8242 29.0652 29.3999ZM27.4652 35.7999C27.4652 34.9512 27.8024 34.1373 28.4025 33.5371C29.0026 32.937 29.8165 32.5999 30.6652 32.5999C31.5139 32.5999 32.3279 32.937 32.928 33.5371C33.5281 34.1373 33.8652 34.9512 33.8652 35.7999H27.4652Z" fill="#603600"/>
<path d="M8.97723 31.5999C9.41066 31.147 9.70149 30.5767 9.81363 29.9599C9.92576 29.3431 9.85426 28.707 9.60799 28.1304C9.36173 27.5539 8.95155 27.0625 8.42839 26.7171C7.90523 26.3716 7.29214 26.1875 6.66523 26.1875C6.03833 26.1875 5.42524 26.3716 4.90208 26.7171C4.37892 27.0625 3.96874 27.5539 3.72248 28.1304C3.47621 28.707 3.40471 29.3431 3.51684 29.9599C3.62898 30.5767 3.91981 31.147 4.35323 31.5999C3.60079 32.0134 2.97305 32.6213 2.53545 33.36C2.09784 34.0987 1.8664 34.9413 1.86523 35.7999C1.86523 36.2242 2.03381 36.6312 2.33386 36.9313C2.63392 37.2313 3.04089 37.3999 3.46523 37.3999H9.86523C10.2896 37.3999 10.6965 37.2313 10.9966 36.9313C11.2967 36.6312 11.4652 36.2242 11.4652 35.7999C11.4641 34.9413 11.2326 34.0987 10.795 33.36C10.3574 32.6213 9.72968 32.0134 8.97723 31.5999ZM5.06523 29.3999C5.06523 29.0834 5.15907 28.7741 5.33488 28.511C5.51069 28.2479 5.76058 28.0428 6.05294 27.9217C6.3453 27.8006 6.66701 27.7689 6.97738 27.8306C7.28775 27.8924 7.57284 28.0448 7.79661 28.2685C8.02037 28.4923 8.17275 28.7774 8.23449 29.0877C8.29623 29.3981 8.26454 29.7198 8.14344 30.0122C8.02234 30.3045 7.81727 30.5544 7.55415 30.7302C7.29103 30.9061 6.98168 30.9999 6.66523 30.9999C6.24089 30.9999 5.83392 30.8313 5.53386 30.5313C5.23381 30.2312 5.06523 29.8242 5.06523 29.3999ZM3.46523 35.7999C3.46523 34.9512 3.80238 34.1373 4.40249 33.5371C5.00261 32.937 5.81654 32.5999 6.66523 32.5999C7.51393 32.5999 8.32786 32.937 8.92798 33.5371C9.52809 34.1373 9.86523 34.9512 9.86523 35.7999H3.46523Z" fill="#603600"/>
</svg>
