<svg width="122" height="122" viewBox="0 0 122 122" fill="none" xmlns="http://www.w3.org/2000/svg">
<path d="M79.8168 81.8739L49.4722 81.75" stroke="#023047" stroke-width="3.07" stroke-linecap="round" stroke-linejoin="round"/>
<path d="M26.6675 93.0431C32.952 93.0688 38.0675 87.9949 38.0931 81.7104C38.1188 75.4258 33.0449 70.3104 26.7604 70.2847C20.4758 70.2591 15.3604 75.3329 15.3347 81.6175C15.3091 87.902 20.3829 93.0175 26.6675 93.0431Z" stroke="#023047" stroke-width="3.07" stroke-linecap="round" stroke-linejoin="round"/>
<path d="M94.9431 93.3205C101.228 93.3461 106.343 88.2723 106.369 81.9877C106.394 75.7032 101.321 70.5877 95.036 70.5621C88.7514 70.5364 83.636 75.6103 83.6104 81.8948C83.5847 88.1794 88.6585 93.2948 94.9431 93.3205Z" stroke="#023047" stroke-width="3.07" stroke-linecap="round" stroke-linejoin="round"/>
<path d="M110.162 82.0024L113.955 82.0179C116.041 82.0264 117.755 80.3265 117.764 78.2403L117.815 65.6094C117.822 63.9784 117.145 62.4583 115.936 61.3913L85.4003 33.6907C81.9235 30.5282 77.4168 28.8029 72.7513 28.7838L10.6209 28.5302C7.0554 28.5157 4.1609 31.3866 4.14635 34.9521L3.9714 77.8138C3.96289 79.9 5.6628 81.6138 7.74899 81.6223L11.5421 81.6378" stroke="#023047" stroke-width="3.07" stroke-linecap="round" stroke-linejoin="round"/>
<path d="M103.458 51.6362L7.87237 51.2461" stroke="#023047" stroke-width="3.07" stroke-linecap="round" stroke-linejoin="round"/>
<path d="M30.7088 32.3711L30.6469 47.5434" stroke="#023047" stroke-width="3.07" stroke-linecap="round" stroke-linejoin="round"/>
<path d="M61.0533 32.4844L60.9914 47.6566" stroke="#023047" stroke-width="3.07" stroke-linecap="round" stroke-linejoin="round"/>
<path d="M68.515 62.8633L72.308 62.8788" stroke="#023047" stroke-width="3.07" stroke-linecap="round" stroke-linejoin="round"/>
<path d="M11.6193 62.6366L7.82623 62.6211" stroke="#023047" stroke-width="3.07" stroke-linecap="round" stroke-linejoin="round"/>
<path d="M114.017 66.8476L110.224 66.8321L114.032 63.0545" stroke="#023047" stroke-width="3.07" stroke-linecap="round" stroke-linejoin="round"/>
</svg>
