<svg width="60" height="60" viewBox="0 0 60 60" fill="none" xmlns="http://www.w3.org/2000/svg">
<g clip-path="url(#clip0_658_9820)">
<path d="M15.507 28.421C15.1793 28.751 14.9456 29.1625 14.83 29.613L13.06 36.719C12.9905 36.9885 12.9835 37.2704 13.0396 37.543C13.0957 37.8156 13.2135 38.0717 13.3838 38.2919C13.5541 38.512 13.7725 38.6902 14.0223 38.813C14.2721 38.9357 14.5467 38.9997 14.825 39C14.9764 38.9999 15.1271 38.9815 15.274 38.945L22.383 37.165C22.837 37.055 23.2508 36.8193 23.577 36.485L30 30.07L32.966 33.036L35.966 36.036L37.944 38.014C38.2553 38.3252 38.625 38.5718 39.0319 38.7397C39.4388 38.9075 39.8749 38.9933 40.315 38.992C41.2078 38.9933 42.0649 38.6414 42.699 38.013L46.014 34.688C46.3263 34.3775 46.574 34.0084 46.7431 33.6019C46.9121 33.1953 46.9992 32.7593 46.9992 32.319C46.9992 31.8787 46.9121 31.4427 46.7431 31.0362C46.574 30.6296 46.3263 30.2605 46.014 29.95L38.067 22L46.019 14.053C46.6453 13.4216 46.9968 12.5683 46.9968 11.679C46.9968 10.7897 46.6453 9.9364 46.019 9.30502L42.691 5.98102C42.0616 5.35369 41.2092 5.00144 40.3205 5.00144C39.4319 5.00144 38.5795 5.35369 37.95 5.98102L30 13.933L22.05 5.98302C21.7392 5.67027 21.3694 5.42233 20.9621 5.25359C20.5547 5.08485 20.118 4.99866 19.677 5.00002H19.667C19.2291 4.99933 18.7955 5.0858 18.3913 5.25439C17.9872 5.42299 17.6206 5.67033 17.313 5.98202L13.979 9.30702C13.3531 9.93899 13.002 10.7925 13.002 11.682C13.002 12.5715 13.3531 13.425 13.979 14.057L15.957 16.035L18.957 19.035L21.927 22L15.507 28.421ZM35.415 11.344L36.991 9.76802L42.234 15.011L40.658 16.586L35.415 11.344ZM35.915 14.672L19.236 31.35L17.321 29.435L34 12.758L35.915 14.672ZM15.066 36.936L16.449 31.391L20.606 35.548L15.066 36.936ZM22.561 34.674L20.65 32.764L37.329 16.085L39.244 18L22.561 34.674ZM44.6 31.367C44.727 31.4925 44.8278 31.6421 44.8964 31.8069C44.9651 31.9717 45.0003 32.1485 45 32.327C44.9998 32.5036 44.9643 32.6783 44.8956 32.8409C44.8269 33.0035 44.7264 33.1508 44.6 33.274L41.287 36.6C41.0302 36.8542 40.6834 36.9967 40.322 36.9967C39.9607 36.9967 39.6139 36.8542 39.357 36.6L38.084 35.33L39.707 33.707C39.8892 33.5184 39.99 33.2658 39.9877 33.0036C39.9854 32.7414 39.8803 32.4906 39.6949 32.3052C39.5095 32.1198 39.2586 32.0146 38.9964 32.0123C38.7342 32.0101 38.4816 32.1109 38.293 32.293L36.67 33.916L35.084 32.33L35.707 31.707C35.8892 31.5184 35.99 31.2658 35.9877 31.0036C35.9854 30.7414 35.8803 30.4906 35.6949 30.3052C35.5095 30.1198 35.2586 30.0146 34.9964 30.0123C34.7342 30.0101 34.4816 30.1109 34.293 30.293L33.67 30.916L31.41 28.656L36.653 23.417L44.6 31.367ZM40.32 7.00002C40.4981 7.00014 40.6743 7.03555 40.8386 7.10421C41.0029 7.17287 41.1519 7.27341 41.277 7.40002L44.6 10.719C44.8538 10.9747 44.9962 11.3203 44.9962 11.6805C44.9962 12.0407 44.8538 12.3863 44.6 12.642L43.645 13.597L38.405 8.35402L39.364 7.39602C39.4895 7.27034 39.6385 7.17066 39.8026 7.10271C39.9666 7.03475 40.1425 6.99985 40.32 7.00002ZM21.084 18.33L21.707 17.707C21.8892 17.5184 21.99 17.2658 21.9877 17.0036C21.9854 16.7414 21.8803 16.4906 21.6949 16.3052C21.5094 16.1198 21.2586 16.0146 20.9964 16.0123C20.7342 16.0101 20.4816 16.1109 20.293 16.293L19.67 16.916L18.084 15.33L19.707 13.707C19.8892 13.5184 19.99 13.2658 19.9877 13.0036C19.9854 12.7414 19.8803 12.4906 19.6949 12.3052C19.5094 12.1198 19.2586 12.0146 18.9964 12.0123C18.7342 12.0101 18.4816 12.1109 18.293 12.293L16.67 13.916L15.4 12.643C15.1469 12.3866 15.005 12.0408 15.005 11.6805C15.005 11.3202 15.1469 10.9744 15.4 10.718L18.73 7.39402C18.8532 7.269 19 7.16978 19.1619 7.10213C19.3238 7.03448 19.4976 6.99977 19.673 7.00002C19.8511 7.00014 20.0273 7.03555 20.1916 7.10421C20.3558 7.17287 20.5049 7.27341 20.63 7.40002L28.58 15.35L23.339 20.591L21.084 18.33Z" fill="#04684E"/>
<path d="M54 0H6C4.40919 0.00158843 2.88399 0.63424 1.75911 1.75911C0.63424 2.88399 0.00158843 4.40919 0 6L0 54C0.00158843 55.5908 0.63424 57.116 1.75911 58.2409C2.88399 59.3658 4.40919 59.9984 6 60H54C55.5908 59.9984 57.116 59.3658 58.2409 58.2409C59.3658 57.116 59.9984 55.5908 60 54V6C59.9984 4.40919 59.3658 2.88399 58.2409 1.75911C57.116 0.63424 55.5908 0.00158843 54 0ZM6 2H54C55.0609 2 56.0783 2.42143 56.8284 3.17157C57.5786 3.92172 58 4.93913 58 6V42H2V6C2 4.93913 2.42143 3.92172 3.17157 3.17157C3.92172 2.42143 4.93913 2 6 2ZM54 58H6C4.93913 58 3.92172 57.5786 3.17157 56.8284C2.42143 56.0783 2 55.0609 2 54V44H58V54C58 55.0609 57.5786 56.0783 56.8284 56.8284C56.0783 57.5786 55.0609 58 54 58Z" fill="#04684E"/>
<path d="M11.206 49.5497L7.611 47.2647C7.35458 47.1027 7.0595 47.0123 6.75636 47.0028C6.45322 46.9933 6.15306 47.0651 5.887 47.2107C5.61794 47.3591 5.39368 47.5771 5.23765 47.8418C5.08162 48.1066 4.99955 48.4084 5 48.7157V53.2837C4.99955 53.591 5.08162 53.8928 5.23765 54.1575C5.39368 54.4222 5.61794 54.6402 5.887 54.7887C6.15279 54.9353 6.45317 55.0075 6.75655 54.9978C7.05993 54.9882 7.3551 54.8969 7.611 54.7337L11.211 52.4497C11.4542 52.2939 11.6543 52.0794 11.7929 51.826C11.9315 51.5727 12.0041 51.2885 12.0041 50.9997C12.0041 50.7109 11.9315 50.4267 11.7929 50.1733C11.6543 49.9199 11.4542 49.7055 11.211 49.5497H11.206ZM7 52.7537V49.2457L9.76 50.9997L7 52.7537Z" fill="#04684E"/>
<path d="M54 50H28.816C28.6124 49.4154 28.2318 48.9087 27.7273 48.5502C27.2227 48.1917 26.619 47.999 26 47.999C25.381 47.999 24.7773 48.1917 24.2727 48.5502C23.7682 48.9087 23.3876 49.4154 23.184 50H16C15.7348 50 15.4804 50.1053 15.2929 50.2929C15.1054 50.4804 15 50.7348 15 51C15 51.2652 15.1054 51.5195 15.2929 51.7071C15.4804 51.8946 15.7348 52 16 52H23.184C23.3876 52.5845 23.7682 53.0912 24.2727 53.4497C24.7773 53.8083 25.381 54.0009 26 54.0009C26.619 54.0009 27.2227 53.8083 27.7273 53.4497C28.2318 53.0912 28.6124 52.5845 28.816 52H54C54.2652 52 54.5196 51.8946 54.7071 51.7071C54.8946 51.5195 55 51.2652 55 51C55 50.7348 54.8946 50.4804 54.7071 50.2929C54.5196 50.1053 54.2652 50 54 50ZM26 52C25.8022 52 25.6089 51.9413 25.4444 51.8314C25.28 51.7216 25.1518 51.5654 25.0761 51.3827C25.0004 51.1999 24.9806 50.9989 25.0192 50.8049C25.0578 50.6109 25.153 50.4327 25.2929 50.2929C25.4327 50.153 25.6109 50.0578 25.8049 50.0192C25.9989 49.9806 26.2 50.0004 26.3827 50.0761C26.5654 50.1518 26.7216 50.28 26.8315 50.4444C26.9414 50.6089 27 50.8022 27 51C27 51.2652 26.8946 51.5195 26.7071 51.7071C26.5196 51.8946 26.2652 52 26 52Z" fill="#04684E"/>
</g>
<defs>
<clipPath id="clip0_658_9820">
<rect width="60" height="60" fill="white"/>
</clipPath>
</defs>
</svg>
