<svg xmlns="http://www.w3.org/2000/svg" id="doctor-giving-virus-injection-to-kid" width="2000" height="2000" viewBox="0 0 2000 2000">
  <desc>
    Vaccine injection, the child holds the mother to inject the vaccine
  </desc>
  <g>
    <rect width="1216.72" height="643.84" x="272.75" y="278.7" style="fill:#f3f6f7"></rect>
    <path d="m272.75,278.7v643.84h1216.72V278.7H272.75Zm975.33,35.29v572.97h-360.74V313.99h360.74ZM496.62,886.96h-188.78V313.99h188.78v572.97Zm33.74-572.97h323.23v572.97h-323.23V313.99Zm919.26,572.97h-167.8V313.99h167.8v572.97Z" style="fill:#cc7d74"></path>
  </g>
  <ellipse cx="1016.23" cy="1590.61" rx="711.02" ry="130.69" style="fill:#f3f6f7"></ellipse>
  <g>
    <g>
      <polygon points="550.14 1028.86 602.47 1539.56 1349.31 1539.56 1426.53 1027.69 550.14 1028.86" style="fill:#525887"></polygon>
      <rect width="926.66" height="42.3" x="524.72" y="985.39" rx="21.15" ry="21.15" style="fill:#ed9b97"></rect>
    </g>
    <g>
      <g>
        <path d="m648.63,853.48v85.68c0,6.38-5.17,11.54-11.54,11.54s-11.54-5.16-11.54-11.54v-85.68h23.08Z" style="fill:#47a5b0"></path>
        <rect width="13.61" height="8.12" x="625.55" y="885.88" style="fill:#f3f6f7"></rect>
      </g>
      <g>
        <path d="m689.07,853.48v85.68c0,6.38-5.17,11.54-11.54,11.54s-11.54-5.16-11.54-11.54v-85.68h23.08Z" style="fill:#47a5b0"></path>
        <rect width="13.61" height="8.12" x="666" y="885.88" style="fill:#f3f6f7"></rect>
      </g>
      <g>
        <path d="m728.64,853.48v85.68c0,6.38-5.17,11.54-11.54,11.54s-11.54-5.16-11.54-11.54v-85.68h23.08Z" style="fill:#47a5b0"></path>
        <rect width="13.61" height="8.12" x="705.56" y="885.88" style="fill:#f3f6f7"></rect>
      </g>
      <g>
        <path d="m768.65,853.48v85.68c0,6.38-5.17,11.54-11.54,11.54s-11.54-5.16-11.54-11.54v-85.68h23.08Z" style="fill:#47a5b0"></path>
        <rect width="13.61" height="8.12" x="745.57" y="885.88" style="fill:#f3f6f7"></rect>
      </g>
      <path d="m790.75,832.95v72.62h-187.75v-72.62h-8.27v152.44h204.3v-152.44h-8.27Zm-187.75,132.93v-54.17h187.75v54.17h-187.75Z" style="fill:#231c1c"></path>
    </g>
  </g>
  <g>
    <path d="m532.07,1395.76s-24.11-22.53-36.9-72.27c-12.79-49.74-46.28-72.12-71.01-82.18-24.73-10.06-28.95-17.19-34.31-30.22-5.37-13.03-11.76-19.42-30.92-28.37s-48.3-26.83-51.37-49.32c0,0-11.7,51.48,2.87,81.34,14.57,29.86,35.48,25.78,44.04,49.84,8.55,24.06-1.9,65.88,19.64,78.23,21.54,12.36,69.06,28.83,102.01,47.52,32.95,18.69,86.54,33.03,55.94,5.43Z" style="fill:#47a5b0"></path>
    <path d="m547.57,1412.71s-77.06-37.68-106.26-87.59c-29.2-49.9-24.15-50.2-67.9-79.45-35.02-23.41-50.06-59.8-50.06-59.8" style="stroke:#56c7d4;stroke-linecap:round;stroke-width:4.9px;fill:none;stroke-miterlimit:10"></path>
  </g>
  <g>
    <path d="m545.69,1398.51s14.13-29.82,57.61-57.14c43.49-27.32,54.61-66.03,56.67-92.65,2.06-26.62,7.56-32.8,18.34-41.88,10.78-9.08,14.92-17.11,17.61-38.09,2.69-20.98,10.86-54.17,31.35-63.94,0,0-52.6,4.53-76.61,27.5-24.01,22.97-13.76,41.64-34.07,57.12-20.31,15.47-63.33,18.24-68.54,42.52-5.21,24.28-6.44,74.56-14.22,111.64-7.78,37.07-5.12,92.49,11.86,54.94Z" style="fill:#47a5b0"></path>
    <g>
      <path d="m532.93,1425.36s1.45-80.27,43.1-126.07c41.64-45.79,57.33-75.97,65.18-102.52,7.85-26.55,30.78-57.33,37.42-60.95" style="stroke:#56c7d4;stroke-linecap:round;stroke-width:4.9px;fill:none;stroke-miterlimit:10"></path>
      <path d="M576.03 1299.29c.26-5.12-11.79-27.02-8.53-59.71M610.74 1256.79s-5.44-20.64.97-47.94M640.03 1274.36s-23.68 12.13-48.88 7.65M597.03 1330.17s-35.21-.44-46.19 10.25" style="stroke:#56c7d4;stroke-linecap:round;stroke-width:4.9px;fill:none;stroke-miterlimit:10"></path>
    </g>
  </g>
  <path d="m521.02,1396.9s-14.5-16.36-33.33-26.46c-18.83-10.1-35.83-23.15-40.93-60.86-5.1-37.71,23.53-44.23,10.77-72.87-12.76-28.64-23.85-35.21-14.53-51.17,9.31-15.96,10.31-36.58-2-57.2-12.3-20.62-38.03-52.64-18.35-119.8,0,0,14.52,34.3,42.56,48.49,28.04,14.18,30.66,42.14,28.04,69.37-2.62,27.23-3.93,41.37,12.83,51.84,16.76,10.47,29.15,11.18,27.53,37.38-1.62,26.21-2.59,32.53,16,50.33,18.59,17.8,31.21,43.14,13.92,74.47s-19.18,30.25-5.67,55.37c13.51,25.12-11.29,40.57-36.84,1.11Z" style="fill:#cc7d74"></path>
  <polygon points="611.71 1382.79 414.99 1382.79 447.98 1564.85 581.74 1564.85 611.71 1382.79" style="fill:#231c1c"></polygon>
  <g>
    <g>
      <polygon points="1343.2 1203.24 1256.22 1597.45 1231.98 1597.45 1285.86 1203.24 1343.2 1203.24" style="fill:#525887"></polygon>
      <polygon points="1343.2 1203.24 1256.22 1597.45 1245.95 1597.45 1309.87 1203.24 1343.2 1203.24" style="fill:#231c1c"></polygon>
    </g>
    <g>
      <polygon points="1642.98 1575.93 1619.43 1575.93 1533 1199.24 1560.34 1197.45 1590.25 1195.49 1642.98 1575.93" style="fill:#525887"></polygon>
      <polygon points="1642.98 1575.93 1632.96 1575.93 1560.34 1197.45 1590.25 1195.49 1642.98 1575.93" style="fill:#231c1c"></polygon>
    </g>
    <g>
      <path d="m1663,921.51c-13.12,34.82-25.74,168.06-30.28,203.38-4.54,35.33-12.01,86.63-55.71,93.74-43.71,7.12-236.43,13.94-301.85,6.81-65.42-7.13-70.32-10.81-64.51-39.07,3.29-16,4.82-27.91,11.05-35.29,4.76-5.66,12.3-8.65,25.53-8.77,30.48-.28,125.79,7.94,132.73-24.69,6.95-32.63-89.51-270.05,70.49-295.73,57-9.16,136.37,1.49,175.25,17.63,4.81,1.99,9.01,4.07,12.46,6.21,31.36,19.42,37.96,40.95,24.85,75.78Z" style="fill:#f3f6f7"></path>
      <path d="m1663,921.51c-13.12,34.82-25.74,168.06-30.28,203.38-4.54,35.33-12.01,86.63-55.71,93.74-43.71,7.12-236.43,13.94-301.85,6.81-65.42-7.13-70.32-10.81-64.51-39.07,3.29-16,4.82-27.91,11.05-35.29,81.14,9.51,220.45,7.32,281.34-.84,62.61-8.4,65.2-35.51,61.55-78.11-3.64-42.61-28.35-124.68,0-187.06,14.94-32.88,40.38-43.17,61.11-45.55,4.81,1.99,9.01,4.07,12.46,6.21,31.36,19.42,37.96,40.95,24.85,75.78Z" style="fill:#231c1c"></path>
    </g>
  </g>
  <path d="m1369.54,554.1s45.81-8.56,73.59,20.94c27.78,29.51,1.07,83.73,18.21,103.27,17.15,19.54,35.49,33.09,21.53,70.97-13.96,37.88-168.01,41.93-174.31,14.49-6.31-27.44,5.88-39.82-23.47-69.17-29.34-29.34,14.56-46.15,13.99-73.5-.57-27.35-2.61-59.43,24.27-74.09,29.42-16.05,46.19,7.08,46.19,7.08Z" style="fill:#231c1c"></path>
  <g>
    <g>
      <path d="m1372.72,1601.05c-7.71-20.17,4.7-48.97.32-84.84-4.37-35.87-14.12-40.63-36.12-98.25-21.99-57.61-40.85-158.7-40.85-158.7l62.57-6.23,7.07-.7c25.26,58.15,29.21,156.17,43.85,222.18.9,4.04,1.84,7.97,2.82,11.75,17.06,65.61-31.36,136.53-39.67,114.78Z" style="fill:#ed9b97"></path>
      <path d="m1365.72,1252.34c25.26,58.15,29.21,156.17,43.85,222.18-32.44-107.68-53.87-139.48-84.39-218.15l40.54-4.03Z" style="fill:#231c1c"></path>
    </g>
    <path d="m1371.21,1565.67s8.4,14.03,21.12-4.43c12.72-18.46,6.74-54.88,10.73-63.62,3.99-8.73,4.73-21.02,7.48-19.62,19.7,10.07,33.06,8.47,26.73,33.55-6.66,26.36-8.02,26.98-14.82,66.78-5.59,32.72-33.14,49.49-44.37,48.74s-8.78-15.32-6.87-61.41Z" style="fill:#525887"></path>
  </g>
  <g>
    <path d="m1374.07,1255.52s59.73,176.84,68.74,199.94c9.01,23.1,13.52,26.47,15.21,57.74,1.69,31.26,1.32,76.9,13.75,86.59,17.28,13.47,37.58-84.77,33.64-111.01-3.94-26.24-8.54-29.52-14.44-73.48-5.9-43.96-3.43-117.68-26.49-171.49l-90.41,11.72Z" style="fill:#ed9b97"></path>
    <path d="m1461.05,1566.33s7.11,12.38,20.69-4.98c13.58-17.36,11.71-37.9,12.16-52.39.45-14.49,1.33-17.76,7.2-25.73,2.73-3.71,20.83,6.3,24.49,11.68,2.95,4.33-4.44,24.37-6.03,33.33-1.59,8.96-3.47,54.41-15.31,76.81-6.73,12.73-26.66,31.21-37.07,21.49-7.16-6.69-6.6-20.18-6.14-60.21Z" style="fill:#525887"></path>
  </g>
  <path d="m1338.75,965.89s7.16,48.22-12.56,62.4c-19.72,14.18-60.74,29.45-75.57,88.76-14.83,59.32-19.2,160.76-19.2,160.76,0,0,48.29.36,74.44,21.42,26.14,21.06,94.77,33.77,143.43,20.33,48.66-13.43,63.62-40.83,63.62-40.83,0,0-13.53-91.01-10.66-141.84,0,0,41.3-18.36,43.7-56.47,2.4-38.11-12.9-132.34-12.9-132.34l-194.29,17.8Z" style="fill:#47a5b0"></path>
  <g>
    <path d="m1456.06,716.78c-34.5,76.82-80.29,60.58-80.22,37.68.02-4.26-.65-8.76-1.75-13.26-.23-.97-.48-1.92-.76-2.89-5.26-18.62-16.99-36.32-16.99-36.32l55.63-45.62,7.27-5.97c.47,2.34,1,4.6,1.58,6.82.54,2.09,1.12,4.13,1.75,6.12,1.04,3.31,2.19,6.49,3.41,9.5.14.34.28.67.41,1.02,0,.02.02.05.03.07,11.66,28.02,29.64,42.85,29.64,42.85Z" style="fill:#ed9b97"></path>
    <path d="m1426.39,673.86c-4.88,18.05-17.61,43.8-45,63.32-2.22,1.59-4.82,2.93-7.3,4.02-.23-.97-.48-1.92-.76-2.89-5.26-18.62-16.99-36.32-16.99-36.32l55.63-45.62,8.85.85c.54,2.09,1.12,4.13,1.75,6.12,1.04,3.31,2.19,6.49,3.41,9.5.14.34.28.67.41,1.02Z" style="fill:#231c1c"></path>
  </g>
  <path d="m1355.88,719.24c3.37,1.97,11.89,5.5,14.62,8.28,6.99,7.14,5.34,17.16,27.42,33.64,10.12,7.56,50.66-48.39,55.66-46.64,28.97,10.12,67.11,18.74,67.94,39.29,1.35,33.3,13.74,203.55,9.52,231.23-4.22,27.69-179.88,77.55-192.55,19.35-9.56-43.9-49.99-213.22-30.31-238.01,17.69-22.28,51.16-37.92,57.4-38.89,10.53-1.63-5.92-6.05-9.68-8.25Z" style="fill:#47a5b0"></path>
  <g>
    <path d="m1311.77,619.06c-3.58,8.52-4.17,17.99-1.75,26.91,5.77,21.27,21.97,65.3,46.01,78.4,34.15,18.61,70.77-51.23,70.77-51.23,0,0,16.53-5.91,16.33-25.49s-20.94-19.57-25.98-11.04c0,0-9.26-48.94-59.16-49.02-27.63-.05-40.44,17.72-46.21,31.48Z" style="fill:#ed9b97"></path>
    <g>
      <path d="M1366.15 647.55c-2.06-.97-2.34-2.7-.51-3.84 3.26-2.03 12.37-3.08 14.57-3.01 2.9.09 9.63 4.27 7.33 4.81-2.3.54-4.69-.78-8.29-.29-3.02.41-8.61 2.14-12.31 2.59-.47.06-.56-.15-.8-.26ZM1341.37 652.4c1.49-1.75 1.02-3.46-1.14-3.75-3.84-.52-12.38 1.74-14.39 2.72-2.63 1.29-5.69 7.38-3.35 6.92 2.34-.45 4.36-3.48 7.43-3.7 3.07-.22 7.94-.14 10.82-1.62.42-.22.45-.37.62-.57Z" style="fill:#292d2f"></path>
      <path d="M1358.4 690.48c-3.35-.33-7.35-1.3-5.07-5.73 2.9-5.62 3.76-8.46 1.11-13.78M1362.25 703.44s12.65 1.8 19.14-6.65" style="fill:none;stroke-miterlimit:10;stroke:#292d2f;stroke-width:1.96px"></path>
      <g>
        <ellipse cx="1337.48" cy="663.54" rx="5.28" ry="5.79" style="fill:#292d2f" transform="rotate(-85.68 1337.56 663.51)"></ellipse>
        <ellipse cx="1335.92" cy="665.29" rx="1.17" ry="1.03" style="fill:#f7f8f8" transform="rotate(-10.64 1335.664 665.165)"></ellipse>
      </g>
      <g>
        <ellipse cx="1376.22" cy="655.88" rx="5.75" ry="5.25" style="fill:#292d2f" transform="rotate(-5.13 1376.076 655.835)"></ellipse>
        <ellipse cx="1374.67" cy="657.62" rx="1.16" ry="1.03" style="fill:#f7f8f8" transform="rotate(-10.64 1374.397 657.507)"></ellipse>
      </g>
    </g>
    <path d="m1306.17,680.72s5.21-57.19,23.35-74.72c18.13-17.53,30.35-3.11,30.35-3.11,0,0,26.55-11.9,57.27,33.72,0,0,4.6-8.15,15.81-4.74,0,0-7.33-77.66-65.66-62.83,0,0-79.32-10.08-61.13,111.69Z" style="fill:#231c1c"></path>
    <path d="m1366.14,568.93s-12.45-17.79-31.32-8.36c-18.87,9.43,6.53,50.58-17.35,82.89-23.88,32.31-1.12,66.31-1.12,66.31,0,0-27.18-12.81-19.43-47.33,7.75-34.52,16.2-73.96,17.88-86.42,2.56-19,29.9-43.82,51.35-7.09Z" style="fill:#231c1c"></path>
  </g>
  <path d="m1381.39,858.86s4.62,21.9-8.94,22.95c0,0,13.26,24.59,32.33,23.1,19.07-1.49,13.11-12.96,11.18-15.65-1.94-2.68.45-17.28.45-17.28l-35.02-13.11Z" style="fill:#ed9b97"></path>
  <g>
    <g>
      <path d="m1429.9,1100.73s.68,37.61,0,48.96c-.68,11.35,29.98,16.77,32.69,6.1,2.71-10.67,5.76-45.57,7.28-53.02,1.52-7.45-34.73-16.09-39.98-2.03Z" style="fill:#ed9b97"></path>
      <g>
        <path d="m1500.14,1181.43c-1.85,9.05-19.17,12.78-34.18,10.15-15.01-2.63-24.64-10.46-40.27-14.15,0,0-.47-2.95-.76-7.15-.57-8.24-.42-21.34,5.4-26.6,0,0,16.88,12.86,33.95,3.99,0,0,6.23,11.47,19.92,15.99,8.95,2.95,14.13,6.08,15.75,10.84.67,1.99.73,4.27.18,6.93Z" style="fill:#525887"></path>
        <path d="m1500.14,1181.43c-1.85,9.05-19.17,12.78-34.18,10.15-15.01-2.63-24.64-10.46-40.27-14.15,0,0-.47-2.95-.76-7.15,4.14.96,11.78,3.15,19.7,7.65,10.72,6.06,40.58,14.15,55.33-3.43.67,1.99.73,4.27.18,6.93Z" style="fill:#cc7d74"></path>
      </g>
    </g>
    <path d="m1432.35,996.67s12.71,13.6,31.91,21.17c19.2,7.57,20.28,18.66,15.69,54.09-4.6,35.43-6.76,52.78-6.76,52.78,0,0-36.24,2.94-52.2-5.99,0,0-2.98-34.89,2.98-64.37,0,0-58.15-12.71-38.16-54.94l46.55-2.75Z" style="fill:#231c1c"></path>
  </g>
  <g>
    <g>
      <path d="m1383.48,1103.78v49.04c0,9.62,30.27,12.44,31.68,4.46,1.41-7.98,8.92-38.71,8.68-50.91-.23-12.2-39.19-17.54-40.36-2.58Z" style="fill:#ed9b97"></path>
      <g>
        <path d="m1451.29,1182.98c-2.31,8.95-19.79,11.8-34.65,8.41-14.86-3.39-24.08-11.69-39.5-16.16,0,0-.33-2.97-.39-7.18-.15-8.26.66-21.34,6.74-26.3,0,0,16.21,13.7,33.71,5.7,0,0,5.64,11.77,19.09,16.98,8.79,3.4,13.81,6.79,15.18,11.62.57,2.02.51,4.3-.17,6.93Z" style="fill:#525887"></path>
        <path d="m1451.29,1182.98c-2.31,8.95-19.79,11.8-34.65,8.41-14.86-3.39-24.08-11.69-39.5-16.16,0,0-.33-2.97-.39-7.18,4.09,1.17,11.61,3.75,19.29,8.63,10.4,6.59,39.82,16.18,55.43-.63.57,2.02.51,4.3-.17,6.93Z" style="fill:#cc7d74"></path>
      </g>
    </g>
    <path d="m1392.12,1000.21s29.5,18.41,40.55,37.92c11.05,19.51-6.81,84.91-6.81,84.91,0,0-33,8.93-59.23-14.6,0,0,3.79-35.16,10.28-51.66,0,0-34.62-.81-35.97-24.34-1.35-23.53,4.5-38.14,4.5-38.14l46.69,5.91Z" style="fill:#231c1c"></path>
  </g>
  <path d="m1421.89,913.92c3.66-6.92,13.45-7.69,17.93-1.28,1.84,2.63,3.56,6.36,4.77,11.62,4.33,18.89.62,64.09,1.86,69.35s11.76,2.17,12.07,14.24-24.77,15.79-25.08,0c0,0-2.93-24.51-9.3-42.02-5.1-14.03-9.36-38.5-2.25-51.92Z" style="fill:#ed9b97"></path>
  <path d="m1374.36,880.91c-11.07,2.41-24.68,10.55-27.79,16.8-3.11,6.25-5.84,110.73-5.84,110.73,32.49,9.15,71.54-9.58,100.41-4.01,0,0-.5-77.09-3.1-90.37-2.6-13.27-22.08-24.82-22.08-24.82,0,0,1.49,15.87-14.89,12.35-17.98-3.86-26.7-20.7-26.7-20.7Z" style="fill:#fff3e3"></path>
  <g>
    <path d="m1397.75,1031.97c.41.25,7.18,4.13,18.72,5.81,11.9,1.74-8.85,5.37-19.74,2.89,0,0,4.19,2.38,12.58,3.57,8.38,1.2-5.07,3.72-14.63,1.94-.46-.09-.95-.19-1.45-.3-1.63-.35-3.46-.84-5.45-1.43-4.67-1.38-10.19-3.35-15.75-5.61-.05-.03-.11-.06-.17-.07-9.93-4.06-20.01-9.08-25.73-13.43-.46-.35-.9-.69-1.28-1.02-9.29-7.85-1.9-34.92,12.71-34.87,2.29,0,4.56,0,6.82-.28,1.72-.2,3.86-.42,6.2-.62,6.78-.57,15.2-.87,19.86.46,8.69,2.48,18.63,10.81,23.95,14.89,5.32,4.08-12.33,2.43-16.66.95-4.33-1.49-5.74,6.53,9,9.92,14.72,3.39,24.45,6.11,11.77,7.87-12.36,1.72-21.59-1.48-22.05-1.64.51.32,10.33,6.26,24.05,7.97,14.08,1.76-6.53,7.47-22.75,2.97Z" style="fill:#ed9b97"></path>
    <path d="m1393.23,1045.88c-1.63-.35-3.46-.84-5.45-1.43-4.67-1.38-10.19-3.35-15.75-5.61-.05-.03-.11-.06-.17-.07-10.27-4.44-20.47-9.53-25.73-13.43-.46-.35-.9-.69-1.28-1.02-9.29-7.85-1.9-34.92,12.71-34.87,2.29,0,4.56,0,6.82-.28,1.72-.2,3.86-.42,6.2-.62.38,11.88,4.38,34.15,22.65,57.32Z" style="fill:#231c1c"></path>
  </g>
  <g>
    <path d="m1357.12,947.71c0,10.9-6.45,21.01-16.74,25.49-16.74,7.27-35.82-3.26-38.59-21.3-2.8-18.14-3.74-43.53-5.75-83.61-.14-2.73-.28-5.53-.42-8.4-.11-2.11-.21-4.17-.29-6.19-2.85-72.96,12.93-89.04,12.93-89.04.5-.76,1.08-1.51,1.74-2.24,1.17-1.33,2.56-2.6,4.11-3.76,4.78-3.54,11.06-5.81,17.01-4.58,11.36,2.34,21.55,17.46,17.92,61.09-.11,1.31-.21,2.61-.31,3.92-3.67,50.3,2.96,97.27,7.9,123.45.33,1.72.48,3.45.48,5.15Z" style="fill:#47a5b0"></path>
    <path d="m1314.11,758.67c-16,23.63-15.91,65.23-18.08,109.62-.14-2.73-.28-5.53-.42-8.4-.11-2.1-.21-4.17-.29-6.19-2.85-72.96,12.93-89.04,12.93-89.04.5-.76,1.08-1.51,1.74-2.24,1.17-1.33,2.56-2.6,4.11-3.76Z" style="fill:#44828a"></path>
  </g>
  <path d="m1323.96,905.34c-15.12,2-25.21,15.61-23.63,30.78,1.19,11.35,2.64,23.64,6.84,31.2,9.55,17.19,37.24,60.46,37.24,60.46,0,0,25.11-9.74,30.39-42.44,0,0-11.16-17.69-20.17-58.22-3.19-14.36-16.08-23.71-30.67-21.78h0Z" style="fill:#47a5b0"></path>
  <path d="m1431.97,993.33c-2.45,0-4.89,0-7.33-.29-7.26-.85-21.26-2.1-28-.17-9.34,2.67-20.01,11.63-25.73,16.01s13.24,2.61,17.89,1.01c4.65-1.6,6.16,7.02-9.66,10.67-15.83,3.65-26.28,6.57-12.66,8.46,13.63,1.89,23.72-1.77,23.72-1.77,0,0-10.72,6.69-25.87,8.58-15.14,1.89,7.04,8.02,24.46,3.17,0,0-7.33,4.38-20.13,6.26-12.79,1.88,9.51,5.78,21.21,3.1,0,0-4.5,2.55-13.51,3.84-9.01,1.29,5.44,3.99,15.71,2.09,13.11-2.43,43.01-14.58,53.55-23.48,9.98-8.43,2.04-37.52-13.67-37.47Z" style="fill:#ed9b97"></path>
  <g>
    <path d="m1536.71,783.2c5.85,29.16-.08,94.96-3.49,132.13-1.33,14.38-10.65,25.05-22.37,27.26-3.06.57-6.27.58-9.56-.09-12.61-2.55-22.7-14.25-24.77-28.75-2.02-14.16-4.2-31.24-5.79-49.1-4.24-47.36-4.41-100.2,13.17-118.72,2.23-2.35,4.43-4.27,6.59-5.76,19.52-13.52,37.7.45,46.23,43.04Z" style="fill:#47a5b0"></path>
    <path d="m1490.49,740.15c-8.87,16.85-21.19,53.29-19.76,124.48-4.24-47.36-4.41-100.2,13.17-118.72,2.23-2.35,4.43-4.27,6.59-5.76Z" style="fill:#44828a"></path>
  </g>
  <path d="m1508.41,863.06c-16.28-1.41-35.56,10.98-32.89,42.82.12,1.43,5.33,25.95-4.47,42.91-6.84,11.83-31.04,22.33-51.06,42.2,0,0,24.24,19.71,19.24,48.02,0,0,58.62-36.62,83.22-60.71,11.58-11.34,9.69-55.45,11.21-69.24,3.02-27.4-7.34-44.43-25.26-45.99h0Z" style="fill:#47a5b0"></path>
  <g>
    <g>
      <path d="m1374.08,940.61c-.78,8.25-2.03,16.43-3.05,23.73-.86,6.18-1.62,11.73-1.98,16.15-1.67,20.14-29.06,24.93-30.13-7.35-.78-23.34-3.14-75.34,11.3-79.48,1.5-.43,2.86-.71,4.1-.86,6.14-.76,9.35,1.4,10.84,2.36,8.14,5.25,9.02,13.96,9.57,27.42.24,5.82-.08,11.95-.65,18.03Z" style="fill:#ed9b97"></path>
      <path d="m1374.08,940.61c-.74-34.02-12.05-44.57-19.76-47.8,6.14-.76,9.35,1.4,10.84,2.36,8.14,5.25,9.02,13.96,9.57,27.42.24,5.82-.08,11.95-.65,18.03Z" style="fill:#231c1c"></path>
    </g>
    <path d="m1355.48,952.27c-13.06,0-16.58,10.18-16.42,23.24.05,4.21,1.58,12.38,3.08,16.33,4.59,12.11,15.11,33.84,16.83,41.11,1.72,7.27,1.15,21.04,13.58,22.57s26.37-11.91,12.26-30.9c-14.11-18.99-16.28-36.46-16.27-40.76,0-.96.21-2.89.53-5.32,1.6-12.15-1.32-26.28-13.58-26.28h0Z" style="fill:#ed9b97"></path>
  </g>
  <path d="M1462.96 832.31s9.51-1.62 11.43-11.12 4.34-30.12-14.05-49.32c-18.4-19.2-60.24-31.13-82.88 0 0 0-25.01 2.49-30.82 27.91-5.81 25.42 11.07 46.48 26.33 53.92 15.25 7.44 90-21.39 90-21.39ZM1126.33 467.64s19.76-19.11 45.02-2.27c25.26 16.84 60.26 82.21 50.97 101.18-9.29 18.97-26.5 28.95-32 49.22-5.5 20.27-6.25 50.34-38.47 55.33-32.21 4.99-136.83 7.51-141.31-20.21-4.48-27.72 19.6-24.36 22.96-51.24 3.36-26.88-10.49-88.55 24.81-122.13 29.86-28.41 63.12-15.05 68.02-9.88Z" style="fill:#231c1c"></path>
  <path d="m1441.23,792.62c12.12,4.02,20.71,14.79,22.32,27.46,1.86,14.63,3.31,40.24-6.32,54.61-12.84,19.17-65.89,14.3-80.69-13.95,0,0-16.17-4.91-18.7-16.39-2.53-11.48,7.04-21.55,20.38-13.62,0,0-3.04-32.58,34.61-39.33,11.97-2.15,21.28-1.15,28.4,1.22Z" style="fill:#ed9b97"></path>
  <g>
    <g>
      <path d="m1033.93,1618.88c20.77,18.2-52.96,18.42-87.14-21.56-3.74-4.37-7.19-9.05-10.28-14.02-5.95-9.63-8.06-20.16-8.59-33.05-.94-22.24,2.8-51.53-.54-95.33-3.46-45.36.43-129.04,14.46-172.94.19-.6.38-1.2.58-1.79h97.52s-24.59,109.38-46.12,164.72c-21.52,55.35-18.31,88.13-13.52,107.01,3.5,13.82,27.6,44.15,53.63,66.96Z" style="fill:#ed9b97"></path>
      <path d="m1003.84,1312.17c-12.94,44.93-46.74,170.05-57.05,285.15-3.74-4.37-7.19-9.05-10.28-14.02-5.95-9.63-8.06-20.16-8.59-33.05-.94-22.24,2.8-51.53-.54-95.33-3.46-45.36.43-129.04,14.46-172.94l49.31,9.51c9.49,1.82,15.37,11.4,12.69,20.69Z" style="fill:#231c1c"></path>
    </g>
    <path d="m1019.75,1605.13s9.42,13.78-16.33,10.64c-25.74-3.14-57.83-15.09-75.22-60.6,0,0-3.1,41.35-2.02,63.94,1.08,22.59,24.74,10.84,44.39,19.25,17.19,7.35,61.31,30.88,93.39,10.8,11.8-7.39-25.46-23.19-44.21-44.04Z" style="fill:#cc7d74"></path>
  </g>
  <g>
    <path d="M1453.02 840.76s-6.14 3.79-13.84-.07M1418.12 841.76s-7.39 3.66-15.08-.2M1432.57 847.17c.12 1.56.27 4.47 2.91 6.08 2.64 1.6 1.9 4.9-1.46 5.19M1439.18 867.88s-6.61 2.85-12.44.62" style="fill:none;stroke-miterlimit:10;stroke:#292d2f;stroke-width:1.96px"></path>
  </g>
  <g>
    <path d="m976.6,1305.26s-5.81,115.62-17.95,171.05c-12.14,55.43-4.55,99.9,0,116.87,4.48,16.71,27.34,36.37,58.95,60.64,25.8,19.82-125.02,33.45-125.02-40.02,0-2.09,6.26-78.32-1.04-117.92-8.87-48.14-22.12-106.92-3.04-190.63h88.11Z" style="fill:#ed9b97"></path>
    <path d="m1003.92,1643.15s7.24,4.54,6.31,7.31c-1.84,5.44-16.8,9.89-46.48,1.87-29.68-8.03-37.08-30.2-42-49.77-4.92-19.57-2.6-19.51-27.44-29.89,0,0-6.06,53.57-6.06,68.16s13.17,11.83,28.52,18.3c13.62,5.73,42.87,37.54,98.57,28.38,48.45-7.96,12.3-25.9-11.43-44.36Z" style="fill:#cc7d74"></path>
  </g>
  <g>
    <g>
      <path d="m1112.31,653.51c-.53,2.36-.23,4.86,1.01,6.94,7.68,12.9-5.85,31.58-38.13,21.91-34.44-10.32-43.82-34.44-43.82-34.44,0,0,17.12-6.08,31.76-21.82,8.74-9.4,11.27-25.89,11.89-37.64.15-2.89.19-5.5.17-7.64-.02-3.72-.21-6.03-.21-6.03l8.28,4.02,52.54,25.55,2.63,1.28c-.77.84-1.52,1.68-2.24,2.51-14.66,16.9-20.73,33.29-23.15,42.42-.29,1.08-.52,2.07-.72,2.94Z" style="fill:#ed9b97"></path>
      <path d="m1075,588.46c3.55,12.65,13.52,39.76,38.02,62.11,2.42-9.13,8.5-25.52,23.15-42.42-.13-1.27-.26-2.54-.39-3.79l-52.54-25.55-8.07,2.01-.17,7.64Z" style="fill:#231c1c"></path>
    </g>
    <path d="m1186.77,521.86c5.17,10.07,6.43,21.7,3.68,32.68-5.54,22.09-16.17,66.25-30.37,78.8-14,12.38-69.36,9.83-84.82-41.9,0,0-13.17.17-19.06-13.45-5.89-13.63,8.77-34.82,29.84-20.55,0,0-1.8-53.81,40.06-62.63,31.76-6.69,50.73,7.66,60.68,27.05Z" style="fill:#ed9b97"></path>
    <g>
      <path d="M1162.3 563.53c-.54-.75-1.01-3.1 1.4-2.74 4.27.63 13.79 1.58 17.06 4.49 4.3 3.82 4.5 8.66 2.82 7.66-1.68-1-4.59-5.35-7.98-6.11-3.39-.75-11.18-1.14-12.67-2.6-.22-.21-.45-.44-.64-.71ZM1141.01 557.41c.94-.37 2.76-2.2.34-3.24-4.29-1.85-13.58-6.35-18.3-5.6-6.21.99-9.26 5.2-7.13 5.26 2.13.06 7.37-2.2 10.93-.96 3.56 1.24 10.93 5.29 13.15 4.82.33-.07.67-.15 1-.28Z" style="fill:#292d2f"></path>
      <g>
        <ellipse cx="1128.61" cy="564.45" rx="5.47" ry="6.02" style="fill:#292d2f" transform="rotate(-73.73 1128.569 564.46)"></ellipse>
        <ellipse cx="1130.76" cy="565.08" rx="1.17" ry="1.29" style="fill:#f7f8f8" transform="rotate(-73.73 1130.724 565.086)"></ellipse>
      </g>
      <g>
        <ellipse cx="1167.77" cy="575.88" rx="5.47" ry="6.02" style="fill:#292d2f" transform="rotate(-73.73 1167.73 575.888)"></ellipse>
        <ellipse cx="1169.92" cy="576.51" rx="1.17" ry="1.29" style="fill:#f7f8f8" transform="rotate(-73.73 1169.881 576.52)"></ellipse>
      </g>
      <path d="M1151.88 581.67s-1.81 8.69.32 13.38c2.64 5.8-2.44 6.71-5.38 4.4M1143.78 616.14s-14.76-1.36-20.89-8.81" style="fill:none;stroke-miterlimit:10;stroke:#292d2f;stroke-width:1.96px"></path>
    </g>
    <path d="m1198.65,544.92s-41.58,7.52-47.9-32.88c0,0-24.54-5.31-36.11,19.76-9.19,19.92-17.07,33.78-28.6,25.65-13.47-9.51-22.4-61.86,25.47-71.6,47.87-9.74,84.21,4.76,87.14,59.08Z" style="fill:#231c1c"></path>
  </g>
  <g>
    <path d="m1177.53,818.12s14.73-26.66,25.08-34.69c10.35-8.03,21.77-7.85,32.47,13.2,10.71,21.06,6.07,32.3-3.93,40.86-9.99,8.56-25.52,15.35-33.19,19.98s-31.6-23.93-20.44-39.36Z" style="fill:#ed9b97"></path>
    <g>
      <g>
        <polygon points="1222.21 785.59 1270.75 829.95 1263.98 837.36 1270.26 843.24 1265.2 848.68 1258.83 842.87 1252.36 849.68 1202.99 806.18 1210.56 798.14 1200.92 789.05 1196.52 793.4 1191.81 789.26 1203.83 776.53 1208.41 780.74 1204.42 785.16 1214.43 794.03 1222.21 785.59" style="fill:#525887"></polygon>
        <polygon points="1246.38 813.01 1223.05 791.23 1209.51 806.14 1232.89 827.67 1246.38 813.01" style="fill:#eef4f5"></polygon>
      </g>
      <polygon points="1264.15 842.86 1302.19 875.18 1264.02 842.99 1264.15 842.86" style="fill:#cc7d74"></polygon>
    </g>
    <path d="m1179.43,825.77s-3.3-31.36,0-37.71c3.3-6.35,13.6-12.32,21.32-17.84,7.72-5.52,6.24,9.02-3.86,16.14-10.1,7.12,20.1,21.94-.82,52.15,0,0-7.54,4.04-16.64-12.73Z" style="fill:#ed9b97"></path>
  </g>
  <path d="m1078.85,861.83s63.24-43.81,97.26-58.89c0,0,5.2,20.66,17.47,37.49,12.28,16.84,16.22,13.51,16.22,13.51,0,0-81.83,64.06-126.73,78.23-44.9,14.17-68.86-38.82-4.23-70.34Z" style="fill:#47a5b0"></path>
  <path d="m1467.87,824.59s-27.77-4.31-35.94-16.78c0,0-20.59,22.98-28.31,3.54,0,0-4.68,10.86-25.4,19.38,0,0-12.75-11.25-6.98-29.54,5.77-18.29,85.25-54.83,96.63,23.4Z" style="fill:#231c1c"></path>
  <path d="m1045.16,640.87s17.79,35.27,43.79,39.03c26,3.76,25.38-12.51,24.37-19.45,0,0,9.72,4.72,15.5,9.92,5.78,5.2,16.7,108.69-15.6,181.69s-24.76,111.31-24.76,111.31l-135.19,9.37s10.5-299.69,47.47-317.4c36.97-17.7,44.42-14.45,44.42-14.45Z" style="fill:#eef4f5"></path>
  <g>
    <path d="m1122.48,1368.93s-23.72,15.66-90.48,15.07c-66.75-.6-125.17,17.92-155.56.02-30.4-17.9-61.89-48.03-73.06-63.97,0,0,15.3-51.74,19.92-97.61,5.71-56.53,52.81-200.33,85.33-261.57,3.63-6.82,7.07-12.62,10.25-17.15,0,0,117.04,29.47,154.42,11.56,0,0-5.65,124.68,14.22,202.56,10.04,39.4,17.83,68.69,23.59,100.3,5.64,30.87,9.35,63.95,11.36,110.8Z" style="fill:#231c1c"></path>
    <path d="m1111.11,1258.14c-91.16-147.38-31.77-252.73-79.75-264.09-31.08-7.36-84.85-22.38-122.73-33.17,3.63-6.82,7.07-12.62,10.25-17.15,0,0,117.04,29.47,154.42,11.56,0,0-5.65,124.68,14.22,202.56,10.04,39.4,17.83,68.69,23.59,100.3Z" style="fill:#191414"></path>
  </g>
  <g>
    <path d="m1104.85,994.04c10.45,46.39,28.35,164.69,28.35,164.69-20.51-3.62-47.34,11.15-47.34,11.15-7.68-34.73-27.36-222.36-16.37-275.25,9.68-46.56,46.85-70.26,53.17-91.03.87-2.83,1.15-5.61.72-8.38-3.61-23.09-5.2-123.9-4.02-131.5,0,0,0,0,.03,0,.8.2,16.14,4.25,19.02,21.3,2.96,17.49,10.33,99.01-12.86,152.09-23.19,53.07-31.15,110.52-20.7,156.91Z" style="fill:#47a5b0"></path>
    <path d="m1124.59,696.03s5.66,10.81,10.31,16.2c0,0-1.18,61.29-12.23,91.36.87-2.83,1.15-5.61.72-8.38-3.61-23.09-5.2-123.9-4.02-131.5,0,0,0,0,.03,0,.58.3,10,5.24,15.32,20.33,0,0,.57,13.09-.27,18.52,0,0-3.29-3.27-9.86-6.55Z" style="fill:none;stroke-miterlimit:10;stroke:#44828a;stroke-width:2.94px"></path>
  </g>
  <g>
    <rect width="32.98" height="39.15" x="1315.14" y="893.69" rx="6.42" ry="6.42" style="fill:#fff" transform="rotate(11.1 1332.175 913.706)"></rect>
    <path d="m1212.72,904.24s38.87-11.03,56.34-13.46c17.48-2.43,43.92,10.35,58.2,12.91,14.28,2.56-5.66,9.3-40.97,2.83,0,0,17.69,5.94,16.44,12.97-1.24,7.03-18.6,26.9-23.2,26.29-4.6-.61-16.47-4.64-32.46-1.59-15.99,3.05-33.06,5.24-37.48-2.79-4.42-8.03-7.56-30.02,3.11-37.16Z" style="fill:#ed9b97"></path>
  </g>
  <g>
    <path d="m1068.05,864.6h0c-5.41,50.42-15.1,103.27-29.5,139.79-30.58,77.6-49.79,104.63-52.63,167.22,0,0-76.14-4.51-109.76-30.82-33.64-26.3-72.6-42.52-81.72-40.81-9.12,1.71,93.05-113.57,117.75-194.17,24.7-80.6,15.72-198.15,38.34-218.71,23.29-21.17,35.6-26.64,47.16-33.33,7.38-4.28,12.29-6.34,14.58-7.19,1.69-.62,3.35-1.28,5.03-1.94,1.91-.76,4.01-1.55,6.11-2.25,5.58-1.89,11.19-3.2,13.72-1.76,0,0,.01,0,.01,0,.01.01.03.02.04.03.28.16.52.35.72.59.32.36.51.82.59,1.37.88,6.18,24.36,42.58,32.19,87.75,4.14,23.9,3.47,77.53-2.62,134.23Z" style="fill:#47a5b0"></path>
    <path d="M937.87 932.17s32.38 16.14 61.16 15.27c0 0 .2 10.66-1.52 17.57 0 0-41.36-2.82-62.69-14.51 0 0 .05-8.32 3.05-18.33ZM1068.05 864.6c-22.01-93.15-49.67-169.22-49.67-169.22 7.18-8.75 20.85-17.89 20.85-17.89-10.05 1.66-23.91 7.55-23.91 7.55l-15.71-27.84-1.92-3.41c8.76-4.73 17.64-9.91 25.71-11.38 7.95-1.46 13.73-1.76 13.73-1.76.26.21.51.4.76.62.32.36.51.82.59 1.37.88 6.18 24.36 42.58 32.19 87.75 4.14 23.9 3.47 77.53-2.62 134.23Z" style="fill:none;stroke-miterlimit:10;stroke:#44828a;stroke-width:2.94px"></path>
  </g>
  <path d="m1014.83,818.14c18.21-17.11,45.94-16.61,65.01-.46,14.42,12.22,41.69,32.12,63.35,40.1,34.58,12.75,73.7,33.19,84.55,38.16,0,0-2.99-.12-4.06,7-1.07,7.11-.95,39.07-.24,46.58,0,0-82.65-.91-133.61-19.06-29.18-10.39-58.85-24.6-71.02-34.91-26.63-22.56-27.1-55.67-3.97-77.4h0Z" style="fill:#47a5b0"></path>
</svg>
