<svg width="60" height="60" viewBox="0 0 60 60" fill="none" xmlns="http://www.w3.org/2000/svg">
<g clip-path="url(#clip0_658_9827)">
<path d="M4 48H32.051C32.2409 50.4781 33.1376 52.8498 34.6346 54.8337C36.1316 56.8177 38.1662 58.3306 40.4971 59.1933C42.828 60.0559 45.3573 60.2319 47.7852 59.7005C50.2132 59.1691 52.4377 57.9526 54.1952 56.1952C55.9526 54.4377 57.1691 52.2132 57.7005 49.7853C58.2319 47.3573 58.0559 44.828 57.1933 42.4971C56.3306 40.1662 54.8177 38.1316 52.8337 36.6346C50.8498 35.1376 48.4781 34.2409 46 34.051V6C46 4.93913 45.5786 3.92172 44.8284 3.17157C44.0783 2.42143 43.0609 2 42 2H39V1C39 0.734784 38.8946 0.48043 38.7071 0.292893C38.5196 0.105357 38.2652 0 38 0C37.7348 0 37.4804 0.105357 37.2929 0.292893C37.1054 0.48043 37 0.734784 37 1V2H33V1C33 0.734784 32.8946 0.48043 32.7071 0.292893C32.5196 0.105357 32.2652 0 32 0C31.7348 0 31.4804 0.105357 31.2929 0.292893C31.1054 0.48043 31 0.734784 31 1V2H27V1C27 0.734784 26.8946 0.48043 26.7071 0.292893C26.5196 0.105357 26.2652 0 26 0C25.7348 0 25.4804 0.105357 25.2929 0.292893C25.1054 0.48043 25 0.734784 25 1V2H21V1C21 0.734784 20.8946 0.48043 20.7071 0.292893C20.5196 0.105357 20.2652 0 20 0C19.7348 0 19.4804 0.105357 19.2929 0.292893C19.1054 0.48043 19 0.734784 19 1V2H15V1C15 0.734784 14.8946 0.48043 14.7071 0.292893C14.5196 0.105357 14.2652 0 14 0C13.7348 0 13.4804 0.105357 13.2929 0.292893C13.1054 0.48043 13 0.734784 13 1V2H9V1C9 0.734784 8.89464 0.48043 8.70711 0.292893C8.51957 0.105357 8.26522 0 8 0C7.73478 0 7.48043 0.105357 7.29289 0.292893C7.10536 0.48043 7 0.734784 7 1V2H4C2.93913 2 1.92172 2.42143 1.17157 3.17157C0.421427 3.92172 0 4.93913 0 6L0 44C0 45.0609 0.421427 46.0783 1.17157 46.8284C1.92172 47.5786 2.93913 48 4 48ZM2 44V11H44V34.051C43.3162 34.1037 42.6378 34.2107 41.971 34.371C42.0308 34.0375 42.0098 33.6945 41.9095 33.3708C41.8093 33.0472 41.6329 32.7523 41.395 32.511L38.572 29.628C38.2838 29.3323 37.9138 29.1295 37.5094 29.0458C37.1051 28.962 36.685 29.0011 36.303 29.158C35.933 29.3092 35.6139 29.5629 35.3831 29.8891C35.1523 30.2154 35.0194 30.6008 35 31H30.244L27.244 28L30.244 25H35C35.02 25.4001 35.1537 25.7862 35.3853 26.113C35.617 26.4398 35.9371 26.6937 36.308 26.845C36.6898 27.0011 37.1096 27.0393 37.5133 26.9546C37.917 26.87 38.2861 26.6663 38.573 26.37L41.393 23.487C41.7783 23.0879 41.9936 22.5548 41.9936 22C41.9936 21.4452 41.7783 20.9121 41.393 20.513L38.574 17.631C38.2873 17.334 37.9181 17.1298 37.5141 17.0449C37.1101 16.9601 36.69 16.9984 36.308 17.155C35.9371 17.3063 35.617 17.5602 35.3853 17.887C35.1537 18.2138 35.02 18.5999 35 19H29C28.6062 18.9997 28.2163 19.0775 27.8529 19.2291C27.4895 19.3807 27.1598 19.603 26.883 19.883L23 23.764L19.124 19.892C18.8468 19.6099 18.5163 19.3857 18.1516 19.2325C17.787 19.0794 17.3955 19.0003 17 19H11C10.98 18.5999 10.8464 18.2138 10.6147 17.887C10.383 17.5602 10.0629 17.3063 9.692 17.155C9.31022 16.9988 8.89039 16.9605 8.48666 17.0452C8.08294 17.1299 7.71385 17.3336 7.427 17.63L4.6 20.513C4.2147 20.9121 3.99936 21.4452 3.99936 22C3.99936 22.5548 4.2147 23.0879 4.6 23.487L7.419 26.369C7.70589 26.6657 8.0751 26.8696 8.47901 26.9545C8.88291 27.0393 9.30298 27.0012 9.685 26.845C10.0572 26.6948 10.3788 26.4413 10.6117 26.1144C10.8447 25.7875 10.9794 25.4009 11 25H15.759L18.759 28L15.759 31H11C10.98 30.5999 10.8464 30.2138 10.6147 29.887C10.383 29.5602 10.0629 29.3063 9.692 29.155C9.31027 28.9985 8.89037 28.9601 8.48658 29.0448C8.08279 29.1295 7.71369 29.3333 7.427 29.63L4.6 32.513C4.2147 32.9121 3.99936 33.4452 3.99936 34C3.99936 34.5548 4.2147 35.0879 4.6 35.487L7.419 38.369C7.70574 38.6659 8.07496 38.87 8.47892 38.9549C8.88289 39.0397 9.30302 39.0015 9.685 38.845C10.0572 38.6948 10.3788 38.4413 10.6117 38.1144C10.8447 37.7875 10.9794 37.4009 11 37H17C17.3938 37.0004 17.7837 36.9225 18.1471 36.7709C18.5105 36.6193 18.8402 36.397 19.117 36.117L23 32.236L26.876 36.108C27.1532 36.3902 27.4837 36.6143 27.8484 36.7675C28.213 36.9206 28.6045 36.9997 29 37H35C35.0249 37.4376 35.1845 37.8567 35.457 38.2C33.4744 40.3414 32.2741 43.0903 32.051 46H4C3.46957 46 2.96086 45.7893 2.58579 45.4142C2.21071 45.0391 2 44.5304 2 44ZM37 36.775V36C37 35.7348 36.8946 35.4804 36.7071 35.2929C36.5196 35.1054 36.2652 35 36 35H29C28.8692 34.9995 28.7398 34.9727 28.6195 34.9212C28.4992 34.8696 28.3906 34.7944 28.3 34.7L23.718 30.122L23.71 30.11L23.698 30.102L16.88 23.29C16.7866 23.1973 16.6757 23.124 16.5539 23.0742C16.4321 23.0245 16.3016 22.9992 16.17 23H10C9.73479 23 9.48043 23.1054 9.29289 23.2929C9.10536 23.4804 9 23.7348 9 24V24.883C9 24.91 9 24.967 8.854 24.972L6.034 22.089C6.01221 22.0645 6.00018 22.0328 6.00018 22C6.00018 21.9672 6.01221 21.9355 6.034 21.911L8.934 19.011C8.95578 19.0191 8.97408 19.0344 8.98576 19.0545C8.99744 19.0746 9.00176 19.0981 8.998 19.121V20C8.998 20.2652 9.10336 20.5196 9.29089 20.7071C9.47843 20.8946 9.73279 21 9.998 21H16.998C17.1288 21.0005 17.2582 21.0273 17.3785 21.0788C17.4988 21.1304 17.6074 21.2056 17.698 21.3L22.28 25.878L22.288 25.89L22.3 25.898L29.118 32.71C29.2117 32.8029 29.3228 32.8764 29.445 32.9262C29.5672 32.9759 29.6981 33.001 29.83 33H36C36.2652 33 36.5196 32.8946 36.7071 32.7071C36.8946 32.5196 37 32.2652 37 32V31.12C37 31.077 37.007 31.03 37.146 31.029L39.965 33.909C39.9772 33.9208 39.9868 33.935 39.9934 33.9506C40 33.9662 40.0034 33.983 40.0034 34C40.0034 34.017 40 34.0338 39.9934 34.0494C39.9868 34.065 39.9772 34.0792 39.965 34.091L38.083 36.013C37.7089 36.2479 37.3474 36.5022 37 36.775ZM10 33H16.17C16.4352 32.9999 16.6895 32.8946 16.877 32.707L20.177 29.407L21.589 30.818L17.699 34.707C17.6082 34.8004 17.4995 34.8745 17.3794 34.9248C17.2593 34.9752 17.1302 35.0008 17 35H10C9.73479 35 9.48043 35.1054 9.29289 35.2929C9.10536 35.4804 9 35.7348 9 36V36.883C9 36.91 9 36.967 8.854 36.972L6.034 34.089C6.01221 34.0645 6.00018 34.0328 6.00018 34C6.00018 33.9672 6.01221 33.9355 6.034 33.911L8.934 31.011C8.95578 31.0191 8.97408 31.0344 8.98576 31.0545C8.99744 31.0746 9.00176 31.0981 8.998 31.121V32C8.998 32.1315 9.02393 32.2617 9.07431 32.3831C9.12469 32.5046 9.19853 32.6149 9.2916 32.7078C9.38467 32.8007 9.49515 32.8743 9.6167 32.9245C9.73826 32.9746 9.86851 33.0003 10 33ZM36 23H29.83C29.5648 23.0001 29.3105 23.1055 29.123 23.293L25.823 26.593L24.411 25.182L28.301 21.293C28.3918 21.1996 28.5005 21.1255 28.6206 21.0752C28.7407 21.0248 28.8698 20.9993 29 21H36C36.2652 21 36.5196 20.8946 36.7071 20.7071C36.8946 20.5196 37 20.2652 37 20V19.117C37 19.09 37 19.033 37.146 19.028L39.966 21.911C39.9878 21.9355 39.9998 21.9672 39.9998 22C39.9998 22.0328 39.9878 22.0645 39.966 22.089L37.066 24.989C37.0442 24.981 37.0259 24.9656 37.0142 24.9455C37.0026 24.9254 36.9982 24.9019 37.002 24.879V24C37.002 23.8685 36.9761 23.7383 36.9257 23.6169C36.8753 23.4954 36.8015 23.3851 36.7084 23.2922C36.6153 23.1993 36.5049 23.1257 36.3833 23.0755C36.2617 23.0254 36.1315 22.9997 36 23ZM56 47C56 49.1756 55.3549 51.3023 54.1462 53.1113C52.9375 54.9202 51.2195 56.3301 49.2095 57.1627C47.1995 57.9952 44.9878 58.2131 42.854 57.7886C40.7202 57.3642 38.7602 56.3166 37.2218 54.7782C35.6835 53.2398 34.6358 51.2798 34.2114 49.146C33.7869 47.0122 34.0048 44.8005 34.8373 42.7905C35.6699 40.7805 37.0798 39.0625 38.8887 37.8538C40.6977 36.6451 42.8244 36 45 36C47.9163 36.0034 50.7122 37.1635 52.7744 39.2256C54.8365 41.2878 55.9966 44.0837 56 47ZM4 4H7V5C7 5.26522 7.10536 5.51957 7.29289 5.70711C7.48043 5.89464 7.73478 6 8 6C8.26522 6 8.51957 5.89464 8.70711 5.70711C8.89464 5.51957 9 5.26522 9 5V4H13V5C13 5.26522 13.1054 5.51957 13.2929 5.70711C13.4804 5.89464 13.7348 6 14 6C14.2652 6 14.5196 5.89464 14.7071 5.70711C14.8946 5.51957 15 5.26522 15 5V4H19V5C19 5.26522 19.1054 5.51957 19.2929 5.70711C19.4804 5.89464 19.7348 6 20 6C20.2652 6 20.5196 5.89464 20.7071 5.70711C20.8946 5.51957 21 5.26522 21 5V4H25V5C25 5.26522 25.1054 5.51957 25.2929 5.70711C25.4804 5.89464 25.7348 6 26 6C26.2652 6 26.5196 5.89464 26.7071 5.70711C26.8946 5.51957 27 5.26522 27 5V4H31V5C31 5.26522 31.1054 5.51957 31.2929 5.70711C31.4804 5.89464 31.7348 6 32 6C32.2652 6 32.5196 5.89464 32.7071 5.70711C32.8946 5.51957 33 5.26522 33 5V4H37V5C37 5.26522 37.1054 5.51957 37.2929 5.70711C37.4804 5.89464 37.7348 6 38 6C38.2652 6 38.5196 5.89464 38.7071 5.70711C38.8946 5.51957 39 5.26522 39 5V4H42C42.5304 4 43.0391 4.21071 43.4142 4.58579C43.7893 4.96086 44 5.46957 44 6V9H2V6C2 5.46957 2.21071 4.96086 2.58579 4.58579C2.96086 4.21071 3.46957 4 4 4Z" fill="#90095A"/>
<path d="M51.3399 40.6191C49.6562 38.9418 47.3765 38 44.9999 38C42.6233 38 40.3436 38.9418 38.6599 40.6191C38.6529 40.6261 38.6429 40.6281 38.6359 40.6361C38.6289 40.6441 38.6259 40.6531 38.6189 40.6601C36.9415 42.3438 35.9998 44.6235 35.9998 47.0001C35.9998 49.3767 36.9415 51.6565 38.6189 53.3401C38.6259 53.3471 38.6279 53.3571 38.6359 53.3641C38.6439 53.3711 38.6529 53.3741 38.6599 53.3811C40.3436 55.0585 42.6233 56.0003 44.9999 56.0003C47.3765 56.0003 49.6562 55.0585 51.3399 53.3811C51.3469 53.3741 51.3569 53.3721 51.3639 53.3641C51.3709 53.3561 51.3739 53.3471 51.3809 53.3401C53.0582 51.6565 54 49.3767 54 47.0001C54 44.6235 53.0582 42.3438 51.3809 40.6601C51.3739 40.6531 51.3719 40.6431 51.3639 40.6361C51.3559 40.6291 51.3469 40.6261 51.3399 40.6191ZM51.9199 46.0001H50.9999C50.7347 46.0001 50.4803 46.1055 50.2928 46.293C50.1053 46.4806 49.9999 46.7349 49.9999 47.0001C49.9999 47.2654 50.1053 47.5197 50.2928 47.7072C50.4803 47.8948 50.7347 48.0001 50.9999 48.0001H51.9199C51.7544 49.1555 51.3004 50.2505 50.5999 51.1841L49.9509 50.5351C49.7623 50.353 49.5097 50.2522 49.2475 50.2545C48.9853 50.2567 48.7345 50.3619 48.5491 50.5473C48.3637 50.7327 48.2585 50.9835 48.2562 51.2457C48.2539 51.5079 48.3547 51.7605 48.5369 51.9491L49.1859 52.5981C48.2519 53.2996 47.1561 53.7543 45.9999 53.9201V53.0001C45.9999 52.7349 45.8945 52.4806 45.707 52.293C45.5195 52.1055 45.2651 52.0001 44.9999 52.0001C44.7347 52.0001 44.4803 52.1055 44.2928 52.293C44.1053 52.4806 43.9999 52.7349 43.9999 53.0001V53.9201C42.8445 53.7546 41.7495 53.3006 40.8159 52.6001L41.4649 51.9511C41.6471 51.7625 41.7478 51.5099 41.7456 51.2477C41.7433 50.9855 41.6381 50.7347 41.4527 50.5493C41.2673 50.3639 41.0165 50.2587 40.7543 50.2565C40.4921 50.2542 40.2395 50.355 40.0509 50.5371L39.4019 51.1861C38.7004 50.2522 38.2457 49.1564 38.0799 48.0001H38.9999C39.2651 48.0001 39.5195 47.8948 39.707 47.7072C39.8945 47.5197 39.9999 47.2654 39.9999 47.0001C39.9999 46.7349 39.8945 46.4806 39.707 46.293C39.5195 46.1055 39.2651 46.0001 38.9999 46.0001H38.0799C38.2454 44.8448 38.6994 43.7497 39.3999 42.8161L40.0489 43.4651C40.2375 43.6473 40.4901 43.7481 40.7523 43.7458C41.0145 43.7435 41.2653 43.6384 41.4507 43.453C41.6361 43.2676 41.7413 43.0167 41.7436 42.7545C41.7459 42.4923 41.6451 42.2397 41.4629 42.0511L40.8139 41.4021C41.7479 40.7006 42.8436 40.246 43.9999 40.0801V41.0001C43.9999 41.2654 44.1053 41.5197 44.2928 41.7072C44.4803 41.8948 44.7347 42.0001 44.9999 42.0001C45.2651 42.0001 45.5195 41.8948 45.707 41.7072C45.8945 41.5197 45.9999 41.2654 45.9999 41.0001V40.0801C47.1553 40.2457 48.2503 40.6997 49.1839 41.4001L48.5349 42.0491C48.4394 42.1414 48.3632 42.2517 48.3108 42.3737C48.2584 42.4957 48.2308 42.627 48.2296 42.7597C48.2285 42.8925 48.2538 43.0242 48.3041 43.1471C48.3544 43.27 48.4286 43.3816 48.5225 43.4755C48.6164 43.5694 48.728 43.6437 48.8509 43.694C48.9738 43.7442 49.1055 43.7695 49.2383 43.7684C49.3711 43.7672 49.5023 43.7397 49.6243 43.6872C49.7463 43.6348 49.8567 43.5587 49.9489 43.4631L50.5979 42.8141C51.2994 43.7481 51.7541 44.8439 51.9199 46.0001Z" fill="#90095A"/>
<path d="M46.217 46.7995L46.895 45.4435C47.0135 45.2061 47.0329 44.9314 46.9489 44.6797C46.8649 44.4281 46.6844 44.2201 46.447 44.1015C46.2096 43.983 45.9349 43.9636 45.6832 44.0476C45.4315 44.1316 45.2235 44.3121 45.105 44.5495L44.105 46.5495C44.0113 46.7373 43.979 46.9497 44.0128 47.1568C44.0465 47.364 44.1445 47.5552 44.293 47.7035L45.293 48.7035C45.4816 48.8857 45.7342 48.9865 45.9964 48.9842C46.2586 48.9819 46.5094 48.8767 46.6948 48.6913C46.8802 48.5059 46.9854 48.2551 46.9877 47.9929C46.99 47.7307 46.8892 47.4781 46.707 47.2895L46.217 46.7995Z" fill="#90095A"/>
</g>
<defs>
<clipPath id="clip0_658_9827">
<rect width="60" height="60" fill="white"/>
</clipPath>
</defs>
</svg>
