<svg width="141" height="138" viewBox="0 0 141 138" fill="none" xmlns="http://www.w3.org/2000/svg">
<path d="M141 69C141 73.831 125.792 76.9022 124.76 81.4227C123.693 86.0812 136.08 95.4672 134.05 99.6771C131.985 103.956 116.949 100.091 114.025 103.784C111.066 107.476 118.188 121.313 114.472 124.281C110.791 127.214 98.9202 117.207 94.6537 119.277C90.4561 121.313 90.869 136.876 86.1896 137.946C81.6823 138.981 75.317 124.799 70.5 124.799C65.683 124.799 59.3177 138.981 54.8104 137.946C50.1654 136.876 50.5783 121.313 46.3463 119.277C42.0798 117.207 30.2094 127.214 26.5278 124.281C22.8463 121.313 29.9341 107.476 26.9751 103.784C24.0505 100.091 9.01464 103.991 6.95022 99.6771C4.92021 95.4672 17.2723 86.0812 16.2401 81.4227C15.2079 76.9022 0 73.831 0 69C0 64.1689 15.2079 61.0978 16.2401 56.5773C17.3067 51.9188 4.92021 42.5327 6.95022 38.3228C9.01464 34.0439 24.0505 37.9087 26.9751 34.2164C29.9341 30.5241 22.8119 16.6866 26.5278 13.719C30.2094 10.7859 42.0798 20.793 46.3463 18.7226C50.5439 16.6866 50.131 1.12377 54.8104 0.0540356C59.3177 -0.981189 65.683 13.2014 70.5 13.2014C75.317 13.2014 81.6823 -0.981189 86.1896 0.0540356C90.869 1.12377 90.4561 16.6866 94.6537 18.7226C98.9202 20.793 110.791 10.7859 114.472 13.719C118.154 16.6866 111.066 30.5241 114.025 34.2164C116.949 37.9087 131.985 34.0094 134.05 38.3228C136.08 42.5327 123.728 51.9188 124.76 56.5773C125.792 61.0978 141 64.1689 141 69Z" fill="#FBCA0D"/>
<path d="M34.1641 55.0977H35.9102C36.5273 55.0977 37.0352 54.9922 37.4336 54.7812C37.8398 54.5625 38.1406 54.2656 38.3359 53.8906C38.5391 53.5078 38.6406 53.0664 38.6406 52.5664C38.6406 52.0742 38.5508 51.6484 38.3711 51.2891C38.1914 50.9219 37.918 50.6406 37.5508 50.4453C37.1914 50.2422 36.7305 50.1406 36.168 50.1406C35.7148 50.1406 35.2969 50.2305 34.9141 50.4102C34.5391 50.5898 34.2383 50.8477 34.0117 51.1836C33.793 51.5117 33.6836 51.9062 33.6836 52.3672H30.5781C30.5781 51.4453 30.8203 50.6367 31.3047 49.9414C31.7969 49.2383 32.4609 48.6875 33.2969 48.2891C34.1328 47.8906 35.0664 47.6914 36.0977 47.6914C37.2227 47.6914 38.207 47.8789 39.0508 48.2539C39.9023 48.6211 40.5625 49.1641 41.0312 49.8828C41.5078 50.6016 41.7461 51.4922 41.7461 52.5547C41.7461 53.0625 41.625 53.5703 41.3828 54.0781C41.1484 54.5781 40.8008 55.0312 40.3398 55.4375C39.8867 55.8359 39.3281 56.1602 38.6641 56.4102C38.0078 56.6523 37.2539 56.7734 36.4023 56.7734H34.1641V55.0977ZM34.1641 57.4883V55.8359H36.4023C37.3633 55.8359 38.1953 55.9492 38.8984 56.1758C39.6094 56.3945 40.1953 56.707 40.6562 57.1133C41.1172 57.5117 41.457 57.9766 41.6758 58.5078C41.9023 59.0391 42.0156 59.6094 42.0156 60.2188C42.0156 61.0156 41.8672 61.7266 41.5703 62.3516C41.2734 62.9688 40.8555 63.4922 40.3164 63.9219C39.7852 64.3516 39.1602 64.6797 38.4414 64.9062C37.7227 65.125 36.9453 65.2344 36.1094 65.2344C35.3828 65.2344 34.6758 65.1367 33.9883 64.9414C33.3086 64.7383 32.6953 64.4375 32.1484 64.0391C31.6016 63.6328 31.168 63.125 30.8477 62.5156C30.5273 61.8984 30.3672 61.1836 30.3672 60.3711H33.4727C33.4727 60.8398 33.5859 61.2578 33.8125 61.625C34.0469 61.9922 34.3672 62.2812 34.7734 62.4922C35.1875 62.6953 35.6523 62.7969 36.168 62.7969C36.7383 62.7969 37.2266 62.6953 37.6328 62.4922C38.0469 62.2812 38.3633 61.9844 38.582 61.6016C38.8008 61.2109 38.9102 60.7461 38.9102 60.207C38.9102 59.5664 38.7891 59.0469 38.5469 58.6484C38.3047 58.25 37.957 57.957 37.5039 57.7695C37.0586 57.582 36.5273 57.4883 35.9102 57.4883H34.1641ZM55.7852 55.0039V57.875C55.7852 59.1875 55.6523 60.3086 55.3867 61.2383C55.1211 62.168 54.7383 62.9297 54.2383 63.5234C53.7383 64.1094 53.1406 64.543 52.4453 64.8242C51.75 65.0977 50.9766 65.2344 50.125 65.2344C49.4453 65.2344 48.8125 65.1484 48.2266 64.9766C47.6406 64.7969 47.1133 64.5234 46.6445 64.1562C46.1836 63.7812 45.7852 63.3047 45.4492 62.7266C45.1211 62.1484 44.8672 61.457 44.6875 60.6523C44.5156 59.8477 44.4297 58.9219 44.4297 57.875V55.0039C44.4297 53.6914 44.5625 52.5742 44.8281 51.6523C45.1016 50.7305 45.4883 49.9766 45.9883 49.3906C46.4883 48.8047 47.0859 48.3789 47.7812 48.1133C48.4766 47.8398 49.25 47.7031 50.1016 47.7031C50.7891 47.7031 51.4219 47.7891 52 47.9609C52.5859 48.1328 53.1094 48.4023 53.5703 48.7695C54.0391 49.1289 54.4375 49.5977 54.7656 50.1758C55.0938 50.7461 55.3438 51.4336 55.5156 52.2383C55.6953 53.0352 55.7852 53.957 55.7852 55.0039ZM52.6914 58.2969V54.5703C52.6914 53.9141 52.6523 53.3438 52.5742 52.8594C52.5039 52.3672 52.3984 51.9492 52.2578 51.6055C52.1172 51.2617 51.9414 50.9844 51.7305 50.7734C51.5195 50.5547 51.2773 50.3945 51.0039 50.293C50.7305 50.1914 50.4297 50.1406 50.1016 50.1406C49.6953 50.1406 49.332 50.2227 49.0117 50.3867C48.6914 50.543 48.4219 50.793 48.2031 51.1367C47.9844 51.4805 47.8164 51.9375 47.6992 52.5078C47.5898 53.0703 47.5352 53.7578 47.5352 54.5703V58.2969C47.5352 58.9531 47.5703 59.5273 47.6406 60.0195C47.7188 60.5117 47.8281 60.9336 47.9688 61.2852C48.1172 61.6367 48.293 61.9258 48.4961 62.1523C48.707 62.3711 48.9492 62.5352 49.2227 62.6445C49.4961 62.7461 49.7969 62.7969 50.125 62.7969C50.5391 62.7969 50.9023 62.7148 51.2148 62.5508C51.5352 62.3867 51.8047 62.1289 52.0234 61.7773C52.2422 61.418 52.4062 60.9531 52.5156 60.3828C52.6328 59.8047 52.6914 59.1094 52.6914 58.2969ZM71.9453 62.3047V47H75.0625V65H72.25L71.9453 62.3047ZM63.8008 58.8125V58.5664C63.8008 57.5977 63.9102 56.7188 64.1289 55.9297C64.3555 55.1328 64.6836 54.4492 65.1133 53.8789C65.543 53.3086 66.0625 52.8672 66.6719 52.5547C67.2891 52.2422 67.9883 52.0859 68.7695 52.0859C69.5273 52.0859 70.1875 52.2383 70.75 52.543C71.3203 52.8477 71.8047 53.2812 72.2031 53.8438C72.6094 54.4062 72.9336 55.0742 73.1758 55.8477C73.418 56.6133 73.5938 57.457 73.7031 58.3789V59.0469C73.5938 59.9453 73.418 60.7695 73.1758 61.5195C72.9336 62.2695 72.6094 62.9258 72.2031 63.4883C71.8047 64.043 71.3203 64.4727 70.75 64.7773C70.1797 65.082 69.5117 65.2344 68.7461 65.2344C67.9727 65.2344 67.2773 65.0742 66.6602 64.7539C66.0508 64.4336 65.5312 63.9844 65.1016 63.4062C64.6797 62.8281 64.3555 62.1484 64.1289 61.3672C63.9102 60.5859 63.8008 59.7344 63.8008 58.8125ZM66.9062 58.5664V58.8125C66.9062 59.3594 66.9531 59.8711 67.0469 60.3477C67.1406 60.8242 67.293 61.2461 67.5039 61.6133C67.7148 61.9727 67.9844 62.2539 68.3125 62.457C68.6484 62.6602 69.0547 62.7617 69.5312 62.7617C70.1406 62.7617 70.6406 62.6289 71.0312 62.3633C71.4297 62.0898 71.7383 61.7188 71.957 61.25C72.1758 60.7734 72.3164 60.2383 72.3789 59.6445V57.8047C72.3477 57.3359 72.2656 56.9023 72.1328 56.5039C72.0078 56.1055 71.8281 55.7617 71.5938 55.4727C71.3672 55.1836 71.0859 54.957 70.75 54.793C70.4141 54.6289 70.0156 54.5469 69.5547 54.5469C69.0781 54.5469 68.6719 54.6523 68.3359 54.8633C68 55.0664 67.7266 55.3516 67.5156 55.7188C67.3047 56.0859 67.1484 56.5117 67.0469 56.9961C66.9531 57.4805 66.9062 58.0039 66.9062 58.5664ZM84.8477 62.3047V56.457C84.8477 56.0273 84.7734 55.6562 84.625 55.3438C84.4766 55.0312 84.25 54.7891 83.9453 54.6172C83.6406 54.4453 83.2539 54.3594 82.7852 54.3594C82.3711 54.3594 82.0078 54.4297 81.6953 54.5703C81.3906 54.7109 81.1562 54.9102 80.9922 55.168C80.8281 55.418 80.7461 55.707 80.7461 56.0352H77.6406C77.6406 55.5117 77.7656 55.0156 78.0156 54.5469C78.2656 54.0703 78.6211 53.6484 79.082 53.2812C79.5508 52.9062 80.1094 52.6133 80.7578 52.4023C81.4141 52.1914 82.1484 52.0859 82.9609 52.0859C83.9219 52.0859 84.7773 52.25 85.5273 52.5781C86.2852 52.8984 86.8789 53.3828 87.3086 54.0312C87.7461 54.6797 87.9648 55.4961 87.9648 56.4805V62.0117C87.9648 62.6445 88.0039 63.1875 88.082 63.6406C88.168 64.0859 88.293 64.4727 88.457 64.8008V65H85.3047C85.1562 64.6797 85.043 64.2734 84.9648 63.7812C84.8867 63.2812 84.8477 62.7891 84.8477 62.3047ZM85.2812 57.2773L85.3047 59.1172H83.3477C82.8633 59.1172 82.4375 59.168 82.0703 59.2695C81.7031 59.3633 81.4023 59.5039 81.168 59.6914C80.9336 59.8711 80.7578 60.0898 80.6406 60.3477C80.5234 60.5977 80.4648 60.8828 80.4648 61.2031C80.4648 61.5156 80.5352 61.7969 80.6758 62.0469C80.8242 62.2969 81.0352 62.4961 81.3086 62.6445C81.5898 62.7852 81.918 62.8555 82.293 62.8555C82.8398 62.8555 83.3164 62.7461 83.7227 62.5273C84.1289 62.3008 84.4453 62.0273 84.6719 61.707C84.8984 61.3867 85.0195 61.082 85.0352 60.793L85.9258 62.1289C85.8164 62.4492 85.6523 62.7891 85.4336 63.1484C85.2148 63.5078 84.9336 63.8438 84.5898 64.1562C84.2461 64.4688 83.832 64.7266 83.3477 64.9297C82.8633 65.1328 82.3008 65.2344 81.6602 65.2344C80.8398 65.2344 80.1055 65.0703 79.457 64.7422C78.8086 64.4141 78.2969 63.9648 77.9219 63.3945C77.5469 62.8242 77.3594 62.1758 77.3594 61.4492C77.3594 60.7773 77.4844 60.1836 77.7344 59.668C77.9844 59.1523 78.3555 58.7188 78.8477 58.3672C79.3398 58.0078 79.9492 57.7383 80.6758 57.5586C81.4102 57.3711 82.25 57.2773 83.1953 57.2773H85.2812ZM94.2812 63.5938L97.6797 52.3203H100.996L95.9102 66.9219C95.793 67.2344 95.6406 67.5742 95.4531 67.9414C95.2734 68.3086 95.0312 68.6562 94.7266 68.9844C94.4219 69.3203 94.0391 69.5938 93.5781 69.8047C93.125 70.0156 92.5742 70.1211 91.9258 70.1211C91.6445 70.1211 91.3945 70.1016 91.1758 70.0625C90.957 70.0234 90.7266 69.9727 90.4844 69.9102V67.5898C90.5625 67.5977 90.6523 67.6016 90.7539 67.6016C90.8633 67.6094 90.957 67.6133 91.0352 67.6133C91.4883 67.6133 91.8633 67.5586 92.1602 67.4492C92.457 67.3477 92.6953 67.1797 92.875 66.9453C93.0625 66.7188 93.2188 66.4219 93.3438 66.0547L94.2812 63.5938ZM92.6055 52.3203L95.4766 61.6602L95.9805 64.9297L93.8477 65.3164L89.2656 52.3203H92.6055ZM109.469 61.5312C109.469 61.2656 109.398 61.0273 109.258 60.8164C109.117 60.6055 108.852 60.4141 108.461 60.2422C108.078 60.0625 107.516 59.8945 106.773 59.7383C106.117 59.5977 105.512 59.4219 104.957 59.2109C104.402 59 103.926 58.7461 103.527 58.4492C103.129 58.1445 102.816 57.7891 102.59 57.3828C102.371 56.9688 102.262 56.4922 102.262 55.9531C102.262 55.4297 102.375 54.9375 102.602 54.4766C102.828 54.0078 103.156 53.5977 103.586 53.2461C104.016 52.8867 104.539 52.6055 105.156 52.4023C105.773 52.1914 106.469 52.0859 107.242 52.0859C108.32 52.0859 109.246 52.2617 110.02 52.6133C110.801 52.9648 111.398 53.4492 111.812 54.0664C112.227 54.6758 112.434 55.3633 112.434 56.1289H109.34C109.34 55.793 109.262 55.4883 109.105 55.2148C108.957 54.9414 108.727 54.7227 108.414 54.5586C108.102 54.3867 107.707 54.3008 107.23 54.3008C106.801 54.3008 106.438 54.3711 106.141 54.5117C105.852 54.6523 105.633 54.8359 105.484 55.0625C105.336 55.2891 105.262 55.5391 105.262 55.8125C105.262 56.0156 105.301 56.1992 105.379 56.3633C105.465 56.5195 105.602 56.6641 105.789 56.7969C105.977 56.9297 106.23 57.0508 106.551 57.1602C106.879 57.2695 107.281 57.375 107.758 57.4766C108.703 57.6641 109.527 57.9141 110.23 58.2266C110.941 58.5312 111.496 58.9375 111.895 59.4453C112.293 59.9531 112.492 60.6016 112.492 61.3906C112.492 61.9531 112.371 62.4688 112.129 62.9375C111.887 63.3984 111.535 63.8008 111.074 64.1445C110.613 64.4883 110.062 64.7578 109.422 64.9531C108.781 65.1406 108.059 65.2344 107.254 65.2344C106.09 65.2344 105.105 65.0273 104.301 64.6133C103.496 64.1914 102.887 63.6602 102.473 63.0195C102.059 62.3711 101.852 61.6992 101.852 61.0039H104.816C104.84 61.4961 104.973 61.8906 105.215 62.1875C105.457 62.4844 105.762 62.6992 106.129 62.832C106.504 62.957 106.898 63.0195 107.312 63.0195C107.781 63.0195 108.176 62.957 108.496 62.832C108.816 62.6992 109.059 62.5234 109.223 62.3047C109.387 62.0781 109.469 61.8203 109.469 61.5312ZM31.5391 91H28.4219V77.1484C28.4219 76.1953 28.6055 75.3945 28.9727 74.7461C29.3398 74.0898 29.8633 73.5938 30.543 73.2578C31.2227 72.9219 32.0234 72.7539 32.9453 72.7539C33.25 72.7539 33.5391 72.7734 33.8125 72.8125C34.0938 72.8516 34.3711 72.9062 34.6445 72.9766L34.5859 75.332C34.4375 75.293 34.2734 75.2656 34.0938 75.25C33.9219 75.2344 33.7305 75.2266 33.5195 75.2266C33.0977 75.2266 32.7383 75.3008 32.4414 75.4492C32.1445 75.5977 31.918 75.8164 31.7617 76.1055C31.6133 76.3867 31.5391 76.7344 31.5391 77.1484V91ZM34.1055 78.3203V80.5469H26.5117V78.3203H34.1055ZM39.1094 80.9102V91H36.0156V78.3203H38.9453L39.1094 80.9102ZM42.9648 78.2383L42.918 81.1211C42.7461 81.0898 42.5508 81.0664 42.332 81.0508C42.1211 81.0352 41.9219 81.0273 41.7344 81.0273C41.2578 81.0273 40.8398 81.0938 40.4805 81.2266C40.1211 81.3516 39.8203 81.5352 39.5781 81.7773C39.3438 82.0195 39.1641 82.3164 39.0391 82.668C38.9141 83.0117 38.8438 83.4023 38.8281 83.8398L38.1602 83.7578C38.1602 82.9531 38.2422 82.207 38.4062 81.5195C38.5703 80.832 38.8086 80.2305 39.1211 79.7148C39.4336 79.1992 39.8242 78.8008 40.293 78.5195C40.7695 78.2305 41.3164 78.0859 41.9336 78.0859C42.1055 78.0859 42.2891 78.1016 42.4844 78.1328C42.6875 78.1562 42.8477 78.1914 42.9648 78.2383ZM50.125 91.2344C49.1641 91.2344 48.3008 91.0781 47.5352 90.7656C46.7695 90.4531 46.1172 90.0195 45.5781 89.4648C45.0469 88.9023 44.6367 88.25 44.3477 87.5078C44.0664 86.7578 43.9258 85.9531 43.9258 85.0938V84.625C43.9258 83.6484 44.0664 82.7617 44.3477 81.9648C44.6289 81.1602 45.0273 80.4688 45.543 79.8906C46.0586 79.3125 46.6758 78.8672 47.3945 78.5547C48.1133 78.2422 48.9062 78.0859 49.7734 78.0859C50.6719 78.0859 51.4648 78.2383 52.1523 78.543C52.8398 78.8398 53.4141 79.2617 53.875 79.8086C54.3359 80.3555 54.6836 81.0117 54.918 81.7773C55.1523 82.5352 55.2695 83.375 55.2695 84.2969V85.5977H45.332V83.4648H52.2227V83.2305C52.207 82.7383 52.1133 82.2891 51.9414 81.8828C51.7695 81.4688 51.5039 81.1406 51.1445 80.8984C50.7852 80.6484 50.3203 80.5234 49.75 80.5234C49.2891 80.5234 48.8867 80.625 48.543 80.8281C48.207 81.0234 47.9258 81.3047 47.6992 81.6719C47.4805 82.0312 47.3164 82.4609 47.207 82.9609C47.0977 83.4609 47.043 84.0156 47.043 84.625V85.0938C47.043 85.625 47.1133 86.1172 47.2539 86.5703C47.4023 87.0234 47.6172 87.418 47.8984 87.7539C48.1875 88.082 48.5312 88.3398 48.9297 88.5273C49.3359 88.707 49.7969 88.7969 50.3125 88.7969C50.9609 88.7969 51.5469 88.6719 52.0703 88.4219C52.6016 88.1641 53.0625 87.7852 53.4531 87.2852L55.0117 88.9023C54.7461 89.293 54.3867 89.668 53.9336 90.0273C53.4883 90.3867 52.9492 90.6797 52.3164 90.9062C51.6836 91.125 50.9531 91.2344 50.125 91.2344ZM63.0391 91.2344C62.0781 91.2344 61.2148 91.0781 60.4492 90.7656C59.6836 90.4531 59.0312 90.0195 58.4922 89.4648C57.9609 88.9023 57.5508 88.25 57.2617 87.5078C56.9805 86.7578 56.8398 85.9531 56.8398 85.0938V84.625C56.8398 83.6484 56.9805 82.7617 57.2617 81.9648C57.543 81.1602 57.9414 80.4688 58.457 79.8906C58.9727 79.3125 59.5898 78.8672 60.3086 78.5547C61.0273 78.2422 61.8203 78.0859 62.6875 78.0859C63.5859 78.0859 64.3789 78.2383 65.0664 78.543C65.7539 78.8398 66.3281 79.2617 66.7891 79.8086C67.25 80.3555 67.5977 81.0117 67.832 81.7773C68.0664 82.5352 68.1836 83.375 68.1836 84.2969V85.5977H58.2461V83.4648H65.1367V83.2305C65.1211 82.7383 65.0273 82.2891 64.8555 81.8828C64.6836 81.4688 64.418 81.1406 64.0586 80.8984C63.6992 80.6484 63.2344 80.5234 62.6641 80.5234C62.2031 80.5234 61.8008 80.625 61.457 80.8281C61.1211 81.0234 60.8398 81.3047 60.6133 81.6719C60.3945 82.0312 60.2305 82.4609 60.1211 82.9609C60.0117 83.4609 59.957 84.0156 59.957 84.625V85.0938C59.957 85.625 60.0273 86.1172 60.168 86.5703C60.3164 87.0234 60.5312 87.418 60.8125 87.7539C61.1016 88.082 61.4453 88.3398 61.8438 88.5273C62.25 88.707 62.7109 88.7969 63.2266 88.7969C63.875 88.7969 64.4609 88.6719 64.9844 88.4219C65.5156 88.1641 65.9766 87.7852 66.3672 87.2852L67.9258 88.9023C67.6602 89.293 67.3008 89.668 66.8477 90.0273C66.4023 90.3867 65.8633 90.6797 65.2305 90.9062C64.5977 91.125 63.8672 91.2344 63.0391 91.2344ZM82.2344 78.3203V80.5469H74.9688V78.3203H82.2344ZM76.9141 75.2031H80.0195V87.3438C80.0195 87.7188 80.0703 88.0078 80.1719 88.2109C80.2734 88.4141 80.4258 88.5508 80.6289 88.6211C80.832 88.6914 81.0742 88.7266 81.3555 88.7266C81.5586 88.7266 81.7461 88.7148 81.918 88.6914C82.0898 88.668 82.2344 88.6445 82.3516 88.6211L82.3633 90.9414C82.1055 91.0273 81.8125 91.0977 81.4844 91.1523C81.1641 91.207 80.8008 91.2344 80.3945 91.2344C79.6992 91.2344 79.0898 91.1172 78.5664 90.8828C78.043 90.6406 77.6367 90.2539 77.3477 89.7227C77.0586 89.1836 76.9141 88.4727 76.9141 87.5898V75.2031ZM87.3906 80.9102V91H84.2969V78.3203H87.2266L87.3906 80.9102ZM91.2461 78.2383L91.1992 81.1211C91.0273 81.0898 90.832 81.0664 90.6133 81.0508C90.4023 81.0352 90.2031 81.0273 90.0156 81.0273C89.5391 81.0273 89.1211 81.0938 88.7617 81.2266C88.4023 81.3516 88.1016 81.5352 87.8594 81.7773C87.625 82.0195 87.4453 82.3164 87.3203 82.668C87.1953 83.0117 87.125 83.4023 87.1094 83.8398L86.4414 83.7578C86.4414 82.9531 86.5234 82.207 86.6875 81.5195C86.8516 80.832 87.0898 80.2305 87.4023 79.7148C87.7148 79.1992 88.1055 78.8008 88.5742 78.5195C89.0508 78.2305 89.5977 78.0859 90.2148 78.0859C90.3867 78.0859 90.5703 78.1016 90.7656 78.1328C90.9688 78.1562 91.1289 78.1914 91.2461 78.2383ZM96.2266 78.3203V91H93.1211V78.3203H96.2266ZM92.9102 75.0039C92.9102 74.543 93.0664 74.1602 93.3789 73.8555C93.6992 73.5508 94.1289 73.3984 94.668 73.3984C95.207 73.3984 95.6328 73.5508 95.9453 73.8555C96.2656 74.1602 96.4258 74.543 96.4258 75.0039C96.4258 75.457 96.2656 75.8359 95.9453 76.1406C95.6328 76.4453 95.207 76.5977 94.668 76.5977C94.1289 76.5977 93.6992 76.4453 93.3789 76.1406C93.0664 75.8359 92.9102 75.457 92.9102 75.0039ZM106.164 88.3047V82.457C106.164 82.0273 106.09 81.6562 105.941 81.3438C105.793 81.0312 105.566 80.7891 105.262 80.6172C104.957 80.4453 104.57 80.3594 104.102 80.3594C103.688 80.3594 103.324 80.4297 103.012 80.5703C102.707 80.7109 102.473 80.9102 102.309 81.168C102.145 81.418 102.062 81.707 102.062 82.0352H98.957C98.957 81.5117 99.082 81.0156 99.332 80.5469C99.582 80.0703 99.9375 79.6484 100.398 79.2812C100.867 78.9062 101.426 78.6133 102.074 78.4023C102.73 78.1914 103.465 78.0859 104.277 78.0859C105.238 78.0859 106.094 78.25 106.844 78.5781C107.602 78.8984 108.195 79.3828 108.625 80.0312C109.062 80.6797 109.281 81.4961 109.281 82.4805V88.0117C109.281 88.6445 109.32 89.1875 109.398 89.6406C109.484 90.0859 109.609 90.4727 109.773 90.8008V91H106.621C106.473 90.6797 106.359 90.2734 106.281 89.7812C106.203 89.2812 106.164 88.7891 106.164 88.3047ZM106.598 83.2773L106.621 85.1172H104.664C104.18 85.1172 103.754 85.168 103.387 85.2695C103.02 85.3633 102.719 85.5039 102.484 85.6914C102.25 85.8711 102.074 86.0898 101.957 86.3477C101.84 86.5977 101.781 86.8828 101.781 87.2031C101.781 87.5156 101.852 87.7969 101.992 88.0469C102.141 88.2969 102.352 88.4961 102.625 88.6445C102.906 88.7852 103.234 88.8555 103.609 88.8555C104.156 88.8555 104.633 88.7461 105.039 88.5273C105.445 88.3008 105.762 88.0273 105.988 87.707C106.215 87.3867 106.336 87.082 106.352 86.793L107.242 88.1289C107.133 88.4492 106.969 88.7891 106.75 89.1484C106.531 89.5078 106.25 89.8438 105.906 90.1562C105.562 90.4688 105.148 90.7266 104.664 90.9297C104.18 91.1328 103.617 91.2344 102.977 91.2344C102.156 91.2344 101.422 91.0703 100.773 90.7422C100.125 90.4141 99.6133 89.9648 99.2383 89.3945C98.8633 88.8242 98.6758 88.1758 98.6758 87.4492C98.6758 86.7773 98.8008 86.1836 99.0508 85.668C99.3008 85.1523 99.6719 84.7188 100.164 84.3672C100.656 84.0078 101.266 83.7383 101.992 83.5586C102.727 83.3711 103.566 83.2773 104.512 83.2773H106.598ZM115.352 73V91H112.246V73H115.352Z" fill="#121548"/>
</svg>
