<svg width="123" height="120" viewBox="0 0 123 120" fill="none" xmlns="http://www.w3.org/2000/svg">
<path d="M113.24 60.0002C113.24 63.5314 102.079 65.7762 101.322 69.0804C100.539 72.4855 109.629 79.3461 108.139 82.4233C106.624 85.551 95.5896 82.726 93.4433 85.4249C91.2717 88.1237 96.4986 98.2381 93.7715 100.407C91.0697 102.551 82.3581 95.2365 79.227 96.7499C76.1464 98.2381 76.4494 109.614 73.0153 110.395C69.7074 111.152 65.036 100.786 61.5009 100.786C57.9657 100.786 53.2943 111.152 49.9864 110.395C46.5776 109.614 46.8806 98.2381 43.7747 96.7499C40.6436 95.2365 31.932 102.551 29.2302 100.407C26.5283 98.2381 31.73 88.1237 29.5584 85.4249C27.4121 82.726 16.3775 85.5762 14.8624 82.4233C13.3726 79.3461 22.4377 72.4855 21.6802 69.0804C20.9226 65.7762 9.76172 63.5314 9.76172 60.0002C9.76172 56.469 20.9226 54.2242 21.6802 50.92C22.4629 47.5149 13.3726 40.6543 14.8624 37.5771C16.3775 34.4494 27.4121 37.2744 29.5584 34.5756C31.73 31.8767 26.5031 21.7623 29.2302 19.5932C31.932 17.4492 40.6436 24.7639 43.7747 23.2505C46.8553 21.7623 46.5523 10.3868 49.9864 9.60493C53.2943 8.84824 57.9657 19.2148 61.5009 19.2148C65.036 19.2148 69.7074 8.84824 73.0153 9.60493C76.4494 10.3868 76.1464 21.7623 79.227 23.2505C82.3581 24.7639 91.0697 17.4492 93.7715 19.5932C96.4734 21.7623 91.2717 31.8767 93.4433 34.5756C95.5896 37.2744 106.624 34.4242 108.139 37.5771C109.629 40.6543 100.564 47.5149 101.322 50.92C102.079 54.2242 113.24 56.469 113.24 60.0002Z" fill="#FBCA0D"/>
<path d="M42.1558 52.8584V67.6953H39.3535V52.8584H42.1558ZM48.1375 59.268V61.4793H41.4221V59.268H48.1375ZM48.9221 52.8584V55.0696H41.4221V52.8584H48.9221ZM50.8277 52.8584H56.2183C57.346 52.8584 58.3141 53.0282 59.1225 53.3679C59.931 53.7075 60.5526 54.2103 60.9873 54.876C61.4221 55.5418 61.6395 56.3604 61.6395 57.3319C61.6395 58.0995 61.5037 58.7653 61.2319 59.3291C60.9602 59.893 60.5763 60.3651 60.0804 60.7456C59.5913 61.126 59.0138 61.4249 58.3481 61.6423L57.4717 62.0907H52.7129L52.6925 59.8794H56.2489C56.8263 59.8794 57.3053 59.7775 57.6857 59.5737C58.0662 59.3699 58.3515 59.088 58.5417 58.7279C58.7387 58.3679 58.8372 57.9569 58.8372 57.4949C58.8372 56.999 58.7421 56.571 58.5519 56.2109C58.3617 55.8441 58.0729 55.5622 57.6857 55.3651C57.2985 55.1681 56.8094 55.0696 56.2183 55.0696H53.63V67.6953H50.8277V52.8584ZM59.2041 67.6953L55.77 61.0513L58.7353 61.0411L62.2102 67.5526V67.6953H59.2041ZM73.9289 65.4942V67.6953H66.0417V65.4942H73.9289ZM66.8977 52.8584V67.6953H64.0954V52.8584H66.8977ZM72.8997 58.9827V61.1328H66.0417V58.9827H72.8997ZM73.8984 52.8584V55.0696H66.0417V52.8584H73.8984ZM85.7088 65.4942V67.6953H77.8216V65.4942H85.7088ZM78.6776 52.8584V67.6953H75.8753V52.8584H78.6776ZM84.6796 58.9827V61.1328H77.8216V58.9827H84.6796ZM85.6782 52.8584V55.0696H77.8216V52.8584H85.6782Z" fill="#121548"/>
</svg>
