<svg width="60" height="60" viewBox="0 0 60 60" fill="none" xmlns="http://www.w3.org/2000/svg">
<path d="M32.9953 18.5523C33.5133 18.5523 33.9316 18.9707 33.9316 19.4887C33.9316 20.0066 33.5168 20.425 32.9883 20.425C32.4703 20.425 32.0484 20.0066 32.0484 19.4887C32.0484 18.9707 32.4668 18.5523 32.9953 18.5523ZM40.1238 18.5523C40.6418 18.5523 41.0602 18.9707 41.0602 19.4887C41.0602 20.0066 40.6453 20.425 40.1133 20.425C39.5988 20.425 39.177 20.0066 39.177 19.4887C39.177 18.9707 39.5953 18.5523 40.1238 18.5523ZM36.559 18.5523C37.077 18.5523 37.4953 18.9707 37.4953 19.4887C37.4953 20.0066 37.0805 20.425 36.5484 20.425C36.034 20.425 35.6121 20.0066 35.6121 19.4887C35.6121 18.9707 36.0305 18.5523 36.559 18.5523ZM30.1441 38.6395C27.8953 38.6395 26.0754 40.4594 26.0754 42.7082C26.0754 44.9535 27.8953 46.777 30.1441 46.777C32.3895 46.777 34.2129 44.9535 34.2129 42.7082C34.2141 40.4594 32.3906 38.6395 30.1441 38.6395ZM25.943 38.507C28.2621 36.1856 32.025 36.1856 34.3477 38.507C35.932 40.0879 36.5074 42.4539 35.7762 44.616C36.8988 43.4066 38.3707 42.5465 39.9984 42.1809C38.0648 39.8195 38.2383 36.3742 40.3969 34.218C42.7184 31.8965 46.4789 31.8965 48.8016 34.218C50.9613 36.3742 51.1336 39.8184 49.2 42.1809C52.8973 43.0047 55.6184 46.3129 55.6184 50.1801V53.4121C55.6184 53.9301 55.2 54.3484 54.682 54.3484H41.1633V57.7C41.1633 58.218 40.7449 58.6398 40.227 58.6398H20.0625C19.5445 58.6398 19.1227 58.218 19.1227 57.7L19.1262 54.3484H5.60625C5.08828 54.3484 4.66992 53.9301 4.66992 53.4121V50.1801C4.66992 46.3129 7.39336 43.0047 11.0883 42.1809C9.15469 39.8195 9.33047 36.3742 11.4867 34.218C13.8082 31.8965 17.5723 31.8965 19.8949 34.218C22.0547 36.3742 22.227 39.8184 20.2934 42.1809C21.9176 42.5465 23.3895 43.4066 24.5156 44.616C23.7797 42.4527 24.3574 40.0879 25.943 38.507ZM32.5395 48.1504C31.8059 48.4727 30.9949 48.652 30.1441 48.652C29.2898 48.652 28.4801 48.4727 27.7488 48.1504H27.3164C23.8418 48.1504 20.9977 50.9969 20.9977 54.4691V56.7648H39.2883V54.4691C39.2883 50.998 36.4418 48.1504 32.9672 48.1504H32.5395ZM36.3164 46.9938C38.5887 48.0168 40.3031 50.0395 40.9172 52.4746H53.7434V50.1801C53.7434 46.709 50.8969 43.8613 47.4246 43.8613H46.9922C46.2586 44.1836 45.4512 44.3629 44.5969 44.3629C43.7426 44.3629 42.9363 44.1836 42.2016 43.8613H41.7691C39.4957 43.8613 37.4426 45.0801 36.3164 46.9938ZM19.3723 52.4746C19.9863 50.0395 21.7008 48.0168 23.9695 46.9938C22.8434 45.0801 20.7902 43.8613 18.5156 43.8613H18.0867C17.3531 44.1836 16.5422 44.3629 15.6879 44.3629C14.8371 44.3629 14.0273 44.1836 13.2926 43.8613H12.8637C9.38906 43.8613 6.54258 46.7078 6.54258 50.1801V52.4758H19.3723V52.4746ZM44.598 34.3516C42.3492 34.3516 40.5293 36.1715 40.5293 38.4203C40.5293 40.6656 42.3492 42.4891 44.598 42.4891C46.8469 42.4891 48.6668 40.6656 48.6668 38.4203C48.6668 36.1715 46.8469 34.3516 44.598 34.3516ZM15.6879 34.3516C13.4426 34.3516 11.6215 36.1715 11.6215 38.4203C11.6215 40.6656 13.4414 42.4891 15.6879 42.4891C17.9367 42.4891 19.7566 40.6656 19.7566 38.4203C19.7566 36.1715 17.9367 34.3516 15.6879 34.3516ZM28.1543 13.191C28.6723 13.191 29.0906 13.6129 29.0906 14.1309C29.0906 14.6488 28.6723 15.0672 28.1543 15.0672H22.3348C21.8168 15.0672 21.3949 14.6488 21.3949 14.1309C21.3949 13.6129 21.8168 13.191 22.3348 13.191H28.1543ZM23.2816 25.784C22.7672 25.784 22.3453 25.3656 22.3453 24.8477C22.3453 24.3297 22.7672 23.9113 23.2816 23.9113H32.7586C33.2766 23.9113 33.6949 24.3297 33.6949 24.8477C33.6949 25.3656 33.2766 25.784 32.7586 25.784H23.2816ZM30.1441 4.0293C38.3391 4.0293 44.9824 10.6727 44.9824 18.8676C44.9824 22.552 43.6266 26.0465 41.216 28.7465L41.7574 31.5203C41.8969 32.234 41.2055 32.8164 40.5316 32.5867L37.7285 31.6199C33.0609 34.4031 27.2285 34.4031 22.5609 31.6199L19.7543 32.5867C19.0805 32.8188 18.3785 32.2375 18.5391 31.4934L19.0734 28.7465C13.8445 22.8906 14.0742 13.9516 19.6512 8.37695C22.3348 5.68984 26.0449 4.0293 30.1441 4.0293ZM39.3094 9.70234C34.2469 4.63984 26.0391 4.63984 20.9766 9.70234C17.3355 13.3398 16.1637 18.8477 18.0996 23.684C18.7137 25.2156 19.6078 26.6008 20.7234 27.7797C20.9496 27.9918 21.0656 28.3141 21.0023 28.6398L20.6801 30.284L22.3641 29.7063L22.3676 29.7098C22.6266 29.6195 22.9219 29.6465 23.1715 29.8059C26.3039 31.8027 30.191 32.3641 33.7781 31.3211C34.9477 30.9789 36.0434 30.4809 37.05 29.8457C37.2891 29.6629 37.6148 29.5996 37.9207 29.7063L39.6082 30.284L39.2859 28.6398C39.2332 28.3539 39.3094 28.0457 39.5285 27.816C44.3789 22.7242 44.2992 14.6887 39.3094 9.70234Z" fill="#0F39B8"/>
</svg>
