<svg width="60" height="60" viewBox="0 0 60 60" fill="none" xmlns="http://www.w3.org/2000/svg">
<path d="M34.6874 3.20661C30.8624 2.53161 26.8312 2.68161 22.8375 3.76911C15.7312 5.71911 10.0875 10.3316 6.6187 16.2191L6.5062 16.1441L2.88745 14.0816L3.14995 26.2316L13.7437 20.2879L10.125 18.2066C10.125 18.2066 13.425 10.2191 23.8312 7.38786C24.3187 7.25661 24.825 7.14411 25.3125 7.03161" stroke="#81B807" stroke-width="2" stroke-miterlimit="10" stroke-linecap="round" stroke-linejoin="round"/>
<path d="M25.3125 56.7945C29.1375 57.4695 33.1687 57.3195 37.1625 56.232C44.2687 54.282 49.9312 49.6883 53.3812 43.8008L53.4938 43.857L57.1125 45.9195L56.85 33.7695L46.2563 39.7133L49.875 41.7758C49.875 41.7758 46.575 49.7633 36.1688 52.5945C35.0625 52.8945 33.9375 53.1195 32.7937 53.2508" stroke="#81B807" stroke-width="2" stroke-miterlimit="10" stroke-linecap="round" stroke-linejoin="round"/>
<path d="M35.55 19.3125C34.9875 17.9813 34.6875 16.5375 34.6875 15C34.6875 8.79375 39.7313 3.75 45.9375 3.75C52.1437 3.75 57.1875 8.79375 57.1875 15C57.1875 16.5562 56.8688 18.0375 56.3063 19.3687" stroke="#81B807" stroke-width="2" stroke-miterlimit="10" stroke-linecap="round" stroke-linejoin="round"/>
<path d="M45.9374 26.25C49.0312 26.25 51.8249 25.0125 53.8499 22.9875C52.9686 21.0563 51.0187 19.6875 48.7499 19.6875H43.1249C40.8562 19.6875 38.9062 21.0563 38.0249 22.9875C40.0499 25.0125 42.8437 26.25 45.9374 26.25Z" stroke="#81B807" stroke-width="2" stroke-miterlimit="10" stroke-linecap="round" stroke-linejoin="round"/>
<path d="M49.6875 12.1875C49.6875 14.25 48 15.9375 45.9375 15.9375C43.875 15.9375 42.1875 14.25 42.1875 12.1875C42.1875 10.125 43.875 8.4375 45.9375 8.4375C48 8.4375 49.6875 10.125 49.6875 12.1875Z" stroke="#81B807" stroke-width="2" stroke-miterlimit="10"/>
<path d="M3.675 49.3125C3.1125 47.9812 2.8125 46.5375 2.8125 45C2.8125 38.7938 7.85625 33.75 14.0625 33.75C20.2687 33.75 25.3125 38.7938 25.3125 45C25.3125 46.5562 24.9937 48.0375 24.4312 49.3687" stroke="#81B807" stroke-width="2" stroke-miterlimit="10" stroke-linecap="round" stroke-linejoin="round"/>
<path d="M14.0624 56.25C17.1562 56.25 19.9499 55.0125 21.9749 52.9875C21.0937 51.0563 19.1437 49.6875 16.8749 49.6875H11.2499C8.98115 49.6875 7.03115 51.0563 6.1499 52.9875C8.1749 55.0125 10.9687 56.25 14.0624 56.25Z" stroke="#81B807" stroke-width="2" stroke-miterlimit="10" stroke-linecap="round" stroke-linejoin="round"/>
<path d="M17.8125 42.1875C17.8125 44.25 16.125 45.9375 14.0625 45.9375C12 45.9375 10.3125 44.25 10.3125 42.1875C10.3125 40.125 12 38.4375 14.0625 38.4375C16.125 38.4375 17.8125 40.125 17.8125 42.1875Z" stroke="#81B807" stroke-width="2" stroke-miterlimit="10"/>
<path d="M28.875 53.4375H29.0625" stroke="#81B807" stroke-width="2" stroke-miterlimit="10" stroke-linecap="round" stroke-linejoin="round"/>
<path d="M29.0625 6.5625H29.25" stroke="#81B807" stroke-width="2" stroke-miterlimit="10" stroke-linecap="round" stroke-linejoin="round"/>
<path d="M18.75 30C18.75 23.7938 23.7938 18.75 30 18.75" stroke="#81B807" stroke-width="2" stroke-miterlimit="10" stroke-linecap="round" stroke-linejoin="round"/>
<path d="M41.25 30C41.25 36.2062 36.2062 41.25 30 41.25" stroke="#81B807" stroke-width="2" stroke-miterlimit="10" stroke-linecap="round" stroke-linejoin="round"/>
<path d="M36.5625 30.2625C36.4312 33.7687 33.5437 36.5625 30 36.5625C26.3813 36.5625 23.4375 33.6187 23.4375 30C23.4375 26.3813 26.3813 23.4375 30 23.4375C30.6938 23.4375 31.3687 23.55 31.9875 23.7375" stroke="#81B807" stroke-width="2" stroke-miterlimit="10" stroke-linecap="round" stroke-linejoin="round"/>
<path d="M35.6438 25.6504L30.0001 31.2941L27.4126 28.7066" stroke="#81B807" stroke-width="2" stroke-miterlimit="10" stroke-linecap="round" stroke-linejoin="round"/>
</svg>
