<svg width="198" height="61" viewBox="0 0 198 61" fill="none" xmlns="http://www.w3.org/2000/svg">
<path d="M45.6715 43.8449L49.9479 42.5761C50.1652 43.6839 50.1652 44.8234 49.9479 45.9313L45.6715 44.6621C45.6843 44.5275 45.6924 44.3914 45.6924 44.2533C45.6924 44.1152 45.6828 43.9795 45.6715 43.8449ZM45.1955 36.3813L43.9004 40.7446C44.2652 41.0108 44.5865 41.332 44.8529 41.6967L49.2166 40.402C48.3564 38.6541 46.942 37.2399 45.1939 36.3801L45.1955 36.3813ZM41.3403 42.1975C40.9336 42.1975 40.536 42.3181 40.1979 42.5441C39.8598 42.77 39.5962 43.0912 39.4406 43.4669C39.285 43.8426 39.2443 44.2561 39.3236 44.655C39.403 45.0538 39.5989 45.4202 39.8865 45.7078C40.1741 45.9953 40.5405 46.1911 40.9394 46.2704C41.3383 46.3497 41.7517 46.3089 42.1274 46.1532C42.5031 45.9976 42.8242 45.7339 43.0501 45.3957C43.276 45.0576 43.3966 44.66 43.3965 44.2533C43.3958 43.7082 43.1789 43.1857 42.7934 42.8003C42.408 42.4149 41.8854 42.1981 41.3403 42.1975ZM37.8308 46.8114L33.4671 48.1062C34.3271 49.8539 35.7412 51.268 37.489 52.128L38.7841 47.7647C38.4189 47.4982 38.0974 47.1766 37.8308 46.8114ZM41.3411 39.9039C41.4787 39.9039 41.6149 39.912 41.7498 39.9248L43.0187 35.6488C41.9108 35.4317 40.7713 35.4317 39.6635 35.6488L40.9327 39.9248C41.0673 39.912 41.203 39.9039 41.3403 39.9039H41.3411ZM36.9913 44.2552C36.9913 44.1176 36.9994 43.9814 37.0121 43.8469L32.7358 42.5761C32.5187 43.6838 32.5187 44.8232 32.7358 45.9309L37.0121 44.6621C36.9994 44.5259 36.9913 44.3914 36.9913 44.2552ZM77.9173 27.2458H85.613C85.9135 27.2403 86.1999 27.117 86.4104 26.9026C86.621 26.6881 86.739 26.3995 86.739 26.099C86.739 25.7984 86.621 25.5099 86.4104 25.2954C86.1999 25.0809 85.9135 24.9577 85.613 24.9522H77.9173C77.6168 24.9577 77.3305 25.0809 77.1199 25.2954C76.9093 25.5099 76.7914 25.7984 76.7914 26.099C76.7914 26.3995 76.9093 26.6881 77.1199 26.9026C77.3305 27.117 77.6168 27.2403 77.9173 27.2458ZM33.4671 40.4008L37.8308 41.6955C38.0972 41.3309 38.4185 41.0097 38.7833 40.7434L37.4882 36.3797C35.741 37.2398 34.3272 38.6536 33.4671 40.4008ZM41.3403 48.6035C41.2022 48.6035 41.0665 48.5954 40.9315 48.5826L39.6627 52.8586C40.7706 53.0756 41.91 53.0756 43.0179 52.8586L41.7487 48.5826C41.6149 48.5954 41.4787 48.6035 41.3403 48.6035ZM43.898 47.7639L45.1932 52.1273C46.941 51.2673 48.3551 49.8532 49.215 48.1054L44.8517 46.8103C44.5853 47.1755 44.2639 47.4972 43.8988 47.7639H43.898ZM167.541 47.7639L168.836 52.1273C170.583 51.2672 171.997 49.8531 172.858 48.1054L168.493 46.8114C168.227 47.1761 167.906 47.4974 167.541 47.7639H167.541ZM164.983 42.1975C164.576 42.1976 164.179 42.3182 163.84 42.5442C163.502 42.7702 163.239 43.0914 163.083 43.4672C162.928 43.8429 162.887 44.2564 162.967 44.6552C163.046 45.054 163.242 45.4204 163.529 45.7079C163.817 45.9954 164.184 46.1912 164.582 46.2704C164.981 46.3497 165.395 46.3089 165.77 46.1532C166.146 45.9975 166.467 45.7339 166.693 45.3957C166.919 45.0575 167.039 44.66 167.039 44.2533C167.039 43.7083 166.822 43.1858 166.436 42.8004C166.051 42.415 165.529 42.1982 164.984 42.1975H164.983ZM164.983 48.6035C164.845 48.6035 164.709 48.5954 164.574 48.5826L163.305 52.8586C164.413 53.0756 165.553 53.0756 166.66 52.8586L165.392 48.5826C165.257 48.5954 165.122 48.6035 164.984 48.6035H164.983ZM169.333 44.2552C169.333 44.3933 169.325 44.5294 169.313 44.664L173.589 45.9332C173.806 44.8253 173.806 43.6859 173.589 42.578L169.313 43.8469C169.325 43.9795 169.333 44.1156 169.333 44.2552ZM190.332 51.3944C186.841 51.6795 182.887 51.8972 180.525 52.0283C180.052 52.0542 179.644 52.0766 179.31 52.0959C177.881 54.7111 175.763 56.885 173.185 58.382C170.608 59.879 167.67 60.6419 164.69 60.5881C161.711 60.5342 158.802 59.6657 156.281 58.0766C153.759 56.4876 151.721 54.2386 150.387 51.5735H55.9385C54.6029 54.2409 52.5619 56.4913 50.0373 58.0804C47.5128 59.6696 44.601 60.5366 41.6184 60.5875C38.6357 60.6384 35.6961 59.8711 33.1188 58.3689C30.5415 56.8668 28.425 54.6872 26.9992 52.0669L22.6107 51.3438C22.1513 51.2815 10.5799 49.6983 6.86664 48.8502C4.73465 48.3626 2.76742 45.9931 0.846585 41.605C0.0633275 39.7676 -0.186753 37.7467 0.124967 35.7737C0.234499 34.7622 0.255849 33.7431 0.188776 32.7279C0.111432 30.3709 0.0193932 27.7006 1.91238 26.0593C3.20313 24.9782 4.18885 23.5784 4.77178 21.9988C4.53975 20.9527 4.09038 17.9939 6.10751 16.8168C6.90956 16.3488 8.22982 16.3747 10.4171 16.4181C14.1969 16.4931 20.5194 16.6172 26.8186 13.8541C36.4092 9.64661 55.4385 4.73219 56.2437 4.52491C57.6358 4.14863 90.8163 -4.6821 107.966 3.38833C112.441 5.4944 116.291 7.40093 119.688 9.08315C128.915 13.6538 134.482 16.4076 138.525 16.164C142.635 15.9111 156.241 16.4409 163.986 16.7792C170.369 17.0415 176.702 18.025 182.865 19.711C187.428 20.974 192.463 22.6071 195.227 25.1463C197.393 27.1352 197.483 30.8848 197.542 33.3664C197.549 33.6653 197.555 33.9422 197.566 34.1886L197.989 42.6422C198.109 44.812 197.374 46.9423 195.943 48.5775C194.512 50.2128 192.498 51.2231 190.331 51.3925L190.332 51.3944ZM117.269 14.6051L117.279 14.7954C117.434 17.5411 117.449 17.8269 119.72 17.9367C120.855 17.9916 122.313 18.2383 122.653 19.6255C123.676 19.4942 124.68 19.2439 125.645 18.8795C125.484 18.6691 125.287 18.4414 125.094 18.2175C124.378 17.3856 123.638 16.5271 123.586 15.4911C123.104 14.218 119.526 11.0473 118.575 11.3103C118.116 11.7201 117.759 12.2313 117.532 12.8033C117.306 13.3752 117.215 13.9922 117.269 14.6051ZM70.8009 26.6982C70.9425 27.0501 71.132 27.549 71.3659 28.1677C72.3795 30.8415 74.3518 36.0394 76.9165 40.791H130.741C131.942 34.9778 132.396 28.8371 132.279 26.6243C132.193 24.9916 129.794 22.3704 127.549 20.3842C126.997 20.8773 125.738 21.5057 122.55 21.9617C122.389 21.9859 122.227 21.9989 122.064 22.0003C121.651 22.0177 121.247 21.8816 120.929 21.6183C120.756 21.4559 120.621 21.2567 120.535 21.0352C120.449 20.8138 120.414 20.5759 120.432 20.339C120.163 20.2719 119.887 20.2351 119.609 20.2292C117.828 20.1429 116.757 19.6928 116.102 19.0033H73.0675C71.7089 21.2663 70.0967 24.9498 70.8009 26.6982ZM71.2824 16.7077V8.35458C64.2476 9.48612 59.1266 10.8493 59.0021 10.8829C58.972 10.8911 57.3033 11.3207 54.7826 12.0133C54.6716 12.0436 54.5718 12.1056 54.4954 12.1918C54.4191 12.2779 54.3696 12.3845 54.353 12.4984C54.3363 12.6123 54.3533 12.7286 54.4018 12.833C54.4503 12.9374 54.5282 13.0253 54.626 13.0861C58.4608 15.4558 62.8799 16.7104 67.3877 16.7092L71.2824 16.7077ZM52.4024 44.2552C52.4024 42.0677 51.7537 39.9294 50.5384 38.1105C49.3231 36.2917 47.5957 34.8741 45.5748 34.037C43.5538 33.1999 41.33 32.9808 39.1845 33.4076C37.039 33.8343 35.0683 34.8877 33.5215 36.4345C31.9747 37.9813 30.9213 39.952 30.4946 42.0975C30.0678 44.243 30.2869 46.4668 31.124 48.4878C31.9611 50.5087 33.3787 52.2361 35.1975 53.4514C37.0164 54.6667 39.1547 55.3154 41.3422 55.3154C44.2745 55.3118 47.0856 54.1454 49.159 52.072C51.2324 49.9986 52.3988 47.1875 52.4024 44.2552ZM79.9348 49.2783C78.2517 47.3809 76.7836 45.3032 75.5572 43.0831H68.9795C68.6754 43.0831 68.3837 42.9623 68.1687 42.7472C67.9537 42.5322 67.8328 42.2406 67.8328 41.9365C67.8328 41.6324 67.9537 41.3407 68.1687 41.1257C68.3837 40.9106 68.6754 40.7898 68.9795 40.7898H74.3115C72.3939 36.9523 70.6949 33.0093 69.2227 28.9798C68.9961 28.3812 68.8124 27.897 68.6747 27.5556C67.6472 25.0032 69.2548 21.2284 70.4386 19.0017H67.3881C62.455 19.0027 57.6192 17.6297 53.4225 15.0367C52.9449 14.7413 52.5639 14.3128 52.3263 13.804C52.0887 13.2951 52.0047 12.728 52.0847 12.1721C52.1647 11.6163 52.4053 11.0958 52.7768 10.6747C53.1483 10.2536 53.6347 9.95001 54.1763 9.80129C56.717 9.10288 58.4019 8.66898 58.4186 8.66472C59.6874 8.3217 89.9891 0.25785 105.664 7.63451C107.277 8.39325 110.087 9.84615 112.566 11.1285C113.523 11.6239 114.445 12.1003 115.226 12.4998C115.485 11.6087 115.94 10.7865 116.557 10.0933C113.703 8.68329 110.546 7.1368 106.991 5.46425C90.5967 -2.25079 57.166 6.65224 56.8307 6.74312C56.6215 6.79726 37.1618 11.8223 27.7413 15.9551C20.9803 18.9209 14.3407 18.789 10.3738 18.7117C9.07287 18.6862 7.59792 18.6572 7.24407 18.8095C6.74134 19.1038 6.80476 20.5223 6.99773 21.435C8.42163 22.8329 11.8901 26.5184 11.5718 28.9404C11.5271 29.3015 11.3958 29.6465 11.1892 29.946C10.9826 30.2456 10.7067 30.4908 10.385 30.6609C8.24993 31.8354 6.67714 33.6847 5.41335 35.1704C4.24507 36.5441 3.36876 37.5731 2.30297 37.705C2.32532 38.7307 2.54471 39.7426 2.94917 40.6854C5.10474 45.6149 6.76377 46.4731 7.37749 46.6142C10.9918 47.4399 22.8331 49.0602 22.9522 49.0764L25.8955 49.561C25.0534 47.1129 24.8052 44.4997 25.1714 41.9368C25.5376 39.374 26.5078 36.9349 28.0019 34.8206C29.496 32.7063 31.4712 30.9775 33.7647 29.7766C36.0582 28.5757 38.6044 27.9371 41.1932 27.9136C43.7819 27.89 46.3393 28.4822 48.6543 29.6411C50.9692 30.8001 52.9756 32.4927 54.5079 34.5794C56.0402 36.6662 57.0546 39.0872 57.4674 41.643C57.8802 44.1988 57.6796 46.8161 56.8821 49.2791L79.9348 49.2783ZM130.222 43.0831H78.2278C79.7681 45.6176 81.4763 47.854 83.2865 49.2783H128.099C129.017 47.2914 129.728 45.2154 130.221 43.0831H130.222ZM176.045 44.2552C176.045 42.0677 175.396 39.9294 174.181 38.1105C172.966 36.2917 171.238 34.8741 169.217 34.037C167.196 33.1999 164.972 32.9808 162.827 33.4076C160.682 33.8343 158.711 34.8877 157.164 36.4345C155.617 37.9813 154.564 39.952 154.137 42.0975C153.71 44.243 153.929 46.4668 154.766 48.4878C155.604 50.5087 157.021 52.2361 158.84 53.4514C160.659 54.6667 162.797 55.3154 164.985 55.3154C167.917 55.3118 170.728 54.1454 172.801 52.072C174.875 49.9986 176.041 47.1875 176.045 44.2552ZM195.699 42.7602L195.273 34.2961C195.27 34.2292 195.268 34.1565 195.266 34.0865C195.058 34.1054 194.841 34.1155 194.615 34.1155C191.186 34.1155 185.777 31.975 182.928 28.677C179.767 25.0179 176.221 21.0915 175.589 20.3931C171.723 19.6822 167.812 19.2412 163.884 19.0733C156.185 18.7368 142.671 18.2097 138.664 18.4545C135.273 18.6653 131.278 17.1965 125.65 14.5487C125.782 14.8074 125.859 15.0906 125.876 15.3805C125.898 15.6419 126.504 16.345 126.83 16.7224C126.927 16.8345 127.023 16.9475 127.119 17.0612C128.236 17.9158 134.372 22.7757 134.568 26.5052C134.676 28.5645 134.283 34.7315 133.078 40.7925H137.293C137.597 40.7925 137.889 40.9134 138.104 41.1284C138.319 41.3434 138.44 41.6351 138.44 41.9392C138.44 42.2433 138.319 42.5349 138.104 42.75C137.889 42.965 137.597 43.0858 137.293 43.0858H132.579C132.099 45.2022 131.443 47.2746 130.616 49.281H149.441C148.641 46.8104 148.442 44.1848 148.86 41.6219C149.278 39.059 150.301 36.6327 151.844 34.5441C153.387 32.4556 155.406 30.765 157.733 29.6126C160.06 28.4603 162.628 27.8793 165.225 27.9178C167.821 27.9564 170.371 28.6134 172.663 29.8344C174.955 31.0554 176.922 32.8052 178.403 34.9387C179.883 37.0721 180.834 39.5278 181.175 42.102C181.517 44.6762 181.24 47.2947 180.367 49.7404H180.396C182.747 49.6109 186.682 49.3924 190.141 49.1109C191.714 48.9885 193.176 48.255 194.215 47.0677C195.254 45.8803 195.786 44.3334 195.699 42.7582V42.7602ZM168.836 36.382L167.542 40.7454C167.906 41.0118 168.228 41.333 168.494 41.6975L172.858 40.4027C171.998 38.6548 170.584 37.2404 168.836 36.3801V36.382ZM160.634 44.2552C160.634 44.1176 160.642 43.9814 160.655 43.8469L156.379 42.578C156.162 43.6858 156.162 44.8251 156.379 45.9328L160.655 44.664C160.643 44.5259 160.634 44.3914 160.634 44.2552ZM157.11 40.4027L161.473 41.6975C161.74 41.3329 162.061 41.0117 162.426 40.7454L161.131 36.3816C159.384 37.2411 157.97 38.6542 157.11 40.4008V40.4027ZM161.473 46.8134L157.11 48.1081C157.97 49.8559 159.384 51.27 161.132 52.13L162.427 47.7666C162.062 47.4994 161.74 47.1772 161.473 46.8114V46.8134ZM164.984 39.9058C165.122 39.9058 165.258 39.9139 165.392 39.9267L166.661 35.6507C165.553 35.4337 164.414 35.4337 163.306 35.6507L164.575 39.9267C164.71 39.912 164.846 39.9039 164.984 39.9039V39.9058Z" fill="#053B55"/>
</svg>
