<svg width="128" height="126" viewBox="0 0 128 126" fill="none" xmlns="http://www.w3.org/2000/svg">
<path d="M128 62.6383C128 67.0239 114.194 69.8119 113.257 73.9156C112.289 78.1446 123.533 86.6653 121.691 90.4871C119.816 94.3715 106.167 90.863 103.512 94.2149C100.826 97.5667 107.291 110.128 103.918 112.822C100.576 115.485 89.7999 106.401 85.9268 108.28C82.1161 110.128 82.491 124.256 78.243 125.228C74.1513 126.167 68.3729 113.292 64 113.292C59.6271 113.292 53.8487 126.167 49.757 125.228C45.5403 124.256 45.9151 110.128 42.0732 108.28C38.2001 106.401 27.4241 115.485 24.082 112.822C20.7399 110.128 27.1742 97.5667 24.488 94.2149C21.8331 90.863 8.1835 94.4028 6.30942 90.4871C4.46657 86.6653 15.6798 78.1446 14.7428 73.9156C13.8058 69.8119 0 67.0239 0 62.6383C0 58.2527 13.8058 55.4647 14.7428 51.361C15.7111 47.132 4.46657 38.6113 6.30942 34.7895C8.1835 30.9051 21.8331 34.4136 24.488 31.0617C27.1742 27.7099 20.7086 15.1482 24.082 12.4541C27.4241 9.79142 38.2001 18.8759 42.0732 16.9964C45.8838 15.1482 45.509 1.02016 49.757 0.0490536C53.8487 -0.890725 59.6271 11.9842 64 11.9842C68.3729 11.9842 74.1513 -0.890725 78.243 0.0490536C82.491 1.02016 82.1161 15.1482 85.9268 16.9964C89.7999 18.8759 100.576 9.79142 103.918 12.4541C107.26 15.1482 100.826 27.7099 103.512 31.0617C106.167 34.4136 119.816 30.8738 121.691 34.7895C123.533 38.6113 112.32 47.132 113.257 51.361C114.194 55.4647 128 58.2527 128 62.6383Z" fill="#FBCA0D"/>
<path d="M35.5787 53.2944H31.5894V50.9966H35.5787C36.2312 50.9966 36.7596 50.8902 37.1639 50.6774C37.5752 50.4575 37.8766 50.1597 38.0681 49.7838C38.2596 49.4008 38.3553 48.9646 38.3553 48.4753C38.3553 48.0001 38.2596 47.5568 38.0681 47.1455C37.8766 46.7341 37.5752 46.4008 37.1639 46.1455C36.7596 45.8902 36.2312 45.7625 35.5787 45.7625H32.5468V58.9434H29.6213V43.454H35.5787C36.7844 43.454 37.8128 43.6703 38.6639 44.1029C39.522 44.5285 40.1745 45.1207 40.6213 45.8795C41.0752 46.6313 41.3022 47.4895 41.3022 48.454C41.3022 49.454 41.0752 50.3157 40.6213 51.0391C40.1745 51.7625 39.522 52.3192 38.6639 52.7093C37.8128 53.0994 36.7844 53.2944 35.5787 53.2944ZM49.6 56.4966V51.188C49.6 50.798 49.5326 50.4611 49.3979 50.1774C49.2631 49.8937 49.0575 49.6739 48.7809 49.5178C48.5043 49.3618 48.1532 49.2838 47.7277 49.2838C47.3518 49.2838 47.022 49.3476 46.7383 49.4753C46.4617 49.6029 46.249 49.7838 46.1 50.0178C45.9511 50.2448 45.8766 50.5072 45.8766 50.8051H43.0575C43.0575 50.3299 43.1709 49.8795 43.3979 49.454C43.6248 49.0214 43.9475 48.6384 44.366 48.3051C44.7915 47.9646 45.2986 47.6987 45.8873 47.5072C46.483 47.3157 47.1497 47.22 47.8873 47.22C48.7596 47.22 49.5362 47.3689 50.217 47.6668C50.905 47.9575 51.444 48.3973 51.8341 48.9859C52.2312 49.5746 52.4298 50.3157 52.4298 51.2093V56.2306C52.4298 56.8051 52.4653 57.298 52.5362 57.7093C52.6142 58.1136 52.7277 58.4646 52.8766 58.7625V58.9434H50.0149C49.8802 58.6526 49.7773 58.2838 49.7064 57.837C49.6355 57.3831 49.6 56.9363 49.6 56.4966ZM49.9936 51.9327L50.0149 53.6029H48.2383C47.7986 53.6029 47.4121 53.649 47.0787 53.7412C46.7454 53.8263 46.4724 53.954 46.2596 54.1242C46.0468 54.2873 45.8873 54.4859 45.7809 54.72C45.6745 54.9469 45.6213 55.2058 45.6213 55.4966C45.6213 55.7802 45.6851 56.0356 45.8128 56.2625C45.9475 56.4895 46.139 56.6703 46.3873 56.8051C46.6426 56.9327 46.9405 56.9966 47.2809 56.9966C47.7773 56.9966 48.21 56.8973 48.5787 56.6987C48.9475 56.493 49.2348 56.2448 49.4405 55.954C49.6461 55.6632 49.7561 55.3866 49.7702 55.1242L50.5787 56.337C50.4795 56.6278 50.3305 56.9363 50.1319 57.2625C49.9334 57.5887 49.678 57.8937 49.366 58.1774C49.0539 58.4611 48.678 58.6951 48.2383 58.8795C47.7986 59.0639 47.288 59.1561 46.7064 59.1561C45.9617 59.1561 45.2951 59.0072 44.7064 58.7093C44.1178 58.4114 43.6532 58.0036 43.3128 57.4859C42.9724 56.9682 42.8022 56.3795 42.8022 55.72C42.8022 55.11 42.9156 54.571 43.1426 54.1029C43.3695 53.6348 43.7064 53.2412 44.1532 52.9221C44.6 52.5958 45.1532 52.3512 45.8128 52.188C46.4795 52.0178 47.2419 51.9327 48.1 51.9327H49.9936ZM57.7702 49.7838V58.9434H54.9617V47.4327H57.6213L57.7702 49.7838ZM61.2702 47.3583L61.2277 49.9753C61.0717 49.9469 60.8944 49.9256 60.6958 49.9114C60.5043 49.8973 60.3234 49.8902 60.1532 49.8902C59.7206 49.8902 59.3412 49.9505 59.0149 50.071C58.6887 50.1845 58.4156 50.3512 58.1958 50.571C57.983 50.7909 57.8199 51.0604 57.7064 51.3795C57.5929 51.6916 57.5291 52.0462 57.5149 52.4434L56.9085 52.3689C56.9085 51.6384 56.983 50.9611 57.1319 50.337C57.2809 49.7129 57.4972 49.1668 57.7809 48.6987C58.0646 48.2306 58.4192 47.8689 58.8447 47.6136C59.2773 47.3512 59.7738 47.22 60.3341 47.22C60.4901 47.22 60.6568 47.2341 60.8341 47.2625C61.0185 47.2838 61.1639 47.3157 61.2702 47.3583ZM68.7915 47.4327V49.454H62.1958V47.4327H68.7915ZM63.9617 44.6029H66.7809V55.6242C66.7809 55.9646 66.827 56.227 66.9192 56.4114C67.0114 56.5958 67.1497 56.72 67.3341 56.7838C67.5185 56.8476 67.7383 56.8795 67.9936 56.8795C68.178 56.8795 68.3483 56.8689 68.5043 56.8476C68.6603 56.8263 68.7915 56.8051 68.8979 56.7838L68.9085 58.8902C68.6745 58.9682 68.4085 59.032 68.1107 59.0817C67.8199 59.1313 67.4901 59.1561 67.1213 59.1561C66.4901 59.1561 65.9369 59.0497 65.4617 58.837C64.9865 58.6171 64.6178 58.2661 64.3553 57.7838C64.0929 57.2944 63.9617 56.649 63.9617 55.8476V44.6029ZM73.4192 49.8902V58.9434H70.6107V47.4327H73.249L73.4192 49.8902ZM72.9724 52.7731H72.1426C72.1497 51.9363 72.2631 51.1774 72.483 50.4966C72.7029 49.8157 73.0114 49.2306 73.4085 48.7412C73.8128 48.2519 74.2915 47.876 74.8447 47.6136C75.3979 47.3512 76.0149 47.22 76.6958 47.22C77.249 47.22 77.749 47.298 78.1958 47.454C78.6426 47.61 79.0256 47.8583 79.3447 48.1987C79.6709 48.5391 79.9192 48.9859 80.0894 49.5391C80.2667 50.0852 80.3553 50.759 80.3553 51.5604V58.9434H77.5256V51.5391C77.5256 51.0143 77.4475 50.5994 77.2915 50.2944C77.1426 49.9895 76.9227 49.7731 76.6319 49.6455C76.3483 49.5178 75.9972 49.454 75.5787 49.454C75.1461 49.454 74.7667 49.5427 74.4404 49.72C74.1213 49.8902 73.8518 50.1278 73.6319 50.4327C73.4192 50.7377 73.2561 51.0887 73.1426 51.4859C73.0291 51.8831 72.9724 52.3122 72.9724 52.7731ZM88.0043 59.1561C87.1319 59.1561 86.3482 59.0143 85.6532 58.7306C84.9582 58.4469 84.366 58.0533 83.8766 57.5497C83.3943 57.0391 83.022 56.4469 82.7596 55.7731C82.5043 55.0923 82.3766 54.3618 82.3766 53.5817V53.1561C82.3766 52.2696 82.5043 51.4646 82.7596 50.7412C83.0149 50.0107 83.3766 49.3831 83.8447 48.8583C84.3128 48.3334 84.8731 47.9292 85.5256 47.6455C86.178 47.3618 86.8979 47.22 87.6851 47.22C88.5007 47.22 89.2206 47.3583 89.8447 47.6348C90.4688 47.9044 90.9901 48.2873 91.4085 48.7838C91.827 49.2802 92.1426 49.876 92.3553 50.571C92.5681 51.259 92.6745 52.0214 92.6745 52.8583V54.0391H83.6532V52.1029H89.9085V51.8902C89.8943 51.4434 89.8092 51.0356 89.6532 50.6668C89.4972 50.2909 89.2561 49.993 88.9298 49.7731C88.6036 49.5462 88.1816 49.4327 87.6639 49.4327C87.2454 49.4327 86.8802 49.5249 86.5681 49.7093C86.2631 49.8866 86.0078 50.1419 85.8022 50.4753C85.6036 50.8015 85.4546 51.1916 85.3553 51.6455C85.2561 52.0994 85.2064 52.6029 85.2064 53.1561V53.5817C85.2064 54.0639 85.2702 54.5107 85.3979 54.9221C85.5326 55.3334 85.7277 55.6916 85.983 55.9966C86.2454 56.2944 86.5575 56.5285 86.9192 56.6987C87.288 56.8618 87.7064 56.9434 88.1745 56.9434C88.7631 56.9434 89.2951 56.8299 89.7702 56.6029C90.2525 56.3689 90.6709 56.0249 91.0256 55.571L92.4404 57.0391C92.1993 57.3937 91.8731 57.7341 91.4617 58.0604C91.0575 58.3866 90.5681 58.6526 89.9936 58.8583C89.4192 59.0568 88.7561 59.1561 88.0043 59.1561ZM97.366 49.7838V58.9434H94.5575V47.4327H97.217L97.366 49.7838ZM100.866 47.3583L100.823 49.9753C100.667 49.9469 100.49 49.9256 100.292 49.9114C100.1 49.8973 99.9192 49.8902 99.749 49.8902C99.3163 49.8902 98.9369 49.9505 98.6107 50.071C98.2844 50.1845 98.0114 50.3512 97.7915 50.571C97.5787 50.7909 97.4156 51.0604 97.3021 51.3795C97.1887 51.6916 97.1248 52.0462 97.1107 52.4434L96.5043 52.3689C96.5043 51.6384 96.5787 50.9611 96.7277 50.337C96.8766 49.7129 97.0929 49.1668 97.3766 48.6987C97.6603 48.2306 98.0149 47.8689 98.4404 47.6136C98.8731 47.3512 99.3695 47.22 99.9298 47.22C100.086 47.22 100.253 47.2341 100.43 47.2625C100.614 47.2838 100.76 47.3157 100.866 47.3583ZM34.0894 80.1774L36.6107 71.4327H38.3979L37.866 74.454L35.3234 82.9434H33.7809L34.0894 80.1774ZM32.6958 71.4327L34.5894 80.1987L34.7596 82.9434H32.983L29.9617 71.4327H32.6958ZM40.7383 80.071L42.5894 71.4327H45.3128L42.3128 82.9434H40.5362L40.7383 80.071ZM38.6745 71.4327L41.1745 80.0923L41.5043 82.9434H39.9617L37.3979 74.454L36.8766 71.4327H38.6745ZM49.9511 71.4327V82.9434H47.1319V71.4327H49.9511ZM46.9405 68.4221C46.9405 68.0036 47.0823 67.6561 47.366 67.3795C47.6568 67.1029 48.0468 66.9646 48.5362 66.9646C49.0256 66.9646 49.4121 67.1029 49.6958 67.3795C49.9866 67.6561 50.1319 68.0036 50.1319 68.4221C50.1319 68.8334 49.9866 69.1774 49.6958 69.454C49.4121 69.7306 49.0256 69.8689 48.5362 69.8689C48.0468 69.8689 47.6568 69.7306 47.366 69.454C47.0823 69.1774 46.9405 68.8334 46.9405 68.4221ZM58.0787 71.4327V73.454H51.483V71.4327H58.0787ZM53.249 68.6029H56.0681V79.6242C56.0681 79.9646 56.1142 80.227 56.2064 80.4114C56.2986 80.5958 56.4369 80.72 56.6213 80.7838C56.8057 80.8476 57.0256 80.8795 57.2809 80.8795C57.4653 80.8795 57.6355 80.8689 57.7915 80.8476C57.9475 80.8263 58.0787 80.8051 58.1851 80.7838L58.1958 82.8902C57.9617 82.9682 57.6958 83.032 57.3979 83.0817C57.1071 83.1313 56.7773 83.1561 56.4085 83.1561C55.7773 83.1561 55.2241 83.0497 54.749 82.837C54.2738 82.6171 53.905 82.2661 53.6426 81.7838C53.3802 81.2944 53.249 80.649 53.249 79.8476V68.6029ZM62.7064 66.6029V82.9434H59.8873V66.6029H62.7064ZM62.2596 76.7731H61.4298C61.4298 75.9717 61.5362 75.2341 61.749 74.5604C61.9617 73.8866 62.2631 73.3015 62.6532 72.8051C63.0433 72.3015 63.5078 71.9114 64.0468 71.6348C64.5929 71.3583 65.1958 71.22 65.8553 71.22C66.4227 71.22 66.9369 71.3015 67.3979 71.4646C67.866 71.6207 68.2667 71.8724 68.6 72.22C68.9334 72.5675 69.1887 73.0214 69.366 73.5817C69.5504 74.1348 69.6426 74.8086 69.6426 75.6029V82.9434H66.8128V75.5817C66.8128 75.0497 66.7348 74.6313 66.5787 74.3263C66.4227 74.0143 66.1993 73.7909 65.9085 73.6561C65.6248 73.5214 65.2738 73.454 64.8553 73.454C64.4014 73.454 64.0114 73.5427 63.6851 73.72C63.3589 73.8902 63.0894 74.1278 62.8766 74.4327C62.6709 74.7377 62.5149 75.0887 62.4085 75.4859C62.3092 75.8831 62.2596 76.3122 62.2596 76.7731ZM84.3979 80.2093V71.4327H87.2277V82.9434H84.5681L84.3979 80.2093ZM84.7596 77.8263L85.6319 77.8051C85.6319 78.5781 85.5468 79.2909 85.3766 79.9434C85.2064 80.5958 84.9405 81.1632 84.5787 81.6455C84.2241 82.1207 83.7738 82.493 83.2277 82.7625C82.6816 83.0249 82.0362 83.1561 81.2915 83.1561C80.7241 83.1561 80.2064 83.0781 79.7383 82.9221C79.2702 82.759 78.866 82.5072 78.5256 82.1668C78.1922 81.8192 77.9334 81.376 77.749 80.837C77.5646 80.2909 77.4724 79.6348 77.4724 78.8689V71.4327H80.2809V78.8902C80.2809 79.2731 80.3234 79.5923 80.4085 79.8476C80.5007 80.1029 80.6248 80.3122 80.7809 80.4753C80.944 80.6313 81.1319 80.7448 81.3447 80.8157C81.5646 80.8795 81.7986 80.9114 82.0468 80.9114C82.7277 80.9114 83.2631 80.7767 83.6532 80.5072C84.0504 80.2306 84.3341 79.8618 84.5043 79.4008C84.6745 78.9327 84.7596 78.4079 84.7596 77.8263ZM96.0468 79.7944C96.0468 79.5533 95.983 79.337 95.8553 79.1455C95.7277 78.954 95.4866 78.7802 95.1319 78.6242C94.7844 78.4611 94.2738 78.3086 93.6 78.1668C93.0043 78.0391 92.4546 77.8795 91.9511 77.688C91.4475 77.4966 91.0149 77.2661 90.6532 76.9966C90.2915 76.72 90.0078 76.3973 89.8022 76.0285C89.6036 75.6526 89.5043 75.22 89.5043 74.7306C89.5043 74.2554 89.6071 73.8086 89.8128 73.3902C90.0185 72.9646 90.3163 72.5923 90.7064 72.2731C91.0965 71.9469 91.5717 71.6916 92.1319 71.5072C92.6922 71.3157 93.3234 71.22 94.0256 71.22C95.0043 71.22 95.8447 71.3795 96.5468 71.6987C97.2561 72.0178 97.7986 72.4575 98.1745 73.0178C98.5504 73.571 98.7383 74.1951 98.7383 74.8902H95.9298C95.9298 74.5852 95.8589 74.3086 95.717 74.0604C95.5823 73.8122 95.3731 73.6136 95.0894 73.4646C94.8057 73.3086 94.4475 73.2306 94.0149 73.2306C93.6249 73.2306 93.2951 73.2944 93.0256 73.4221C92.7631 73.5497 92.5646 73.7164 92.4298 73.9221C92.2951 74.1278 92.2277 74.3547 92.2277 74.6029C92.2277 74.7873 92.2631 74.954 92.3341 75.1029C92.4121 75.2448 92.5362 75.376 92.7064 75.4966C92.8766 75.6171 93.1071 75.727 93.3979 75.8263C93.6958 75.9256 94.061 76.0214 94.4936 76.1136C95.3518 76.2838 96.1 76.5107 96.7383 76.7944C97.3837 77.071 97.8873 77.4398 98.249 77.9008C98.6107 78.3618 98.7915 78.9505 98.7915 79.6668C98.7915 80.1774 98.6816 80.6455 98.4617 81.071C98.2419 81.4895 97.9227 81.8547 97.5043 82.1668C97.0858 82.4788 96.5858 82.7235 96.0043 82.9008C95.4227 83.071 94.7667 83.1561 94.0362 83.1561C92.9795 83.1561 92.0858 82.9682 91.3553 82.5923C90.6249 82.2093 90.0717 81.727 89.6958 81.1455C89.3199 80.5568 89.1319 79.9469 89.1319 79.3157H91.8234C91.8447 79.7625 91.9653 80.1207 92.1851 80.3902C92.405 80.6597 92.6816 80.8547 93.0149 80.9753C93.3553 81.0887 93.7135 81.1455 94.0894 81.1455C94.5149 81.1455 94.8731 81.0887 95.1639 80.9753C95.4546 80.8547 95.6745 80.6951 95.8234 80.4966C95.9724 80.2909 96.0468 80.0568 96.0468 79.7944Z" fill="#121548"/>
</svg>
