<svg width="184" height="67" viewBox="0 0 184 67" fill="none" xmlns="http://www.w3.org/2000/svg">
<path d="M182.519 54.6132H168.148C167.959 54.6133 167.772 54.5762 167.597 54.504C167.423 54.4318 167.265 54.3259 167.131 54.1924C166.998 54.0589 166.892 53.9004 166.82 53.7259C166.747 53.5515 166.71 53.3645 166.71 53.1757C166.71 52.987 166.747 52.8001 166.82 52.6257C166.892 52.4513 166.998 52.2928 167.131 52.1593C167.265 52.0258 167.423 51.92 167.598 51.8478C167.772 51.7756 167.959 51.7385 168.148 51.7386H181.082V40.2415H176.77C175.976 40.2415 175.333 39.5989 175.333 38.8043C175.333 38.0097 175.976 37.3672 176.77 37.3672H182.519C182.708 37.367 182.895 37.4041 183.069 37.4763C183.244 37.5485 183.402 37.6543 183.536 37.7878C183.669 37.9213 183.775 38.0798 183.847 38.2542C183.919 38.4286 183.956 38.6156 183.956 38.8043V53.1757C183.956 53.9703 183.314 54.6132 182.519 54.6132Z" fill="#053B55"/>
<path d="M4.31141 40.2403C4.12265 40.2404 3.93573 40.2033 3.76133 40.1311C3.58692 40.0589 3.42846 39.953 3.29499 39.8196C3.16152 39.6861 3.05566 39.5276 2.98347 39.3532C2.91128 39.1788 2.87417 38.9919 2.87427 38.8032V21.5575C2.87417 21.3687 2.91128 21.1818 2.98347 21.0074C3.05566 20.833 3.16152 20.6745 3.29499 20.541C3.42846 20.4076 3.58692 20.3017 3.76133 20.2295C3.93573 20.1573 4.12265 20.1202 4.31141 20.1203H60.3606V1.43714C60.3605 1.24838 60.3976 1.06146 60.4698 0.887059C60.542 0.712655 60.6479 0.554185 60.7813 0.420715C60.9148 0.287245 61.0733 0.181391 61.2477 0.109201C61.4221 0.0370115 61.609 -9.42918e-05 61.7978 1.79941e-07H102.038C123.654 1.79941e-07 137.785 16.5808 140.342 19.8256L174.031 23.0018C174.219 23.0194 174.401 23.0738 174.568 23.162C174.735 23.2501 174.883 23.3703 175.003 23.5156C175.124 23.6609 175.214 23.8285 175.27 24.0088C175.326 24.1891 175.345 24.3786 175.328 24.5665C175.252 25.3564 174.533 25.9713 173.761 25.8617L139.449 22.628C139.248 22.6094 139.053 22.5483 138.876 22.4489C138.7 22.3495 138.547 22.214 138.427 22.0513C138.284 21.859 124.011 2.87428 102.038 2.87428H63.2349V21.5575C63.235 21.7462 63.1979 21.9331 63.1257 22.1076C63.0535 22.282 62.9476 22.4404 62.8142 22.5739C62.6807 22.7074 62.5222 22.8132 62.3478 22.8854C62.1734 22.9576 61.9865 22.9947 61.7978 22.9946H5.74855V38.8032C5.74869 38.9919 5.71161 39.1789 5.63944 39.3533C5.56727 39.5277 5.46142 39.6862 5.32794 39.8197C5.19446 39.9532 5.03597 40.059 4.86155 40.1312C4.68712 40.2034 4.50018 40.2404 4.31141 40.2403Z" fill="#053B55"/>
<path d="M24.4318 54.6129H1.43714C1.24836 54.613 1.0614 54.5759 0.886976 54.5037C0.712548 54.4315 0.554066 54.3256 0.420591 54.1921C0.287117 54.0586 0.181269 53.9001 0.109101 53.7256C0.0369321 53.5512 -0.000141314 53.3642 4.04773e-07 53.1754C-9.4067e-05 52.9867 0.0370142 52.7998 0.109204 52.6253C0.181393 52.4509 0.287249 52.2925 0.420718 52.159C0.554188 52.0255 0.712655 51.9197 0.887059 51.8475C1.06146 51.7753 1.24839 51.7382 1.43714 51.7383H24.4318C24.6205 51.7382 24.8074 51.7753 24.9818 51.8475C25.1562 51.9197 25.3147 52.0255 25.4482 52.159C25.5816 52.2925 25.6875 52.4509 25.7597 52.6253C25.8319 52.7998 25.869 52.9867 25.8689 53.1754C25.8689 53.97 25.226 54.6129 24.4318 54.6129Z" fill="#053B55"/>
<path d="M136.53 54.7024H56.0492C55.8604 54.7025 55.6735 54.6654 55.4991 54.5932C55.3247 54.521 55.1663 54.4152 55.0328 54.2817C54.8993 54.1482 54.7935 53.9898 54.7213 53.8153C54.6491 53.6409 54.612 53.454 54.6121 53.2653C54.612 53.0765 54.6491 52.8896 54.7213 52.7152C54.7935 52.5408 54.8993 52.3823 55.0328 52.2488C55.1663 52.1154 55.3247 52.0095 55.4991 51.9373C55.6735 51.8651 55.8604 51.828 56.0492 51.8281H136.53C136.719 51.828 136.906 51.8651 137.08 51.9373C137.255 52.0095 137.413 52.1154 137.547 52.2488C137.68 52.3823 137.786 52.5408 137.858 52.7152C137.93 52.8896 137.967 53.0765 137.967 53.2653C137.967 53.454 137.93 53.641 137.858 53.8154C137.786 53.9898 137.68 54.1483 137.547 54.2818C137.413 54.4153 137.255 54.5211 137.08 54.5933C136.906 54.6655 136.719 54.7025 136.53 54.7024Z" fill="#053B55"/>
<path d="M73.2952 31.6165H67.5466C67.3579 31.6166 67.171 31.5795 66.9966 31.5073C66.8222 31.4351 66.6637 31.3292 66.5302 31.1957C66.3967 31.0623 66.2909 30.9038 66.2187 30.7294C66.1465 30.555 66.1094 30.3681 66.1095 30.1793C66.1094 29.9906 66.1465 29.8037 66.2187 29.6292C66.2909 29.4548 66.3967 29.2964 66.5302 29.1629C66.6637 29.0294 66.8222 28.9236 66.9966 28.8514C67.171 28.7792 67.3579 28.7421 67.5466 28.7422H73.2952C73.484 28.7421 73.6709 28.7792 73.8453 28.8514C74.0197 28.9236 74.1782 29.0294 74.3116 29.1629C74.4451 29.2964 74.5509 29.4548 74.6231 29.6292C74.6953 29.8037 74.7324 29.9906 74.7323 30.1793C74.7324 30.3681 74.6953 30.555 74.6231 30.7294C74.5509 30.9038 74.4451 31.0623 74.3116 31.1957C74.1782 31.3292 74.0197 31.4351 73.8453 31.5073C73.6709 31.5795 73.484 31.6166 73.2952 31.6165Z" fill="#053B55"/>
<path d="M136.53 22.9954H67.5466C67.3579 22.9955 67.171 22.9584 66.9966 22.8862C66.8222 22.814 66.6637 22.7081 66.5302 22.5747C66.3967 22.4412 66.2909 22.2827 66.2187 22.1083C66.1465 21.9339 66.1094 21.747 66.1095 21.5582C66.1094 21.3695 66.1464 21.1825 66.2186 21.0081C66.2908 20.8337 66.3966 20.6752 66.5301 20.5417C66.6636 20.4082 66.8221 20.3024 66.9965 20.2302C67.1709 20.158 67.3579 20.121 67.5466 20.1211H136.53C136.719 20.121 136.906 20.158 137.08 20.2302C137.255 20.3024 137.413 20.4082 137.547 20.5417C137.68 20.6752 137.786 20.8337 137.858 21.0081C137.93 21.1825 137.967 21.3695 137.967 21.5582C137.967 21.747 137.93 21.9339 137.858 22.1083C137.786 22.2827 137.68 22.4412 137.547 22.5747C137.413 22.7081 137.255 22.814 137.08 22.8862C136.906 22.9584 136.719 22.9955 136.53 22.9954Z" fill="#053B55"/>
<path d="M93.4152 20.121C93.2264 20.1211 93.0395 20.084 92.8651 20.0118C92.6907 19.9396 92.5322 19.8338 92.3987 19.7003C92.2653 19.5669 92.1594 19.4084 92.0872 19.234C92.015 19.0596 91.9779 18.8727 91.978 18.6839V4.31214C91.9779 4.12338 92.015 3.93646 92.0872 3.76206C92.1594 3.58765 92.2653 3.42918 92.3987 3.29572C92.5322 3.16225 92.6907 3.05639 92.8651 2.9842C93.0395 2.91201 93.2264 2.87491 93.4152 2.875C93.6039 2.87491 93.7908 2.91201 93.9653 2.9842C94.1397 3.05639 94.2981 3.16225 94.4316 3.29572C94.5651 3.42918 94.6709 3.58765 94.7431 3.76206C94.8153 3.93646 94.8524 4.12338 94.8523 4.31214V18.6839C94.8524 18.8727 94.8153 19.0596 94.7431 19.234C94.6709 19.4084 94.5651 19.5669 94.4316 19.7003C94.2981 19.8338 94.1397 19.9396 93.9653 20.0118C93.7908 20.084 93.6039 20.1211 93.4152 20.121Z" fill="#053B55"/>
<path d="M7.36539 43.1165H1.43714C1.24839 43.1166 1.06146 43.0795 0.887059 43.0073C0.712655 42.9351 0.554188 42.8292 0.420718 42.6957C0.287249 42.5623 0.181393 42.4038 0.109204 42.2294C0.037014 42.055 -9.42919e-05 41.8681 1.79929e-07 41.6793C-9.42919e-05 41.4906 0.037014 41.3037 0.109204 41.1293C0.181393 40.9548 0.287249 40.7964 0.420718 40.6629C0.554188 40.5294 0.712655 40.4236 0.887059 40.3514C1.06146 40.2792 1.24839 40.2421 1.43714 40.2422H7.36539C7.55415 40.2421 7.74107 40.2792 7.91547 40.3514C8.08988 40.4236 8.24834 40.5294 8.38181 40.6629C8.51528 40.7964 8.62114 40.9548 8.69333 41.1293C8.76552 41.3037 8.80263 41.4906 8.80253 41.6793C8.80267 41.8681 8.7656 42.055 8.69343 42.2295C8.62125 42.4039 8.5154 42.5624 8.38192 42.6959C8.24844 42.8293 8.08996 42.9352 7.91553 43.0074C7.7411 43.0795 7.55416 43.1166 7.36539 43.1165Z" fill="#053B55"/>
<path d="M1.43714 54.614C1.24836 54.614 1.0614 54.5769 0.886976 54.5047C0.712548 54.4325 0.554066 54.3266 0.420591 54.1931C0.287117 54.0596 0.181269 53.9011 0.109101 53.7266C0.0369321 53.5522 -0.000141314 53.3652 4.04773e-07 53.1765V41.6793C-9.4067e-05 41.4906 0.0370142 41.3037 0.109204 41.1293C0.181393 40.9548 0.287249 40.7964 0.420718 40.6629C0.554188 40.5294 0.712655 40.4236 0.887059 40.3514C1.06146 40.2792 1.24839 40.2421 1.43714 40.2422C1.6259 40.2421 1.81282 40.2792 1.98722 40.3514C2.16163 40.4236 2.32009 40.5294 2.45356 40.6629C2.58703 40.7964 2.69289 40.9548 2.76508 41.1293C2.83727 41.3037 2.87438 41.4906 2.87428 41.6793V53.1765C2.87428 53.971 2.23172 54.614 1.43714 54.614Z" fill="#053B55"/>
<path d="M10.0599 37.3643C9.26572 37.3643 8.62244 36.7217 8.62244 35.9272V27.3043C8.62244 26.5097 9.26536 25.8672 10.0599 25.8672C10.8545 25.8672 11.4971 26.5097 11.4971 27.3043V35.9272C11.4972 36.1159 11.4601 36.3029 11.388 36.4773C11.3158 36.6517 11.2099 36.8102 11.0765 36.9437C10.943 37.0772 10.7845 37.183 10.6101 37.2552C10.4356 37.3274 10.2487 37.3645 10.0599 37.3643Z" fill="#053B55"/>
<path d="M10.06 37.3665H4.31141C3.51719 37.3665 2.87427 36.7239 2.87427 35.9293C2.87427 35.1347 3.51719 34.4922 4.31141 34.4922H10.0603C10.8545 34.4922 11.4975 35.1347 11.4975 35.9293C11.4975 36.7239 10.8545 37.3665 10.06 37.3665Z" fill="#053B55"/>
<path d="M10.06 28.7415H4.31141C4.12265 28.7416 3.93573 28.7045 3.76133 28.6323C3.58692 28.5601 3.42846 28.4542 3.29499 28.3207C3.16152 28.1873 3.05566 28.0288 2.98347 27.8544C2.91128 27.68 2.87417 27.4931 2.87427 27.3043C2.87417 27.1156 2.91128 26.9287 2.98347 26.7542C3.05566 26.5798 3.16152 26.4214 3.29499 26.2879C3.42846 26.1544 3.58692 26.0486 3.76133 25.9764C3.93573 25.9042 4.12265 25.8671 4.31141 25.8672H10.0603C10.2491 25.8671 10.436 25.9042 10.6104 25.9764C10.7848 26.0486 10.9433 26.1544 11.0768 26.2879C11.2102 26.4214 11.3161 26.5798 11.3883 26.7542C11.4605 26.9287 11.4976 27.1156 11.4975 27.3043C11.4975 27.4931 11.4604 27.68 11.3881 27.8544C11.3159 28.0288 11.21 28.1873 11.0765 28.3208C10.943 28.4542 10.7845 28.5601 10.6101 28.6323C10.4357 28.7045 10.2487 28.7416 10.06 28.7415Z" fill="#053B55"/>
<path d="M152.339 66.1104C144.415 66.1104 137.967 59.6628 137.967 51.7386C137.967 43.8147 144.415 37.3672 152.339 37.3672C160.263 37.3672 166.71 43.8147 166.71 51.7386C166.71 59.6625 160.263 66.1104 152.339 66.1104ZM152.339 40.2411C145.998 40.2411 140.842 45.4003 140.842 51.7382C140.842 58.0765 145.998 63.2357 152.339 63.2357C158.68 63.2357 163.836 58.0765 163.836 51.7382C163.836 45.4007 158.68 40.2411 152.339 40.2411Z" fill="#053B55"/>
<path d="M152.426 53.1751C151.631 53.1751 150.974 52.5325 150.974 51.7379C150.974 50.9437 151.603 50.3008 152.395 50.3008H152.426C152.807 50.3011 153.172 50.4526 153.442 50.722C153.711 50.9915 153.863 51.3569 153.863 51.7379C153.863 52.119 153.711 52.4844 153.442 52.7539C153.172 53.0234 152.807 53.1749 152.426 53.1751Z" fill="#053B55"/>
<path d="M152.339 48.8618C151.545 48.8618 150.902 48.2193 150.902 47.4247V44.5504C150.902 44.3616 150.939 44.1747 151.011 44.0003C151.083 43.8258 151.189 43.6673 151.322 43.5339C151.456 43.4004 151.614 43.2945 151.789 43.2224C151.963 43.1502 152.15 43.1131 152.339 43.1133C152.528 43.1132 152.715 43.1503 152.889 43.2225C153.064 43.2947 153.222 43.4005 153.355 43.534C153.489 43.6675 153.595 43.826 153.667 44.0004C153.739 44.1748 153.776 44.3617 153.776 44.5504V47.4247C153.776 47.6134 153.739 47.8004 153.667 47.9748C153.595 48.1492 153.489 48.3076 153.355 48.4411C153.222 48.5746 153.064 48.6804 152.889 48.7526C152.715 48.8248 152.528 48.8619 152.339 48.8618Z" fill="#053B55"/>
<path d="M152.339 60.3618C151.545 60.3618 150.902 59.7189 150.902 58.9243V56.0501C150.902 55.8613 150.939 55.6744 151.011 55.5C151.083 55.3256 151.189 55.1672 151.323 55.0337C151.456 54.9003 151.615 54.7945 151.789 54.7224C151.963 54.6502 152.15 54.6131 152.339 54.6133C152.528 54.6131 152.715 54.6502 152.889 54.7224C153.063 54.7945 153.222 54.9003 153.355 55.0338C153.489 55.1672 153.595 55.3257 153.667 55.5001C153.739 55.6744 153.776 55.8613 153.776 56.0501V58.9243C153.776 59.7189 153.133 60.3618 152.339 60.3618Z" fill="#053B55"/>
<path d="M149.291 50.1247C149.102 50.1249 148.915 50.0878 148.741 50.0156C148.566 49.9434 148.408 49.8375 148.275 49.7039L146.243 47.6716C146.109 47.5382 146.003 47.3799 145.931 47.2055C145.859 47.0312 145.822 46.8444 145.822 46.6557C145.822 46.467 145.859 46.2801 145.931 46.1058C146.003 45.9315 146.109 45.7731 146.243 45.6397C146.376 45.5063 146.534 45.4004 146.709 45.3282C146.883 45.2559 147.07 45.2188 147.259 45.2188C147.447 45.2188 147.634 45.2559 147.808 45.3282C147.983 45.4004 148.141 45.5063 148.275 45.6397L150.307 47.6716C150.508 47.8725 150.645 48.1286 150.7 48.4074C150.756 48.6861 150.727 48.9751 150.619 49.2377C150.51 49.5003 150.326 49.7248 150.089 49.8827C149.853 50.0405 149.575 50.1248 149.291 50.1247Z" fill="#053B55"/>
<path d="M157.42 58.254C157.231 58.2542 157.044 58.2171 156.87 58.1448C156.695 58.0725 156.537 57.9665 156.404 57.8328L154.371 55.8005C154.238 55.6671 154.132 55.5086 154.06 55.3343C153.988 55.16 153.951 54.9731 153.951 54.7844C153.951 54.5957 153.988 54.4089 154.06 54.2346C154.132 54.0602 154.238 53.9018 154.372 53.7684C154.505 53.635 154.663 53.5292 154.838 53.457C155.012 53.3848 155.199 53.3476 155.388 53.3477C155.576 53.3477 155.763 53.3849 155.937 53.4571C156.112 53.5293 156.27 53.6352 156.404 53.7686L158.436 55.8005C158.637 56.0014 158.774 56.2575 158.83 56.5364C158.885 56.8153 158.857 57.1043 158.748 57.367C158.639 57.6297 158.455 57.8542 158.218 58.0121C157.982 58.17 157.704 58.2542 157.42 58.254Z" fill="#053B55"/>
<path d="M148.027 53.1751H145.153C144.964 53.1752 144.777 53.138 144.603 53.0659C144.428 52.9937 144.27 52.8878 144.137 52.7543C144.003 52.6209 143.897 52.4624 143.825 52.288C143.753 52.1136 143.716 51.9267 143.716 51.7379C143.716 51.5492 143.753 51.3622 143.825 51.1878C143.897 51.0134 144.003 50.855 144.137 50.7215C144.27 50.588 144.428 50.4822 144.603 50.41C144.777 50.3378 144.964 50.3007 145.153 50.3008H148.027C148.822 50.3008 149.465 50.9437 149.465 51.7379C149.465 51.9267 149.428 52.1137 149.356 52.2881C149.283 52.4625 149.177 52.621 149.044 52.7545C148.91 52.8879 148.752 52.9938 148.577 53.066C148.403 53.1381 148.216 53.1752 148.027 53.1751Z" fill="#053B55"/>
<path d="M159.525 53.1751H156.65C156.461 53.1752 156.275 53.138 156.1 53.0658C155.926 52.9937 155.767 52.8878 155.634 52.7543C155.5 52.6208 155.395 52.4624 155.322 52.288C155.25 52.1136 155.213 51.9267 155.213 51.7379C155.213 51.5492 155.25 51.3623 155.322 51.1879C155.395 51.0135 155.5 50.855 155.634 50.7215C155.767 50.588 155.926 50.4822 156.1 50.41C156.275 50.3378 156.461 50.3007 156.65 50.3008H159.525C159.714 50.3007 159.9 50.3378 160.075 50.41C160.249 50.4822 160.408 50.588 160.541 50.7215C160.675 50.855 160.781 51.0134 160.853 51.1878C160.925 51.3622 160.962 51.5492 160.962 51.7379C160.962 51.9267 160.925 52.1136 160.853 52.288C160.781 52.4624 160.675 52.6209 160.541 52.7543C160.408 52.8878 160.249 52.9937 160.075 53.0659C159.9 53.138 159.714 53.1752 159.525 53.1751Z" fill="#053B55"/>
<path d="M147.258 58.254C146.974 58.2541 146.696 58.1699 146.459 58.012C146.223 57.8541 146.039 57.6296 145.93 57.3669C145.821 57.1042 145.793 56.8151 145.848 56.5363C145.904 56.2575 146.041 56.0014 146.242 55.8005L148.274 53.7686C148.544 53.4991 148.909 53.3477 149.29 53.3477C149.671 53.3476 150.037 53.499 150.306 53.7684C150.576 54.0379 150.727 54.4033 150.727 54.7844C150.727 55.1655 150.576 55.531 150.306 55.8005L148.274 57.8328C148.141 57.9665 147.983 58.0725 147.808 58.1448C147.634 58.2171 147.447 58.2542 147.258 58.254Z" fill="#053B55"/>
<path d="M155.387 50.1247C155.103 50.1248 154.825 50.0406 154.589 49.8828C154.352 49.7249 154.168 49.5005 154.059 49.2378C153.95 48.9752 153.922 48.6862 153.977 48.4074C154.033 48.1286 154.17 47.8725 154.371 47.6716L156.403 45.6397C156.537 45.5063 156.695 45.4004 156.869 45.3282C157.044 45.256 157.231 45.2188 157.419 45.2188C157.608 45.2187 157.795 45.2559 157.969 45.3281C158.144 45.4003 158.302 45.5061 158.435 45.6395C158.569 45.7729 158.675 45.9313 158.747 46.1057C158.819 46.28 158.856 46.4668 158.856 46.6555C158.856 46.8442 158.819 47.0311 158.747 47.2054C158.675 47.3798 158.569 47.5382 158.436 47.6716L156.403 49.7039C156.27 49.8374 156.112 49.9433 155.937 50.0156C155.763 50.0878 155.576 50.1249 155.387 50.1247Z" fill="#053B55"/>
<path d="M40.2403 66.1104C32.3164 66.1104 25.8689 59.6628 25.8689 51.7386C25.8689 43.8147 32.3164 37.3672 40.2403 37.3672C48.1645 37.3672 54.6121 43.8147 54.6121 51.7386C54.6121 59.6625 48.1645 66.1104 40.2403 66.1104ZM40.2403 40.2411C33.8991 40.2411 28.7432 45.4003 28.7432 51.7382C28.7432 58.0765 33.8995 63.2357 40.2403 63.2357C46.5811 63.2357 51.7374 58.0765 51.7374 51.7382C51.7374 45.4007 46.5815 40.2411 40.2403 40.2411Z" fill="#053B55"/>
<path d="M40.3273 53.1751C39.533 53.1751 38.8761 52.5325 38.8761 51.7379C38.8761 50.9437 39.505 50.3008 40.2963 50.3008H40.3273C40.7083 50.3011 41.0737 50.4526 41.3432 50.722C41.6126 50.9915 41.7641 51.3569 41.7644 51.7379C41.7642 52.119 41.6127 52.4845 41.3433 52.7539C41.0738 53.0234 40.7084 53.1749 40.3273 53.1751Z" fill="#053B55"/>
<path d="M40.2404 48.8658C40.0516 48.8658 39.8647 48.8287 39.6903 48.7565C39.5159 48.6843 39.3574 48.5785 39.2239 48.445C39.0905 48.3116 38.9846 48.1531 38.9124 47.9787C38.8402 47.8043 38.8031 47.6174 38.8032 47.4286V44.5543C38.8032 43.7601 39.4461 43.1172 40.2404 43.1172C41.0346 43.1172 41.6775 43.7601 41.6775 44.5543V47.4286C41.6776 47.6174 41.6406 47.8043 41.5684 47.9787C41.4962 48.1532 41.3904 48.3117 41.2569 48.4451C41.1234 48.5786 40.9649 48.6845 40.7905 48.7566C40.6161 48.8288 40.4291 48.8659 40.2404 48.8658Z" fill="#053B55"/>
<path d="M40.2404 60.3618C40.0516 60.3619 39.8646 60.3248 39.6902 60.2526C39.5158 60.1804 39.3573 60.0745 39.2238 59.941C39.0903 59.8075 38.9845 59.649 38.9123 59.4745C38.8402 59.3001 38.8031 59.1131 38.8032 58.9243V56.0501C38.8032 55.2558 39.4461 54.6133 40.2404 54.6133C41.0346 54.6133 41.6775 55.2558 41.6775 56.0501V58.9243C41.6775 59.7189 41.0349 60.3618 40.2404 60.3618Z" fill="#053B55"/>
<path d="M37.1921 50.1286C37.0034 50.1288 36.8166 50.0917 36.6422 50.0195C36.4679 49.9472 36.3095 49.8413 36.1762 49.7078L34.1439 47.6755C34.0105 47.5421 33.9047 47.3837 33.8325 47.2093C33.7603 47.035 33.7231 46.8481 33.7231 46.6594C33.7232 46.4707 33.7603 46.2839 33.8326 46.1096C33.9048 45.9352 34.0107 45.7768 34.1441 45.6434C34.2775 45.51 34.4359 45.4042 34.6103 45.332C34.7846 45.2598 34.9715 45.2226 35.1602 45.2227C35.3489 45.2227 35.5357 45.2599 35.71 45.3321C35.8844 45.4043 36.0428 45.5102 36.1762 45.6436L38.2084 47.6755C38.4095 47.8765 38.5465 48.1325 38.602 48.4113C38.6575 48.6901 38.629 48.9791 38.5202 49.2417C38.4114 49.5044 38.2271 49.7288 37.9907 49.8867C37.7543 50.0446 37.4764 50.1287 37.1921 50.1286Z" fill="#053B55"/>
<path d="M45.3211 58.2579C45.1323 58.2581 44.9453 58.221 44.7709 58.1487C44.5965 58.0764 44.4381 57.9704 44.3048 57.8367L42.2729 55.8044C42.1394 55.671 42.0336 55.5127 41.9613 55.3383C41.8891 55.164 41.8519 54.9772 41.8519 54.7885C41.8519 54.5998 41.8891 54.4129 41.9613 54.2386C42.0336 54.0643 42.1394 53.9059 42.2729 53.7725C42.4063 53.6391 42.5647 53.5332 42.739 53.461C42.9133 53.3887 43.1002 53.3516 43.2889 53.3516C43.4775 53.3516 43.6644 53.3887 43.8387 53.461C44.013 53.5332 44.1714 53.6391 44.3048 53.7725L46.3371 55.8044C46.5382 56.0053 46.6753 56.2614 46.7309 56.5402C46.7865 56.8191 46.7581 57.1081 46.6493 57.3708C46.5405 57.6335 46.3563 57.858 46.1198 58.0159C45.8834 58.1738 45.6054 58.258 45.3211 58.2579Z" fill="#053B55"/>
<path d="M35.9289 53.1751H33.0546C32.8658 53.1752 32.6789 53.138 32.5045 53.0659C32.3301 52.9937 32.1716 52.8878 32.0381 52.7543C31.9047 52.6209 31.7988 52.4624 31.7266 52.288C31.6544 52.1136 31.6173 51.9267 31.6174 51.7379C31.6173 51.5492 31.6544 51.3622 31.7266 51.1878C31.7988 51.0134 31.9047 50.855 32.0381 50.7215C32.1716 50.588 32.3301 50.4822 32.5045 50.41C32.6789 50.3378 32.8658 50.3007 33.0546 50.3008H35.9289C36.1176 50.3007 36.3045 50.3378 36.4789 50.41C36.6533 50.4822 36.8118 50.588 36.9453 50.7215C37.0787 50.855 37.1846 51.0134 37.2568 51.1878C37.329 51.3622 37.3661 51.5492 37.366 51.7379C37.3661 51.9267 37.3291 52.1136 37.2569 52.2881C37.1847 52.4625 37.0789 52.621 36.9454 52.7545C36.8119 52.8879 36.6534 52.9938 36.479 53.066C36.3046 53.1381 36.1176 53.1752 35.9289 53.1751Z" fill="#053B55"/>
<path d="M47.426 53.1751H44.5518C44.363 53.1752 44.1761 53.138 44.0017 53.0659C43.8273 52.9937 43.6688 52.8878 43.5353 52.7543C43.4019 52.6209 43.296 52.4624 43.2238 52.288C43.1516 52.1136 43.1145 51.9267 43.1146 51.7379C43.1145 51.5492 43.1516 51.3622 43.2238 51.1878C43.296 51.0134 43.4019 50.855 43.5353 50.7215C43.6688 50.588 43.8273 50.4822 44.0017 50.41C44.1761 50.3378 44.363 50.3007 44.5518 50.3008H47.426C47.6148 50.3007 47.8017 50.3378 47.9761 50.41C48.1505 50.4822 48.309 50.588 48.4425 50.7215C48.5759 50.855 48.6818 51.0134 48.754 51.1878C48.8262 51.3622 48.8633 51.5492 48.8632 51.7379C48.8633 51.9267 48.8263 52.1136 48.7541 52.2881C48.6819 52.4625 48.5761 52.621 48.4426 52.7545C48.3091 52.8879 48.1506 52.9938 47.9762 53.066C47.8018 53.1381 47.6148 53.1752 47.426 53.1751Z" fill="#053B55"/>
<path d="M35.1598 58.2579C34.8754 58.2581 34.5974 58.1739 34.3609 58.016C34.1244 57.8582 33.9401 57.6336 33.8313 57.3709C33.7225 57.1082 33.6941 56.8192 33.7496 56.5403C33.8052 56.2614 33.9423 56.0053 34.1435 55.8044L36.1757 53.7725C36.3091 53.6391 36.4675 53.5332 36.6419 53.461C36.8162 53.3888 37.003 53.3516 37.1917 53.3516C37.3804 53.3515 37.5673 53.3887 37.7416 53.4609C37.916 53.5331 38.0744 53.6389 38.2078 53.7723C38.3413 53.9057 38.4471 54.0641 38.5193 54.2385C38.5916 54.4128 38.6287 54.5996 38.6288 54.7883C38.6288 54.977 38.5916 55.1639 38.5194 55.3382C38.4472 55.5126 38.3414 55.671 38.208 55.8044L36.1757 57.8367C36.0425 57.9703 35.8841 58.0764 35.7098 58.1487C35.5354 58.2209 35.3485 58.258 35.1598 58.2579Z" fill="#053B55"/>
<path d="M43.2889 50.1286C43.0047 50.1287 42.7268 50.0444 42.4905 49.8865C42.2541 49.7286 42.0699 49.5042 41.9611 49.2416C41.8524 48.979 41.824 48.69 41.8795 48.4112C41.935 48.1325 42.0719 47.8764 42.273 47.6755L44.3049 45.6436C44.4383 45.5102 44.5967 45.4043 44.771 45.3321C44.9454 45.2599 45.1322 45.2227 45.3209 45.2227C45.5096 45.2226 45.6964 45.2598 45.8708 45.332C46.0451 45.4042 46.2035 45.51 46.337 45.6434C46.4704 45.7768 46.5763 45.9352 46.6485 46.1096C46.7207 46.2839 46.7579 46.4707 46.7579 46.6594C46.7579 46.8481 46.7208 47.035 46.6486 47.2093C46.5764 47.3837 46.4706 47.5421 46.3372 47.6755L44.3049 49.7078C44.1716 49.8413 44.0132 49.9472 43.8389 50.0195C43.6645 50.0917 43.4776 50.1288 43.2889 50.1286Z" fill="#053B55"/>
<path d="M179.645 37.3648C179.324 37.3649 179.013 37.2578 178.76 37.0605C178.507 36.8632 178.327 36.587 178.25 36.2759L175.375 24.7784C175.33 24.5953 175.321 24.4051 175.349 24.2185C175.377 24.0319 175.441 23.8526 175.538 23.6909C175.635 23.5291 175.763 23.3882 175.915 23.2759C176.067 23.1637 176.239 23.0825 176.422 23.0369C177.175 22.8403 177.972 23.3104 178.166 24.0823L181.04 35.5795C181.086 35.7625 181.095 35.9527 181.067 36.1393C181.039 36.3259 180.975 36.5051 180.877 36.6667C180.78 36.8284 180.652 36.9693 180.5 37.0814C180.348 37.1934 180.176 37.2745 179.993 37.3199C179.879 37.35 179.762 37.3651 179.645 37.3648Z" fill="#053B55"/>
<path d="M178.208 31.6165H168.148C167.959 31.6166 167.772 31.5795 167.598 31.5073C167.423 31.4351 167.265 31.3292 167.131 31.1957C166.998 31.0623 166.892 30.9038 166.82 30.7294C166.747 30.555 166.71 30.3681 166.71 30.1793C166.71 29.9906 166.747 29.8037 166.82 29.6292C166.892 29.4548 166.998 29.2964 167.131 29.1629C167.265 29.0294 167.423 28.9236 167.598 28.8514C167.772 28.7792 167.959 28.7421 168.148 28.7422H178.208C178.396 28.7421 178.583 28.7792 178.758 28.8514C178.932 28.9236 179.091 29.0294 179.224 29.1629C179.357 29.2964 179.463 29.4548 179.536 29.6292C179.608 29.8037 179.645 29.9906 179.645 30.1793C179.645 30.3681 179.608 30.555 179.536 30.7294C179.463 30.9038 179.357 31.0623 179.224 31.1957C179.091 31.3292 178.932 31.4351 178.758 31.5073C178.583 31.5795 178.396 31.6166 178.208 31.6165Z" fill="#053B55"/>
<path d="M168.148 31.6169C167.959 31.617 167.772 31.5799 167.598 31.5077C167.423 31.4355 167.265 31.3296 167.131 31.1962C166.998 31.0627 166.892 30.9042 166.82 30.7298C166.747 30.5554 166.71 30.3685 166.71 30.1797V23.6168C166.71 22.8226 167.353 22.1797 168.148 22.1797C168.942 22.1797 169.585 22.8226 169.585 23.6168V30.1797C169.585 30.3685 169.548 30.5554 169.476 30.7298C169.403 30.9042 169.297 31.0627 169.164 31.1962C169.031 31.3296 168.872 31.4355 168.698 31.5077C168.523 31.5799 168.336 31.617 168.148 31.6169Z" fill="#053B55"/>
<path d="M102.038 31.6165H96.2894C96.1007 31.6166 95.9138 31.5795 95.7394 31.5073C95.565 31.4351 95.4065 31.3292 95.273 31.1957C95.1396 31.0623 95.0337 30.9038 94.9615 30.7294C94.8893 30.555 94.8522 30.3681 94.8523 30.1793C94.8522 29.9906 94.8893 29.8037 94.9615 29.6292C95.0337 29.4548 95.1396 29.2964 95.273 29.1629C95.4065 29.0294 95.565 28.9236 95.7394 28.8514C95.9138 28.7792 96.1007 28.7421 96.2894 28.7422H102.038C102.227 28.7421 102.414 28.7792 102.588 28.8514C102.763 28.9236 102.921 29.0295 103.055 29.1629C103.188 29.2964 103.294 29.4549 103.366 29.6293C103.438 29.8037 103.475 29.9906 103.475 30.1793C103.475 30.3681 103.438 30.555 103.366 30.7294C103.294 30.9038 103.188 31.0623 103.055 31.1957C102.921 31.3292 102.763 31.4351 102.588 31.5073C102.414 31.5795 102.227 31.6166 102.038 31.6165Z" fill="#053B55"/>
</svg>
