<svg width="895" height="494" viewBox="0 0 895 494" fill="none" xmlns="http://www.w3.org/2000/svg">
<path d="M803.692 356.586H588.081C584.226 356.586 581.089 353.449 581.089 349.593V35.5357C581.089 31.6803 584.226 28.543 588.081 28.543H803.692C807.547 28.543 810.685 31.6791 810.685 35.5357V349.593C810.685 353.45 807.547 356.586 803.692 356.586ZM588.081 28.8412C584.389 28.8412 581.387 31.8449 581.387 35.5357V349.593C581.387 353.285 584.391 356.288 588.081 356.288H803.692C807.384 356.288 810.386 353.284 810.386 349.593V35.5357C810.386 31.8449 807.383 28.8412 803.692 28.8412H588.081Z" fill="#2D64C8"/>
<path d="M555.06 356.586H339.448C335.592 356.586 332.455 353.449 332.455 349.593V35.5357C332.455 31.6803 335.591 28.543 339.448 28.543H555.06C558.915 28.543 562.052 31.6791 562.052 35.5357V349.593C562.052 353.45 558.915 356.586 555.06 356.586ZM339.448 28.8412C335.757 28.8412 332.753 31.8449 332.753 35.5357V349.593C332.753 353.285 335.757 356.288 339.448 356.288H555.06C558.752 356.288 561.754 353.284 561.754 349.593V35.5357C561.754 31.8449 558.75 28.8412 555.06 28.8412H339.448Z" fill="#2D64C8"/>
<path d="M306.587 356.586H90.9767C87.1213 356.586 83.984 353.449 83.984 349.593V35.5357C83.984 31.6803 87.1201 28.543 90.9767 28.543H306.587C310.443 28.543 313.58 31.6791 313.58 35.5357V349.593C313.58 353.45 310.443 356.586 306.587 356.586ZM90.9767 28.8412C87.2859 28.8412 84.2822 31.8449 84.2822 35.5357V349.593C84.2822 353.285 87.2859 356.288 90.9767 356.288H306.587C310.279 356.288 313.282 353.284 313.282 349.593V35.5357C313.282 31.8449 310.279 28.8412 306.587 28.8412H90.9767Z" fill="#2D64C8"/>
<path d="M894.669 429.434H0V429.577H894.669V429.434Z" fill="#2D64C8"/>
<path d="M846.184 464.477H779.705V464.979H846.184V464.477Z" fill="#A9D8EB"/>
<path d="M607.983 469.926H590.534V470.428H607.983V469.926Z" fill="#A9D8EB"/>
<path d="M135.178 449.211H48.485V449.713H135.178V449.211Z" fill="#A9D8EB"/>
<path d="M165.757 449.211H153.047V449.713H165.757V449.211Z" fill="#A9D8EB"/>
<path d="M395.085 457.688H207.069V458.19H395.085V457.688Z" fill="#A9D8EB"/>
<path d="M563.553 170.147C560.549 167.877 556.164 167.619 552.913 169.523C548.598 160.805 536.576 156.957 528.002 161.551C525.765 152.157 516.509 144.936 506.853 145.052C497.196 145.168 488.117 152.61 486.107 162.056C485.788 163.556 485.576 165.201 484.503 166.298C482.759 168.079 479.847 167.481 477.361 167.288C469.54 166.678 461.672 172.168 459.545 179.718L567.24 179.325C568.183 175.678 566.56 172.418 563.555 170.147H563.553Z" fill="#2D64C8"/>
<path d="M302.792 25.0963C299.787 22.8262 295.402 22.5685 292.151 24.4724C287.837 15.7547 275.815 11.9064 267.24 16.5003C265.003 7.10624 255.748 -0.114339 246.091 0.00137131C236.435 0.117082 227.356 7.55954 225.346 17.0049C225.026 18.5055 224.815 20.1505 223.741 21.2468C221.997 23.0278 219.085 22.4301 216.599 22.2369C208.779 21.6273 200.91 27.117 198.784 34.6668L306.478 34.2744C307.422 30.6277 305.797 27.3675 302.792 25.0963Z" fill="#2D64C8"/>
<path d="M425.628 138.546C423.602 137.015 420.645 136.841 418.454 138.125C415.545 132.247 407.44 129.653 401.659 132.75C400.151 126.417 393.911 121.548 387.4 121.626C380.891 121.705 374.769 126.721 373.414 133.09C373.199 134.101 373.056 135.211 372.332 135.95C371.155 137.151 369.193 136.748 367.517 136.617C362.245 136.205 356.94 139.907 355.506 144.997L428.11 144.732C428.746 142.274 427.652 140.075 425.625 138.545L425.628 138.546Z" fill="#F0F0F0"/>
<path d="M129.491 79.5029C127.464 77.9725 124.508 77.7983 122.317 79.0818C119.409 73.2045 111.303 70.6099 105.522 73.7067C104.014 67.3736 97.7743 62.5054 91.2635 62.5829C84.7539 62.6617 78.632 67.6778 77.2768 74.0455C77.0621 75.0582 76.919 76.1664 76.1949 76.906C75.0187 78.1073 73.0564 77.7041 71.3804 77.5728C66.1078 77.1613 60.803 80.8628 59.3691 85.9529L131.973 85.6893C132.609 83.2307 131.514 81.0322 129.489 79.5017L129.491 79.5029Z" fill="#F0F0F0"/>
<path d="M126.016 269.526C123.989 267.996 121.033 267.822 118.842 269.105C115.934 263.228 107.828 260.633 102.047 263.73C100.539 257.397 94.2993 252.529 87.7885 252.606C81.2789 252.685 75.157 257.701 73.8019 264.07C73.586 265.082 73.444 266.191 72.7199 266.929C71.5437 268.131 69.5814 267.727 67.9054 267.596C62.6328 267.185 57.328 270.886 55.8942 275.976L128.498 275.713C129.134 273.254 128.04 271.056 126.014 269.525L126.016 269.526Z" fill="#F0F0F0"/>
<path d="M366.482 219.601C364.456 218.07 361.499 217.896 359.308 219.18C356.399 213.302 348.294 210.708 342.513 213.804C341.005 207.471 334.765 202.603 328.254 202.681C321.745 202.759 315.623 207.775 314.268 214.144C314.052 215.156 313.91 216.265 313.186 217.005C312.009 218.206 310.047 217.803 308.371 217.672C303.098 217.26 297.794 220.962 296.36 226.052L368.964 225.787C369.6 223.328 368.506 221.13 366.479 219.599L366.482 219.601Z" fill="#F0F0F0"/>
<path d="M608.172 24.3966C605.437 22.3305 601.447 22.0967 598.49 23.8288C594.564 15.896 583.624 12.3937 575.821 16.5736C573.786 8.02534 565.363 1.45369 556.576 1.55986C547.789 1.66603 539.527 8.43689 537.697 17.0329C537.406 18.3987 537.214 19.8958 536.237 20.8931C534.651 22.5142 532 21.9703 529.738 21.7937C522.622 21.239 515.462 26.2348 513.526 33.1047L611.526 32.748C612.384 29.4294 610.906 26.4627 608.172 24.3966Z" fill="#F0F0F0"/>
<path d="M837.517 121.455C834.782 119.389 830.791 119.155 827.834 120.887C823.908 112.955 812.968 109.452 805.166 113.632C803.131 105.084 794.708 98.5123 785.921 98.6185C777.134 98.7246 768.871 105.495 767.042 114.091C766.751 115.457 766.559 116.954 765.582 117.952C763.995 119.573 761.345 119.029 759.083 118.852C751.966 118.298 744.806 123.293 742.87 130.163L840.87 129.807C841.729 126.488 840.251 123.521 837.517 121.455Z" fill="#F0F0F0"/>
<path d="M856.132 242.307C853.397 240.241 849.406 240.007 846.449 241.739C842.523 233.806 831.583 230.304 823.781 234.484C821.745 225.935 813.322 219.364 804.536 219.47C795.749 219.576 787.486 226.347 785.657 234.943C785.366 236.309 785.174 237.806 784.197 238.803C782.61 240.424 779.96 239.88 777.698 239.704C770.581 239.149 763.421 244.145 761.485 251.015L859.485 250.658C860.344 247.34 858.866 244.373 856.132 242.307Z" fill="#F0F0F0"/>
<path d="M754.928 486.147C754.928 490.187 617.215 493.462 447.335 493.462C277.455 493.462 139.742 490.187 139.742 486.147C139.742 482.107 277.455 478.832 447.335 478.832C617.215 478.832 754.928 482.108 754.928 486.147Z" fill="#D6E1FF"/>
<path d="M304.688 184.112C302.434 182.752 299.824 182.097 297.195 182.234C295.581 180.274 296.883 177.327 298.446 175.335C300.01 173.343 301.921 171.07 301.328 168.6C300.406 164.895 295.203 164.747 291.448 165.471C290.064 163.232 290.097 160.449 289.422 157.862C288.747 155.277 286.54 152.56 284.086 152.923C281.633 153.285 280.118 156.001 277.697 156.579C274.881 157.237 272.444 154.751 270.237 152.89C269.966 152.658 269.68 152.443 269.38 152.249C269.841 144.526 277.186 145.761 283.443 144.707C288.334 143.9 275.375 131.533 285.254 127.547C287.169 127.021 288.847 125.861 290.014 124.254C291.037 121.754 290.131 118.879 287.857 117.42C285.609 116.062 283.004 115.409 280.381 115.542C278.767 113.582 280.069 110.635 281.633 108.642C283.197 106.65 285.091 104.378 284.515 101.907C283.576 98.2023 278.389 98.0543 274.634 98.7784C273.25 96.5394 273.284 93.7563 272.608 91.1702C271.933 88.5852 269.743 85.8677 267.273 86.2304C264.802 86.593 263.304 89.3092 260.883 89.8854C258.067 90.5439 255.63 88.0579 253.423 86.197C251.216 84.3361 247.363 83.167 245.848 85.6208C244.943 87.0702 245.486 89.1124 244.53 90.5606C242.899 93.0311 238.997 91.5161 236.593 89.7375C234.188 87.9589 230.302 86.3449 228.655 88.8154C228.226 89.6242 227.911 90.489 227.716 91.3849C227.482 92.0219 227.154 92.6219 226.745 93.1635C226.268 91.4505 226.119 89.5896 225.675 87.8611C225 85.2928 222.81 82.5587 220.339 82.9213C217.869 83.2839 216.371 86.0169 213.95 86.5775C211.134 87.2527 208.697 84.75 206.491 82.8891C204.284 81.0282 200.431 79.8591 198.916 82.3296C198.011 83.779 198.554 85.8212 197.599 87.2694C197.401 87.5962 197.132 87.8718 196.808 88.0758C195.969 87.9112 195.146 87.9112 194.322 87.9112C192.708 85.968 194.01 83.037 195.574 81.0282C197.138 79.0193 199.049 76.7469 198.456 74.2931C197.534 70.5713 192.33 70.4401 188.575 71.1642C187.191 68.9084 187.225 66.1254 186.55 63.5559C185.874 60.9864 183.684 58.2368 181.214 58.6161C178.743 58.9955 177.245 61.7117 174.825 62.2878C172.008 62.9463 169.571 60.477 167.365 58.5994C165.159 56.7218 161.306 55.5695 159.791 58.0232C158.885 59.4559 159.428 61.5148 158.474 62.963C156.843 65.4168 152.973 63.9018 150.553 62.1232C148.132 60.3446 144.246 58.7306 142.599 61.2011C142.167 62.0147 141.851 62.8855 141.66 63.7861C140.523 67.0797 136.95 68.7259 134.184 70.8337C131.418 72.9416 129.227 77.1405 131.566 79.71C132.718 80.9948 134.76 81.4719 135.336 83.1193C136.045 85.0625 133.986 86.9569 132.34 88.3561C130.182 90.7514 129.546 94.1536 130.694 97.1656C129.873 97.9124 128.902 98.4742 127.845 98.8118C125.03 99.4703 122.591 96.9843 120.386 95.1234C118.179 93.2625 114.326 92.0934 112.811 94.5472C111.905 95.9799 112.448 98.0388 111.494 99.487C109.863 101.957 105.993 100.443 103.573 98.6639C101.153 96.8853 97.2663 95.2713 95.6189 97.7418C95.1895 98.5506 94.8746 99.4154 94.6801 100.311C93.5445 103.605 89.9706 105.251 87.2042 107.359C84.4379 109.467 82.2478 113.666 84.5858 116.251C85.6893 117.535 87.5991 118.063 88.2576 119.544C86.3144 118.77 84.0753 118.968 83.1687 120.417C82.2621 121.867 82.806 123.909 81.8517 125.357C80.2211 127.828 76.3513 126.313 73.9309 124.534C71.5106 122.756 67.6241 121.142 65.9767 123.612C65.5449 124.426 65.2288 125.296 65.0379 126.197C63.9011 129.491 60.3284 131.105 57.5621 133.229C54.7957 135.354 52.6056 139.553 54.9437 142.121C56.096 143.389 58.1382 143.883 58.7144 145.53C59.4397 147.474 57.3807 149.367 55.7334 150.767C52.9992 153.073 52.5054 160.005 56.1127 161.916C57.6277 162.707 59.8834 163.118 60.2139 164.617C60.5431 166.115 59.0281 167.268 58.0237 168.421C57.7911 168.719 57.5823 169.036 57.3998 169.368C55.496 172.826 56.7557 177.172 60.2139 179.076C61.0859 179.47 62.1404 179.816 62.4696 180.723C62.5937 181.399 62.5197 182.097 62.2549 182.732C61.909 183.99 61.7921 185.301 61.909 186.602C61.909 187.049 62.0795 187.48 62.3861 187.804C62.7165 188.04 63.1174 188.157 63.5218 188.133C68.7251 188.363 71.229 186.519 74.4069 191.049C74.6848 191.504 75.0546 191.898 75.4936 192.201C75.9386 192.423 76.4288 192.541 76.9263 192.547C79.9944 192.801 82.1309 191.205 84.7564 190.475C84.5369 191.57 84.7087 192.652 85.4984 193.525C86.4575 194.588 88.1466 195.023 88.6357 196.365C89.2286 198.108 87.5025 199.572 86.1438 200.722C83.8785 202.657 83.4598 208.441 86.4575 210.01C87.7291 210.672 89.5769 210.882 89.9431 212.275C90.3093 213.669 88.9673 214.488 88.2003 215.447C86.1831 218.047 86.6567 221.792 89.2572 223.809C89.5006 223.999 89.7594 224.168 90.029 224.317C90.7436 224.666 91.6323 224.945 91.8935 225.712C92.0224 226.296 91.9615 226.907 91.7193 227.455C91.4283 228.497 91.334 229.584 91.4402 230.661C91.4331 231.034 91.5702 231.397 91.8231 231.671C92.1023 231.869 92.4399 231.968 92.781 231.951C97.1029 232.143 99.194 230.609 101.842 234.373C102.074 234.753 102.383 235.08 102.749 235.331C103.122 235.517 103.534 235.619 103.951 235.627C106.931 235.872 108.866 234.024 111.601 233.675C115.365 233.188 116.166 235.139 119.495 236.708C124.722 239.165 127.284 237.649 128.208 234.076C128.302 233.707 128.369 233.332 128.435 232.956C128.831 234.416 129.68 235.767 130.968 236.766C131.263 236.995 131.575 237.2 131.902 237.382C132.767 237.804 133.843 238.14 134.159 239.069C134.315 239.776 134.241 240.514 133.948 241.178C133.596 242.438 133.481 243.754 133.61 245.058C133.601 245.51 133.766 245.949 134.074 246.281C134.412 246.521 134.821 246.64 135.234 246.618C140.465 246.85 142.995 244.995 146.201 249.551C146.481 250.01 146.855 250.405 147.297 250.71C147.75 250.935 148.247 251.057 148.753 251.069C152.359 251.365 154.701 249.128 158.011 248.707C162.566 248.117 163.536 250.479 167.565 252.376C173.892 255.35 176.992 253.516 178.11 249.191C178.424 247.969 178.613 246.719 178.679 245.459C179.143 237.676 186.566 238.9 192.872 237.846C193.174 237.796 193.407 237.7 193.584 237.568C193.592 237.591 193.607 237.608 193.614 237.631C193.77 238.339 193.696 239.078 193.403 239.74C193.05 241.001 192.936 242.317 193.065 243.621C193.056 244.073 193.223 244.512 193.529 244.843C193.867 245.083 194.276 245.202 194.689 245.181C199.919 245.412 202.45 243.557 205.655 248.112C205.935 248.571 206.309 248.966 206.751 249.271C207.204 249.497 207.701 249.618 208.206 249.63C211.813 249.925 214.154 247.69 217.466 247.269C222.021 246.678 222.991 249.04 227.02 250.938C233.347 253.912 236.447 252.077 237.565 247.753C237.879 246.53 238.069 245.28 238.134 244.02C238.598 236.238 246.021 237.462 252.328 236.407C256.754 235.67 246.725 225.592 251.766 220.613C252.434 221.082 253.099 221.756 253.796 222.75C254.074 223.205 254.444 223.598 254.883 223.902C255.328 224.124 255.818 224.242 256.316 224.248C259.889 224.544 262.194 222.322 265.488 221.893C270.05 221.317 270.988 223.655 274.989 225.533C281.264 228.497 284.309 226.67 285.495 222.387C285.807 221.174 285.995 219.933 286.055 218.682C286.515 210.959 293.876 212.194 300.134 211.139C305.025 210.333 292.049 197.965 301.93 193.981C303.844 193.455 305.523 192.294 306.688 190.687C307.599 188.295 306.772 185.59 304.679 184.117L304.688 184.112ZM132.949 184.754C133.077 185.226 133.057 185.687 132.936 186.133C132.679 185.675 132.479 185.194 132.327 184.695C132.534 184.713 132.739 184.745 132.949 184.754Z" fill="#407BFF"/>
<path opacity="0.5" d="M304.688 184.112C302.434 182.752 299.824 182.097 297.195 182.234C295.581 180.274 296.883 177.327 298.446 175.335C300.01 173.343 301.921 171.07 301.328 168.6C300.406 164.895 295.203 164.747 291.448 165.471C290.064 163.232 290.097 160.449 289.422 157.862C288.747 155.277 286.54 152.56 284.086 152.923C281.633 153.285 280.118 156.001 277.697 156.579C274.881 157.237 272.444 154.751 270.237 152.89C269.966 152.658 269.68 152.443 269.38 152.249C269.841 144.526 277.186 145.761 283.443 144.707C288.334 143.9 275.375 131.533 285.254 127.547C287.169 127.021 288.847 125.861 290.014 124.254C291.037 121.754 290.131 118.879 287.857 117.42C285.609 116.062 283.004 115.409 280.381 115.542C278.767 113.582 280.069 110.635 281.633 108.642C283.197 106.65 285.091 104.378 284.515 101.907C283.576 98.2023 278.389 98.0543 274.634 98.7784C273.25 96.5394 273.284 93.7563 272.608 91.1702C271.933 88.5852 269.743 85.8677 267.273 86.2304C264.802 86.593 263.304 89.3092 260.883 89.8854C258.067 90.5439 255.63 88.0579 253.423 86.197C251.216 84.3361 247.363 83.167 245.848 85.6208C244.943 87.0702 245.486 89.1124 244.53 90.5606C242.899 93.0311 238.997 91.5161 236.593 89.7375C234.188 87.9589 230.302 86.3449 228.655 88.8154C228.226 89.6242 227.911 90.489 227.716 91.3849C227.482 92.0219 227.154 92.6219 226.745 93.1635C226.268 91.4505 226.119 89.5896 225.675 87.8611C225 85.2928 222.81 82.5587 220.339 82.9213C217.869 83.2839 216.371 86.0169 213.95 86.5775C211.134 87.2527 208.697 84.75 206.491 82.8891C204.284 81.0282 200.431 79.8591 198.916 82.3296C198.011 83.779 198.554 85.8212 197.599 87.2694C197.401 87.5962 197.132 87.8718 196.808 88.0758C195.969 87.9112 195.146 87.9112 194.322 87.9112C192.708 85.968 194.01 83.037 195.574 81.0282C197.138 79.0193 199.049 76.7469 198.456 74.2931C197.534 70.5713 192.33 70.4401 188.575 71.1642C187.191 68.9084 187.225 66.1254 186.55 63.5559C185.874 60.9864 183.684 58.2368 181.214 58.6161C178.743 58.9955 177.245 61.7117 174.825 62.2878C172.008 62.9463 169.571 60.477 167.365 58.5994C165.159 56.7218 161.306 55.5695 159.791 58.0232C158.885 59.4559 159.428 61.5148 158.474 62.963C156.843 65.4168 152.973 63.9018 150.553 62.1232C148.132 60.3446 144.246 58.7306 142.599 61.2011C142.167 62.0147 141.851 62.8855 141.66 63.7861C140.523 67.0797 136.95 68.7259 134.184 70.8337C131.418 72.9416 129.227 77.1405 131.566 79.71C132.718 80.9948 134.76 81.4719 135.336 83.1193C136.045 85.0625 133.986 86.9569 132.34 88.3561C130.182 90.7514 129.546 94.1536 130.694 97.1656C129.873 97.9124 128.902 98.4742 127.845 98.8118C125.03 99.4703 122.591 96.9843 120.386 95.1234C118.179 93.2625 114.326 92.0934 112.811 94.5472C111.905 95.9799 112.448 98.0388 111.494 99.487C109.863 101.957 105.993 100.443 103.573 98.6639C101.153 96.8853 97.2663 95.2713 95.6189 97.7418C95.1895 98.5506 94.8746 99.4154 94.6801 100.311C93.5445 103.605 89.9706 105.251 87.2042 107.359C84.4379 109.467 82.2478 113.666 84.5858 116.251C85.6893 117.535 87.5991 118.063 88.2576 119.544C86.3144 118.77 84.0753 118.968 83.1687 120.417C82.2621 121.867 82.806 123.909 81.8517 125.357C80.2211 127.828 76.3513 126.313 73.9309 124.534C71.5106 122.756 67.6241 121.142 65.9767 123.612C65.5449 124.426 65.2288 125.296 65.0379 126.197C63.9011 129.491 60.3284 131.105 57.5621 133.229C54.7957 135.354 52.6056 139.553 54.9437 142.121C56.096 143.389 58.1382 143.883 58.7144 145.53C59.4397 147.474 57.3807 149.367 55.7334 150.767C52.9992 153.073 52.5054 160.005 56.1127 161.916C57.6277 162.707 59.8834 163.118 60.2139 164.617C60.5431 166.115 59.0281 167.268 58.0237 168.421C57.7911 168.719 57.5823 169.036 57.3998 169.368C55.496 172.826 56.7557 177.172 60.2139 179.076C61.0859 179.47 62.1404 179.816 62.4696 180.723C62.5937 181.399 62.5197 182.097 62.2549 182.732C61.909 183.99 61.7921 185.301 61.909 186.602C61.909 187.049 62.0795 187.48 62.3861 187.804C62.7165 188.04 63.1174 188.157 63.5218 188.133C68.7251 188.363 71.229 186.519 74.4069 191.049C74.6848 191.504 75.0546 191.898 75.4936 192.201C75.9386 192.423 76.4288 192.541 76.9263 192.547C79.9944 192.801 82.1309 191.205 84.7564 190.475C84.5369 191.57 84.7087 192.652 85.4984 193.525C86.4575 194.588 88.1466 195.023 88.6357 196.365C89.2286 198.108 87.5025 199.572 86.1438 200.722C83.8785 202.657 83.4598 208.441 86.4575 210.01C87.7291 210.672 89.5769 210.882 89.9431 212.275C90.3093 213.669 88.9673 214.488 88.2003 215.447C86.1831 218.047 86.6567 221.792 89.2572 223.809C89.5006 223.999 89.7594 224.168 90.029 224.317C90.7436 224.666 91.6323 224.945 91.8935 225.712C92.0224 226.296 91.9615 226.907 91.7193 227.455C91.4283 228.497 91.334 229.584 91.4402 230.661C91.4331 231.034 91.5702 231.397 91.8231 231.671C92.1023 231.869 92.4399 231.968 92.781 231.951C97.1029 232.143 99.194 230.609 101.842 234.373C102.074 234.753 102.383 235.08 102.749 235.331C103.122 235.517 103.534 235.619 103.951 235.627C106.931 235.872 108.866 234.024 111.601 233.675C115.365 233.188 116.166 235.139 119.495 236.708C124.722 239.165 127.284 237.649 128.208 234.076C128.302 233.707 128.369 233.332 128.435 232.956C128.831 234.416 129.68 235.767 130.968 236.766C131.263 236.995 131.575 237.2 131.902 237.382C132.767 237.804 133.843 238.14 134.159 239.069C134.315 239.776 134.241 240.514 133.948 241.178C133.596 242.438 133.481 243.754 133.61 245.058C133.601 245.51 133.766 245.949 134.074 246.281C134.412 246.521 134.821 246.64 135.234 246.618C140.465 246.85 142.995 244.995 146.201 249.551C146.481 250.01 146.855 250.405 147.297 250.71C147.75 250.935 148.247 251.057 148.753 251.069C152.359 251.365 154.701 249.128 158.011 248.707C162.566 248.117 163.536 250.479 167.565 252.376C173.892 255.35 176.992 253.516 178.11 249.191C178.424 247.969 178.613 246.719 178.679 245.459C179.143 237.676 186.566 238.9 192.872 237.846C193.174 237.796 193.407 237.7 193.584 237.568C193.592 237.591 193.607 237.608 193.614 237.631C193.77 238.339 193.696 239.078 193.403 239.74C193.05 241.001 192.936 242.317 193.065 243.621C193.056 244.073 193.223 244.512 193.529 244.843C193.867 245.083 194.276 245.202 194.689 245.181C199.919 245.412 202.45 243.557 205.655 248.112C205.935 248.571 206.309 248.966 206.751 249.271C207.204 249.497 207.701 249.618 208.206 249.63C211.813 249.925 214.154 247.69 217.466 247.269C222.021 246.678 222.991 249.04 227.02 250.938C233.347 253.912 236.447 252.077 237.565 247.753C237.879 246.53 238.069 245.28 238.134 244.02C238.598 236.238 246.021 237.462 252.328 236.407C256.754 235.67 246.725 225.592 251.766 220.613C252.434 221.082 253.099 221.756 253.796 222.75C254.074 223.205 254.444 223.598 254.883 223.902C255.328 224.124 255.818 224.242 256.316 224.248C259.889 224.544 262.194 222.322 265.488 221.893C270.05 221.317 270.988 223.655 274.989 225.533C281.264 228.497 284.309 226.67 285.495 222.387C285.807 221.174 285.995 219.933 286.055 218.682C286.515 210.959 293.876 212.194 300.134 211.139C305.025 210.333 292.049 197.965 301.93 193.981C303.844 193.455 305.523 192.294 306.688 190.687C307.599 188.295 306.772 185.59 304.679 184.117L304.688 184.112ZM132.949 184.754C133.077 185.226 133.057 185.687 132.936 186.133C132.679 185.675 132.479 185.194 132.327 184.695C132.534 184.713 132.739 184.745 132.949 184.754Z" fill="white"/>
<path d="M222.062 179.524L202.484 194.605L209.199 173.309L222.273 156.494L220.039 154.63L207.704 168.074L205.512 146.778H201.941C201.941 146.778 204.875 172.079 200.654 181.343C200.654 181.343 185.326 220.341 175.994 228.783C175.465 229.272 175.005 229.83 174.623 230.441C171.824 223.262 168.186 216.44 163.783 210.118C167.469 200.689 175.377 179.969 178.063 168.882C180.169 160.27 181.748 151.538 182.791 142.735L179.733 142.398C179.733 142.398 171.06 183.354 156.725 201.992C152.478 198.09 147.664 194.855 142.445 192.399C141.279 186.643 140.787 176.625 144.597 160.988L141.567 160.214C141.567 160.214 135.785 173.446 136.292 189.329C134.135 188.246 132.056 187.014 130.07 185.643C116.256 175.927 106.54 158.372 106.54 158.372L103.713 161.124C103.713 161.124 115.503 187.015 131.934 195.662C148.365 204.31 159.014 225.387 159.863 230.91C160.096 232.486 161.995 244.999 159.363 266.923C153.885 264.586 147.615 263.716 140.288 259.785L138.398 269.29L156.951 282.566C157.828 336.012 149.284 417.547 149.435 429.579H182.077C181.273 412.982 178.902 324.645 181.954 259.415C182.215 257.812 182.489 255.975 182.749 253.837C185.298 233.829 200.481 206.493 207.704 198.718C215.444 190.389 224.046 183.785 224.046 183.785L222.061 179.525L222.062 179.524Z" fill="#263238"/>
<path d="M825.767 144.822C823.513 143.462 820.903 142.807 818.274 142.944C816.66 140.984 817.962 138.037 819.526 136.044C821.09 134.052 823 131.78 822.408 129.309C821.486 125.604 816.282 125.456 812.527 126.18C811.143 123.941 811.177 121.158 810.501 118.572C809.826 115.987 807.619 113.27 805.166 113.632C802.712 113.995 801.197 116.711 798.776 117.289C795.96 117.947 793.523 115.461 791.316 113.6C791.045 113.368 790.759 113.153 790.46 112.958C790.92 105.236 798.265 106.47 804.523 105.417C809.413 104.611 796.454 92.2426 806.333 88.2572C808.248 87.7311 809.926 86.5704 811.093 84.9636C812.117 82.4633 811.21 79.5884 808.936 78.1295C806.688 76.772 804.084 76.1183 801.46 76.2519C799.846 74.292 801.148 71.3443 802.712 69.3522C804.276 67.3601 806.17 65.0876 805.594 62.6171C804.655 58.912 799.468 58.7641 795.713 59.4882C794.329 57.2491 794.363 54.4661 793.688 51.8799C793.012 49.2949 790.822 46.5775 788.352 46.9401C785.881 47.3028 784.383 50.019 781.963 50.5963C779.146 51.2548 776.709 48.7688 774.503 46.9079C772.297 45.047 768.444 43.878 766.929 46.3318C766.023 47.7811 766.566 49.8233 765.612 51.2715C763.981 53.742 760.079 52.227 757.674 50.4484C755.269 48.6698 751.384 47.0558 749.737 49.5263C749.307 50.3351 748.992 51.1999 748.798 52.0958C748.564 52.7328 748.236 53.3328 747.827 53.8744C747.35 52.1614 747.201 50.3005 746.757 48.572C746.082 46.0025 743.891 43.2696 741.421 43.6322C738.95 43.9949 737.452 46.7278 735.032 47.2885C732.215 47.9636 729.778 45.4609 727.573 43.6C725.366 41.7391 721.513 40.5701 719.998 43.0406C719.092 44.4899 719.635 46.5322 718.681 47.9803C718.483 48.3072 718.213 48.5827 717.89 48.7867C717.05 48.6221 716.227 48.6221 715.404 48.6221C713.79 46.6789 715.091 43.7479 716.655 41.7391C718.219 39.7303 720.13 37.4578 719.537 35.004C718.615 31.2822 713.412 31.151 709.657 31.8751C708.273 29.6193 708.306 26.8363 707.631 24.2668C706.956 21.6973 704.766 18.9477 702.295 19.3271C699.825 19.7064 698.327 22.4226 695.906 22.9988C693.09 23.6573 690.653 21.188 688.447 19.3104C686.24 17.4327 682.387 16.2804 680.872 18.7342C679.967 20.1668 680.509 22.2258 679.555 23.674C677.924 26.1277 674.055 24.6128 671.634 22.8342C669.214 21.0556 665.328 19.4416 663.68 21.9121C663.248 22.7256 662.932 23.5964 662.741 24.497C661.606 27.7906 658.032 29.4368 655.266 31.5447C652.499 33.6525 650.309 37.8515 652.647 40.421C653.799 41.7057 655.842 42.1829 656.418 43.8303C657.126 45.7735 655.068 47.6666 653.421 49.0671C651.263 51.4624 650.628 54.8645 651.775 57.8766C650.954 58.6233 649.983 59.1852 648.927 59.5228C646.11 60.1812 643.673 57.6953 641.467 55.8343C639.261 53.9734 635.407 52.8044 633.892 55.2582C632.987 56.6908 633.53 58.7498 632.575 60.1979C630.945 62.6684 627.075 61.1535 624.655 59.3748C622.234 57.5962 618.348 55.9823 616.7 58.4527C616.271 59.2615 615.956 60.1264 615.762 61.021C614.626 64.3146 611.052 65.9608 608.286 68.0686C605.519 70.1765 603.329 74.3755 605.667 76.9605C606.771 78.2452 608.681 78.7725 609.339 80.254C607.396 79.4799 605.157 79.6779 604.25 81.1272C603.344 82.5766 603.888 84.6188 602.933 86.067C601.303 88.5375 597.433 87.0225 595.013 85.2439C592.592 83.4653 588.706 81.8513 587.058 84.3218C586.626 85.1354 586.31 86.0062 586.119 86.9068C584.984 90.2004 581.41 91.8144 578.644 93.9389C575.877 96.0634 573.687 100.262 576.025 102.831C577.178 104.099 579.22 104.593 579.796 106.24C580.52 108.183 578.462 110.076 576.815 111.477C574.081 113.783 573.587 120.716 577.193 122.626C578.708 123.416 580.964 123.828 581.293 125.326C581.622 126.825 580.107 127.978 579.103 129.13C578.87 129.429 578.662 129.746 578.479 130.078C576.575 133.536 577.835 137.881 581.293 139.785C582.166 140.18 583.22 140.526 583.549 141.432C583.673 142.108 583.599 142.806 583.335 143.44C582.989 144.699 582.872 146.01 582.989 147.31C582.989 147.757 583.16 148.187 583.466 148.513C583.797 148.749 584.198 148.866 584.602 148.842C589.806 149.072 592.309 147.228 595.487 151.757C595.765 152.213 596.135 152.605 596.574 152.91C597.019 153.131 597.509 153.25 598.007 153.255C601.075 153.51 603.211 151.913 605.837 151.183C605.619 152.278 605.789 153.36 606.579 154.234C607.538 155.297 609.227 155.732 609.716 157.074C610.309 158.817 608.583 160.28 607.224 161.43C604.959 163.365 604.54 169.15 607.538 170.718C608.81 171.38 610.657 171.589 611.023 172.984C611.39 174.378 610.048 175.196 609.281 176.155C607.264 178.756 607.737 182.5 610.338 184.518C610.581 184.706 610.84 184.877 611.109 185.026C611.824 185.374 612.713 185.653 612.974 186.42C613.103 187.005 613.042 187.616 612.8 188.163C612.509 189.206 612.414 190.292 612.521 191.37C612.513 191.743 612.651 192.106 612.904 192.38C613.183 192.578 613.52 192.677 613.863 192.659C618.184 192.851 620.276 191.317 622.924 195.082C623.155 195.461 623.464 195.788 623.83 196.04C624.204 196.226 624.615 196.327 625.033 196.336C628.013 196.58 629.948 194.732 632.683 194.384C636.446 193.896 637.248 195.848 640.576 197.416C645.804 199.874 648.366 198.358 649.289 194.785C649.383 194.415 649.45 194.04 649.518 193.665C649.914 195.125 650.762 196.475 652.051 197.474C652.345 197.703 652.658 197.908 652.985 198.089C653.85 198.511 654.926 198.848 655.242 199.776C655.398 200.483 655.324 201.223 655.031 201.885C654.679 203.146 654.564 204.462 654.693 205.765C654.683 206.218 654.849 206.657 655.157 206.988C655.495 207.228 655.904 207.347 656.316 207.326C661.546 207.557 664.077 205.702 667.283 210.257C667.563 210.716 667.936 211.111 668.379 211.416C668.831 211.642 669.329 211.763 669.834 211.775C673.44 212.071 675.782 209.834 679.092 209.413C683.648 208.823 684.618 211.185 688.646 213.083C694.973 216.057 698.074 214.222 699.191 209.898C699.505 208.675 699.695 207.425 699.76 206.165C700.224 198.383 707.648 199.607 713.953 198.552C714.255 198.502 714.489 198.406 714.666 198.273C714.674 198.296 714.688 198.313 714.695 198.336C714.852 199.043 714.778 199.783 714.484 200.445C714.132 201.706 714.018 203.022 714.147 204.326C714.137 204.778 714.304 205.217 714.611 205.548C714.948 205.788 715.357 205.907 715.77 205.886C721.001 206.117 723.531 204.262 726.736 208.818C727.017 209.277 727.39 209.672 727.833 209.978C728.285 210.203 728.782 210.325 729.288 210.337C732.894 210.632 735.236 208.396 738.546 207.975C743.102 207.384 744.072 209.746 748.1 211.644C754.427 214.618 757.527 212.783 758.645 208.459C758.959 207.236 759.15 205.986 759.214 204.726C759.678 196.944 767.102 198.168 773.408 197.113C777.834 196.376 767.805 186.299 772.847 181.319C773.515 181.788 774.179 182.462 774.877 183.456C775.155 183.912 775.525 184.305 775.964 184.608C776.409 184.83 776.899 184.948 777.396 184.954C780.969 185.251 783.275 183.028 786.568 182.599C791.13 182.023 792.069 184.361 796.07 186.239C802.344 189.203 805.39 187.376 806.576 183.093C806.887 181.88 807.075 180.64 807.135 179.388C807.596 171.665 814.957 172.9 821.215 171.847C826.106 171.039 813.129 158.672 823.01 154.688C824.925 154.162 826.603 153.001 827.768 151.395C828.68 149.003 827.852 146.297 825.76 144.824L825.767 144.822ZM654.028 145.464C654.156 145.936 654.136 146.396 654.015 146.844C653.758 146.386 653.559 145.905 653.406 145.406C653.613 145.424 653.82 145.456 654.03 145.465L654.028 145.464Z" fill="#407BFF"/>
<path opacity="0.5" d="M825.767 144.822C823.513 143.462 820.903 142.807 818.274 142.944C816.66 140.984 817.962 138.037 819.526 136.044C821.09 134.052 823 131.78 822.408 129.309C821.486 125.604 816.282 125.456 812.527 126.18C811.143 123.941 811.177 121.158 810.501 118.572C809.826 115.987 807.619 113.27 805.166 113.632C802.712 113.995 801.197 116.711 798.776 117.289C795.96 117.947 793.523 115.461 791.316 113.6C791.045 113.368 790.759 113.153 790.46 112.958C790.92 105.236 798.265 106.47 804.523 105.417C809.413 104.611 796.454 92.2426 806.333 88.2572C808.248 87.7311 809.926 86.5704 811.093 84.9636C812.117 82.4633 811.21 79.5884 808.936 78.1295C806.688 76.772 804.084 76.1183 801.46 76.2519C799.846 74.292 801.148 71.3443 802.712 69.3522C804.276 67.3601 806.17 65.0876 805.594 62.6171C804.655 58.912 799.468 58.7641 795.713 59.4882C794.329 57.2491 794.363 54.4661 793.688 51.8799C793.012 49.2949 790.822 46.5775 788.352 46.9401C785.881 47.3028 784.383 50.019 781.963 50.5963C779.146 51.2548 776.709 48.7688 774.503 46.9079C772.297 45.047 768.444 43.878 766.929 46.3318C766.023 47.7811 766.566 49.8233 765.612 51.2715C763.981 53.742 760.079 52.227 757.674 50.4484C755.269 48.6698 751.384 47.0558 749.737 49.5263C749.307 50.3351 748.992 51.1999 748.798 52.0958C748.564 52.7328 748.236 53.3328 747.827 53.8744C747.35 52.1614 747.201 50.3005 746.757 48.572C746.082 46.0025 743.891 43.2696 741.421 43.6322C738.95 43.9949 737.452 46.7278 735.032 47.2885C732.215 47.9636 729.778 45.4609 727.573 43.6C725.366 41.7391 721.513 40.5701 719.998 43.0406C719.092 44.4899 719.635 46.5322 718.681 47.9803C718.483 48.3072 718.213 48.5827 717.89 48.7867C717.05 48.6221 716.227 48.6221 715.404 48.6221C713.79 46.6789 715.091 43.7479 716.655 41.7391C718.219 39.7303 720.13 37.4578 719.537 35.004C718.615 31.2822 713.412 31.151 709.657 31.8751C708.273 29.6193 708.306 26.8363 707.631 24.2668C706.956 21.6973 704.766 18.9477 702.295 19.3271C699.825 19.7064 698.327 22.4226 695.906 22.9988C693.09 23.6573 690.653 21.188 688.447 19.3104C686.24 17.4327 682.387 16.2804 680.872 18.7342C679.967 20.1668 680.509 22.2258 679.555 23.674C677.924 26.1277 674.055 24.6128 671.634 22.8342C669.214 21.0556 665.328 19.4416 663.68 21.9121C663.248 22.7256 662.932 23.5964 662.741 24.497C661.606 27.7906 658.032 29.4368 655.266 31.5447C652.499 33.6525 650.309 37.8515 652.647 40.421C653.799 41.7057 655.842 42.1829 656.418 43.8303C657.126 45.7735 655.068 47.6666 653.421 49.0671C651.263 51.4624 650.628 54.8645 651.775 57.8766C650.954 58.6233 649.983 59.1852 648.927 59.5228C646.11 60.1812 643.673 57.6953 641.467 55.8343C639.261 53.9734 635.407 52.8044 633.892 55.2582C632.987 56.6908 633.53 58.7498 632.575 60.1979C630.945 62.6684 627.075 61.1535 624.655 59.3748C622.234 57.5962 618.348 55.9823 616.7 58.4527C616.271 59.2615 615.956 60.1264 615.762 61.021C614.626 64.3146 611.052 65.9608 608.286 68.0686C605.519 70.1765 603.329 74.3755 605.667 76.9605C606.771 78.2452 608.681 78.7725 609.339 80.254C607.396 79.4799 605.157 79.6779 604.25 81.1272C603.344 82.5766 603.888 84.6188 602.933 86.067C601.303 88.5375 597.433 87.0225 595.013 85.2439C592.592 83.4653 588.706 81.8513 587.058 84.3218C586.626 85.1354 586.31 86.0062 586.119 86.9068C584.984 90.2004 581.41 91.8144 578.644 93.9389C575.877 96.0634 573.687 100.262 576.025 102.831C577.178 104.099 579.22 104.593 579.796 106.24C580.52 108.183 578.462 110.076 576.815 111.477C574.081 113.783 573.587 120.716 577.193 122.626C578.708 123.416 580.964 123.828 581.293 125.326C581.622 126.825 580.107 127.978 579.103 129.13C578.87 129.429 578.662 129.746 578.479 130.078C576.575 133.536 577.835 137.881 581.293 139.785C582.166 140.18 583.22 140.526 583.549 141.432C583.673 142.108 583.599 142.806 583.335 143.44C582.989 144.699 582.872 146.01 582.989 147.31C582.989 147.757 583.16 148.187 583.466 148.513C583.797 148.749 584.198 148.866 584.602 148.842C589.806 149.072 592.309 147.228 595.487 151.757C595.765 152.213 596.135 152.605 596.574 152.91C597.019 153.131 597.509 153.25 598.007 153.255C601.075 153.51 603.211 151.913 605.837 151.183C605.619 152.278 605.789 153.36 606.579 154.234C607.538 155.297 609.227 155.732 609.716 157.074C610.309 158.817 608.583 160.28 607.224 161.43C604.959 163.365 604.54 169.15 607.538 170.718C608.81 171.38 610.657 171.589 611.023 172.984C611.39 174.378 610.048 175.196 609.281 176.155C607.264 178.756 607.737 182.5 610.338 184.518C610.581 184.706 610.84 184.877 611.109 185.026C611.824 185.374 612.713 185.653 612.974 186.42C613.103 187.005 613.042 187.616 612.8 188.163C612.509 189.206 612.414 190.292 612.521 191.37C612.513 191.743 612.651 192.106 612.904 192.38C613.183 192.578 613.52 192.677 613.863 192.659C618.184 192.851 620.276 191.317 622.924 195.082C623.155 195.461 623.464 195.788 623.83 196.04C624.204 196.226 624.615 196.327 625.033 196.336C628.013 196.58 629.948 194.732 632.683 194.384C636.446 193.896 637.248 195.848 640.576 197.416C645.804 199.874 648.366 198.358 649.289 194.785C649.383 194.415 649.45 194.04 649.518 193.665C649.914 195.125 650.762 196.475 652.051 197.474C652.345 197.703 652.658 197.908 652.985 198.089C653.85 198.511 654.926 198.848 655.242 199.776C655.398 200.483 655.324 201.223 655.031 201.885C654.679 203.146 654.564 204.462 654.693 205.765C654.683 206.218 654.849 206.657 655.157 206.988C655.495 207.228 655.904 207.347 656.316 207.326C661.546 207.557 664.077 205.702 667.283 210.257C667.563 210.716 667.936 211.111 668.379 211.416C668.831 211.642 669.329 211.763 669.834 211.775C673.44 212.071 675.782 209.834 679.092 209.413C683.648 208.823 684.618 211.185 688.646 213.083C694.973 216.057 698.074 214.222 699.191 209.898C699.505 208.675 699.695 207.425 699.76 206.165C700.224 198.383 707.648 199.607 713.953 198.552C714.255 198.502 714.489 198.406 714.666 198.273C714.674 198.296 714.688 198.313 714.695 198.336C714.852 199.043 714.778 199.783 714.484 200.445C714.132 201.706 714.018 203.022 714.147 204.326C714.137 204.778 714.304 205.217 714.611 205.548C714.948 205.788 715.357 205.907 715.77 205.886C721.001 206.117 723.531 204.262 726.736 208.818C727.017 209.277 727.39 209.672 727.833 209.978C728.285 210.203 728.782 210.325 729.288 210.337C732.894 210.632 735.236 208.396 738.546 207.975C743.102 207.384 744.072 209.746 748.1 211.644C754.427 214.618 757.527 212.783 758.645 208.459C758.959 207.236 759.15 205.986 759.214 204.726C759.678 196.944 767.102 198.168 773.408 197.113C777.834 196.376 767.805 186.299 772.847 181.319C773.515 181.788 774.179 182.462 774.877 183.456C775.155 183.912 775.525 184.305 775.964 184.608C776.409 184.83 776.899 184.948 777.396 184.954C780.969 185.251 783.275 183.028 786.568 182.599C791.13 182.023 792.069 184.361 796.07 186.239C802.344 189.203 805.39 187.376 806.576 183.093C806.887 181.88 807.075 180.64 807.135 179.388C807.596 171.665 814.957 172.9 821.215 171.847C826.106 171.039 813.129 158.672 823.01 154.688C824.925 154.162 826.603 153.001 827.768 151.395C828.68 149.003 827.852 146.297 825.76 144.824L825.767 144.822ZM654.028 145.464C654.156 145.936 654.136 146.396 654.015 146.844C653.758 146.386 653.559 145.905 653.406 145.406C653.613 145.424 653.82 145.456 654.03 145.465L654.028 145.464Z" fill="white"/>
<path d="M743.14 140.233L723.562 155.315L730.277 134.018L743.351 117.203L741.117 115.34L728.783 128.784L726.591 107.487H723.02C723.02 107.487 725.954 132.789 721.733 142.054C721.733 142.054 706.405 181.052 697.073 189.494C696.544 189.983 696.084 190.541 695.702 191.152C692.903 183.973 689.265 177.151 684.862 170.829C688.548 161.4 696.456 140.68 699.142 129.593C701.248 120.981 702.827 112.249 703.87 103.446L700.812 103.109C700.812 103.109 692.139 144.065 677.804 162.703C673.557 158.801 668.743 155.566 663.524 153.109C662.36 147.354 661.866 137.336 665.676 121.699L662.646 120.925C662.646 120.925 656.864 134.157 657.371 150.04C655.214 148.957 653.135 147.725 651.149 146.354C637.335 136.638 627.619 119.083 627.619 119.083L624.792 121.835C624.792 121.835 636.582 147.726 653.013 156.373C669.444 165.021 680.093 186.098 680.942 191.621C681.175 193.197 683.074 205.71 680.443 227.634C674.964 225.297 668.694 224.427 661.367 220.496L659.477 230.001L678.031 243.275C678.907 296.722 670.363 419.337 670.514 431.37H703.156C702.352 414.773 699.981 285.355 703.034 220.125C703.294 218.522 703.568 216.685 703.828 214.547C706.377 194.539 721.56 167.202 728.783 159.428C736.523 151.098 745.125 144.496 745.125 144.496L743.14 140.236V140.233Z" fill="#263238"/>
<path d="M481.759 44.9098C481.759 48.5768 476.456 51.4886 475.551 54.8657C474.646 58.2428 477.721 63.5333 475.957 66.5847C474.192 69.6361 468.113 69.5788 465.595 72.0851C463.077 74.5914 463.194 80.6596 460.095 82.4466C456.997 84.2335 451.869 81.1117 448.376 82.041C444.883 82.9691 442.076 88.2488 438.421 88.2488C434.766 88.2488 431.842 82.9464 428.466 82.041C425.089 81.1356 419.811 84.2228 416.747 82.4466C413.684 80.6716 413.765 74.6033 411.247 72.0851C408.729 69.5669 402.684 69.6946 400.885 66.5847C399.087 63.4748 402.219 58.3239 401.291 54.843C400.363 51.3622 395.083 48.5541 395.083 44.8872C395.083 41.2202 400.386 38.3203 401.291 34.9432C402.196 31.5661 399.121 26.2757 400.885 23.2242C402.649 20.1728 408.729 20.2301 411.247 17.7131C413.765 15.1961 413.648 9.15049 416.747 7.35161C419.845 5.55273 424.974 8.69719 428.466 7.75838C431.959 6.81839 434.767 1.5625 438.422 1.5625C442.077 1.5625 445.001 6.86491 448.377 7.75838C451.754 8.65186 457.033 5.58851 460.096 7.35161C463.159 9.1147 463.078 15.1949 465.596 17.7131C468.115 20.2313 474.159 20.1156 475.958 23.2242C477.757 26.3341 474.624 31.4504 475.552 34.9432C476.48 38.436 481.76 41.256 481.76 44.9098H481.759Z" fill="#407BFF"/>
<path opacity="0.7" d="M481.759 44.9098C481.759 48.5768 476.456 51.4886 475.551 54.8657C474.646 58.2428 477.721 63.5333 475.957 66.5847C474.192 69.6361 468.113 69.5788 465.595 72.0851C463.077 74.5914 463.194 80.6596 460.095 82.4466C456.997 84.2335 451.869 81.1117 448.376 82.041C444.883 82.9691 442.076 88.2488 438.421 88.2488C434.766 88.2488 431.842 82.9464 428.466 82.041C425.089 81.1356 419.811 84.2228 416.747 82.4466C413.684 80.6716 413.765 74.6033 411.247 72.0851C408.729 69.5669 402.684 69.6946 400.885 66.5847C399.087 63.4748 402.219 58.3239 401.291 54.843C400.363 51.3622 395.083 48.5541 395.083 44.8872C395.083 41.2202 400.386 38.3203 401.291 34.9432C402.196 31.5661 399.121 26.2757 400.885 23.2242C402.649 20.1728 408.729 20.2301 411.247 17.7131C413.765 15.1961 413.648 9.15049 416.747 7.35161C419.845 5.55273 424.974 8.69719 428.466 7.75838C431.959 6.81839 434.767 1.5625 438.422 1.5625C442.077 1.5625 445.001 6.86491 448.377 7.75838C451.754 8.65186 457.033 5.58851 460.096 7.35161C463.159 9.1147 463.078 15.1949 465.596 17.7131C468.115 20.2313 474.159 20.1156 475.958 23.2242C477.757 26.3341 474.624 31.4504 475.552 34.9432C476.48 38.436 481.76 41.256 481.76 44.9098H481.759Z" fill="white"/>
<path d="M426.568 16.2914C442.37 9.74599 460.486 17.2493 467.031 33.0515C473.577 48.8526 466.074 66.9691 450.271 73.5145C434.47 80.0599 416.354 72.5554 409.808 56.7543C403.263 40.9533 410.767 22.8368 426.568 16.2914Z" fill="#407BFF"/>
<path d="M560.642 444.86C560.642 444.86 699.267 440.572 699.825 440.271C708.594 435.563 703.728 412.269 703.728 412.269L685.138 365.267L655.323 336.504L593.237 352.639L565.935 361.623L548.53 414.723L560.642 444.858V444.86Z" fill="#407BFF"/>
<path opacity="0.5" d="M560.642 444.86C560.642 444.86 699.267 440.572 699.825 440.271C708.594 435.563 703.728 412.269 703.728 412.269L685.138 365.267L655.323 336.504L593.237 352.639L565.935 361.623L548.53 414.723L560.642 444.858V444.86Z" fill="#011D2A"/>
<path d="M450.736 232.744C450.736 232.744 471.198 222.317 476.706 221.923C482.215 221.53 680.335 218.775 684.86 219.956C689.385 221.137 701.581 227.908 703.352 230.425L692.133 237.86L660.266 230.846C660.266 230.846 656.923 224.284 650.824 224.088C644.725 223.892 605.77 224.088 605.77 224.088V231.445H583.538V226.056L493.234 227.04C493.234 227.04 486.938 231.958 486.152 235.303C485.364 238.648 450.738 232.745 450.738 232.745L450.736 232.744Z" fill="#263238"/>
<path d="M143.777 435.886C143.777 435.886 281.626 440.8 281.276 440.273C280.925 439.745 290.045 405.371 290.045 405.371L271.455 358.369L241.639 329.605L179.554 345.741L152.251 354.725L134.847 407.826L143.777 435.886Z" fill="#407BFF"/>
<path opacity="0.5" d="M143.777 435.886C143.777 435.886 281.626 440.8 281.276 440.273C280.925 439.745 290.045 405.371 290.045 405.371L271.455 358.369L241.639 329.605L179.554 345.741L152.251 354.725L134.847 407.826L143.777 435.886Z" fill="#011D2A"/>
<path d="M766.171 366.217L763.152 298.779L713.328 230.336C713.328 230.336 478.305 232.35 420.932 234.865C363.56 237.381 288.07 303.812 288.07 303.812C224.585 308.394 166.304 316.168 122.512 332.828C108.299 339.096 106.981 342.613 103.715 354.725V429.207C108.417 435.344 131.729 440.272 131.729 440.272L146.413 439.179C147.091 417.185 154.421 357.616 214.315 362.953C265.756 367.538 275.565 418.576 276.839 448.625L566.921 449.256C567.6 447.976 568.024 447.158 568.024 447.158C568.024 447.158 562.58 356.42 635.896 362.953C687.701 367.57 697.282 419.296 698.445 449.256H703.263L766.791 430.03C774.491 427.699 779.758 420.602 779.758 412.557V376.282L766.17 366.216L766.171 366.217Z" fill="#407BFF"/>
<path d="M301.951 310.41C301.951 310.41 665.165 306.616 665.51 305.582C665.855 304.546 701.383 262.12 701.383 262.12L679.996 239.699L428.146 242.337C418.241 242.477 405.507 244.86 395.975 247.55C384.831 250.695 370.225 255.775 358.52 263.154C342.654 273.157 302.986 294.888 301.951 310.41Z" fill="#263238"/>
<path d="M458.078 302.85L462.568 248.185C445.571 247.291 428.758 247.662 418.343 249.386C418.343 249.386 395.235 251.156 372.156 264.533C359.24 272.02 317.938 292.986 321.442 305.408L458.077 302.851L458.078 302.85Z" fill="#407BFF"/>
<path d="M479.265 302.669V248.109L584.185 245.938L596.477 299.447L479.265 302.669Z" fill="#407BFF"/>
<path d="M606.148 298.947L595.547 245.941L676.438 245.297L692.133 263.744L664.014 298.144L606.148 298.947Z" fill="#407BFF"/>
<path opacity="0.5" d="M458.078 302.85L462.568 248.185C445.571 247.291 428.758 247.662 418.343 249.386C418.343 249.386 395.235 251.156 372.156 264.533C359.24 272.02 317.938 292.986 321.442 305.408L458.077 302.851L458.078 302.85Z" fill="white"/>
<path opacity="0.5" d="M479.265 302.669V248.109L584.185 245.938L596.477 299.447L479.265 302.669Z" fill="white"/>
<path opacity="0.5" d="M606.148 298.947L595.547 245.941L676.438 245.297L692.133 263.744L664.014 298.144L606.148 298.947Z" fill="white"/>
<path d="M685.611 379.837L685.332 378.676C695.385 376.246 711.68 372.112 713.115 371.243C714.687 368.628 733.715 342.484 739.68 334.297L740.646 335.001C730.283 349.218 714.671 370.764 714.13 371.852C714.025 372.175 713.736 373.037 685.611 379.837Z" fill="#407BFF"/>
<path d="M732.218 305.408L740.162 334.65H764.757L763.152 298.781L748.488 278.637L732.218 305.408Z" fill="#D7504D"/>
<path d="M613.92 364.337H612.727V328.156C612.727 320.029 603.501 303.126 603.408 302.955L604.454 302.383C604.841 303.087 613.921 319.724 613.921 328.156L613.92 364.337Z" fill="#263238"/>
<path d="M465.798 427.176C465.752 427.091 461.115 418.563 458.198 404.814C455.287 391.083 456.459 341.868 456.51 339.779L456.533 339.635L465.748 306.48L466.897 306.8L457.702 339.883C457.65 342.1 456.534 391.212 459.367 404.567C462.245 418.13 466.799 426.518 466.847 426.601L465.801 427.176H465.798Z" fill="#263238"/>
<path d="M378.557 427.67C340.993 427.67 312.305 427.624 310.88 427.481C310.404 427.434 309.905 427.414 309.389 427.393C305.186 427.225 299.954 427.016 296.237 413.645C292.286 399.434 290.629 372.74 291.076 354.837C291.493 338.177 302.231 309.179 302.34 308.887L303.459 309.304C303.351 309.593 292.681 338.406 292.271 354.867C291.824 372.683 293.467 399.226 297.388 413.326C300.871 425.859 305.621 426.049 309.437 426.202C309.978 426.223 310.5 426.245 310.999 426.295C315.11 426.705 560.173 426.295 562.647 426.291L562.649 427.484C555.998 427.496 450.856 427.67 378.557 427.67Z" fill="#263238"/>
<path d="M713.328 230.336H740.162V237.86L729.663 252.774L713.328 230.336Z" fill="#407BFF"/>
<path opacity="0.3" d="M697.129 395.581L766.171 366.215L779.759 376.279L695.798 402.338L697.129 395.581Z" fill="#011D2A"/>
<path opacity="0.3" d="M276.838 448.611C276.838 448.611 292.916 427.955 302.044 427.215C311.172 426.476 562.647 427.215 562.647 427.215L526.34 432.468C526.34 432.468 315.28 432.237 308.434 438.158C301.588 444.078 296.536 448.666 296.536 448.666L276.837 448.61L276.838 448.611Z" fill="#011D2A"/>
<path d="M209.638 483.649C241.057 483.649 266.527 458.237 266.527 426.889C266.527 395.541 241.057 370.129 209.638 370.129C178.219 370.129 152.749 395.541 152.749 426.889C152.749 458.237 178.219 483.649 209.638 483.649Z" fill="#263238"/>
<g opacity="0.3">
<path d="M209.615 395.582H209.646C211.18 395.582 212.426 396.827 212.426 398.361V416.2C212.426 417.734 211.18 418.979 209.646 418.979H209.615C208.081 418.979 206.837 417.734 206.837 416.201V398.363C206.837 396.829 208.082 395.584 209.615 395.584V395.582Z" fill="white"/>
</g>
<g opacity="0.3">
<path d="M209.646 434.793H209.616C208.081 434.793 206.837 436.037 206.837 437.572V455.41C206.837 456.945 208.081 458.189 209.616 458.189H209.646C211.181 458.189 212.426 456.945 212.426 455.41V437.572C212.426 436.037 211.181 434.793 209.646 434.793Z" fill="white"/>
</g>
<g opacity="0.3">
<path d="M220.274 423.967C218.944 424.718 217.256 424.251 216.504 422.924C215.731 421.596 216.182 419.895 217.511 419.123L232.999 410.159L233.006 410.155C234.34 409.39 236.042 409.85 236.808 411.181L236.812 411.188C237.577 412.519 237.117 414.218 235.783 414.981L220.313 423.946L220.274 423.969V423.967Z" fill="white"/>
</g>
<g opacity="0.3">
<path d="M182.453 442.465L182.449 442.458C181.684 441.126 182.144 439.428 183.478 438.664L198.95 429.7C200.284 428.925 201.996 429.374 202.776 430.704C203.549 432.041 203.091 433.749 201.752 434.522L186.281 443.487C184.941 444.259 183.228 443.801 182.454 442.465H182.453Z" fill="white"/>
</g>
<g opacity="0.3">
<path d="M236.805 442.545C236.035 443.873 234.331 444.328 233 443.56L217.511 434.595C216.179 433.816 215.729 432.109 216.505 430.777C217.28 429.449 218.984 429 220.314 429.772L235.785 438.737L235.792 438.742C237.123 439.51 237.579 441.21 236.81 442.539L236.806 442.546L236.805 442.545Z" fill="white"/>
</g>
<g opacity="0.3">
<path d="M202.759 422.953C201.982 424.277 200.276 424.722 198.948 423.947L183.477 414.982L183.47 414.979C182.139 414.211 181.683 412.511 182.453 411.182C183.227 409.846 184.94 409.389 186.28 410.16L201.751 419.124L201.759 419.129C203.09 419.897 203.546 421.597 202.776 422.926L202.759 422.955V422.953Z" fill="white"/>
</g>
<path d="M209.64 422.207C212.23 422.207 214.329 424.302 214.329 426.887C214.329 429.472 212.23 431.566 209.64 431.566C207.05 431.566 204.951 429.472 204.951 426.887C204.951 424.302 207.05 422.207 209.64 422.207Z" fill="#263238"/>
<path d="M631.491 483.649C662.91 483.649 688.38 458.237 688.38 426.889C688.38 395.541 662.91 370.129 631.491 370.129C600.072 370.129 574.602 395.541 574.602 426.889C574.602 458.237 600.072 483.649 631.491 483.649Z" fill="#263238"/>
<g opacity="0.3">
<path d="M634.277 398.36V416.199C634.277 417.734 633.03 418.977 631.492 418.977H631.474C629.936 418.977 628.688 417.733 628.688 416.199V398.36C628.688 396.825 629.935 395.582 631.474 395.582H631.492C633.029 395.582 634.277 396.826 634.277 398.36Z" fill="white"/>
</g>
<g opacity="0.3">
<path d="M634.277 437.572V455.411C634.277 456.946 633.03 458.19 631.492 458.19H631.474C629.936 458.19 628.688 456.946 628.688 455.411V437.572C628.688 436.037 629.935 434.793 631.474 434.793H631.492C633.029 434.793 634.277 436.037 634.277 437.572Z" fill="white"/>
</g>
<g opacity="0.3">
<path d="M642.127 423.967C640.797 424.718 639.109 424.251 638.356 422.924C637.583 421.596 638.034 419.895 639.363 419.123L654.851 410.159L654.858 410.155C656.192 409.39 657.894 409.85 658.66 411.181L658.664 411.188C659.43 412.519 658.969 414.218 657.635 414.981L642.165 423.946L642.127 423.969V423.967Z" fill="white"/>
</g>
<g opacity="0.3">
<path d="M604.304 442.465L604.301 442.458C603.535 441.126 603.995 439.428 605.329 438.664L620.8 429.7C622.134 428.925 623.846 429.374 624.628 430.704C625.401 432.041 624.942 433.749 623.603 434.522L608.132 443.487C606.793 444.259 605.08 443.801 604.304 442.465Z" fill="white"/>
</g>
<g opacity="0.3">
<path d="M658.656 442.545C657.887 443.873 656.182 444.328 654.851 443.56L639.362 434.595C638.03 433.816 637.58 432.109 638.357 430.777C639.131 429.449 640.836 429 642.166 429.772L657.636 438.737L657.644 438.742C658.975 439.51 659.431 441.21 658.66 442.539L658.656 442.546V442.545Z" fill="white"/>
</g>
<g opacity="0.3">
<path d="M624.612 422.953C623.834 424.277 622.128 424.722 620.801 423.947L605.33 414.982L605.323 414.979C603.991 414.211 603.536 412.511 604.305 411.182C605.081 409.846 606.792 409.389 608.133 410.16L623.604 419.124L623.611 419.129C624.942 419.897 625.398 421.597 624.628 422.926L624.612 422.955V422.953Z" fill="white"/>
</g>
<path d="M631.492 422.207C634.082 422.207 636.181 424.302 636.181 426.887C636.181 429.472 634.082 431.566 631.492 431.566C628.902 431.566 626.802 429.472 626.802 426.887C626.802 424.302 628.901 422.207 631.492 422.207Z" fill="#263238"/>
<path opacity="0.5" d="M356.852 281.187C356.852 281.187 388.729 254.423 423.228 251.764C455.915 249.245 459.682 251.873 459.682 251.873L456.837 276.56L356.85 281.188L356.852 281.187Z" fill="white"/>
<path opacity="0.5" d="M481.303 250.671L482.143 274.303L587.621 270.748L582.32 249.262L481.303 250.671Z" fill="white"/>
<path opacity="0.5" d="M598.698 249.261L602.871 268.067L684.056 258.664L674.056 248.184L598.698 249.261Z" fill="white"/>
<path d="M340.687 293.309C340.535 290.83 338.579 288.86 336.104 288.66C328.535 288.047 313.81 288.808 314.928 304.244C316.069 319.982 331.078 317.345 338.215 315.173C340.41 314.505 341.851 312.415 341.711 310.125L340.685 293.308L340.687 293.309Z" fill="#407BFF"/>
<path d="M314.928 304.242L332.104 305.486C332.104 305.486 332.213 309.208 330.133 309.646C328.054 310.084 316.095 309.646 316.095 309.646C316.095 309.646 314.97 306.599 314.927 304.242H314.928Z" fill="#D7504D"/>
<path d="M328.301 317.427C325.158 317.427 322.067 316.801 319.56 315.053C316.453 312.886 314.693 309.263 314.333 304.286C313.981 299.432 315.141 295.576 317.778 292.825C321.912 288.511 328.84 287.79 333.932 287.94C337.944 288.062 341.154 291.181 341.399 295.197L342.271 309.507C342.451 312.469 340.585 315.114 337.734 315.937C334.942 316.741 331.593 317.427 328.301 317.427ZM332.707 289.114C328.019 289.114 322.165 289.971 318.64 293.65C316.245 296.147 315.197 299.696 315.524 304.2C315.858 308.8 317.445 312.125 320.244 314.075C325.24 317.559 333.14 316.019 337.405 314.791C339.716 314.124 341.228 311.981 341.081 309.58L340.209 295.27C340.002 291.873 337.289 289.234 333.897 289.133C333.511 289.121 333.114 289.114 332.707 289.114Z" fill="#263238"/>
<path opacity="0.3" d="M431.273 341.731C440.255 341.731 447.537 338.047 447.537 333.502C447.537 328.958 440.255 325.273 431.273 325.273C422.29 325.273 415.009 328.958 415.009 333.502C415.009 338.047 422.29 341.731 431.273 341.731Z" fill="#011D2A"/>
<path d="M447.891 330.383H414.653V336.628H447.891V330.383Z" fill="#407BFF"/>
<path opacity="0.3" d="M587.622 341.731C596.604 341.731 603.886 338.047 603.886 333.502C603.886 328.958 596.604 325.273 587.622 325.273C578.64 325.273 571.358 328.958 571.358 333.502C571.358 338.047 578.64 341.731 587.622 341.731Z" fill="#011D2A"/>
<path d="M604.241 330.383H571.004V336.628H604.241V330.383Z" fill="#407BFF"/>
<path d="M688.376 337.101C680.877 337.101 674.775 331.318 674.775 324.211C674.775 317.103 680.877 311.32 688.376 311.32C695.876 311.32 701.979 317.103 701.979 324.211C701.979 331.318 695.877 337.101 688.376 337.101ZM688.376 312.514C681.534 312.514 675.968 317.761 675.968 324.212C675.968 330.663 681.534 335.909 688.376 335.909C695.219 335.909 700.786 330.663 700.786 324.212C700.786 317.761 695.219 312.514 688.376 312.514Z" fill="#263238"/>
<path opacity="0.3" d="M157.68 336.786H176.627C176.627 336.786 134.987 369.704 125.097 371.022C115.208 372.341 110.488 368.62 110.488 368.62L109.684 349.787C109.684 349.787 115.119 342.177 123.771 340.066C133.759 337.627 157.68 336.785 157.68 336.785V336.786Z" fill="#011D2A"/>
<path d="M157.637 341.169L159.694 348.693C159.694 348.693 134.988 365.656 125.098 366.974C115.208 368.292 110.44 364.693 110.44 364.693L109.683 349.788C109.683 349.788 116.196 340.273 125.096 339.944C133.997 339.615 157.636 341.169 157.636 341.169H157.637Z" fill="white"/>
<path opacity="0.3" d="M299.804 307.043C299.804 307.043 295.215 311.753 293.689 311.879C292.164 312.005 160.815 333.505 160.815 333.505C160.815 333.505 192.025 324.333 217.29 319.455C257.149 311.761 299.804 307.043 299.804 307.043Z" fill="#011D2A"/>
<path opacity="0.3" d="M123.76 381.669C116.189 382.091 117.209 395.583 117.209 395.583L103.715 411.019V429.206C108.417 435.344 131.729 440.271 131.729 440.271L146.413 439.179C146.77 427.609 148.972 405.644 159.694 388.197C159.694 388.197 131.332 381.25 123.76 381.669Z" fill="#011D2A"/>
<path d="M103.715 375.572C103.715 375.572 112.98 373.139 114.667 381.184C117.056 392.573 120.673 419.059 120.673 419.059C120.673 419.059 108.661 413.168 103.715 417.656V375.572Z" fill="#263238"/>
<path opacity="0.5" d="M748.488 282.641C748.488 282.641 737.95 302.079 738.82 302.669C741.52 304.494 759.79 315.729 759.992 315.037C760.895 311.937 760.588 305.188 760.287 301.071C760.125 298.875 759.319 296.776 757.98 295.029L748.488 282.641Z" fill="white"/>
</svg>
