<svg width="556" height="508" viewBox="0 0 556 508" fill="none" xmlns="http://www.w3.org/2000/svg">
<path d="M68.8736 421.161H351.322C368.474 421.161 381.085 405.086 377.002 388.428L353.391 292.083C350.652 280.908 345.012 270.655 337.041 262.358C329.07 254.062 319.05 248.017 307.994 244.833L190.817 211.084L78.9761 74.1828C73.8806 67.9457 67.462 62.9195 60.1851 59.468C52.9082 56.0166 44.9549 54.2262 36.901 54.2266H0V421.161H68.8736Z" fill="#1BA2E8"/>
<path d="M101.885 479.498C153.456 479.498 195.263 437.691 195.263 386.12C195.263 334.549 153.456 292.742 101.885 292.742C50.3143 292.742 8.50769 334.549 8.50769 386.12C8.50769 437.691 50.3143 479.498 101.885 479.498Z" fill="#68003C"/>
<path d="M30.3951 385.373C30.8078 345.961 63.2077 314.228 102.62 314.641C142.032 315.053 173.764 347.453 173.352 386.865C172.939 426.277 140.539 458.01 101.127 457.597C61.7151 457.185 29.9942 424.782 30.3951 385.373ZM40.5561 385.478C40.2049 419.289 67.4219 447.082 101.232 447.436C135.043 447.79 162.837 420.57 163.191 386.76C163.545 352.949 136.325 325.156 102.514 324.802C68.7038 324.448 40.9307 351.667 40.5678 385.478H40.5561Z" fill="white"/>
<path d="M98.554 318.655L97.1633 451.449L107.324 451.556L108.714 318.762L98.554 318.655Z" fill="white"/>
<path d="M36.5949 379.332L36.4885 389.492L169.283 390.883L169.389 380.722L36.5949 379.332Z" fill="white"/>
<path d="M60.0991 334.109L52.8394 341.219L145.758 436.104L153.017 428.995L60.0991 334.109Z" fill="white"/>
<path d="M146.819 335.011L51.9341 427.93L59.0434 435.189L153.928 342.271L146.819 335.011Z" fill="white"/>
<path d="M101.885 406.87C113.345 406.87 122.635 397.58 122.635 386.12C122.635 374.661 113.345 365.371 101.885 365.371C90.4258 365.371 81.136 374.661 81.136 386.12C81.136 397.58 90.4258 406.87 101.885 406.87Z" fill="white"/>
<path d="M0 67.3203V230.037H173.369L56.3304 77.0219C54.0238 74.0049 51.0528 71.5602 47.6481 69.8776C44.2434 68.1951 40.4968 67.32 36.699 67.3203H0Z" fill="#68003C"/>
<path d="M342.782 269.227H287.974C287.974 269.227 297.081 300.655 310.429 307.026C323.777 313.397 357.79 310.032 357.79 310.032C357.79 310.032 353.368 282.302 342.782 269.227Z" fill="white"/>
<path d="M122.734 181.84L92.8636 180.431C81.8188 179.911 72.443 188.442 71.9221 199.487L71.7078 204.032C71.1869 215.077 79.7182 224.453 90.763 224.974L120.633 226.382C131.678 226.903 141.054 218.372 141.575 207.327L141.789 202.781C142.31 191.737 133.779 182.361 122.734 181.84Z" fill="#1BA2E8"/>
<path d="M177.168 232.037L131.171 200.789L124.206 211.041L170.204 242.289L177.168 232.037Z" fill="#1BA2E8"/>
<path d="M372.217 368.885L343.402 371.431L343.139 324.805H361.415C365.011 339.496 368.612 354.189 372.217 368.885Z" fill="#68003C"/>
<path d="M412.904 124.717L442.33 127.344L447.321 71.4287L417.894 68.8025L412.904 124.717Z" fill="#E67925"/>
<path d="M436.912 16.0043C431.792 15.1885 426.553 15.558 421.599 17.0846C416.644 18.6111 412.106 21.254 408.333 24.8098C404.56 28.3656 401.653 32.7395 399.836 37.5951C398.019 42.4506 397.34 47.6583 397.851 52.8175L399.241 79.1887C399.747 88.8259 406.458 97.2573 414.963 99.3498C416.148 99.6378 417.358 99.8141 418.577 99.8766C419.203 99.938 419.844 99.9848 420.511 99.9878C433.517 100.076 442.818 88.0416 448.021 81.3134C448.899 80.172 449.888 78.817 450.913 77.2601C456.458 73.4039 460.723 67.9776 463.161 61.6784C465.599 55.3793 466.097 48.4952 464.592 41.9106C463.087 35.326 459.648 29.3419 454.716 24.7271C449.784 20.1122 443.585 17.0776 436.915 16.0131L436.912 16.0043Z" fill="#E67925"/>
<path d="M419.921 78.6222C419.892 78.6252 419.864 78.6252 419.836 78.6222L415.803 78.0369C415.503 77.9934 415.216 77.8827 414.965 77.7129C414.713 77.5431 414.503 77.3187 414.351 77.0564C414.198 76.7941 414.107 76.5007 414.084 76.1982C414.061 75.8957 414.106 75.5918 414.217 75.3093L418.396 64.6332C418.457 64.4953 418.569 64.3864 418.709 64.329C418.848 64.2717 419.004 64.2705 419.145 64.3256C419.285 64.3807 419.399 64.4879 419.462 64.6248C419.526 64.7618 419.534 64.9178 419.485 65.0605L415.308 75.7366C415.261 75.8546 415.241 75.982 415.251 76.1089C415.26 76.2358 415.299 76.3588 415.364 76.4682C415.428 76.5778 415.515 76.6715 415.62 76.7425C415.725 76.8134 415.844 76.8598 415.97 76.878L420.006 77.4633C420.161 77.4745 420.305 77.547 420.407 77.6647C420.509 77.7824 420.56 77.9358 420.548 78.091C420.537 78.2463 420.465 78.3907 420.347 78.4925C420.229 78.5943 420.076 78.6451 419.921 78.6339V78.6222Z" fill="#262246"/>
<path d="M409.44 58.9659C408.878 58.8758 408.301 58.9546 407.784 59.1921C407.266 59.4297 406.83 59.8154 406.532 60.3006C406.233 60.7857 406.086 61.3485 406.107 61.9177C406.128 62.4869 406.318 63.0369 406.652 63.4983C406.986 63.9596 407.45 64.3116 407.984 64.5096C408.518 64.7076 409.099 64.7427 409.653 64.6106C410.207 64.4785 410.709 64.1851 411.096 63.7674C411.484 63.3498 411.738 62.8266 411.828 62.2642C411.948 61.5103 411.764 60.7396 411.316 60.1213C410.869 59.503 410.194 59.0875 409.44 58.9659Z" fill="#262246"/>
<path d="M431.041 62.4151C430.479 62.3251 429.903 62.4038 429.385 62.6414C428.867 62.8789 428.432 63.2645 428.134 63.7495C427.835 64.2345 427.687 64.797 427.708 65.3661C427.73 65.9351 427.919 66.4851 428.253 66.9465C428.587 67.4079 429.05 67.76 429.584 67.9582C430.117 68.1565 430.698 68.192 431.252 68.0603C431.806 67.9287 432.309 67.6357 432.696 67.2185C433.084 66.8012 433.339 66.2785 433.429 65.7163C433.549 64.962 433.365 64.191 432.917 63.5722C432.47 62.9534 431.795 62.5373 431.041 62.4151Z" fill="#262246"/>
<path d="M439.273 56.163C436.511 52.5517 431.401 52.9848 430.546 53.058C429.824 53.1194 427.371 53.3506 427.084 54.4481C426.92 55.0773 427.532 55.727 427.558 55.7533C428.89 57.1376 431.272 55.2822 434.392 55.8206C438.009 56.4411 439.862 59.8066 440.438 59.3325C440.822 59.034 440.213 57.3922 439.273 56.163Z" fill="#262246"/>
<path d="M412.604 50.0782C411.817 49.7329 407.125 47.6697 403.338 50.1953C402.057 51.0528 400.947 52.4078 401.211 52.8292C401.606 53.4584 404.445 50.8713 408.071 51.4537C411.196 51.9542 412.85 54.4827 414.559 53.6018C414.591 53.6018 415.378 53.1687 415.437 52.519C415.53 51.3718 413.271 50.3709 412.604 50.0782Z" fill="#262246"/>
<path d="M419.695 100.751C418.309 100.751 416.926 100.619 415.566 100.356C415.486 100.346 415.409 100.32 415.34 100.28C415.271 100.239 415.211 100.185 415.164 100.12C415.117 100.055 415.083 99.9813 415.066 99.9031C415.048 99.8249 415.047 99.7439 415.062 99.6652C415.077 99.5865 415.108 99.5117 415.153 99.4454C415.199 99.3792 415.257 99.323 415.325 99.2802C415.392 99.2374 415.468 99.209 415.548 99.1967C415.627 99.1845 415.708 99.1886 415.785 99.2089C419.097 99.8496 422.515 99.6637 425.738 98.6678C428.961 97.6718 431.888 95.8966 434.261 93.4992C434.313 93.4402 434.378 93.3925 434.45 93.3591C434.522 93.3257 434.6 93.3073 434.679 93.3049C434.758 93.3026 434.837 93.3163 434.911 93.3454C434.984 93.3744 435.052 93.4182 435.108 93.4739C435.164 93.5297 435.209 93.5963 435.239 93.6698C435.268 93.7432 435.283 93.822 435.281 93.9012C435.28 93.9805 435.262 94.0586 435.23 94.1309C435.197 94.2031 435.15 94.268 435.092 94.3215C433.078 96.3614 430.679 97.981 428.035 99.0862C425.39 100.191 422.552 100.76 419.686 100.76L419.695 100.751Z" fill="#68003C"/>
<path d="M469.344 340.454L498.609 417.715C501.594 447.812 504.578 477.908 507.559 508.002H417.33L410.014 446.082C404.301 466.724 398.586 487.364 392.87 508.002H293.124L349.214 333.91L469.344 340.454Z" fill="#68003C"/>
<path d="M428.094 113.871H375.709C364.976 113.871 354.512 117.229 345.784 123.474C337.055 129.72 330.499 138.539 327.034 148.697L269.088 318.637L316.654 348.871C336.607 288.964 356.562 229.058 376.519 169.151L428.094 113.871Z" fill="#E67925"/>
<path d="M349.943 121.641L428.082 113.871L507.65 136.338L472.891 353.126L353.751 345.257L349.943 121.641Z" fill="#F6DC41"/>
<path d="M249.755 141.828C272.665 206.212 295.573 270.604 318.48 335.004C319.817 351.645 308.237 366.775 291.825 369.83C275.413 372.886 259.223 362.924 254.479 346.936C241.362 285.617 228.247 224.297 215.134 162.975L249.755 141.828Z" fill="#E67925"/>
<path d="M428.094 113.873L367.947 109.577C358.546 108.908 349.199 111.477 341.46 116.858C333.722 122.239 328.059 130.106 325.413 139.153L296.419 238.477L348.591 264.061L371.462 168.07L428.094 113.873Z" fill="#F6DC41"/>
<path d="M349.08 193.41C347.292 233.279 343.625 276.618 337.189 322.811C331.693 362.249 324.836 399.071 317.268 433.051C338.082 444.538 365.557 454.749 391.158 445.75C429.873 432.141 439.022 383.613 463.131 384.705C472.35 385.12 485.247 393.034 499.713 428.916L502.68 421.181C506.041 412.41 506.513 402.794 504.027 393.736C498.659 374.175 493.294 354.613 487.931 335.05L496.851 221.534L349.08 193.41Z" fill="#F6DC41"/>
<path d="M428.094 113.871L485.414 126.104C494.987 128.147 503.798 132.826 510.852 139.612C517.907 146.399 522.923 155.022 525.335 164.509L554.794 280.366C555.813 284.373 555.229 288.62 553.166 292.204L485.563 409.632C484.182 409.597 474.503 409.181 468.004 400.978C462.554 394.115 462.999 386.451 463.145 384.707L506.122 280.378L463.526 161.761L428.094 113.871Z" fill="#E67925"/>
<path d="M428.094 113.871L484.345 122.911C494.995 124.623 504.885 129.494 512.734 136.893C520.583 144.292 526.029 153.877 528.367 164.407L549.312 258.809L496.842 275.075L468.358 182.221L428.094 113.871Z" fill="#F6DC41"/>
<path d="M413.974 112.84C413.974 112.84 414.638 122.626 426.084 125.86C437.53 129.094 443.304 116.554 443.304 116.554L430.582 107.496L413.974 112.84Z" fill="#E67925"/>
<path d="M447.336 71.3959L449.352 53.778C449.352 53.778 434.158 52.6572 437.444 34.7554C440.731 16.8537 432.899 39.0692 422.519 37.7873C412.138 36.5055 411.863 31.7235 411.863 31.7235C409.815 38.6712 404.298 43.5761 398.108 44.1116C389.197 44.8813 383.768 36.1719 383.116 35.1037C377.555 26.1952 378.574 10.9274 389.642 3.62854C398.981 -2.51723 412.071 -0.761294 419.917 8.17642C419.917 8.17642 427.289 -3.69956 434.679 6.77752C434.679 6.77752 449.098 2.22965 459.821 7.24284C470.544 12.256 465.44 27.9951 465.44 27.9951C465.44 27.9951 474.743 33.4736 473.81 46.646C472.876 59.8185 466.815 64.6912 466.815 64.6912C466.815 64.6912 467.772 87.8871 445.32 93.9041L447.336 71.3959Z" fill="#68003C"/>
<path d="M454.667 63.8363C451.305 61.3282 446.201 62.4871 443.254 66.4234C440.307 70.3596 440.664 75.5835 444.026 78.0915C447.389 80.5996 452.496 79.4378 455.44 75.5015C458.384 71.5653 458.03 66.3443 454.667 63.8363Z" fill="#E67925"/>
<path d="M446.789 76.0107C446.634 76.0239 446.48 75.9749 446.361 75.8745C446.242 75.774 446.167 75.6304 446.154 75.4752C446.141 75.3199 446.19 75.1658 446.29 75.0467C446.391 74.9276 446.534 74.8533 446.69 74.8401C447.296 74.7509 447.857 74.471 448.293 74.041C448.73 73.611 449.018 73.0533 449.115 72.4487C449.213 71.8441 449.116 71.224 448.838 70.6784C448.559 70.1328 448.114 69.69 447.568 69.4143C447.443 69.3513 447.345 69.2459 447.292 69.1171C447.238 68.9884 447.232 68.8446 447.275 68.7119C447.319 68.5806 447.408 68.4691 447.526 68.3973C447.645 68.3255 447.785 68.298 447.922 68.3197L453.544 69.2182C453.62 69.2303 453.693 69.2573 453.759 69.2977C453.824 69.3382 453.881 69.3912 453.927 69.4537C453.972 69.5163 454.004 69.5871 454.022 69.6622C454.039 69.7373 454.042 69.8152 454.029 69.8913C454.004 70.0441 453.92 70.1806 453.794 70.2711C453.668 70.3616 453.512 70.3987 453.359 70.3742L449.631 69.7889C450.005 70.3526 450.232 71.0016 450.289 71.676C450.347 72.3503 450.234 73.0283 449.96 73.6474C449.687 74.2665 449.262 74.8067 448.724 75.2182C448.187 75.6297 447.555 75.8992 446.886 76.002L446.789 76.0107Z" fill="#262246"/>
<path d="M344.626 259.057H344.555C344.479 259.048 344.405 259.023 344.339 258.985C344.272 258.948 344.213 258.897 344.166 258.836C344.118 258.776 344.083 258.706 344.063 258.632C344.042 258.558 344.037 258.481 344.046 258.404L357.242 149.981C357.251 149.905 357.275 149.831 357.313 149.764C357.351 149.696 357.401 149.637 357.462 149.59C357.523 149.542 357.592 149.507 357.666 149.486C357.741 149.466 357.818 149.46 357.895 149.469C357.971 149.479 358.045 149.503 358.111 149.541C358.178 149.579 358.237 149.629 358.284 149.69C358.332 149.751 358.367 149.82 358.387 149.894C358.408 149.968 358.413 150.046 358.404 150.122L345.208 258.557C345.188 258.696 345.117 258.824 345.01 258.916C344.903 259.008 344.767 259.058 344.626 259.057Z" fill="#68003C"/>
<path d="M493.462 264.646H493.418C493.341 264.641 493.266 264.62 493.198 264.585C493.129 264.551 493.068 264.503 493.017 264.445C492.967 264.387 492.929 264.32 492.905 264.247C492.88 264.174 492.871 264.097 492.876 264.02L499.929 167.493C499.941 167.339 500.014 167.196 500.131 167.095C500.249 166.994 500.401 166.943 500.556 166.955C500.632 166.96 500.707 166.981 500.776 167.015C500.845 167.05 500.906 167.098 500.956 167.156C501.006 167.214 501.045 167.281 501.069 167.354C501.093 167.427 501.103 167.504 501.097 167.581L494.044 264.116C494.03 264.261 493.963 264.396 493.855 264.494C493.748 264.592 493.607 264.646 493.462 264.646Z" fill="#68003C"/>
<path d="M255.351 170.853L262.814 143.247L277.037 134.438C280.037 130.967 280.297 126.039 277.85 122.664C275.919 119.998 272.536 118.632 269.088 119.05L255.351 124.166L240.385 107.379L208.485 135.588L222.942 160.013L255.351 170.853Z" fill="#E67925"/>
<path d="M260.03 158.849C256.847 158.853 253.718 158.031 250.948 156.464C248.178 154.896 245.862 152.636 244.227 149.906C242.141 146.422 241.266 142.346 241.739 138.313C242.212 134.28 244.006 130.517 246.842 127.611C249.678 124.704 253.396 122.818 257.416 122.246C261.436 121.674 265.532 122.448 269.066 124.448C272.6 126.448 275.373 129.561 276.952 133.302C278.532 137.043 278.829 141.201 277.797 145.129C276.766 149.056 274.463 152.532 271.25 155.014C268.036 157.496 264.091 158.844 260.03 158.849ZM246.232 148.706C248.136 151.892 251.087 154.319 254.58 155.573C258.073 156.827 261.893 156.831 265.39 155.585C268.886 154.338 271.842 151.918 273.753 148.737C275.665 145.555 276.415 141.809 275.874 138.137C275.334 134.465 273.536 131.094 270.789 128.598C268.042 126.102 264.514 124.636 260.807 124.45C257.1 124.264 253.443 125.369 250.459 127.577C247.475 129.784 245.349 132.958 244.443 136.558C243.407 140.684 244.05 145.053 246.232 148.706Z" fill="#68003C"/>
<path d="M258.719 175.199L259.12 199.282L259.182 203.019C259.186 203.247 259.143 203.472 259.056 203.683C258.97 203.893 258.841 204.083 258.679 204.242L257.563 205.328L259.223 207.084C259.267 209.162 259.299 210.596 259.343 212.68L258.011 214.207L259.416 217.195C258.925 219.399 257.646 221.347 255.819 222.674C254.881 222.091 254.084 221.308 253.483 220.381C252.882 219.454 252.492 218.407 252.343 217.312L251.643 175.316L258.719 175.199Z" fill="white"/>
<path d="M254.775 217.684L255.878 217.652L254.848 181.89L253.745 181.922L254.775 217.684Z" fill="#68003C"/>
<path d="M240.911 156.589L241.26 177.617C241.268 178.07 241.365 178.517 241.546 178.932C241.727 179.348 241.987 179.724 242.314 180.039C242.64 180.353 243.025 180.601 243.446 180.767C243.868 180.932 244.318 181.014 244.772 181.005L265.799 180.654C266.252 180.647 266.699 180.55 267.115 180.37C267.531 180.189 267.907 179.928 268.222 179.602C268.536 179.276 268.783 178.89 268.949 178.468C269.114 178.046 269.194 177.596 269.185 177.142L268.828 156.124C268.82 155.671 268.723 155.224 268.542 154.808C268.361 154.392 268.1 154.017 267.774 153.702C267.448 153.387 267.063 153.14 266.641 152.974C266.219 152.808 265.769 152.727 265.316 152.735L244.289 153.086C243.376 153.103 242.508 153.482 241.875 154.138C241.242 154.795 240.895 155.677 240.911 156.589ZM247.698 158.345C247.69 157.819 247.89 157.312 248.255 156.934C248.621 156.556 249.121 156.338 249.647 156.329L260.086 156.156C260.352 156.142 260.618 156.182 260.868 156.274C261.119 156.365 261.348 156.506 261.543 156.687C261.737 156.869 261.893 157.088 262.001 157.332C262.11 157.575 262.168 157.838 262.172 158.104C262.177 158.37 262.128 158.635 262.028 158.882C261.928 159.129 261.779 159.353 261.591 159.541C261.403 159.729 261.178 159.878 260.931 159.978C260.684 160.077 260.42 160.126 260.154 160.122L249.712 160.294C249.187 160.303 248.681 160.103 248.303 159.739C247.926 159.375 247.708 158.875 247.698 158.351V158.345Z" fill="#F6DC41"/>
<path d="M294.427 194.251L304.851 184.493C307.621 181.899 307.765 177.551 305.171 174.78L280.485 148.409C277.891 145.639 273.543 145.495 270.772 148.089L260.348 157.847C257.578 160.44 257.434 164.789 260.028 167.559L284.714 193.93C287.308 196.701 291.656 196.845 294.427 194.251Z" fill="#1BA2E8"/>
<path d="M272.078 168.537L280.662 160.501C281.525 159.694 281.569 158.34 280.762 157.477L278.66 155.232C277.852 154.369 276.499 154.325 275.636 155.132L267.052 163.168C266.189 163.976 266.144 165.329 266.952 166.192L269.054 168.437C269.861 169.3 271.215 169.345 272.078 168.537Z" fill="#F6DC41"/>
<path d="M281.319 178.408L289.903 170.372C290.766 169.565 290.811 168.211 290.003 167.348L287.901 165.103C287.094 164.24 285.74 164.196 284.877 165.003L276.293 173.039C275.43 173.847 275.386 175.2 276.193 176.063L278.295 178.308C279.102 179.171 280.456 179.216 281.319 178.408Z" fill="#F6DC41"/>
<path d="M290.555 188.283L299.14 180.247C300.002 179.44 300.047 178.086 299.239 177.223L297.137 174.978C296.33 174.115 294.976 174.071 294.114 174.878L285.529 182.914C284.667 183.722 284.622 185.075 285.429 185.938L287.531 188.183C288.339 189.046 289.693 189.091 290.555 188.283Z" fill="#F6DC41"/>
<path d="M266.885 157.076C266.622 157.075 266.368 156.987 266.162 156.825C265.956 156.663 265.81 156.437 265.748 156.182C265.686 155.928 265.711 155.659 265.82 155.421C265.928 155.182 266.113 154.987 266.346 154.866C274.736 150.506 275.737 143.66 275.775 143.373C275.826 143.076 275.989 142.809 276.232 142.629C276.474 142.449 276.777 142.37 277.076 142.408C277.376 142.445 277.649 142.597 277.839 142.832C278.029 143.066 278.121 143.365 278.096 143.666C278.055 144.006 276.952 151.992 267.423 156.944C267.257 157.031 267.072 157.077 266.885 157.076Z" fill="#68003C"/>
<path d="M223.797 170.663L202.895 151.822C200.113 149.314 198.226 145.965 197.523 142.285C196.82 138.605 197.338 134.796 199 131.439L210.964 107.28C212.014 105.153 213.524 103.286 215.384 101.813C217.244 100.341 219.408 99.3003 221.719 98.7666L242.916 93.8851C244.896 93.4288 246.972 93.6473 248.813 94.5058C250.655 95.3642 252.156 96.8134 253.08 98.6232C257.316 106.917 261.548 115.209 265.778 123.499C266.364 125.747 265.693 128.097 264.058 129.528C262.009 131.333 258.705 131.401 256.305 129.528L243.241 115.009L256.305 129.542C256.649 130.888 256.602 132.303 256.17 133.623C255.738 134.942 254.938 136.111 253.865 136.993C252.792 137.874 251.49 138.431 250.112 138.599C248.733 138.766 247.336 138.537 246.083 137.939L234.78 128.357L247.072 138.413C247.813 140.672 247.629 143.134 246.56 145.258C244.757 148.732 241.312 149.618 240.8 149.741L222.29 138.413L237.844 149.943C240.148 152.814 239.861 156.932 237.359 159.308C235.117 161.439 231.541 161.749 228.801 159.952L223.797 170.663Z" fill="#E67925"/>
<path d="M238.731 156.03C237.72 156.017 236.723 155.791 235.805 155.369L218.921 147.798H211.605C211.45 147.798 211.301 147.736 211.191 147.627C211.081 147.517 211.02 147.368 211.02 147.213C211.02 147.058 211.081 146.909 211.191 146.799C211.301 146.689 211.45 146.627 211.605 146.627H219.033C219.115 146.628 219.197 146.646 219.273 146.68L236.282 154.307C236.689 154.497 238.746 155.381 240.502 154.433C242.313 153.455 243.472 150.572 242.234 147.579L226.686 135.082C224.804 133.571 222.464 132.746 220.051 132.741H211.067C210.911 132.741 210.762 132.679 210.653 132.569C210.543 132.46 210.481 132.311 210.481 132.156C210.481 132 210.543 131.852 210.653 131.742C210.762 131.632 210.911 131.57 211.067 131.57H220.051C222.74 131.572 225.348 132.492 227.444 134.178L243.109 146.762C243.182 146.822 243.24 146.899 243.279 146.984C244.722 150.3 243.759 154.026 241.084 155.472C240.359 155.85 239.55 156.043 238.731 156.03Z" fill="#68003C"/>
<path d="M242.741 147.794C242.585 147.804 242.432 147.753 242.315 147.65C242.198 147.548 242.126 147.403 242.116 147.248C242.105 147.093 242.157 146.94 242.259 146.823C242.362 146.705 242.506 146.634 242.662 146.623C243.986 146.462 245.212 145.841 246.124 144.867C247.78 142.983 247.88 139.962 246.367 137.328L232.808 124.206C231.868 123.294 230.747 122.59 229.517 122.139C228.287 121.688 226.977 121.501 225.67 121.589L217.16 122.157C217.004 122.167 216.852 122.115 216.735 122.013C216.618 121.91 216.546 121.765 216.536 121.61C216.526 121.455 216.578 121.302 216.681 121.185C216.783 121.068 216.928 120.997 217.084 120.987L225.597 120.419C227.065 120.319 228.538 120.528 229.921 121.032C231.303 121.536 232.565 122.324 233.624 123.345L247.245 136.515C247.282 136.552 247.315 136.595 247.341 136.641C249.144 139.725 249.009 143.331 247.008 145.614C245.909 146.797 244.43 147.556 242.828 147.759C242.801 147.774 242.771 147.786 242.741 147.794Z" fill="#68003C"/>
<path d="M249.829 138.302C248.689 138.301 247.567 138.021 246.56 137.488C246.423 137.416 246.32 137.291 246.274 137.143C246.228 136.995 246.243 136.834 246.316 136.697C246.388 136.559 246.512 136.456 246.661 136.41C246.809 136.365 246.97 136.38 247.107 136.452C248.172 137.025 249.39 137.246 250.589 137.085C251.787 136.924 252.903 136.389 253.779 135.556C254.655 134.722 255.246 133.634 255.466 132.445C255.687 131.257 255.527 130.029 255.009 128.937L243.382 111.483C242.482 110.135 241.233 109.056 239.768 108.363C238.303 107.67 236.677 107.388 235.064 107.547L223.101 108.717C223.024 108.725 222.946 108.717 222.872 108.695C222.799 108.672 222.73 108.635 222.67 108.586C222.61 108.537 222.561 108.477 222.525 108.409C222.488 108.34 222.466 108.266 222.458 108.189C222.451 108.112 222.459 108.035 222.481 107.961C222.504 107.887 222.54 107.818 222.589 107.758C222.638 107.699 222.699 107.649 222.767 107.613C222.835 107.577 222.91 107.554 222.987 107.547L234.962 106.376C236.787 106.198 238.625 106.519 240.282 107.305C241.938 108.091 243.349 109.313 244.365 110.839L256.033 128.363C256.66 129.665 256.866 131.129 256.624 132.553C256.382 133.977 255.703 135.291 254.681 136.312C253.39 137.59 251.646 138.305 249.829 138.302Z" fill="#68003C"/>
<path d="M260.227 131.543C259.237 131.539 258.26 131.313 257.37 130.881C256.479 130.45 255.696 129.824 255.079 129.05C254.982 128.929 254.937 128.774 254.954 128.619C254.972 128.465 255.05 128.323 255.171 128.226C255.292 128.129 255.448 128.084 255.602 128.102C255.757 128.119 255.898 128.197 255.995 128.318C256.739 129.293 257.801 129.977 258.996 130.252C260.192 130.526 261.446 130.373 262.54 129.82C263.635 129.267 264.502 128.348 264.99 127.222C265.478 126.097 265.557 124.837 265.214 123.659C265.181 123.511 265.208 123.357 265.287 123.228C265.366 123.099 265.492 123.006 265.639 122.968C265.786 122.93 265.941 122.95 266.073 123.025C266.205 123.099 266.303 123.222 266.346 123.367C266.75 124.872 266.605 126.471 265.936 127.879C265.267 129.286 264.119 130.409 262.697 131.046C261.915 131.377 261.075 131.546 260.227 131.543Z" fill="#68003C"/>
<path d="M415.325 83.3636L428.439 81.7891C427.948 85.4063 424.927 88.0314 421.62 87.9963C418.887 87.97 416.35 86.1233 415.325 83.3636Z" fill="white"/>
</svg>
