<svg width="268" height="268" viewBox="0 0 268 268" fill="none" xmlns="http://www.w3.org/2000/svg">
<path d="M182.052 33.7617H42.0844C27.8993 33.7617 16.279 45.4344 16.279 59.5672V142.061C16.279 155.409 27.9516 167.029 42.0844 167.029H182.889C197.074 167.029 208.695 155.356 208.695 141.223V59.5672C207.857 45.4344 196.184 33.7617 182.052 33.7617Z" fill="#3F96ED"/>
<path d="M103.745 100.395H45.4343C42.9218 100.395 41.2468 98.7195 41.2468 96.207C41.2468 93.6945 42.9218 92.0195 45.4343 92.0195H103.745C106.258 92.0195 107.933 93.6945 107.933 96.207C107.88 98.7719 106.205 100.395 103.745 100.395ZM78.7249 142.06H45.4343C42.9218 142.06 41.2468 140.385 41.2468 137.873C41.2468 135.36 42.9218 133.685 45.4343 133.685H78.7772C81.2897 133.685 82.9647 135.36 82.9647 137.873C82.9647 140.385 81.2374 142.06 78.7249 142.06ZM178.701 100.395H153.733C151.221 100.395 149.546 98.7195 149.546 96.207C149.546 93.6945 151.221 92.0195 153.733 92.0195H178.701C181.214 92.0195 182.889 93.6945 182.889 96.207C182.889 98.7719 181.214 100.395 178.701 100.395Z" fill="#F1F1F3"/>
<path d="M16.279 65.4297H208.695V76.2648H16.279V65.4297Z" fill="#EDCA3F"/>
<path d="M200.162 156.351C198.121 156.351 196.498 154.728 196.498 152.687V129.76C196.498 127.195 194.405 125.102 191.84 125.102H168.913C166.348 125.102 164.255 127.195 164.255 129.76V152.687C164.255 154.728 162.632 156.351 160.591 156.351C158.549 156.351 156.926 154.728 156.926 152.687V129.76C156.926 123.165 162.318 117.773 168.913 117.773H191.84C198.435 117.773 203.826 123.165 203.826 129.76V152.687C203.826 154.676 202.204 156.351 200.162 156.351Z" fill="#241F21"/>
<path d="M204.978 149.391H155.775C147.662 149.391 141.119 155.986 141.119 164.047V189.486C141.119 197.599 147.714 204.142 155.775 204.142H204.978C213.091 204.142 219.634 197.547 219.634 189.486V164.047C219.634 155.986 213.091 149.391 204.978 149.391Z" fill="#023047"/>
<path d="M180.377 184.722C182.574 184.722 184.355 182.941 184.355 180.744C184.355 178.547 182.574 176.766 180.377 176.766C178.18 176.766 176.398 178.547 176.398 180.744C176.398 182.941 178.18 184.722 180.377 184.722Z" fill="#F1F1F3"/>
</svg>
