<svg width="154" height="55" viewBox="0 0 154 55" fill="none" xmlns="http://www.w3.org/2000/svg">
<path d="M28.94 43.6674C28.2762 43.6674 27.7255 43.1293 27.7255 42.4646C27.7255 41.7995 28.2518 41.2617 28.9166 41.2617H28.94C29.098 41.2616 29.2544 41.2927 29.4004 41.3531C29.5464 41.4135 29.679 41.5021 29.7907 41.6138C29.9024 41.7256 29.991 41.8582 30.0514 42.0042C30.1119 42.1501 30.1429 42.3066 30.1428 42.4646C30.1429 42.6225 30.1119 42.779 30.0514 42.9249C29.991 43.0709 29.9024 43.2035 29.7907 43.3153C29.679 43.427 29.5464 43.5156 29.4004 43.576C29.2544 43.6364 29.098 43.6675 28.94 43.6674Z" fill="#053B55"/>
<path d="M15.637 47.2731C13.0259 47.2731 1.50725e-07 46.9841 1.50725e-07 41.259V31.6361C-7.89555e-05 31.4782 0.0309812 31.3217 0.0914045 31.1758C0.151828 31.0298 0.240429 30.8972 0.352141 30.7855C0.463853 30.6738 0.596485 30.5853 0.742453 30.5249C0.88842 30.4645 1.04486 30.4335 1.20282 30.4336H6.01412C6.17209 30.4335 6.32853 30.4645 6.47449 30.5249C6.62046 30.5853 6.75309 30.6738 6.8648 30.7855C6.97652 30.8972 7.06512 31.0298 7.12554 31.1758C7.18596 31.3217 7.21702 31.4782 7.21695 31.6361C7.21695 32.3011 6.67915 32.8392 6.01412 32.8392H2.40595V41.259C2.40595 43.6105 10.0906 44.8651 15.6373 44.8675C15.9563 44.8677 16.2621 44.9945 16.4876 45.22C16.7131 45.4456 16.8399 45.7514 16.8401 46.0703C16.8401 46.3893 16.7133 46.6953 16.4876 46.9209C16.262 47.1464 15.956 47.2731 15.637 47.2731Z" fill="#053B55"/>
<path d="M150.355 27.8793C150.109 27.8793 149.862 27.8041 149.646 27.6489C149.552 27.5797 139.767 20.7418 109.365 18.4032C109.116 18.3837 108.88 18.2877 108.688 18.1283C108.263 17.7724 65.4341 -16.9326 13.9094 18.1975C13.7097 18.3337 13.4735 18.4065 13.2317 18.4065H3.60883C2.9441 18.4065 2.40601 17.8684 2.40601 17.2037C2.40601 16.5389 2.9441 16.0008 3.60883 16.0008H12.8615C40.4503 -2.67496 65.3998 -1.65772 81.4925 2.5078C97.5949 6.67182 108.012 14.515 109.924 16.0339C140.887 18.4642 150.665 25.4114 151.067 25.7071C151.194 25.8004 151.302 25.9181 151.384 26.0532C151.466 26.1883 151.52 26.3382 151.544 26.4944C151.568 26.6506 151.561 26.8099 151.523 26.9633C151.485 27.1166 151.417 27.261 151.323 27.3881C151.212 27.5405 151.066 27.6644 150.898 27.7497C150.73 27.8351 150.544 27.8795 150.355 27.8793Z" fill="#053B55"/>
<path d="M150.355 40.056C150.197 40.0561 150.041 40.0251 149.895 39.9646C149.749 39.9042 149.616 39.8155 149.504 39.7038C149.393 39.5921 149.304 39.4594 149.244 39.3134C149.183 39.1674 149.152 39.0109 149.152 38.8529V26.6755C149.152 26.0108 149.69 25.4727 150.355 25.4727C151.02 25.4727 151.558 26.0108 151.558 26.6755V38.8529C151.558 39.5179 151.02 40.056 150.355 40.056Z" fill="#053B55"/>
<path d="M28.8684 54.4901C22.2362 54.4901 16.8398 49.0938 16.8398 42.4618C16.8398 35.8296 22.2362 30.4336 28.8684 30.4336C35.5003 30.4336 40.8966 35.8296 40.8966 42.4618C40.8966 49.0938 35.5003 54.4901 28.8684 54.4901ZM28.8684 32.8392C23.5623 32.8392 19.2458 37.157 19.2458 42.4618C19.2458 47.7691 23.5626 52.0844 28.8684 52.0844C34.1742 52.0844 38.491 47.7688 38.491 42.4618C38.491 37.157 34.1745 32.8392 28.8684 32.8392Z" fill="#053B55"/>
<path d="M152.761 47.2728H135.921C135.763 47.2729 135.607 47.2419 135.461 47.1814C135.315 47.121 135.182 47.0324 135.071 46.9207C134.959 46.809 134.87 46.6764 134.81 46.5304C134.749 46.3844 134.718 46.228 134.718 46.07C134.718 45.912 134.749 45.7556 134.81 45.6096C134.87 45.4636 134.959 45.3309 135.07 45.2192C135.182 45.1075 135.315 45.0189 135.461 44.9585C135.607 44.8981 135.763 44.8671 135.921 44.8672H152.761C152.919 44.8671 153.075 44.8981 153.221 44.9585C153.367 45.0189 153.5 45.1075 153.612 45.2192C153.723 45.3309 153.812 45.4636 153.872 45.6096C153.933 45.7556 153.964 45.912 153.964 46.07C153.964 46.228 153.933 46.3844 153.872 46.5304C153.812 46.6764 153.723 46.809 153.611 46.9207C153.5 47.0324 153.367 47.121 153.221 47.1814C153.075 47.2419 152.919 47.2729 152.761 47.2728Z" fill="#053B55"/>
<path d="M109.459 47.2728H42.0994C41.9414 47.2729 41.785 47.2419 41.639 47.1814C41.4931 47.121 41.3604 47.0324 41.2487 46.9207C41.137 46.809 41.0484 46.6764 40.988 46.5304C40.9276 46.3844 40.8965 46.228 40.8966 46.07C40.8965 45.912 40.9276 45.7556 40.988 45.6096C41.0484 45.4637 41.137 45.331 41.2487 45.2193C41.3604 45.1076 41.4931 45.019 41.639 44.9586C41.785 44.8982 41.9414 44.8671 42.0994 44.8672H109.458C109.616 44.8671 109.773 44.8981 109.919 44.9585C110.065 45.0189 110.198 45.1075 110.309 45.2192C110.421 45.3309 110.51 45.4636 110.57 45.6096C110.63 45.7556 110.661 45.912 110.661 46.07C110.661 46.228 110.63 46.3844 110.57 46.5304C110.51 46.6764 110.421 46.8091 110.309 46.9208C110.198 47.0325 110.065 47.1211 109.919 47.1815C109.773 47.2419 109.617 47.273 109.459 47.2728Z" fill="#053B55"/>
<path d="M3.60883 30.433C3.45093 30.4331 3.29455 30.402 3.14864 30.3417C3.00273 30.2813 2.87014 30.1928 2.75845 30.0812C2.64675 29.9696 2.55814 29.837 2.49766 29.6912C2.43719 29.5453 2.40605 29.389 2.40601 29.2311V17.2028C2.40593 17.0448 2.43698 16.8884 2.4974 16.7424C2.55782 16.5965 2.64642 16.4638 2.75813 16.3521C2.86984 16.2404 3.00247 16.1518 3.14844 16.0914C3.2944 16.031 3.45085 15.9999 3.60883 16C3.76681 15.9999 3.92326 16.031 4.06922 16.0914C4.21519 16.1518 4.34782 16.2404 4.45953 16.3521C4.57124 16.4638 4.65984 16.5965 4.72026 16.7424C4.78068 16.8884 4.81173 17.0448 4.81165 17.2028V29.2311C4.81161 29.389 4.78047 29.5453 4.72 29.6912C4.65952 29.837 4.57091 29.9696 4.45921 30.0812C4.34752 30.1928 4.21493 30.2813 4.06902 30.3417C3.92311 30.402 3.76673 30.4331 3.60883 30.433Z" fill="#053B55"/>
<path d="M6.01447 23.2194C5.85649 23.2195 5.70004 23.1884 5.55408 23.128C5.40811 23.0676 5.27548 22.979 5.16377 22.8673C5.05206 22.7556 4.96346 22.6229 4.90304 22.477C4.84262 22.331 4.81157 22.1745 4.81165 22.0166C4.81157 21.8586 4.84262 21.7021 4.90304 21.5562C4.96346 21.4102 5.05206 21.2776 5.16377 21.1659C5.27548 21.0542 5.40811 20.9656 5.55408 20.9051C5.70004 20.8447 5.85649 20.8137 6.01447 20.8137C8.73624 20.8137 9.5667 19.9833 9.62535 19.5438C9.62535 18.8791 10.1634 18.375 10.827 18.375C11.4917 18.375 12.0286 18.9459 12.0286 19.6106C12.0286 19.758 11.9606 23.2194 6.01447 23.2194Z" fill="#053B55"/>
<path d="M28.8684 40.0574C28.7103 40.0575 28.5539 40.0264 28.4079 39.966C28.2619 39.9055 28.1293 39.8169 28.0175 39.7052C27.9058 39.5934 27.8172 39.4608 27.7568 39.3148C27.6964 39.1688 27.6654 39.0123 27.6655 38.8543V36.4486C27.6655 35.7839 28.2036 35.2461 28.8684 35.2461C29.5331 35.2461 30.0712 35.7839 30.0712 36.4486V38.8543C30.0712 39.5193 29.5334 40.0574 28.8684 40.0574Z" fill="#053B55"/>
<path d="M28.8684 49.6785C28.7104 49.6786 28.5539 49.6475 28.408 49.5871C28.262 49.5267 28.1294 49.4381 28.0176 49.3264C27.9059 49.2147 27.8173 49.082 27.7569 48.9361C27.6965 48.7901 27.6654 48.6336 27.6655 48.4757V46.07C27.6655 45.405 28.2036 44.8672 28.8684 44.8672C29.5331 44.8672 30.0712 45.405 30.0712 46.07V48.4757C30.0713 48.6336 30.0402 48.7901 29.9798 48.9361C29.9194 49.082 29.8308 49.2147 29.7191 49.3264C29.6073 49.4381 29.4747 49.5267 29.3287 49.5871C29.1828 49.6475 29.0263 49.6786 28.8684 49.6785Z" fill="#053B55"/>
<path d="M26.3172 41.1142C26.1592 41.1143 26.0028 41.0833 25.8569 41.0228C25.711 40.9623 25.5784 40.8735 25.4669 40.7617L23.766 39.0607C23.6543 38.9491 23.5657 38.8165 23.5053 38.6706C23.4449 38.5246 23.4138 38.3683 23.4138 38.2103C23.4138 38.0524 23.445 37.896 23.5054 37.7501C23.5659 37.6042 23.6544 37.4716 23.7661 37.36C23.8778 37.2483 24.0104 37.1597 24.1563 37.0993C24.3022 37.0389 24.4586 37.0078 24.6165 37.0078C24.7745 37.0078 24.9309 37.039 25.0768 37.0994C25.2227 37.1599 25.3552 37.2485 25.4669 37.3601L27.1675 39.0607C27.3359 39.2289 27.4506 39.4432 27.4971 39.6766C27.5436 39.91 27.5199 40.1519 27.4288 40.3717C27.3378 40.5916 27.1836 40.7795 26.9857 40.9117C26.7878 41.0438 26.5552 41.1143 26.3172 41.1142Z" fill="#053B55"/>
<path d="M33.1205 47.9188C32.9625 47.919 32.806 47.888 32.66 47.8275C32.5141 47.7671 32.3815 47.6784 32.2699 47.5666L30.5689 45.8657C30.3434 45.6401 30.2167 45.3342 30.2167 45.0152C30.2167 44.6962 30.3434 44.3903 30.5689 44.1648C30.7945 43.9392 31.1004 43.8125 31.4194 43.8125C31.7384 43.8125 32.0443 43.9392 32.2699 44.1648L33.9708 45.8657C34.1391 46.0339 34.2537 46.2481 34.3001 46.4815C34.3466 46.7148 34.3228 46.9566 34.2318 47.1764C34.1408 47.3962 33.9866 47.5841 33.7888 47.7162C33.5909 47.8484 33.3584 47.9189 33.1205 47.9188Z" fill="#053B55"/>
<path d="M25.26 43.6674H22.8543C22.6963 43.6675 22.5399 43.6364 22.3939 43.576C22.248 43.5156 22.1153 43.427 22.0036 43.3153C21.8919 43.2035 21.8033 43.0709 21.7429 42.9249C21.6825 42.779 21.6514 42.6225 21.6515 42.4646C21.6514 42.3066 21.6824 42.1501 21.7428 42.0041C21.8032 41.8581 21.8918 41.7255 22.0035 41.6138C22.1152 41.502 22.2479 41.4134 22.3939 41.353C22.5399 41.2926 22.6963 41.2616 22.8543 41.2617H25.26C25.4179 41.2616 25.5744 41.2927 25.7204 41.3531C25.8663 41.4135 25.999 41.5021 26.1107 41.6138C26.2224 41.7256 26.311 41.8582 26.3714 42.0042C26.4318 42.1501 26.4629 42.3066 26.4628 42.4646C26.4629 42.6225 26.4318 42.779 26.3714 42.9249C26.311 43.0709 26.2224 43.2035 26.1107 43.3153C25.999 43.427 25.8663 43.5156 25.7204 43.576C25.5744 43.6364 25.4179 43.6675 25.26 43.6674Z" fill="#053B55"/>
<path d="M34.8825 43.6674H32.4769C32.3189 43.6675 32.1624 43.6364 32.0165 43.576C31.8705 43.5156 31.7379 43.427 31.6262 43.3153C31.5145 43.2035 31.4259 43.0709 31.3654 42.9249C31.305 42.779 31.274 42.6225 31.274 42.4646C31.274 42.3066 31.305 42.1501 31.3654 42.0042C31.4259 41.8582 31.5145 41.7256 31.6262 41.6138C31.7379 41.5021 31.8705 41.4135 32.0165 41.3531C32.1624 41.2927 32.3189 41.2616 32.4769 41.2617H34.8825C35.0405 41.2616 35.1969 41.2927 35.3429 41.3531C35.4889 41.4135 35.6215 41.5021 35.7332 41.6138C35.8449 41.7256 35.9335 41.8582 35.9939 42.0042C36.0544 42.1501 36.0854 42.3066 36.0853 42.4646C36.0854 42.6225 36.0544 42.779 35.9939 42.9249C35.9335 43.0709 35.8449 43.2035 35.7332 43.3153C35.6215 43.427 35.4889 43.5156 35.3429 43.576C35.1969 43.6364 35.0405 43.6675 34.8825 43.6674Z" fill="#053B55"/>
<path d="M24.6159 47.9187C24.378 47.9188 24.1454 47.8483 23.9476 47.7161C23.7498 47.584 23.5956 47.3961 23.5046 47.1763C23.4136 46.9565 23.3898 46.7147 23.4362 46.4814C23.4827 46.248 23.5973 46.0337 23.7656 45.8656L25.4665 44.1647C25.5782 44.053 25.7108 43.9644 25.8567 43.904C26.0026 43.8436 26.159 43.8125 26.3169 43.8125C26.4749 43.8125 26.6312 43.8436 26.7771 43.9041C26.923 43.9645 27.0556 44.0531 27.1673 44.1648C27.2789 44.2765 27.3675 44.4091 27.4279 44.555C27.4884 44.7009 27.5195 44.8573 27.5194 45.0152C27.5194 45.1732 27.4883 45.3295 27.4279 45.4754C27.3674 45.6213 27.2788 45.7539 27.1671 45.8656L25.4665 47.5665C25.3549 47.6784 25.2224 47.7671 25.0764 47.8275C24.9304 47.888 24.7739 47.919 24.6159 47.9187Z" fill="#053B55"/>
<path d="M31.42 41.1142C31.182 41.1144 30.9493 41.0439 30.7514 40.9118C30.5534 40.7796 30.3992 40.5917 30.3081 40.3719C30.217 40.152 30.1932 39.9101 30.2397 39.6767C30.2862 39.4433 30.401 39.2289 30.5694 39.0607L32.2703 37.3601C32.3819 37.2485 32.5145 37.1599 32.6604 37.0994C32.8063 37.039 32.9627 37.0078 33.1206 37.0078C33.2786 37.0078 33.435 37.0389 33.5809 37.0993C33.7268 37.1597 33.8594 37.2483 33.971 37.36C34.0827 37.4716 34.1713 37.6042 34.2318 37.7501C34.2922 37.896 34.3234 38.0524 34.3234 38.2103C34.3234 38.3683 34.2923 38.5246 34.2319 38.6706C34.1714 38.8165 34.0829 38.9491 33.9712 39.0607L32.2703 40.7617C32.1588 40.8736 32.0263 40.9624 31.8803 41.0229C31.7344 41.0834 31.578 41.1144 31.42 41.1142Z" fill="#053B55"/>
<path d="M122.69 54.4901C116.058 54.4901 110.662 49.0938 110.662 42.4618C110.662 35.8296 116.058 30.4336 122.69 30.4336C129.322 30.4336 134.718 35.8296 134.718 42.4618C134.718 49.0938 129.322 54.4901 122.69 54.4901ZM122.69 32.8392C117.385 32.8392 113.067 37.157 113.067 42.4618C113.067 47.7691 117.385 52.0844 122.69 52.0844C127.995 52.0844 132.313 47.7688 132.313 42.4618C132.313 37.157 127.995 32.8392 122.69 32.8392Z" fill="#053B55"/>
<path d="M122.76 43.6674C122.098 43.6674 121.548 43.1293 121.548 42.4646C121.548 41.7995 122.074 41.2617 122.737 41.2617H122.76C122.918 41.2614 123.075 41.2922 123.221 41.3526C123.367 41.4129 123.5 41.5015 123.612 41.6132C123.723 41.725 123.812 41.8577 123.872 42.0038C123.933 42.1499 123.963 42.3065 123.963 42.4646C123.963 43.1293 123.428 43.6674 122.76 43.6674Z" fill="#053B55"/>
<path d="M122.69 40.0574C122.025 40.0574 121.487 39.5193 121.487 38.8543V36.4486C121.487 36.2906 121.518 36.1342 121.579 35.9882C121.639 35.8423 121.728 35.7097 121.839 35.598C121.951 35.4863 122.084 35.3978 122.23 35.3374C122.376 35.277 122.532 35.246 122.69 35.2461C122.848 35.246 123.005 35.277 123.151 35.3374C123.296 35.3978 123.429 35.4864 123.541 35.598C123.652 35.7097 123.741 35.8423 123.801 35.9883C123.862 36.1342 123.893 36.2907 123.893 36.4486V38.8543C123.893 39.5193 123.355 40.0574 122.69 40.0574Z" fill="#053B55"/>
<path d="M122.69 49.6785C122.025 49.6785 121.487 49.1404 121.487 48.4757V46.07C121.487 45.912 121.518 45.7555 121.578 45.6095C121.639 45.4636 121.728 45.3309 121.839 45.2192C121.951 45.1075 122.084 45.0189 122.23 44.9585C122.376 44.8981 122.532 44.8671 122.69 44.8672C122.848 44.8671 123.005 44.8982 123.151 44.9586C123.296 45.019 123.429 45.1076 123.541 45.2193C123.652 45.331 123.741 45.4637 123.801 45.6096C123.862 45.7556 123.893 45.912 123.893 46.07V48.4757C123.893 48.6336 123.862 48.7901 123.801 48.936C123.741 49.082 123.652 49.2146 123.541 49.3263C123.429 49.4381 123.296 49.5267 123.151 49.5871C123.005 49.6475 122.848 49.6786 122.69 49.6785Z" fill="#053B55"/>
<path d="M120.139 41.1142C119.981 41.1144 119.824 41.0833 119.678 41.0228C119.532 40.9623 119.4 40.8736 119.288 40.7617L117.587 39.0608C117.476 38.9491 117.387 38.8166 117.327 38.6707C117.266 38.5248 117.235 38.3684 117.235 38.2105C117.235 38.0525 117.266 37.8961 117.327 37.7502C117.387 37.6043 117.476 37.4718 117.587 37.3602C117.699 37.2485 117.832 37.1598 117.978 37.0994C118.123 37.0389 118.28 37.0078 118.438 37.0078C118.596 37.0078 118.752 37.0389 118.898 37.0994C119.044 37.1598 119.176 37.2485 119.288 37.3602L120.989 39.0608C121.157 39.2289 121.272 39.4432 121.319 39.6766C121.365 39.91 121.341 40.1519 121.25 40.3717C121.159 40.5916 121.005 40.7795 120.807 40.9117C120.609 41.0438 120.377 41.1143 120.139 41.1142Z" fill="#053B55"/>
<path d="M126.942 47.9188C126.784 47.9191 126.628 47.8881 126.482 47.8276C126.336 47.7672 126.204 47.6785 126.092 47.5666L124.391 45.8657C124.166 45.6401 124.039 45.3342 124.039 45.0152C124.039 44.6962 124.166 44.3903 124.391 44.1648C124.617 43.9392 124.923 43.8125 125.242 43.8125C125.561 43.8125 125.866 43.9392 126.092 44.1648L127.793 45.8657C127.961 46.0339 128.076 46.2481 128.122 46.4815C128.168 46.7148 128.145 46.9566 128.054 47.1764C127.963 47.3962 127.808 47.5841 127.611 47.7162C127.413 47.8484 127.18 47.9189 126.942 47.9188Z" fill="#053B55"/>
<path d="M119.081 43.6674H116.676C116.518 43.6675 116.361 43.6364 116.215 43.576C116.069 43.5156 115.937 43.427 115.825 43.3153C115.713 43.2035 115.625 43.0709 115.564 42.9249C115.504 42.779 115.473 42.6225 115.473 42.4646C115.473 42.3066 115.504 42.1501 115.564 42.0042C115.625 41.8582 115.713 41.7256 115.825 41.6138C115.937 41.5021 116.069 41.4135 116.215 41.3531C116.361 41.2927 116.518 41.2616 116.676 41.2617H119.081C119.239 41.2616 119.396 41.2926 119.542 41.353C119.688 41.4134 119.82 41.502 119.932 41.6138C120.044 41.7255 120.132 41.8581 120.193 42.0041C120.253 42.1501 120.284 42.3066 120.284 42.4646C120.284 42.6225 120.253 42.779 120.193 42.9249C120.132 43.0709 120.044 43.2035 119.932 43.3153C119.82 43.427 119.688 43.5156 119.542 43.576C119.396 43.6364 119.239 43.6675 119.081 43.6674Z" fill="#053B55"/>
<path d="M128.704 43.6674H126.298C126.14 43.6675 125.984 43.6364 125.838 43.576C125.692 43.5155 125.559 43.4269 125.448 43.3152C125.336 43.2035 125.247 43.0709 125.187 42.9249C125.127 42.779 125.096 42.6225 125.096 42.4646C125.096 42.3066 125.127 42.1501 125.187 42.0042C125.247 41.8582 125.336 41.7256 125.448 41.6139C125.559 41.5022 125.692 41.4135 125.838 41.3531C125.984 41.2927 126.14 41.2616 126.298 41.2617H128.704C129.369 41.2617 129.907 41.7995 129.907 42.4646C129.907 42.6226 129.876 42.779 129.816 42.925C129.755 43.071 129.667 43.2036 129.555 43.3154C129.443 43.4271 129.31 43.5157 129.164 43.5761C129.018 43.6365 128.862 43.6675 128.704 43.6674Z" fill="#053B55"/>
<path d="M118.438 47.9188C118.2 47.9189 117.967 47.8484 117.769 47.7162C117.572 47.5841 117.417 47.3962 117.326 47.1764C117.235 46.9566 117.212 46.7148 117.258 46.4815C117.304 46.2481 117.419 46.0339 117.587 45.8657L119.288 44.1648C119.4 44.0531 119.532 43.9645 119.678 43.9041C119.824 43.8436 119.981 43.8125 120.138 43.8125C120.296 43.8125 120.453 43.8436 120.599 43.9041C120.745 43.9645 120.877 44.0531 120.989 44.1648C121.101 44.2765 121.189 44.409 121.25 44.555C121.31 44.7009 121.341 44.8573 121.341 45.0152C121.341 45.1732 121.31 45.3296 121.25 45.4755C121.189 45.6214 121.101 45.754 120.989 45.8657L119.288 47.5666C119.176 47.6784 119.044 47.7671 118.898 47.8276C118.752 47.888 118.596 47.919 118.438 47.9188Z" fill="#053B55"/>
<path d="M125.241 41.1142C125.003 41.1143 124.77 41.0438 124.573 40.9117C124.375 40.7795 124.22 40.5916 124.129 40.3717C124.038 40.1519 124.015 39.91 124.061 39.6766C124.108 39.4432 124.222 39.2289 124.391 39.0608L126.092 37.3602C126.203 37.2485 126.336 37.1598 126.482 37.0994C126.628 37.0389 126.784 37.0078 126.942 37.0078C127.1 37.0078 127.256 37.0389 127.402 37.0994C127.548 37.1598 127.681 37.2485 127.792 37.3602C127.904 37.4718 127.993 37.6043 128.053 37.7502C128.114 37.8961 128.145 38.0525 128.145 38.2105C128.145 38.3684 128.114 38.5248 128.053 38.6707C127.993 38.8166 127.904 38.9491 127.792 39.0608L126.092 40.7617C125.98 40.8737 125.848 40.9624 125.702 41.023C125.556 41.0835 125.399 41.1145 125.241 41.1142Z" fill="#053B55"/>
<path d="M102.242 18.4056H20.4487C19.7836 18.4056 19.2458 17.8676 19.2458 17.2028C19.2458 16.5381 19.7836 16 20.4487 16H102.242C102.906 16 103.444 16.5381 103.444 17.2028C103.444 17.8676 102.906 18.4056 102.242 18.4056Z" fill="#053B55"/>
<path d="M68.5622 13.5952C68.4042 13.5953 68.2478 13.5643 68.1018 13.5038C67.9558 13.4434 67.8232 13.3548 67.7115 13.2431C67.5998 13.1314 67.5112 12.9988 67.4508 12.8528C67.3904 12.7068 67.3593 12.5504 67.3594 12.3924V5.17548C67.3594 4.51045 67.8975 3.97266 68.5622 3.97266C69.2269 3.97266 69.765 4.51045 69.765 5.17548V12.3924C69.7651 12.5504 69.734 12.7068 69.6736 12.8528C69.6132 12.9988 69.5246 13.1314 69.4129 13.2431C69.3012 13.3548 69.1686 13.4434 69.0226 13.5038C68.8766 13.5643 68.7202 13.5953 68.5622 13.5952Z" fill="#053B55"/>
<path d="M37.2882 13.5965C37.1302 13.5965 36.9737 13.5655 36.8278 13.5051C36.6818 13.4446 36.5492 13.356 36.4374 13.2443C36.3257 13.1326 36.2371 13 36.1767 12.854C36.1163 12.7081 36.0852 12.5516 36.0853 12.3936V9.98798C36.0852 9.83 36.1163 9.67356 36.1767 9.52759C36.2371 9.38162 36.3257 9.24899 36.4374 9.13728C36.5492 9.02557 36.6818 8.93698 36.8278 8.87656C36.9737 8.81614 37.1302 8.78508 37.2882 8.78516C37.4461 8.78508 37.6026 8.81614 37.7485 8.87656C37.8945 8.93698 38.0271 9.02557 38.1389 9.13728C38.2506 9.24899 38.3392 9.38162 38.3996 9.52759C38.46 9.67356 38.4911 9.83 38.491 9.98798V12.3936C38.4911 12.5516 38.46 12.7081 38.3996 12.854C38.3392 13 38.2506 13.1326 38.1389 13.2443C38.0271 13.356 37.8945 13.4446 37.7485 13.5051C37.6026 13.5655 37.4461 13.5965 37.2882 13.5965Z" fill="#053B55"/>
<path d="M44.5051 25.6244H39.6938C39.5358 25.6245 39.3794 25.5934 39.2334 25.533C39.0874 25.4726 38.9548 25.384 38.8431 25.2723C38.7314 25.1606 38.6428 25.0279 38.5824 24.882C38.5219 24.736 38.4909 24.5796 38.491 24.4216C38.4909 24.2636 38.5219 24.1071 38.5824 23.9612C38.6428 23.8152 38.7314 23.6826 38.8431 23.5709C38.9548 23.4592 39.0874 23.3706 39.2334 23.3101C39.3794 23.2497 39.5358 23.2187 39.6938 23.2188H44.5051C45.1701 23.2188 45.7082 23.7568 45.7082 24.4216C45.7083 24.5796 45.6772 24.736 45.6168 24.882C45.5563 25.028 45.4677 25.1607 45.356 25.2724C45.2442 25.3841 45.1116 25.4727 44.9656 25.5331C44.8196 25.5935 44.6631 25.6245 44.5051 25.6244Z" fill="#053B55"/>
<path d="M78.1848 25.6244H73.3747C73.2167 25.6245 73.0603 25.5934 72.9143 25.533C72.7683 25.4726 72.6357 25.384 72.524 25.2723C72.4123 25.1606 72.3237 25.0279 72.2633 24.882C72.2029 24.736 72.1718 24.5796 72.1719 24.4216C72.1718 24.2636 72.2029 24.1071 72.2633 23.9612C72.3237 23.8152 72.4123 23.6826 72.524 23.5709C72.6357 23.4592 72.7683 23.3706 72.9143 23.3101C73.0603 23.2497 73.2167 23.2187 73.3747 23.2188H78.1848C78.3428 23.2187 78.4992 23.2497 78.6452 23.3101C78.7912 23.3706 78.9238 23.4592 79.0355 23.5709C79.1472 23.6826 79.2358 23.8152 79.2962 23.9612C79.3566 24.1071 79.3877 24.2636 79.3876 24.4216C79.3877 24.5796 79.3567 24.736 79.2963 24.882C79.2359 25.028 79.1473 25.1606 79.0356 25.2724C78.9239 25.3841 78.7912 25.4727 78.6452 25.5331C78.4992 25.5935 78.3428 25.6245 78.1848 25.6244Z" fill="#053B55"/>
<path d="M147.949 30.4351C147.823 30.4351 147.696 30.4165 147.569 30.3741L140.352 27.9681C140.049 27.8672 139.799 27.6503 139.656 27.365C139.514 27.0797 139.49 26.7494 139.591 26.4468C139.692 26.1442 139.909 25.8941 140.195 25.7516C140.48 25.6092 140.81 25.5859 141.113 25.687L148.33 28.0926C148.633 28.1935 148.883 28.4105 149.026 28.6958C149.168 28.981 149.192 29.3113 149.091 29.614C149.011 29.8532 148.857 30.0611 148.653 30.2085C148.448 30.3558 148.202 30.4351 147.949 30.4351Z" fill="#053B55"/>
<path d="M140.732 28.03C140.575 28.0301 140.418 27.9991 140.272 27.9386C140.126 27.8782 139.994 27.7896 139.882 27.6779C139.77 27.5662 139.681 27.4336 139.621 27.2876C139.561 27.1416 139.53 26.9852 139.53 26.8272V24.4216C139.53 23.7568 140.068 23.2188 140.732 23.2188C141.397 23.2188 141.935 23.7568 141.935 24.4216V26.8272C141.935 26.9852 141.904 27.1416 141.844 27.2876C141.784 27.4336 141.695 27.5662 141.583 27.6779C141.471 27.7896 141.339 27.8782 141.193 27.9386C141.047 27.9991 140.89 28.0301 140.732 28.03Z" fill="#053B55"/>
<path d="M152.761 47.2755C152.603 47.2756 152.446 47.2446 152.3 47.1841C152.154 47.1237 152.022 47.0351 151.91 46.9234C151.798 46.8117 151.71 46.6791 151.649 46.5331C151.589 46.3871 151.558 46.2307 151.558 46.0727V41.2614C151.558 41.1034 151.589 40.947 151.649 40.801C151.71 40.6551 151.798 40.5224 151.91 40.4107C152.022 40.299 152.154 40.2104 152.3 40.15C152.446 40.0896 152.603 40.0585 152.761 40.0586C152.919 40.0585 153.075 40.0895 153.221 40.1499C153.367 40.2103 153.5 40.2989 153.612 40.4106C153.723 40.5223 153.812 40.655 153.872 40.801C153.933 40.947 153.964 41.1034 153.964 41.2614V46.0727C153.964 46.2307 153.933 46.3871 153.872 46.5331C153.812 46.6791 153.723 46.8117 153.612 46.9234C153.5 47.0351 153.367 47.1237 153.221 47.1841C153.075 47.2446 152.919 47.2756 152.761 47.2755Z" fill="#053B55"/>
</svg>
