<svg width="150" height="149" viewBox="0 0 150 149" fill="none" xmlns="http://www.w3.org/2000/svg">
<g clip-path="url(#clip0_7332_18486)">
<path d="M27.041 115.68C18.4863 115.68 11.543 108.754 11.543 100.285C11.543 91.8168 18.5156 84.8906 27.041 84.8906C35.5664 84.8906 42.5391 91.8168 42.5391 100.285C42.5391 108.754 35.5664 115.68 27.041 115.68ZM27.041 87.7717C20.0977 87.7717 14.4727 93.3883 14.4727 100.256C14.4727 107.124 20.127 112.741 27.041 112.741C33.9551 112.741 39.6094 107.124 39.6094 100.256C39.6094 93.3883 33.9551 87.7717 27.041 87.7717Z" fill="#021D2C"/>
<path d="M27.041 108.345C22.5586 108.345 18.8965 104.736 18.8965 100.254C18.8965 95.7727 22.5293 92.1641 27.041 92.1641C31.5527 92.1641 35.1855 95.7727 35.1855 100.254C35.1855 104.736 31.5234 108.345 27.041 108.345ZM27.041 95.1033C24.1699 95.1033 21.8262 97.4314 21.8262 100.283C21.8262 103.135 24.1699 105.463 27.041 105.463C29.9121 105.463 32.2559 103.135 32.2559 100.283C32.2559 97.4314 29.8828 95.1033 27.041 95.1033ZM126.65 108.345C122.168 108.345 118.506 104.736 118.506 100.254C118.506 95.7727 122.139 92.1641 126.65 92.1641C131.162 92.1641 134.795 95.7727 134.795 100.254C134.795 104.736 131.133 108.345 126.65 108.345ZM126.65 95.1033C123.779 95.1033 121.436 97.4314 121.436 100.283C121.436 103.135 123.779 105.463 126.65 105.463C129.521 105.463 131.865 103.135 131.865 100.283C131.865 97.4314 129.492 95.1033 126.65 95.1033Z" fill="#021D2C"/>
<path d="M126.65 115.678C118.096 115.678 111.152 108.752 111.152 100.283C111.152 91.8145 118.125 84.8883 126.65 84.8883C135.176 84.8883 142.148 91.8145 142.148 100.283C142.148 108.752 135.176 115.678 126.65 115.678ZM126.65 87.7693C119.707 87.7693 114.082 93.3859 114.082 100.254C114.082 107.122 119.736 112.738 126.65 112.738C133.564 112.738 139.219 107.122 139.219 100.254C139.219 93.3859 133.564 87.7693 126.65 87.7693ZM102.393 63.9061C102.363 63.9061 102.334 63.9061 102.305 63.9061L96.5918 63.5859L96.7676 60.6758L98.8184 60.7922L88.5938 49.9373C87.0117 48.2494 84.7559 47.2891 82.4414 47.2891H25.0195L19.043 56.3397L90.9082 60.3557L90.7324 63.2658L16.3184 59.1043C15.791 59.0752 15.3223 58.7842 15.0879 58.3186C14.8535 57.8529 14.8828 57.3 15.1758 56.8635L22.9688 45.0482C23.2324 44.6408 23.7012 44.3789 24.1992 44.3789H82.4121C85.5469 44.3789 88.5645 45.6885 90.7031 47.9584L103.447 61.4615C103.857 61.898 103.945 62.5383 103.711 63.0621C103.477 63.5859 102.949 63.9061 102.393 63.9061Z" fill="#021D2C"/>
<path d="M46.875 68.3906H37.5V71.3008H46.875V68.3906Z" fill="#021D2C"/>
<path d="M79.9805 68.3906H70.6055V71.3008H79.9805V68.3906Z" fill="#021D2C"/>
<path d="M76.4648 40.3047H73.5352C73.5352 38.0639 71.6895 36.2305 69.4336 36.2305H35.7422C33.4863 36.2305 31.6406 38.0639 31.6406 40.3047H28.7109C28.7109 36.4633 31.875 33.3203 35.7422 33.3203H69.4336C73.3008 33.3203 76.4648 36.4633 76.4648 40.3047ZM66.7969 61.9271C66.7676 61.9271 66.7383 61.9271 66.709 61.9271L62.9004 61.7234C62.1387 61.6943 61.5234 61.0541 61.5234 60.2684V45.8631C61.5234 45.0482 62.168 44.5535 62.9883 44.5535H66.7969C67.6172 44.5535 68.2617 45.0773 68.2617 45.8631V60.4721C68.2617 60.8795 68.0859 61.2578 67.793 61.5197C67.5293 61.7816 67.1777 61.9271 66.7969 61.9271ZM64.4531 58.8715L65.332 58.9297V47.4346H64.4531V58.8715ZM35.4492 60.1811C35.4199 60.1811 35.3906 60.1811 35.3613 60.1811L31.5527 59.9773C30.791 59.9482 30.1758 59.308 30.1758 58.5223V45.8631C30.1758 45.0482 30.8203 44.5535 31.6406 44.5535H35.4492C36.2695 44.5535 36.9141 45.0773 36.9141 45.8631V58.726C36.9141 59.1334 36.7383 59.5117 36.4453 59.7736C36.1816 60.0355 35.8301 60.1811 35.4492 60.1811ZM33.1055 57.1254L33.9844 57.1836V47.4346H33.1055V57.1254ZM8.34961 74.1498H6.00586C5.18555 74.1498 4.54102 73.5096 4.54102 72.6947V65.7104C4.54102 64.8955 5.18555 64.2553 6.00586 64.2553H8.34961C11.1035 64.2553 13.3301 66.467 13.3301 69.2025C13.3301 71.909 11.1035 74.1498 8.34961 74.1498ZM7.4707 71.2397H8.34961C9.49219 71.2397 10.4004 70.3084 10.4004 69.2025C10.4004 68.0676 9.46289 67.1654 8.34961 67.1654H7.4707V71.2397ZM8.93555 101.709H3.25195C2.51953 101.709 1.9043 101.185 1.78711 100.458L-9.31323e-10 87.944C-0.0585938 87.5365 0.0585938 87.1 0.351562 86.7799C0.644531 86.4598 1.02539 86.2852 1.46484 86.2852H8.93555C9.75586 86.2852 10.4004 86.9254 10.4004 87.7402V100.254C10.4004 101.069 9.75586 101.709 8.93555 101.709ZM4.51172 98.7988H7.4707V89.1953H3.16406L4.51172 98.7988ZM148.535 81.4543H138.193C134.678 81.4543 131.836 78.6315 131.836 75.1393C131.836 74.3244 132.48 73.6842 133.301 73.6842H148.535C149.355 73.6842 150 74.3244 150 75.1393V79.9992C150 80.785 149.355 81.4543 148.535 81.4543ZM135.088 76.5943C135.645 77.7584 136.816 78.5441 138.193 78.5441H147.07V76.5943H135.088Z" fill="#021D2C"/>
<path d="M114.082 92.543H39.5801V95.4531H114.082V92.543Z" fill="#021D2C"/>
<path d="M148.535 92.543H139.189V95.4531H148.535V92.543Z" fill="#021D2C"/>
<path d="M14.4727 92.543H8.93555V95.4531H14.4727V92.543Z" fill="#021D2C"/>
<path d="M145.166 90.9711H140.918C140.098 90.9711 139.453 90.3309 139.453 89.516C139.453 86.4021 142.002 83.8412 145.166 83.8412C145.986 83.8412 146.631 84.4814 146.631 85.2963V89.516C146.631 90.3018 145.986 90.9711 145.166 90.9711ZM142.793 88.0609H143.701V87.1588C143.32 87.3916 143.027 87.6826 142.793 88.0609ZM11.543 51.4512C11.3965 51.4512 11.2207 51.4221 11.0742 51.3639C10.4883 51.1602 10.0781 50.6072 10.0781 49.9961V40.3926C10.0781 39.5777 10.7227 38.9375 11.543 38.9375H19.043C19.5996 38.9375 20.127 39.2576 20.3613 39.7523C20.5957 40.2471 20.5371 40.8582 20.2148 41.2947L12.7148 50.8982C12.3926 51.2766 11.9824 51.4512 11.543 51.4512ZM13.0078 41.8768V45.7764L16.0547 41.8768H13.0078Z" fill="#021D2C"/>
<path d="M146.133 101.712H140.684V98.8016H145.137L147.07 93.7379V75.1129C147.07 70.8932 143.877 67.401 139.629 66.9936L112.354 64.4326C112.002 64.4035 111.709 64.258 111.445 64.0252L91.9336 44.7018C90.0586 42.8684 87.5977 41.8498 84.9609 41.8498H19.7461L12.4805 51.1332C9.22851 55.2656 7.4707 60.4457 7.4707 65.684V87.743C7.4707 88.5578 6.82617 89.198 6.00586 89.198H3.16406L4.54102 98.8016H13.0078V101.712H3.25195C2.51953 101.712 1.9043 101.188 1.78711 100.46L-9.31323e-10 87.9467C-0.0585938 87.5393 0.0585938 87.1027 0.351562 86.7826C0.644531 86.4625 1.02539 86.2879 1.46484 86.2879H4.54102V65.684C4.54102 59.8055 6.5332 54.0143 10.166 49.358L17.8711 39.5217C18.1348 39.1725 18.5742 38.9688 19.0137 38.9688H84.9316C88.3594 38.9688 91.5527 40.2783 93.9844 42.6938L113.145 61.6389L139.893 64.1416C145.635 64.6654 149.971 69.409 149.971 75.142V93.9998C149.971 94.1744 149.941 94.349 149.883 94.5236L147.48 100.78C147.305 101.333 146.748 101.712 146.133 101.712Z" fill="#021D2C"/>
<path d="M112.588 98.8008H56.8359V101.711H112.588V98.8008Z" fill="#021D2C"/>
<path d="M50.9766 98.8008H41.0742V101.711H50.9766V98.8008Z" fill="#021D2C"/>
</g>
<defs>
<clipPath id="clip0_7332_18486">
<rect width="150" height="149" fill="white"/>
</clipPath>
</defs>
</svg>
