<svg width="811" height="402" viewBox="0 0 811 402" fill="none" xmlns="http://www.w3.org/2000/svg">
<g clip-path="url(#clip0_7419_2656)">
<rect width="811" height="402" fill="#053B55"/>
<path d="M1200 456.102H724.116C720.026 456.095 716.106 454.467 713.213 451.575C710.321 448.682 708.693 444.762 708.686 440.672V-252.57C708.693 -256.66 710.321 -260.581 713.213 -263.473C716.106 -266.365 720.026 -267.993 724.116 -268H1200C1204.09 -268 1208.02 -266.375 1210.92 -263.482C1213.81 -260.589 1215.45 -256.665 1215.45 -252.57V440.672C1215.45 444.766 1213.81 448.691 1210.92 451.584C1208.02 454.477 1204.09 456.102 1200 456.102ZM724.116 -267.342C720.199 -267.342 716.441 -265.785 713.671 -263.015C710.901 -260.245 709.345 -256.488 709.345 -252.57V440.672C709.345 444.589 710.901 448.346 713.671 451.117C716.441 453.887 720.199 455.443 724.116 455.443H1200C1203.92 455.443 1207.68 453.888 1210.45 451.118C1213.22 448.349 1214.79 444.592 1214.79 440.672V-252.57C1214.79 -256.49 1213.22 -260.247 1210.45 -263.017C1207.68 -265.786 1203.92 -267.342 1200 -267.342H724.116Z" fill="#2D64C8"/>
<path d="M651.206 456.102H175.274C171.184 456.095 167.263 454.467 164.371 451.574C161.479 448.682 159.851 444.762 159.844 440.672V-252.57C159.851 -256.66 161.479 -260.581 164.371 -263.473C167.263 -266.365 171.184 -267.993 175.274 -268H651.206C655.296 -267.993 659.217 -266.365 662.109 -263.473C665.001 -260.581 666.629 -256.66 666.636 -252.57V440.672C666.629 444.762 665.001 448.682 662.109 451.574C659.217 454.467 655.296 456.095 651.206 456.102ZM175.274 -267.342C171.381 -267.3 167.662 -265.726 164.921 -262.961C162.181 -260.196 160.641 -256.463 160.634 -252.57V440.672C160.641 444.587 162.2 448.34 164.968 451.109C167.737 453.878 171.49 455.436 175.406 455.443H651.206C655.122 455.436 658.875 453.878 661.644 451.109C664.412 448.34 665.971 444.587 665.978 440.672V-252.57C665.971 -256.486 664.412 -260.239 661.644 -263.008C658.875 -265.776 655.122 -267.335 651.206 -267.342H175.274Z" fill="#2D64C8"/>
<path d="M102.706 456.102H-373.174C-377.268 456.102 -381.196 454.477 -384.094 451.584C-386.991 448.691 -388.623 444.766 -388.63 440.672V-252.57C-388.623 -256.665 -386.991 -260.589 -384.094 -263.482C-381.196 -266.375 -377.268 -268 -373.174 -268H102.706C106.796 -267.993 110.717 -266.365 113.609 -263.473C116.501 -260.581 118.129 -256.66 118.136 -252.57V440.672C118.129 444.762 116.501 448.682 113.609 451.575C110.717 454.467 106.796 456.095 102.706 456.102ZM-373.174 -267.342C-377.094 -267.342 -380.854 -265.786 -383.628 -263.017C-386.402 -260.247 -387.965 -256.49 -387.972 -252.57V440.672C-387.965 444.592 -386.402 448.349 -383.628 451.118C-380.854 453.888 -377.094 455.443 -373.174 455.443H102.706C106.624 455.443 110.381 453.887 113.151 451.117C115.921 448.346 117.478 444.589 117.478 440.672V-252.57C117.478 -256.488 115.921 -260.245 113.151 -263.015C110.381 -265.785 106.624 -267.342 102.706 -267.342H-373.174Z" fill="#2D64C8"/>
<path d="M77.5076 -102.193C89.845 -114.401 106.514 -121.229 123.871 -121.183C141.228 -121.138 157.861 -114.223 170.134 -101.949C182.407 -89.6763 189.322 -73.0434 189.368 -55.6866C189.413 -38.3298 182.585 -21.6608 170.377 -9.32333L133.277 27.777C132.054 29.0031 130.601 29.9758 129.001 30.6395C127.402 31.3032 125.687 31.6448 123.955 31.6448C122.224 31.6448 120.509 31.3032 118.909 30.6395C117.31 29.9758 115.857 29.0031 114.634 27.777L77.5076 -9.34969C65.2006 -21.664 58.2872 -38.3613 58.2872 -55.7712C58.2872 -73.181 65.2006 -89.8784 77.5076 -102.193ZM123.955 -25.2273C129.986 -25.2273 135.881 -27.0155 140.895 -30.366C145.91 -33.7164 149.818 -38.4785 152.126 -44.05C154.433 -49.6216 155.037 -55.7523 153.861 -61.6671C152.684 -67.5818 149.78 -73.0148 145.516 -77.2791C141.252 -81.5434 135.819 -84.4474 129.904 -85.6239C123.989 -86.8004 117.858 -86.1966 112.287 -83.8887C106.715 -81.5809 101.953 -77.6728 98.6029 -72.6586C95.2524 -67.6443 93.4642 -61.7491 93.4642 -55.7185C93.4781 -47.6409 96.6967 -39.8988 102.413 -34.192C108.13 -28.4851 115.878 -25.2799 123.955 -25.2799V-25.2273Z" fill="#E6E6E6"/>
<path d="M1170.64 216.596V91.5234H1093.2V120.04H1041.59V-192.43H942.321V-69.4377H912.541V-130.842H835.102V168.647H725.881V62.8227H657.42V-166.599H572.898V-13.6424H493.484V315.863H431.948V155.402H368.412V52.1586H300.899V-27.0975L225.592 12.6095V224.679H146.178V180.943H40.0645V488.305L1275.01 488.91V216.596H1170.64Z" fill="#A9D8EB"/>
<path d="M373.572 488.488V31.1719H289.313V488.909C315.987 488.251 373.572 488.488 373.572 488.488Z" fill="#E6E6E6"/>
<path d="M296.739 488.912V237.398H123.086V488.359L296.739 488.912Z" fill="#FAFAFA"/>
<path d="M507.729 488.544V119.305H409.357V488.491L507.729 488.544Z" fill="#2D64C8"/>
<path d="M428.762 133.785H416.834V158.378H428.762V133.785Z" fill="#FAFAFA"/>
<path d="M452.593 133.785H440.665V158.378H452.593V133.785Z" fill="#FAFAFA"/>
<path d="M476.447 133.785H464.519V158.378H476.447V133.785Z" fill="#FAFAFA"/>
<path d="M500.304 133.785H488.376V158.378H500.304V133.785Z" fill="#FAFAFA"/>
<path d="M428.762 175.047H416.834V199.64H428.762V175.047Z" fill="#FAFAFA"/>
<path d="M452.593 175.047H440.665V199.64H452.593V175.047Z" fill="#FAFAFA"/>
<path d="M476.447 175.047H464.519V199.64H476.447V175.047Z" fill="#FAFAFA"/>
<path d="M500.304 175.047H488.376V199.64H500.304V175.047Z" fill="#FAFAFA"/>
<path d="M428.762 216.277H416.834V240.87H428.762V216.277Z" fill="#FAFAFA"/>
<path d="M452.593 216.277H440.665V240.87H452.593V216.277Z" fill="#FAFAFA"/>
<path d="M476.447 216.277H464.519V240.87H476.447V216.277Z" fill="#FAFAFA"/>
<path d="M500.304 216.277H488.376V240.87H500.304V216.277Z" fill="#FAFAFA"/>
<path d="M428.762 257.512H416.834V282.105H428.762V257.512Z" fill="#FAFAFA"/>
<path d="M452.593 257.512H440.665V282.105H452.593V257.512Z" fill="#FAFAFA"/>
<path d="M476.447 257.512H464.519V282.105H476.447V257.512Z" fill="#FAFAFA"/>
<path d="M500.304 257.512H488.376V282.105H500.304V257.512Z" fill="#FAFAFA"/>
<path d="M428.762 298.75H416.834V323.343H428.762V298.75Z" fill="#FAFAFA"/>
<path d="M452.593 298.75H440.665V323.343H452.593V298.75Z" fill="#FAFAFA"/>
<path d="M476.447 298.75H464.519V323.343H476.447V298.75Z" fill="#FAFAFA"/>
<path d="M500.304 298.75H488.376V323.343H500.304V298.75Z" fill="#FAFAFA"/>
<path d="M428.762 339.98H416.834V364.574H428.762V339.98Z" fill="#FAFAFA"/>
<path d="M452.593 339.98H440.665V364.574H452.593V339.98Z" fill="#FAFAFA"/>
<path d="M476.447 339.98H464.519V364.574H476.447V339.98Z" fill="#FAFAFA"/>
<path d="M500.304 339.98H488.376V364.574H500.304V339.98Z" fill="#FAFAFA"/>
<path d="M428.762 381.219H416.834V405.812H428.762V381.219Z" fill="#FAFAFA"/>
<path d="M452.593 381.219H440.665V405.812H452.593V381.219Z" fill="#FAFAFA"/>
<path d="M476.447 381.219H464.519V405.812H476.447V381.219Z" fill="#FAFAFA"/>
<path d="M500.304 381.219H488.376V405.812H500.304V381.219Z" fill="#FAFAFA"/>
<path d="M849.584 488.725V66.7188H645.625V488.857C645.625 488.857 848.031 488.909 849.584 488.725Z" fill="#D6E1FF"/>
<path d="M685.647 83.543H660.922V111.875H685.647V83.543Z" fill="#E6E6E6"/>
<path d="M735.15 83.543H710.425V111.875H735.15V83.543Z" fill="#E6E6E6"/>
<path d="M784.599 83.543H759.874V111.875H784.599V83.543Z" fill="#E6E6E6"/>
<path d="M834.076 83.543H809.351V111.875H834.076V83.543Z" fill="#E6E6E6"/>
<path d="M685.647 131.074H660.922V159.406H685.647V131.074Z" fill="#E6E6E6"/>
<path d="M735.15 131.074H710.425V159.406H735.15V131.074Z" fill="#E6E6E6"/>
<path d="M784.599 131.074H759.874V159.406H784.599V131.074Z" fill="#E6E6E6"/>
<path d="M834.076 131.074H809.351V159.406H834.076V131.074Z" fill="#E6E6E6"/>
<path d="M685.647 178.602H660.922V206.934H685.647V178.602Z" fill="#E6E6E6"/>
<path d="M735.15 178.602H710.425V206.934H735.15V178.602Z" fill="#E6E6E6"/>
<path d="M784.599 178.602H759.874V206.934H784.599V178.602Z" fill="#E6E6E6"/>
<path d="M834.076 178.602H809.351V206.934H834.076V178.602Z" fill="#E6E6E6"/>
<path d="M685.647 226.102H660.922V254.434H685.647V226.102Z" fill="#E6E6E6"/>
<path d="M735.15 226.102H710.425V254.434H735.15V226.102Z" fill="#E6E6E6"/>
<path d="M784.599 226.102H759.874V254.434H784.599V226.102Z" fill="#E6E6E6"/>
<path d="M834.076 226.102H809.351V254.434H834.076V226.102Z" fill="#E6E6E6"/>
<path d="M685.647 273.656H660.922V301.988H685.647V273.656Z" fill="#E6E6E6"/>
<path d="M735.15 273.656H710.425V301.988H735.15V273.656Z" fill="#E6E6E6"/>
<path d="M784.599 273.656H759.874V301.988H784.599V273.656Z" fill="#E6E6E6"/>
<path d="M834.076 273.656H809.351V301.988H834.076V273.656Z" fill="#E6E6E6"/>
<path d="M685.647 321.156H660.922V349.488H685.647V321.156Z" fill="#E6E6E6"/>
<path d="M735.15 321.156H710.425V349.488H735.15V321.156Z" fill="#E6E6E6"/>
<path d="M784.599 321.156H759.874V349.488H784.599V321.156Z" fill="#E6E6E6"/>
<path d="M834.076 321.156H809.351V349.488H834.076V321.156Z" fill="#E6E6E6"/>
<path d="M685.647 368.684H660.922V397.016H685.647V368.684Z" fill="#E6E6E6"/>
<path d="M735.15 368.684H710.425V397.016H735.15V368.684Z" fill="#E6E6E6"/>
<path d="M784.599 368.684H759.874V397.016H784.599V368.684Z" fill="#E6E6E6"/>
<path d="M834.076 368.684H809.351V397.016H834.076V368.684Z" fill="#E6E6E6"/>
<path d="M327.547 62.2422H304.77V88.3625H327.547V62.2422Z" fill="#FAFAFA"/>
<path d="M327.547 106.031H304.77V132.152H327.547V106.031Z" fill="#FAFAFA"/>
<path d="M327.547 149.848H304.77V175.968H327.547V149.848Z" fill="#FAFAFA"/>
<path d="M327.547 193.609H304.77V219.73H327.547V193.609Z" fill="#FAFAFA"/>
<path d="M327.547 237.398H304.77V263.519H327.547V237.398Z" fill="#FAFAFA"/>
<path d="M327.547 281.211H304.77V307.331H327.547V281.211Z" fill="#FAFAFA"/>
<path d="M327.547 325H304.77V351.12H327.547V325Z" fill="#FAFAFA"/>
<path d="M327.547 368.789H304.77V394.909H327.547V368.789Z" fill="#FAFAFA"/>
<path d="M358.011 62.2422H335.235V88.3625H358.011V62.2422Z" fill="#FAFAFA"/>
<path d="M358.011 106.031H335.235V132.152H358.011V106.031Z" fill="#FAFAFA"/>
<path d="M358.011 149.848H335.235V175.968H358.011V149.848Z" fill="#FAFAFA"/>
<path d="M358.011 193.609H335.235V219.73H358.011V193.609Z" fill="#FAFAFA"/>
<path d="M358.011 237.398H335.235V263.519H358.011V237.398Z" fill="#FAFAFA"/>
<path d="M358.011 281.211H335.235V307.331H358.011V281.211Z" fill="#FAFAFA"/>
<path d="M358.011 325H335.235V351.12H358.011V325Z" fill="#FAFAFA"/>
<path d="M358.011 368.789H335.235V394.909H358.011V368.789Z" fill="#FAFAFA"/>
<path d="M616.977 3.05078H592.252V31.3829H616.977V3.05078Z" fill="#FAFAFA"/>
<path d="M616.977 50.5547H592.252V78.8868H616.977V50.5547Z" fill="#FAFAFA"/>
<path d="M616.977 98.1055H592.252V126.438H616.977V98.1055Z" fill="#FAFAFA"/>
<path d="M616.977 145.609H592.252V173.941H616.977V145.609Z" fill="#FAFAFA"/>
<path d="M616.977 193.16H592.252V221.492H616.977V193.16Z" fill="#FAFAFA"/>
<path d="M157.29 247.902H136.225V265.623H157.29V247.902Z" fill="#E6E6E6"/>
<path d="M199.393 247.902H178.328V265.623H199.393V247.902Z" fill="#E6E6E6"/>
<path d="M241.47 247.902H220.405V265.623H241.47V247.902Z" fill="#E6E6E6"/>
<path d="M283.6 247.902H262.535V265.623H283.6V247.902Z" fill="#E6E6E6"/>
<path d="M157.29 277.629H136.225V295.35H157.29V277.629Z" fill="#E6E6E6"/>
<path d="M199.393 277.629H178.328V295.35H199.393V277.629Z" fill="#E6E6E6"/>
<path d="M241.47 277.629H220.405V295.35H241.47V277.629Z" fill="#E6E6E6"/>
<path d="M283.6 277.629H262.535V295.35H283.6V277.629Z" fill="#E6E6E6"/>
<path d="M157.29 307.332H136.225V325.053H157.29V307.332Z" fill="#E6E6E6"/>
<path d="M199.393 307.332H178.328V325.053H199.393V307.332Z" fill="#E6E6E6"/>
<path d="M241.47 307.332H220.405V325.053H241.47V307.332Z" fill="#E6E6E6"/>
<path d="M283.6 307.332H262.535V325.053H283.6V307.332Z" fill="#E6E6E6"/>
<path d="M157.29 337.059H136.225V354.779H157.29V337.059Z" fill="#E6E6E6"/>
<path d="M199.393 337.059H178.328V354.779H199.393V337.059Z" fill="#E6E6E6"/>
<path d="M241.47 337.059H220.405V354.779H241.47V337.059Z" fill="#E6E6E6"/>
<path d="M283.6 337.059H262.535V354.779H283.6V337.059Z" fill="#E6E6E6"/>
<path d="M157.29 366.762H136.225V384.482H157.29V366.762Z" fill="#E6E6E6"/>
<path d="M199.393 366.762H178.328V384.482H199.393V366.762Z" fill="#E6E6E6"/>
<path d="M241.47 366.762H220.405V384.482H241.47V366.762Z" fill="#E6E6E6"/>
<path d="M283.6 366.762H262.535V384.482H283.6V366.762Z" fill="#E6E6E6"/>
<path d="M157.29 396.461H136.225V414.182H157.29V396.461Z" fill="#E6E6E6"/>
<path d="M199.393 396.461H178.328V414.182H199.393V396.461Z" fill="#E6E6E6"/>
<path d="M241.47 396.461H220.405V414.182H241.47V396.461Z" fill="#E6E6E6"/>
<path d="M283.6 396.461H262.535V414.182H283.6V396.461Z" fill="#E6E6E6"/>
<path d="M458.867 93.9462C461.576 63.2215 438.866 36.1176 408.141 33.4079C377.416 30.6982 350.312 53.4089 347.603 84.1336C344.893 114.858 367.604 141.962 398.328 144.672C429.053 147.382 456.157 124.671 458.867 93.9462Z" fill="#407BFF"/>
<path d="M425.207 126.961L421.337 140.811L437.346 149.342L439.294 131.595L425.207 126.961Z" fill="#407BFF"/>
<path d="M471.34 87.0698C471.167 87.05 471.009 86.9655 470.897 86.8336C470.784 86.7016 470.726 86.532 470.734 86.3588C471.119 77.3755 469.289 68.4354 465.404 60.3263C461.519 52.2172 455.7 45.188 448.458 39.8584C448.387 39.8085 448.326 39.745 448.28 39.6715C448.233 39.5981 448.202 39.5162 448.187 39.4305C448.172 39.3448 448.175 39.2571 448.194 39.1723C448.214 39.0876 448.25 39.0075 448.3 38.9368C448.35 38.8656 448.413 38.805 448.487 38.7584C448.56 38.7119 448.642 38.6804 448.728 38.6657C448.814 38.651 448.901 38.6535 448.986 38.6729C449.071 38.6923 449.151 38.7283 449.222 38.7788C456.643 44.2417 462.607 51.4461 466.588 59.7572C470.569 68.0683 472.445 77.2309 472.051 86.4378C472.047 86.5267 472.026 86.6139 471.988 86.6943C471.95 86.7747 471.896 86.8466 471.83 86.9057C471.764 86.9647 471.686 87.0097 471.602 87.0379C471.517 87.0661 471.428 87.077 471.34 87.0698Z" fill="#407BFF"/>
<path d="M468.917 103.474H468.68C468.598 103.442 468.523 103.394 468.46 103.333C468.397 103.272 468.347 103.198 468.312 103.117C468.278 103.036 468.26 102.949 468.26 102.861C468.26 102.773 468.277 102.686 468.312 102.605C469.348 100.103 469.85 97.4128 469.786 94.7057C469.786 94.5311 469.855 94.3637 469.979 94.2402C470.102 94.1168 470.27 94.0474 470.444 94.0474C470.529 94.0439 470.614 94.0576 470.694 94.0878C470.774 94.1179 470.847 94.1639 470.908 94.2229C470.97 94.282 471.019 94.3528 471.052 94.4313C471.086 94.5097 471.103 94.5941 471.103 94.6794C471.165 97.55 470.627 100.402 469.523 103.053C469.475 103.175 469.392 103.281 469.284 103.356C469.177 103.431 469.049 103.472 468.917 103.474Z" fill="#407BFF"/>
<path d="M402.246 112.612L374.125 93.8117L380.681 83.9903L399.534 96.6028L422.995 65.5586L432.422 72.668L402.246 112.612Z" fill="white"/>
<path d="M-96.0675 501.625V614.585C-96.0617 626.366 -92.2825 637.836 -85.2837 647.312C-78.285 656.789 -68.4348 663.776 -57.1767 667.247L-47.9871 670.038C-42.3125 671.797 -36.3902 672.624 -30.4507 672.487L30.3738 671.065C23.8988 648.429 22.697 624.61 26.8607 601.437C31.0244 578.265 40.4428 556.354 54.3928 537.388C68.3428 518.422 86.4534 502.905 107.334 492.028C128.215 481.151 151.31 475.204 174.848 474.643C198.385 474.081 221.737 478.921 243.113 488.791C264.488 498.66 283.318 513.296 298.156 531.576C312.994 549.855 323.446 571.292 328.71 594.24C333.973 617.188 333.908 641.037 328.519 663.955L947.297 649.236C946.288 642.014 945.804 634.727 945.849 627.434C945.408 606.87 949.089 586.425 956.676 567.305C964.262 548.186 975.599 530.779 990.019 516.11C1004.44 501.442 1021.65 489.809 1040.64 481.898C1059.63 473.987 1080 469.957 1100.57 470.047C1121.14 470.136 1141.49 474.343 1160.4 482.42C1179.32 490.496 1196.43 502.279 1210.72 517.072C1225.01 531.866 1236.2 549.371 1243.62 568.556C1251.04 587.741 1254.54 608.217 1253.92 628.777C1253.92 631.779 1253.66 634.728 1253.66 637.703C1254.47 637.361 1255.32 637.045 1256.13 636.65L1277.2 627.197C1287.41 622.567 1296.06 615.092 1302.13 605.669C1308.21 596.245 1311.43 585.271 1311.43 574.062V344.034C1311.43 333.417 1308.53 323 1303.04 313.912C1297.55 304.825 1289.68 297.412 1280.28 292.478L1121.71 208.825C1120.28 208.063 1119.1 206.903 1118.32 205.485C1117.53 204.067 1117.17 202.452 1117.28 200.834C1117.39 199.217 1117.97 197.666 1118.94 196.369C1119.92 195.073 1121.24 194.085 1122.77 193.526L1142.22 186.549C1143.2 186.224 1144.04 185.575 1144.6 184.711C1145.16 183.846 1145.41 182.817 1145.3 181.793C1145.2 180.768 1144.75 179.81 1144.02 179.076C1143.3 178.342 1142.35 177.876 1141.33 177.754C1065.76 167.222 771.775 128.779 617.344 147.658C439.083 169.486 268.248 324.075 268.248 324.075C136.935 319.257 14.4172 364.967 -38.2974 387.849C-46.7135 391.521 -54.2684 396.913 -60.4764 403.679C-66.6844 410.445 -71.4083 418.434 -74.3445 427.135L-92.3811 480.587C-94.747 487.352 -95.9922 494.458 -96.0675 501.625Z" fill="#407BFF"/>
<path d="M325.413 330.737C323.565 332.348 322.298 334.522 321.806 336.924C321.12 339.597 321.459 342.429 322.755 344.865C324.051 347.301 326.21 349.165 328.81 350.09L393.136 368.127C398.808 369.731 404.745 370.179 410.594 369.443L887.632 310.33C899.592 308.663 910.506 302.61 918.254 293.347L980.817 220.436C982.971 217.936 984.287 214.824 984.582 211.536C985.425 203.242 980.238 195.738 972.944 194.816C858.72 179.676 714.295 165.852 623.111 177.043C503.595 191.63 383.236 281.471 325.413 330.737Z" fill="#407BFF"/>
<path opacity="0.8" d="M327.572 330.737C325.716 332.346 324.439 334.52 323.938 336.924C323.261 339.6 323.606 342.433 324.906 344.868C326.206 347.303 328.368 349.165 330.969 350.09L395.295 368.127C400.967 369.731 406.904 370.179 412.753 369.443L879.1 337.477C890.712 336.003 908.644 314.649 921.23 297.349L982.871 220.436C984.998 217.919 986.311 214.816 986.636 211.536C987.479 203.242 982.265 195.738 974.998 194.816C860.774 179.676 716.349 165.852 625.138 177.043C505.727 191.63 385.395 281.471 327.572 330.737Z" fill="white"/>
<g opacity="0.3">
<path d="M639.172 376.107C638.445 375.845 637.777 375.442 637.206 374.922C636.635 374.401 636.173 373.773 635.845 373.074C635.517 372.374 635.331 371.617 635.296 370.845C635.262 370.073 635.38 369.302 635.644 368.576C636.3 366.725 637.497 365.114 639.079 363.95C640.66 362.786 642.555 362.122 644.517 362.046L701.287 359.65C702.057 359.618 702.826 359.734 703.551 359.992C704.285 360.254 704.959 360.659 705.537 361.182C706.114 361.705 706.582 362.337 706.915 363.041C707.247 363.745 707.438 364.508 707.475 365.287C707.512 366.065 707.396 366.842 707.132 367.575C706.454 369.423 705.245 371.028 703.657 372.19C702.068 373.352 700.172 374.018 698.206 374.105L641.437 376.449C640.667 376.479 639.898 376.363 639.172 376.107Z" fill="#011D2A"/>
</g>
<path d="M268.195 324.101L277.147 326.734C280.576 327.706 284.19 327.823 287.674 327.075C291.158 326.327 294.406 324.736 297.133 322.442C349.294 278.311 439.952 210.641 537.798 179.096C538.229 178.946 538.593 178.648 538.824 178.254C538.945 178.043 539.022 177.811 539.052 177.571C539.081 177.33 539.062 177.086 538.996 176.853C538.93 176.62 538.818 176.403 538.666 176.213C538.514 176.024 538.327 175.868 538.113 175.752L525.949 169.512C384.815 218.382 268.195 324.101 268.195 324.101Z" fill="#407BFF"/>
<path opacity="0.8" d="M268.195 324.101L277.147 326.734C280.576 327.706 284.19 327.823 287.674 327.075C291.158 326.327 294.406 324.736 297.133 322.442C349.294 278.311 439.952 210.641 537.798 179.096C538.229 178.946 538.593 178.648 538.824 178.254C538.945 178.043 539.022 177.811 539.052 177.571C539.081 177.33 539.062 177.086 538.996 176.853C538.93 176.62 538.818 176.403 538.666 176.213C538.514 176.024 538.327 175.868 538.113 175.752L525.949 169.512C384.815 218.382 268.195 324.101 268.195 324.101Z" fill="white"/>
<path opacity="0.2" d="M802.951 383.664L328.731 417.631L337.657 476.112C340.396 494.013 347.039 511.093 357.115 526.141L396.744 585.386L801.503 530.644L992.85 383.664H802.951Z" fill="white"/>
<path d="M321.806 336.792C321.12 339.465 321.459 342.297 322.755 344.733C324.051 347.169 326.21 349.032 328.81 349.957L393.162 367.994C398.968 369.769 404.976 370.796 411.041 371.049L431.29 369.706L412.173 266.488C368.069 295.452 365.041 296.795 325.413 330.525C323.55 332.157 322.281 334.361 321.806 336.792Z" fill="#263238"/>
<path d="M740.888 173.727L700.418 349.96L753.29 346.142L777.489 175.385C765.113 174.648 752.913 174.095 740.888 173.727Z" fill="#263238"/>
<path d="M380.312 354.726C377.254 354.764 374.219 354.198 371.38 353.062C368.541 351.925 365.954 350.24 363.768 348.102C361.581 345.965 359.838 343.417 358.637 340.604C357.437 337.792 356.803 334.77 356.772 331.712C356.712 326.406 358.463 321.239 361.738 317.064C365.013 312.889 369.615 309.956 374.783 308.752L405.8 301.484L413.7 353.462L380.944 354.699L380.312 354.726Z" fill="#407BFF"/>
<path opacity="0.3" d="M404.589 353.804L413.673 353.462L405.8 301.484L396.927 303.591L404.589 353.804Z" fill="#011D2A"/>
<path opacity="0.6" d="M711.872 576.669H711.74C711.656 576.651 711.575 576.615 711.504 576.565C711.433 576.516 711.372 576.452 711.326 576.379C711.279 576.305 711.248 576.223 711.233 576.138C711.218 576.052 711.221 575.964 711.24 575.879C711.582 574.273 745.47 415.26 749.815 393.511C751.474 385.217 752.079 369.287 751.579 346.115C751.579 345.941 751.649 345.773 751.772 345.65C751.895 345.526 752.063 345.457 752.237 345.457C752.408 345.457 752.571 345.523 752.694 345.64C752.817 345.758 752.889 345.919 752.896 346.089C753.396 369.287 752.896 385.296 751.105 393.695C746.761 415.392 712.873 574.484 712.53 576.09C712.506 576.248 712.426 576.393 712.306 576.499C712.186 576.605 712.032 576.665 711.872 576.669Z" fill="#011D2A"/>
<path opacity="0.6" d="M406.459 600.525C406.35 600.524 406.243 600.497 406.147 600.446C406.051 600.396 405.968 600.324 405.906 600.235C405.485 599.577 361.749 534.855 346.714 507.787C331.258 479.929 321.278 346.404 320.857 340.717C320.849 340.547 320.908 340.38 321.021 340.252C321.134 340.125 321.292 340.046 321.462 340.032C321.55 340.021 321.638 340.029 321.722 340.054C321.807 340.079 321.885 340.121 321.952 340.178C322.018 340.235 322.073 340.306 322.111 340.385C322.149 340.464 322.17 340.55 322.173 340.638C322.173 342.007 332.548 479.534 347.872 507.155C362.855 534.171 406.564 598.866 407.012 599.498C407.104 599.646 407.137 599.824 407.103 599.995C407.068 600.166 406.97 600.318 406.827 600.419C406.719 600.493 406.59 600.53 406.459 600.525Z" fill="#011D2A"/>
<path opacity="0.6" d="M-21.84 403.886C-21.9685 403.886 -22.0943 403.849 -22.2019 403.779C-22.3095 403.709 -22.3943 403.609 -22.4456 403.491C-22.5074 403.326 -22.5036 403.144 -22.435 402.983C-22.3664 402.821 -22.2382 402.692 -22.077 402.622C11.4686 388.903 118.978 363.126 144.203 358.992C175.985 353.91 284.573 327.105 285.653 326.841C285.827 326.802 286.011 326.832 286.163 326.925C286.316 327.019 286.426 327.168 286.469 327.342C286.489 327.426 286.491 327.514 286.476 327.6C286.462 327.686 286.43 327.767 286.384 327.841C286.337 327.914 286.277 327.978 286.205 328.028C286.134 328.078 286.054 328.113 285.969 328.132C284.889 328.395 176.248 355.2 144.414 360.308C119.926 364.231 11.1263 390.457 -21.4714 403.859L-21.84 403.886Z" fill="#011D2A"/>
<path d="M515.18 283.342C515.18 283.342 534.875 352.645 544.46 355.094C561.786 359.57 620.399 349.512 619.24 347.564L614.421 323.155C614.421 323.155 554.597 318.863 553.36 319.337L534.375 275.891L515.18 283.342Z" fill="#E1715B"/>
<path d="M534.533 288.083C534.533 288.083 540.51 282.527 540.668 275.76C540.826 268.993 542.748 263.674 542.538 258.645C542.327 253.616 538.114 258.961 536.455 262.252C534.797 265.543 532.874 269.256 530.584 267.518C528.293 265.78 518.471 243.82 515.048 241.951C511.625 240.081 512.125 244.084 512.125 244.084C512.125 244.084 509.492 238.818 507.228 239.239C506.622 239.239 505.358 240.608 506.148 243.188C507.913 249.008 512.231 261.041 512.231 261.041C511.994 260.356 505.595 245.874 504.332 243.847C502.725 241.214 500.593 240.74 499.065 241.74C496.933 243.136 504.332 261.33 503.989 262.331C503.989 262.331 500.145 251.799 496.854 251.193C493.562 250.587 495.642 257.513 498.591 263.174C501.225 268.44 505.279 279.262 508.545 284.238C512.573 290.4 516.681 293.639 523.5 292.585C527.506 292.065 531.307 290.513 534.533 288.083Z" fill="#E1715B"/>
<path opacity="0.3" d="M517.787 258.195C517.719 258.199 517.651 258.181 517.594 258.143C517.537 258.105 517.494 258.049 517.471 257.984C515.944 253.534 514.18 249.164 512.205 244.819C512.168 244.738 512.164 244.647 512.194 244.563C512.223 244.48 512.284 244.411 512.363 244.371C512.444 244.341 512.533 244.34 512.615 244.369C512.697 244.398 512.766 244.454 512.81 244.529C514.706 248.795 516.47 253.219 518.077 257.695C518.104 257.775 518.1 257.863 518.066 257.941C518.032 258.019 517.97 258.081 517.892 258.116L517.787 258.195Z" fill="#011D2A"/>
<path opacity="0.3" d="M505.359 266.913C505.308 266.91 505.259 266.897 505.213 266.874C505.168 266.852 505.128 266.82 505.095 266.781C505.066 266.752 505.043 266.717 505.027 266.678C505.011 266.64 505.002 266.599 505.002 266.557C505.002 266.516 505.011 266.475 505.027 266.436C505.043 266.398 505.066 266.363 505.095 266.334C509.865 262.416 515.678 259.981 521.816 259.329C521.902 259.322 521.989 259.347 522.057 259.401C522.126 259.455 522.171 259.533 522.184 259.619C522.192 259.663 522.19 259.707 522.179 259.75C522.168 259.793 522.148 259.833 522.121 259.868C522.094 259.902 522.06 259.931 522.021 259.952C521.982 259.972 521.939 259.985 521.895 259.988C515.885 260.626 510.193 263.005 505.517 266.834C505.474 266.876 505.418 266.904 505.359 266.913Z" fill="#011D2A"/>
<path opacity="0.3" d="M524.949 283.607C524.885 283.606 524.823 283.585 524.772 283.547C524.72 283.509 524.681 283.457 524.659 283.397C523.68 281.016 523.568 278.368 524.343 275.913C525.118 273.459 526.73 271.354 528.899 269.968C528.928 269.939 528.963 269.915 529.001 269.899C529.04 269.883 529.081 269.875 529.123 269.875C529.164 269.875 529.205 269.883 529.244 269.899C529.282 269.915 529.317 269.939 529.346 269.968C529.402 270.034 529.433 270.118 529.433 270.205C529.433 270.292 529.402 270.376 529.346 270.442C527.318 271.755 525.802 273.726 525.054 276.024C524.336 278.34 524.438 280.832 525.344 283.081C525.366 283.161 525.359 283.247 525.326 283.324C525.292 283.4 525.234 283.463 525.16 283.502L524.949 283.607Z" fill="#011D2A"/>
<path d="M669.637 260.25C669.637 260.25 691.571 241.818 690.702 235.552C689.833 229.285 686.225 231.26 686.225 231.26C686.225 231.26 693.835 216.33 686.357 213.75C678.879 211.169 678.458 213.75 678.458 213.75C678.458 213.75 681.433 201.558 675.482 197.951C670.98 195.134 669.058 200.742 669.058 200.742C669.058 200.742 660.448 187.366 650.152 187.577C645.07 187.972 642.542 191.237 643.28 195.16C643.267 195.335 643.267 195.511 643.28 195.687C643.28 195.687 622.478 186.602 612.815 192.316C603.151 198.03 615.764 204.218 615.764 204.218C615.764 204.218 595.489 202.111 591.539 210.274C588.38 216.751 597.385 221.096 597.385 221.096C595.216 221.922 593.21 223.126 591.46 224.651C590.243 225.691 589.37 227.077 588.959 228.625C588.547 230.173 588.616 231.81 589.155 233.318C589.695 234.826 590.681 236.134 591.981 237.069C593.282 238.004 594.836 238.522 596.437 238.553H596.621C597.701 238.553 599.623 238.817 600.413 238.079C600.413 238.079 596.911 245.399 604.415 247.769C611.92 250.139 615.501 241.423 615.501 241.423L669.637 260.25Z" fill="#263238"/>
<path d="M662.738 307.938C662.738 307.938 661.527 297.405 669.032 271.68L667.689 271.022C668.716 267.441 669.821 264.123 670.875 261.253C670.881 261.209 670.881 261.165 670.875 261.121L635.644 282.765C636.46 291.007 633.458 306.884 631.694 313.572L640.805 329.029L662.738 307.938Z" fill="#E1715B"/>
<path opacity="0.2" d="M635.039 294.323L655.287 289.82C653.444 296.113 647.836 303.539 633.775 304.118C634.46 300.893 634.883 297.617 635.039 294.323Z" fill="#011D2A"/>
<path d="M611.524 221.964C607.364 230.074 605.863 247.979 618.818 244.266C631.773 240.553 618.791 207.982 611.524 221.964Z" fill="#263238"/>
<path d="M671.191 244.057C668.769 266.333 667.847 278.946 655.999 289.794C638.199 306.093 611.684 294.823 607.392 272.205C603.521 251.825 608.129 218.806 630.484 211.17C635.43 209.47 640.727 209.053 645.879 209.96C651.03 210.866 655.866 213.066 659.935 216.353C664.004 219.64 667.171 223.906 669.14 228.752C671.109 233.598 671.814 238.864 671.191 244.057Z" fill="#E1715B"/>
<path d="M638.91 249.114C638.91 251.378 637.515 253.169 636.014 253.09C634.513 253.011 633.381 251.089 633.381 248.798C633.381 246.507 634.803 244.716 636.277 244.795C637.752 244.874 639.015 246.718 638.91 249.114Z" fill="#263238"/>
<path d="M616.449 248.376C616.449 250.667 615.053 252.458 613.552 252.379C612.052 252.3 610.919 250.351 611.051 248.087C611.183 245.822 612.447 244.006 613.947 244.085C615.448 244.164 616.554 246.086 616.449 248.376Z" fill="#263238"/>
<path d="M623.822 247.453C623.822 247.453 615.922 258.486 613.5 262.988C616.554 266.016 622.084 264.963 622.084 264.963L623.822 247.453Z" fill="#FD504E"/>
<path d="M644.439 236.712C644.258 236.762 644.066 236.762 643.885 236.711C643.704 236.66 643.541 236.56 643.412 236.422C642.484 235.448 641.341 234.704 640.076 234.247C638.81 233.79 637.455 233.633 636.119 233.789C635.852 233.815 635.586 233.741 635.371 233.581C635.156 233.422 635.008 233.188 634.956 232.926C634.903 232.664 634.95 232.391 635.087 232.162C635.224 231.932 635.442 231.761 635.697 231.682C637.393 231.469 639.114 231.66 640.721 232.242C642.328 232.823 643.774 233.777 644.94 235.026C645.134 235.228 645.243 235.497 645.243 235.777C645.243 236.057 645.134 236.326 644.94 236.527C644.797 236.641 644.622 236.706 644.439 236.712Z" fill="#263238"/>
<path d="M606.917 238.052C606.735 237.989 606.573 237.878 606.447 237.733C606.321 237.588 606.235 237.412 606.198 237.223C606.161 237.034 606.174 236.839 606.235 236.656C606.296 236.474 606.404 236.311 606.548 236.183C607.841 235.084 609.381 234.313 611.036 233.937C612.691 233.561 614.412 233.591 616.053 234.024C616.32 234.114 616.541 234.305 616.669 234.556C616.797 234.807 616.822 235.098 616.738 235.367C616.696 235.501 616.628 235.625 616.538 235.732C616.447 235.84 616.336 235.928 616.211 235.992C616.086 236.055 615.949 236.094 615.809 236.104C615.669 236.114 615.528 236.096 615.395 236.051C614.095 235.725 612.735 235.72 611.432 236.036C610.129 236.353 608.923 236.982 607.917 237.868C607.778 237.979 607.614 238.053 607.44 238.085C607.265 238.118 607.086 238.106 606.917 238.052Z" fill="#263238"/>
<path d="M625.112 271.257C628.719 270.125 635.328 267.702 638.54 264.332C638.957 265.112 639.267 265.945 639.462 266.807C639.833 268.321 639.833 269.902 639.462 271.415C638.672 274.496 635.96 277.84 628.719 279.841H628.561C628.561 279.841 624.638 280.842 622.663 271.942C622.636 271.968 623.611 271.731 625.112 271.257Z" fill="#263238"/>
<path d="M625.111 271.257L626.507 273.653C633.327 271.757 637.882 269.493 639.462 266.807C639.267 265.945 638.957 265.112 638.54 264.332C635.328 267.702 628.719 270.178 625.111 271.257Z" fill="white"/>
<path d="M628.745 279.84C635.986 277.839 638.698 274.574 639.488 271.414C636.743 272.233 634.166 273.535 631.878 275.258C630.385 276.425 629.291 278.026 628.745 279.84Z" fill="#FB504E"/>
<path d="M664.502 261.303C662.473 260.433 660.737 258.998 659.499 257.17C658.677 255.291 658.42 253.214 658.762 251.192C658.94 249.071 659.239 246.961 659.657 244.873C657.682 245.874 655.26 244.294 654.18 242.24C652.813 239.187 652.365 235.801 652.89 232.497C651.626 232.792 650.306 232.744 649.066 232.36C647.826 231.976 646.71 231.269 645.833 230.312C645.01 229.305 644.56 228.045 644.56 226.744C644.56 225.443 645.01 224.183 645.833 223.176C637.579 224.279 629.19 223.76 621.135 221.649C621.688 222.676 621.135 223.914 620.319 224.835C617.404 228.605 613.206 231.173 608.522 232.05C607.838 232.181 606.995 232.208 606.6 231.628C606.441 231.292 606.386 230.916 606.442 230.549C606.673 228.286 607.347 226.092 608.427 224.09C609.507 222.088 610.971 220.32 612.735 218.884C616.27 216.042 620.27 213.833 624.558 212.354C631.537 209.51 638.904 207.735 646.413 207.088C653.955 206.466 661.532 207.78 668.425 210.906C669.94 211.544 671.297 212.506 672.401 213.723C673.336 214.991 674.007 216.432 674.376 217.963C677.14 227.073 678.193 236.617 677.483 246.111" fill="#263238"/>
<path d="M679.142 263.096C678.166 265.701 676.684 268.087 674.782 270.116C672.879 272.145 670.593 273.777 668.057 274.918C661.237 277.92 656.708 272.048 657.682 265.044C658.551 258.725 663.133 249.562 670.426 249.535C677.72 249.509 681.512 256.618 679.142 263.096Z" fill="#E1715B"/>
<path opacity="0.2" d="M663.819 263.54C663.732 263.528 663.648 263.498 663.573 263.452C663.498 263.407 663.433 263.346 663.381 263.275C663.33 263.204 663.293 263.123 663.273 263.038C663.253 262.952 663.251 262.863 663.266 262.777C663.599 260.751 664.452 258.846 665.741 257.247C666.811 255.814 668.348 254.8 670.086 254.377C671.007 254.182 671.965 254.263 672.841 254.61C673.717 254.956 674.471 255.553 675.009 256.326C675.093 256.478 675.118 256.657 675.079 256.827C675.041 256.997 674.941 257.146 674.799 257.247C674.644 257.335 674.462 257.359 674.29 257.315C674.118 257.271 673.97 257.162 673.877 257.01C673.483 256.468 672.94 256.052 672.313 255.813C671.686 255.575 671.004 255.524 670.349 255.667C668.915 256.03 667.65 256.876 666.768 258.064C665.631 259.491 664.879 261.187 664.582 262.987C664.57 263.074 664.54 263.158 664.494 263.233C664.448 263.308 664.388 263.373 664.317 263.425C664.246 263.477 664.165 263.513 664.08 263.533C663.994 263.553 663.905 263.555 663.819 263.54Z" fill="#011D2A"/>
<path d="M630.036 344.298C630.036 344.298 564.551 363.441 540.774 364.284C516.997 365.126 464.414 354.015 464.414 354.015L467.39 329.843L544.645 333.792L628.641 305.75L630.036 344.298Z" fill="#E1715B"/>
<path d="M606.628 359.072L619.504 305.857L652.207 300.144C653.655 299.933 680.197 297.748 688.175 326.896L689.939 350.041L606.628 359.072Z" fill="#263238"/>
<path d="M637.436 353.752C635.619 353.752 584.774 363.047 584.774 363.047L574.241 321.602C589.047 315.491 604.185 310.216 619.583 305.804C643.808 299.247 666.505 297.22 671.718 308.437C681.54 329.975 637.436 353.752 637.436 353.752Z" fill="#263238"/>
<path opacity="0.3" d="M531.9 333.528L544.618 334.187L577.663 322.864C577.663 322.864 584.509 319.915 582.771 320.521C581.033 321.127 567.341 319.678 566.42 319.836C565.498 319.994 531.9 333.528 531.9 333.528Z" fill="#011D2A"/>
<path d="M441.978 318.863C440.478 319.759 422.968 337.848 422.968 337.848L426.391 360.282L448.403 337.558L441.978 318.863Z" fill="#263238"/>
<path d="M468.336 365.654C466.467 366.568 464.311 366.708 462.339 366.042C460.367 365.377 458.737 363.959 457.804 362.099L422.942 291.242C422.027 289.372 421.887 287.217 422.553 285.245C423.219 283.273 424.636 281.643 426.496 280.71C428.366 279.795 430.521 279.655 432.494 280.321C434.466 280.987 436.096 282.404 437.029 284.264L471.97 355.042C472.432 355.977 472.705 356.993 472.773 358.034C472.84 359.075 472.701 360.118 472.363 361.105C472.026 362.091 471.496 363.001 470.805 363.782C470.113 364.562 469.275 365.199 468.336 365.654Z" fill="#263238"/>
<path d="M493.483 331.793L464.729 327.922L456.435 317.864C456.435 317.864 441.822 316.547 438.688 319.154C435.555 321.761 432.395 330.055 432.395 330.055C432.395 330.055 428.577 336.875 435.028 340.429C435.028 340.429 430.894 346.485 438.267 350.751C438.267 350.751 432.843 353.832 440.61 357.018C443.597 358.209 446.793 358.79 450.008 358.727C453.224 358.663 456.394 357.957 459.332 356.649C463.636 355.598 468.085 355.269 472.497 355.675L498.644 360.283L493.483 331.793Z" fill="#E1715B"/>
</g>
<defs>
<clipPath id="clip0_7419_2656">
<rect width="811" height="402" fill="white"/>
</clipPath>
</defs>
</svg>
