<svg width="120" height="28" viewBox="0 0 120 28" fill="none" xmlns="http://www.w3.org/2000/svg">
<path d="M13.934 0C6.318 0 0.118735 6.22384 0.115504 13.8735C0.114696 16.3187 0.751181 18.7056 1.96034 20.8094L0 28L7.32523 26.0706C9.34373 27.176 11.6158 27.7583 13.9284 27.7591H13.934C21.5492 27.7591 27.7485 21.5345 27.7517 13.8848C27.7533 10.1776 26.3172 6.69181 23.7083 4.06975C21.0993 1.44688 17.6301 0.00162206 13.934 0ZM13.934 25.4161H13.9292C11.8687 25.4161 9.84694 24.8589 8.08368 23.8086L7.66447 23.5588L3.31812 24.704L4.47801 20.4485L4.205 20.0122C3.05561 18.176 2.4482 16.0535 2.44901 13.8751C2.45144 7.51663 7.60389 2.34388 13.9389 2.34388C17.0066 2.34469 19.8902 3.54582 22.0581 5.72587C24.2268 7.90511 25.4198 10.8029 25.419 13.884C25.4166 20.2425 20.2641 25.4161 13.934 25.4161ZM20.2334 16.7794C19.8885 16.6058 18.1907 15.7672 17.8741 15.6513C17.5574 15.5353 17.3272 15.4777 17.097 15.8248C16.8668 16.1719 16.2053 16.953 16.0042 17.1841C15.8031 17.4161 15.6011 17.4444 15.2563 17.2709C14.9114 17.0973 13.7983 16.7307 12.4801 15.5499C11.4535 14.631 10.7605 13.4955 10.5593 13.1484C10.3582 12.8013 10.5375 12.6139 10.7112 12.4412C10.8663 12.2863 11.0561 12.0365 11.2289 11.8337C11.4018 11.631 11.4591 11.4866 11.5738 11.2547C11.6885 11.0235 11.6312 10.8208 11.5448 10.6472C11.4583 10.4736 10.7677 8.76723 10.4802 8.07299C10.1999 7.39741 9.91559 7.48824 9.70316 7.4777C9.50204 7.46715 9.27184 7.46553 9.04164 7.46553C8.81144 7.46553 8.43746 7.55231 8.12084 7.89943C7.80421 8.24655 6.91248 9.08516 6.91248 10.7916C6.91248 12.498 8.14991 14.1468 8.32196 14.3779C8.49481 14.6091 10.7564 18.1111 14.2199 19.6123C15.0438 19.9692 15.6868 20.1825 16.1884 20.3423C17.0155 20.6058 17.7683 20.5685 18.3627 20.4793C19.0259 20.3796 20.4055 19.6407 20.693 18.8305C20.9806 18.0211 20.9806 17.3268 20.8941 17.1817C20.8077 17.0373 20.5775 16.9505 20.2326 16.777L20.2334 16.7794ZM44.6783 16.5677H44.6412L42.3505 7.28792H39.5897L37.261 16.4542H37.2239L35.102 7.28792H32.1538L35.7029 20.7551H38.6891L40.9232 11.588H40.9612L43.2333 20.7551H46.1629L49.7686 7.28792H46.8769L44.6791 16.5677H44.6783ZM58.7626 11.8427C58.5001 11.4972 58.1398 11.2271 57.6835 11.0316C57.2263 10.8378 56.6407 10.7405 55.9275 10.7405C55.4267 10.7405 54.9138 10.8686 54.3871 11.1273C53.8613 11.3844 53.43 11.7964 53.0916 12.3625H53.035V7.28792H50.3687V20.7543H53.035V15.6431C53.035 14.6496 53.1974 13.9367 53.5237 13.502C53.8492 13.0689 54.375 12.8516 55.1012 12.8516C55.7393 12.8516 56.1835 13.0495 56.4347 13.4461C56.6851 13.8418 56.8103 14.442 56.8103 15.2466V20.7543H59.4774V14.7567C59.4774 14.1533 59.4233 13.6034 59.3175 13.1062C59.2109 12.6107 59.0267 12.189 58.7634 11.8427H58.7626ZM69.7484 18.5856V13.5126C69.7484 12.9205 69.6175 12.4461 69.3534 12.0884C69.0909 11.7299 68.7533 11.4501 68.3405 11.249C67.927 11.0479 67.4698 10.9124 66.969 10.8435C66.4682 10.7745 65.9739 10.7397 65.486 10.7397C64.9481 10.7397 64.4126 10.7924 63.8811 10.9002C63.348 11.0073 62.8698 11.1865 62.4442 11.438C62.0185 11.6894 61.6671 12.0227 61.3933 12.4371C61.1171 12.8524 60.9604 13.3739 60.9232 14.0032H63.5895C63.6396 13.4753 63.8157 13.0973 64.1161 12.871C64.4166 12.6448 64.8294 12.532 65.3552 12.532C65.5927 12.532 65.8148 12.5474 66.0216 12.5791C66.2275 12.6107 66.4093 12.6723 66.566 12.7672C66.7227 12.8613 66.8479 12.9935 66.9416 13.1638C67.0353 13.3333 67.0821 13.5637 67.0821 13.8516C67.0942 14.129 67.0126 14.3382 66.8382 14.4834C66.6621 14.6285 66.4246 14.7388 66.1242 14.8135C65.8237 14.8897 65.4796 14.9465 65.0911 14.983C64.7026 15.0219 64.3084 15.073 63.9086 15.1346C63.5071 15.1979 63.1097 15.2822 62.7164 15.3893C62.3222 15.4955 61.97 15.6569 61.6639 15.8694C61.357 16.0843 61.1066 16.3698 60.9119 16.7283C60.7181 17.0868 60.6211 17.5434 60.6211 18.0957C60.6211 18.5985 60.7059 19.0324 60.8748 19.3966C61.0436 19.7624 61.2786 20.0633 61.5791 20.3025C61.8796 20.5418 62.2301 20.7178 62.6308 20.8313C63.0306 20.944 63.4635 21.0008 63.9263 21.0008C64.5273 21.0008 65.1161 20.9124 65.6912 20.7372C66.2671 20.5596 66.7687 20.253 67.1944 19.8118C67.2065 19.9757 67.2283 20.1363 67.2598 20.2928C67.2913 20.4493 67.3317 20.6042 67.3818 20.7543H70.086C69.9608 20.5539 69.8728 20.2522 69.8227 19.8491C69.7718 19.4469 69.7468 19.0268 69.7468 18.5856H69.7484ZM67.0821 16.9822C67.0821 17.1346 67.0668 17.3358 67.0353 17.5864C67.0046 17.8386 66.9198 18.086 66.7816 18.3317C66.6435 18.5766 66.4303 18.7883 66.1427 18.9635C65.8552 19.1403 65.4481 19.2279 64.9214 19.2279C64.709 19.2279 64.5022 19.2092 64.3019 19.1703C64.1016 19.133 63.9263 19.0665 63.7761 18.9724C63.6259 18.8783 63.5071 18.7494 63.4191 18.5856C63.3319 18.4217 63.2874 18.2214 63.2874 17.983C63.2874 17.7316 63.3319 17.5231 63.4191 17.3601C63.5071 17.1971 63.6226 17.0616 63.7672 16.9546C63.9102 16.8475 64.0798 16.7632 64.2737 16.6999C64.4675 16.6375 64.6646 16.5872 64.8657 16.5491C65.0781 16.5118 65.2914 16.4793 65.5038 16.455C65.7179 16.4307 65.9206 16.3982 66.1145 16.3609C66.3091 16.3228 66.4901 16.2758 66.6597 16.219C66.8285 16.1622 66.969 16.0852 67.0821 15.9838V16.983V16.9822ZM74.7256 8.08029H72.0585V11.0032H70.4438V12.7948H72.0585V18.5483C72.0585 19.0389 72.1409 19.4347 72.3032 19.7364C72.4664 20.0381 72.6885 20.2717 72.9696 20.4347C73.2515 20.5985 73.577 20.708 73.9469 20.764C74.3153 20.82 74.7078 20.8491 75.1206 20.8491C75.3847 20.8491 75.6528 20.8427 75.9291 20.8313C76.2037 20.8183 76.4541 20.794 76.6803 20.7551V18.6805C76.5543 18.7056 76.4234 18.7259 76.2853 18.7372C76.148 18.7502 76.0042 18.7567 75.854 18.7567C75.4041 18.7567 75.1028 18.6805 74.9525 18.5296C74.8031 18.3788 74.728 18.077 74.728 17.6237V12.7948H76.6811V11.0032H74.728V8.08029H74.7256ZM85.7477 16.4834C85.5725 16.1752 85.3407 15.9173 85.0531 15.7097C84.7656 15.5028 84.436 15.3358 84.0677 15.2092C83.6978 15.0843 83.3189 14.9781 82.9312 14.8897C82.5556 14.8013 82.1873 14.7194 81.8238 14.644C81.4604 14.5685 81.1381 14.4834 80.8562 14.3901C80.5751 14.2952 80.3473 14.1736 80.1721 14.0219C79.996 13.871 79.9095 13.6772 79.9095 13.4371C79.9095 13.236 79.958 13.0754 80.059 12.9562C80.1591 12.837 80.2819 12.7461 80.4257 12.6821C80.5703 12.6196 80.7286 12.5791 80.9038 12.5596C81.0791 12.541 81.2423 12.532 81.3917 12.532C81.8675 12.532 82.281 12.6229 82.6324 12.8054C82.9821 12.9878 83.1768 13.3366 83.2131 13.8516H85.7486C85.6985 13.2482 85.545 12.7486 85.289 12.352C85.0329 11.9562 84.7098 11.6391 84.3221 11.3998C83.9344 11.1606 83.4934 10.9911 82.9975 10.8905C82.5031 10.7899 81.9935 10.7397 81.4684 10.7397C80.9434 10.7397 80.4281 10.7867 79.9289 10.88C79.4273 10.9749 78.9766 11.1387 78.5768 11.3715C78.1754 11.6042 77.8539 11.9213 77.6091 12.3236C77.3644 12.7259 77.2424 13.2417 77.2424 13.8702C77.2424 14.2976 77.3305 14.6602 77.5066 14.9554C77.6802 15.2514 77.9128 15.4955 78.1996 15.691C78.4888 15.8856 78.8175 16.0438 79.1866 16.1622C79.5558 16.2831 79.9346 16.3861 80.3223 16.4745C81.2746 16.6756 82.0169 16.8767 82.5484 17.0787C83.0807 17.2798 83.3464 17.5815 83.3464 17.9838C83.3464 18.223 83.2907 18.4193 83.1776 18.5766C83.0645 18.7348 82.924 18.8597 82.7551 18.9538C82.5855 19.0487 82.3973 19.1184 82.1914 19.1614C81.9846 19.206 81.7867 19.2279 81.5993 19.2279C81.336 19.2279 81.0832 19.1963 80.8392 19.1338C80.5945 19.0706 80.3788 18.9732 80.1906 18.841C80.0032 18.7088 79.849 18.5393 79.7302 18.3317C79.6123 18.1241 79.5517 17.8767 79.5517 17.5864H77.0171C77.0429 18.2401 77.1891 18.7843 77.4589 19.2182C77.7271 19.6521 78.0712 20.0008 78.4912 20.2652C78.9104 20.5288 79.3902 20.7178 79.9289 20.8313C80.4661 20.944 81.0169 21.0008 81.5799 21.0008C82.1429 21.0008 82.6728 20.9473 83.205 20.841C83.7373 20.734 84.2099 20.5483 84.6226 20.2839C85.037 20.0203 85.3697 19.6715 85.6274 19.2376C85.8834 18.8029 86.0119 18.266 86.0119 17.6245C86.0119 17.1711 85.9246 16.7916 85.7494 16.4842L85.7477 16.4834ZM91.0432 7.28792L85.9731 20.7551H88.9399L89.9907 17.7559H95.0051L96.0179 20.7551H99.08L94.0665 7.28792H91.0424H91.0432ZM90.7621 15.5499L92.5084 10.6083H92.5455L94.2361 15.5499H90.7621ZM108.301 12.3244C107.938 11.8467 107.481 11.4631 106.93 11.1744C106.379 10.8848 105.723 10.7405 104.959 10.7405C104.358 10.7405 103.808 10.8597 103.307 11.0981C102.804 11.3374 102.392 11.721 102.068 12.249H102.03V11.0032H99.4936V24.1695H102.162V19.5483H102.199C102.524 20.0268 102.941 20.3877 103.449 20.6318C103.955 20.8767 104.51 21 105.11 21C105.824 21 106.447 20.8605 106.979 20.5848C107.511 20.3082 107.955 19.9367 108.312 19.4712C108.669 19.0057 108.934 18.472 109.111 17.8686C109.285 17.2644 109.374 16.6358 109.374 15.9822C109.374 15.2903 109.285 14.6277 109.111 13.9919C108.934 13.3577 108.666 12.8005 108.303 12.3228L108.301 12.3244ZM106.593 17.0584C106.517 17.4363 106.388 17.7656 106.207 18.0487C106.026 18.3317 105.788 18.562 105.493 18.7372C105.199 18.9132 104.833 19.0024 104.395 19.0024C103.957 19.0024 103.607 18.914 103.307 18.7372C103.006 18.562 102.765 18.3317 102.583 18.0487C102.401 17.7656 102.271 17.4363 102.189 17.0584C102.107 16.6813 102.068 16.2976 102.068 15.9092C102.068 15.5207 102.104 15.116 102.179 14.7397C102.255 14.3625 102.383 14.0292 102.565 13.7388C102.745 13.4501 102.985 13.2149 103.279 13.0324C103.573 12.85 103.938 12.7575 104.377 12.7575C104.816 12.7575 105.164 12.85 105.457 13.0324C105.751 13.2141 105.992 13.4526 106.18 13.7486C106.367 14.0446 106.501 14.3812 106.584 14.7575C106.666 15.1346 106.705 15.5191 106.705 15.9092C106.705 16.2993 106.669 16.6821 106.593 17.0584H106.593ZM119.737 13.9935C119.561 13.3593 119.292 12.8021 118.929 12.3244C118.565 11.8467 118.11 11.4631 117.559 11.1744C117.007 10.8848 116.35 10.7405 115.587 10.7405C114.986 10.7405 114.435 10.8597 113.935 11.0981C113.434 11.3374 113.02 11.721 112.695 12.249H112.659V11.0032H110.123V24.1695H112.789V19.5483H112.827C113.153 20.0268 113.57 20.3877 114.076 20.6318C114.583 20.8767 115.138 21 115.738 21C116.452 21 117.074 20.8605 117.607 20.5848C118.138 20.3082 118.583 19.9367 118.939 19.4712C119.297 19.0057 119.562 18.472 119.737 17.8686C119.914 17.2644 120.001 16.6358 120.001 15.9822C120.001 15.2903 119.914 14.6277 119.737 13.9919L119.737 13.9935ZM117.22 17.0584C117.146 17.4363 117.017 17.7656 116.835 18.0487C116.653 18.3317 116.415 18.562 116.121 18.7372C115.827 18.9132 115.461 19.0024 115.023 19.0024C114.584 19.0024 114.234 18.914 113.933 18.7372C113.632 18.562 113.392 18.3317 113.209 18.0487C113.029 17.7656 112.897 17.4363 112.815 17.0584C112.734 16.6813 112.693 16.2976 112.693 15.9092C112.693 15.5207 112.731 15.116 112.806 14.7397C112.882 14.3625 113.01 14.0292 113.192 13.7388C113.373 13.4501 113.611 13.2149 113.906 13.0324C114.199 12.85 114.566 12.7575 115.004 12.7575C115.443 12.7575 115.789 12.85 116.083 13.0324C116.378 13.2141 116.619 13.4526 116.807 13.7486C116.995 14.0446 117.13 14.3812 117.211 14.7575C117.293 15.1346 117.333 15.5191 117.333 15.9092C117.333 16.2993 117.295 16.6821 117.22 17.0584Z" fill="#25D366"/>
</svg>
